<svg width="24" height="24" viewBox="0 0 24 24" fill="none" xmlns="http://www.w3.org/2000/svg">
<path d="M6.22069 4.25C6.22069 3.55964 5.66105 3 4.9707 3C4.28034 3 3.7207 3.55964 3.7207 4.25V19.7517C3.7207 20.4421 4.28034 21.0017 4.9707 21.0017C5.66105 21.0017 6.22069 20.4421 6.22069 19.7517V16.0422C8.2646 14.3384 10.3623 15.1047 12.4715 15.8752C14.6293 16.6635 16.7991 17.4561 18.9354 15.6125C19.7881 14.8789 20.2683 13.6879 20.2683 12.4516V5.40811C20.2683 4.57649 19.399 4.22488 18.7533 4.73661C16.4547 6.55816 14.3134 5.7441 12.222 4.94902C10.2073 4.18308 8.2388 3.43475 6.22069 5.07715V4.25Z" fill="currentColor"/>
</svg>
