<svg width="24" height="24" viewBox="0 0 24 24" fill="none" xmlns="http://www.w3.org/2000/svg">
<path fill-rule="evenodd" clip-rule="evenodd" d="M10.8552 2.5498C8.92221 2.5498 7.35521 4.1168 7.35521 6.0498V6.15452H6.14999C4.4103 6.15452 3 7.56441 3 9.3036V18.301C3 20.0402 4.4103 21.4501 6.14999 21.4501H17.8499C19.5896 21.4501 20.9999 20.0402 20.9999 18.301V9.3036C20.9999 7.56441 19.5896 6.15452 17.8499 6.15452H16.5552V6.0498C16.5552 4.11681 14.9882 2.5498 13.0552 2.5498H10.8552ZM14.5552 6.15452V6.0498C14.5552 5.22138 13.8836 4.5498 13.0552 4.5498H10.8552C10.0268 4.5498 9.3552 5.22138 9.3552 6.0498V6.15452H14.5552Z" fill="currentColor"/>
</svg>
