<svg width="24" height="24" viewBox="0 0 24 24" fill="none" xmlns="http://www.w3.org/2000/svg">
<path d="M20.7639 18.3493C21.2606 18.3496 21.6641 18.753 21.6643 19.2497C21.6643 19.7466 21.2607 20.1498 20.7639 20.1501H4.76392C4.26692 20.15 3.86353 19.7467 3.86353 19.2497C3.86372 18.7528 4.26703 18.3494 4.76392 18.3493H20.7639Z" fill="currentColor"/>
<path fill-rule="evenodd" clip-rule="evenodd" d="M7.81568 3.99677C7.93382 4.04871 8.0421 4.12387 8.12427 4.20283C8.30856 4.37991 8.39275 4.58552 8.42017 4.65009C8.47798 4.78611 8.53485 4.96146 8.58717 5.11982L8.87916 6.00459C9.00301 6.37945 9.08417 6.61843 9.14812 6.78388C9.21203 6.94922 9.25875 7.04112 9.31373 7.12177C9.42598 7.28613 9.56951 7.42957 9.73365 7.54169C9.85466 7.62415 10.0025 7.68823 10.3831 7.81904C10.5101 7.86271 10.6638 7.91446 10.8508 7.97627L11.7356 8.26826C11.8939 8.32057 12.0693 8.37745 12.2053 8.43525C12.2561 8.45679 12.3935 8.51219 12.5357 8.6247C12.6522 8.71684 12.7355 8.82751 12.8147 8.95087C12.9804 9.30601 13.0087 9.69923 12.8147 10.0544C12.6269 10.3974 12.2915 10.5334 12.2053 10.57C12.0693 10.6279 11.8941 10.6846 11.7356 10.737L10.8508 11.029C10.1012 11.2767 9.89503 11.3536 9.73365 11.4636C9.56905 11.5759 9.42613 11.7189 9.31373 11.8835C9.20369 12.0448 9.12627 12.2528 8.87916 13.0007L8.58717 13.8854C8.53486 14.0438 8.47797 14.2191 8.42017 14.3552C8.3837 14.441 8.24759 14.7766 7.90455 14.9645C7.56089 15.1525 7.14477 15.1523 6.80103 14.9645C6.45815 14.7768 6.32195 14.4412 6.28541 14.3552C6.2276 14.2191 6.17074 14.0438 6.11842 13.8854L5.82642 13.0007C5.57883 12.2513 5.50183 12.0448 5.39185 11.8835C5.27975 11.7194 5.13625 11.5758 4.97193 11.4636C4.81071 11.3537 4.60256 11.2761 3.85474 11.029L2.96998 10.737C2.81172 10.6847 2.63621 10.6278 2.50025 10.57C2.41434 10.5335 2.07831 10.3965 1.89088 10.0544C1.70308 9.71069 1.70301 9.29455 1.89088 8.95087C1.97061 8.82674 2.05471 8.71713 2.17213 8.6247C2.27287 8.54564 2.38084 8.48598 2.50025 8.43525C2.6363 8.37743 2.8116 8.32059 2.96998 8.26826L3.85474 7.97627C4.04227 7.91431 4.19625 7.86278 4.32349 7.81904C4.7041 7.68818 4.85098 7.6242 4.97193 7.54169C5.13651 7.4293 5.27948 7.28637 5.39185 7.12177C5.44681 7.04113 5.49407 6.94902 5.55787 6.78388C5.62171 6.61861 5.70267 6.37915 5.82642 6.00459L6.11842 5.11982C6.17074 4.96144 6.2276 4.7861 6.28541 4.65009C6.31287 4.58542 6.39599 4.38021 6.58033 4.20283C6.67346 4.11337 6.77938 4.05082 6.8952 3.99677C7.18126 3.86328 7.52861 3.8707 7.81568 3.99677ZM7.35279 7.11103C7.2149 7.50827 7.07944 7.84241 6.87818 8.1374C6.63933 8.48719 6.33639 8.79018 5.98658 9.029C5.69153 9.23027 5.35755 9.36569 4.96021 9.50361C5.35771 9.64159 5.69145 9.77679 5.98658 9.97822C6.33652 10.2172 6.63931 10.5198 6.87818 10.8698C7.0793 11.1647 7.21496 11.4982 7.35279 11.8952C7.4906 11.4983 7.62632 11.1646 7.8274 10.8698C8.06627 10.5199 8.36912 10.2171 8.719 9.97822C9.01388 9.77705 9.34735 9.64145 9.74439 9.50361C9.3473 9.36576 9.01391 9.23015 8.719 9.029C8.36903 8.79014 8.06634 8.4873 7.8274 8.1374C7.62601 7.84232 7.49074 7.50843 7.35279 7.11103Z" fill="currentColor"/>
<path d="M20.7639 11.8493C21.2607 11.8495 21.6641 12.2529 21.6643 12.7497C21.6643 13.2466 21.2608 13.6499 20.7639 13.6501H13.0501C12.5532 13.6498 12.1506 13.2466 12.1506 12.7497C12.1508 12.253 12.5533 11.8496 13.0501 11.8493H20.7639Z" fill="currentColor"/>
<path d="M20.7639 5.34931C21.2607 5.34955 21.6641 5.75295 21.6643 6.2497C21.6643 6.74661 21.2608 7.14985 20.7639 7.15009H14.5501C14.0532 7.14984 13.6506 6.7466 13.6506 6.2497C13.6508 5.75296 14.0533 5.34957 14.5501 5.34931H20.7639Z" fill="currentColor"/>
</svg>
