<svg width="24" height="24" viewBox="0 0 24 24" fill="none" xmlns="http://www.w3.org/2000/svg">
<path d="M4.49961 4.60034C4.00255 4.60034 3.59961 5.00329 3.59961 5.50034C3.59961 5.9974 4.00255 6.40034 4.49961 6.40034H19.4996C19.9967 6.40034 20.3996 5.9974 20.3996 5.50034C20.3996 5.00329 19.9967 4.60034 19.4996 4.60034H4.49961Z" fill="currentColor"/>
<path d="M9.49961 8.93367C9.00255 8.93367 8.59961 9.33661 8.59961 9.83367C8.59961 10.3307 9.00255 10.7337 9.49961 10.7337H19.4996C19.9967 10.7337 20.3996 10.3307 20.3996 9.83367C20.3996 9.33661 19.9967 8.93367 19.4996 8.93367H9.49961Z" fill="currentColor"/>
<path d="M3.59961 14.167C3.59961 13.6699 4.00255 13.267 4.49961 13.267H19.4996C19.9967 13.267 20.3996 13.6699 20.3996 14.167C20.3996 14.664 19.9967 15.067 19.4996 15.067H4.49961C4.00255 15.067 3.59961 14.664 3.59961 14.167Z" fill="currentColor"/>
<path d="M9.49961 17.6003C9.00255 17.6003 8.59961 18.0032 8.59961 18.5003C8.59961 18.9974 9.00255 19.4003 9.49961 19.4003H19.4996C19.9967 19.4003 20.3996 18.9974 20.3996 18.5003C20.3996 18.0032 19.9967 17.6003 19.4996 17.6003H9.49961Z" fill="currentColor"/>
</svg>
