<svg width="24" height="24" viewBox="0 0 24 24" fill="none" xmlns="http://www.w3.org/2000/svg">
<path d="M4.49961 4.60034C4.00255 4.60034 3.59961 5.00329 3.59961 5.50034C3.59961 5.9974 4.00255 6.40034 4.49961 6.40034H19.4996C19.9967 6.40034 20.3996 5.9974 20.3996 5.50034C20.3996 5.00329 19.9967 4.60034 19.4996 4.60034H4.49961Z" fill="currentColor"/>
<path d="M4.49961 8.93368C4.00255 8.93368 3.59961 9.33662 3.59961 9.83368C3.59961 10.3307 4.00255 10.7337 4.49961 10.7337H19.4996C19.9967 10.7337 20.3996 10.3307 20.3996 9.83368C20.3996 9.33662 19.9967 8.93368 19.4996 8.93368H4.49961Z" fill="currentColor"/>
<path d="M3.59961 14.167C3.59961 13.67 4.00255 13.267 4.49961 13.267H19.4996C19.9967 13.267 20.3996 13.67 20.3996 14.167C20.3996 14.6641 19.9967 15.067 19.4996 15.067H4.49961C4.00255 15.067 3.59961 14.6641 3.59961 14.167Z" fill="currentColor"/>
<path d="M4.49961 17.6003C4.00255 17.6003 3.59961 18.0033 3.59961 18.5003C3.59961 18.9974 4.00255 19.4003 4.49961 19.4003H19.4996C19.9967 19.4003 20.3996 18.9974 20.3996 18.5003C20.3996 18.0033 19.9967 17.6003 19.4996 17.6003H4.49961Z" fill="currentColor"/>
</svg>
