<svg width="24" height="24" viewBox="0 0 24 24" fill="none" xmlns="http://www.w3.org/2000/svg">
<path d="M4.49961 4.60034C4.00255 4.60034 3.59961 5.00329 3.59961 5.50034C3.59961 5.9974 4.00255 6.40034 4.49961 6.40034H19.4996C19.9967 6.40034 20.3996 5.9974 20.3996 5.50034C20.3996 5.00329 19.9967 4.60034 19.4996 4.60034H4.49961Z" fill="currentColor"/>
<path d="M6.99961 8.93367C6.50255 8.93367 6.09961 9.33661 6.09961 9.83367C6.09961 10.3307 6.50255 10.7337 6.99961 10.7337H16.9996C17.4967 10.7337 17.8996 10.3307 17.8996 9.83367C17.8996 9.33661 17.4967 8.93367 16.9996 8.93367H6.99961Z" fill="currentColor"/>
<path d="M3.59961 14.167C3.59961 13.6699 4.00255 13.267 4.49961 13.267H19.4996C19.9967 13.267 20.3996 13.6699 20.3996 14.167C20.3996 14.664 19.9967 15.067 19.4996 15.067H4.49961C4.00255 15.067 3.59961 14.664 3.59961 14.167Z" fill="currentColor"/>
<path d="M6.99961 17.6003C6.50255 17.6003 6.09961 18.0032 6.09961 18.5003C6.09961 18.9974 6.50255 19.4003 6.99961 19.4003H16.9996C17.4967 19.4003 17.8996 18.9974 17.8996 18.5003C17.8996 18.0032 17.4967 17.6003 16.9996 17.6003H6.99961Z" fill="currentColor"/>
</svg>
