<svg width="24" height="24" viewBox="0 0 24 24" fill="none" xmlns="http://www.w3.org/2000/svg">
<path d="M18.5996 3.6001C17.6055 3.6001 16.7996 4.40599 16.7996 5.4001C16.7996 6.39421 17.6055 7.2001 18.5996 7.2001C19.5937 7.2001 20.3996 6.39421 20.3996 5.4001C20.3996 4.40599 19.5937 3.6001 18.5996 3.6001Z" fill="currentColor"/>
<path d="M16.7996 12.0001C16.7996 11.006 17.6055 10.2001 18.5996 10.2001C19.5937 10.2001 20.3996 11.006 20.3996 12.0001C20.3996 12.9942 19.5937 13.8001 18.5996 13.8001C17.6055 13.8001 16.7996 12.9942 16.7996 12.0001Z" fill="currentColor"/>
<path d="M5.3996 16.8001C4.40549 16.8001 3.59961 17.606 3.59961 18.6001C3.59961 19.5942 4.40549 20.4001 5.3996 20.4001C6.39371 20.4001 7.1996 19.5942 7.1996 18.6001C7.1996 17.606 6.39371 16.8001 5.3996 16.8001Z" fill="currentColor"/>
<path d="M10.1996 18.6001C10.1996 17.606 11.0055 16.8001 11.9996 16.8001C12.9937 16.8001 13.7996 17.606 13.7996 18.6001C13.7996 19.5942 12.9937 20.4001 11.9996 20.4001C11.0055 20.4001 10.1996 19.5942 10.1996 18.6001Z" fill="currentColor"/>
<path d="M16.7996 18.6001C16.7996 17.606 17.6055 16.8001 18.5996 16.8001C19.5937 16.8001 20.3996 17.606 20.3996 18.6001C20.3996 19.5942 19.5937 20.4001 18.5996 20.4001C17.6055 20.4001 16.7996 19.5942 16.7996 18.6001Z" fill="currentColor"/>
<path d="M11.9996 10.2001C11.0055 10.2001 10.1996 11.006 10.1996 12.0001C10.1996 12.9942 11.0055 13.8001 11.9996 13.8001C12.9937 13.8001 13.7996 12.9942 13.7996 12.0001C13.7996 11.006 12.9937 10.2001 11.9996 10.2001Z" fill="currentColor"/>
<path d="M3.59961 12.0001C3.59961 11.006 4.40549 10.2001 5.3996 10.2001C6.39371 10.2001 7.1996 11.006 7.1996 12.0001C7.1996 12.9942 6.39371 13.8001 5.3996 13.8001C4.40549 13.8001 3.59961 12.9942 3.59961 12.0001Z" fill="currentColor"/>
<path d="M10.1996 5.4001C10.1996 4.40599 11.0055 3.6001 11.9996 3.6001C12.9937 3.6001 13.7996 4.40599 13.7996 5.4001C13.7996 6.39421 12.9937 7.2001 11.9996 7.2001C11.0055 7.2001 10.1996 6.39421 10.1996 5.4001Z" fill="currentColor"/>
<path d="M5.3996 3.6001C4.40549 3.6001 3.59961 4.40599 3.59961 5.4001C3.59961 6.39421 4.40549 7.2001 5.3996 7.2001C6.39371 7.2001 7.1996 6.39421 7.1996 5.4001C7.1996 4.40599 6.39371 3.6001 5.3996 3.6001Z" fill="currentColor"/>
</svg>
