<svg width="24" height="24" viewBox="0 0 24 24" fill="none" xmlns="http://www.w3.org/2000/svg">
<path d="M5.89961 3.99717C5.89961 3.50011 5.49667 3.09717 4.99961 3.09717C4.50255 3.09717 4.09961 3.50011 4.09961 3.99717V5.5369C4.0996 6.90337 4.0996 7.98396 4.17072 8.85445C4.24339 9.74386 4.39477 10.4929 4.74267 11.1757C5.30832 12.2859 6.21091 13.1885 7.32107 13.7541C8.00387 14.102 8.75291 14.2534 9.64233 14.3261C10.5128 14.3972 11.5934 14.3972 12.9598 14.3972H17.3282L13.8632 17.8621C13.5117 18.2136 13.5117 18.7835 13.8632 19.1349C14.2147 19.4864 14.7845 19.4864 15.136 19.1349L20.136 14.1349C20.4875 13.7835 20.4875 13.2136 20.136 12.8621L15.136 7.86214C14.7845 7.51067 14.2147 7.51067 13.8632 7.86214C13.5117 8.21361 13.5117 8.78346 13.8632 9.13493L17.3254 12.5972H12.9996C11.5846 12.5972 10.5775 12.5965 9.78891 12.532C9.0108 12.4685 8.52501 12.3474 8.13825 12.1503C7.36678 11.7572 6.73956 11.13 6.34648 10.3585C6.14942 9.97177 6.02831 9.48597 5.96474 8.70787C5.90031 7.91926 5.89961 6.91215 5.89961 5.49717V3.99717Z" fill="currentColor"/>
</svg>
