<svg width="24" height="24" viewBox="0 0 24 24" fill="none" xmlns="http://www.w3.org/2000/svg">
<path d="M19.8996 3.99717C19.8996 3.50011 19.4967 3.09717 18.9996 3.09717C18.5026 3.09717 18.0996 3.50011 18.0996 3.99717V5.49717C18.0996 6.91215 18.0989 7.91926 18.0345 8.70787C17.9709 9.48597 17.8498 9.97177 17.6527 10.3585C17.2597 11.13 16.6324 11.7572 15.861 12.1503C15.4742 12.3474 14.9884 12.4685 14.2103 12.532C13.4217 12.5965 12.4146 12.5972 10.9996 12.5972H6.67387L10.136 9.13503C10.4875 8.78356 10.4875 8.21371 10.136 7.86224C9.78453 7.51077 9.21469 7.51077 8.86321 7.86224L3.86321 12.8622C3.51174 13.2137 3.51174 13.7836 3.86321 14.135L8.86321 19.135C9.21469 19.4865 9.78453 19.4865 10.136 19.135C10.4875 18.7836 10.4875 18.2137 10.136 17.8622L6.67094 14.3972H11.0393C12.4058 14.3972 13.4864 14.3972 14.3569 14.3261C15.2463 14.2534 15.9954 14.102 16.6782 13.7541C17.7883 13.1885 18.6909 12.2859 19.2565 11.1757C19.6045 10.4929 19.7558 9.74386 19.8285 8.85445C19.8996 7.98396 19.8996 6.90337 19.8996 5.5369V3.99717Z" fill="currentColor"/>
</svg>
