<svg width="24" height="24" viewBox="0 0 24 24" fill="none" xmlns="http://www.w3.org/2000/svg">
<path d="M6.68856 4.37443C7.94605 2.88789 9.77544 2.1001 12.0007 2.1001C14.2259 2.1001 16.0553 2.88789 17.3128 4.37443C18.5529 5.84044 19.1506 7.8832 19.1506 10.2501L19.1506 11.0001C19.1506 13.4652 19.8339 14.9249 20.807 15.8682C21.1885 16.2381 21.2281 16.7499 21.0917 17.1264C20.953 17.5094 20.5729 17.9001 20.0011 17.9001H4.00026C3.42839 17.9001 3.04829 17.5094 2.90959 17.1264C2.7732 16.7499 2.81281 16.2381 3.19435 15.8682C4.16747 14.9249 4.8507 13.4652 4.8507 11.0001L4.8507 10.2501C4.8507 7.8832 5.44844 5.84044 6.68856 4.37443Z" fill="currentColor"/>
<path d="M9.10069 20.9999C9.10069 20.5029 9.50363 20.0999 10.0007 20.0999H14.0007C14.4977 20.0999 14.9007 20.5029 14.9007 20.9999C14.9007 21.497 14.4977 21.8999 14.0007 21.8999H10.0007C9.50363 21.8999 9.10069 21.497 9.10069 20.9999Z" fill="currentColor"/>
</svg>
