<svg width="24" height="24" viewBox="0 0 24 24" fill="none" xmlns="http://www.w3.org/2000/svg">
<path fill-rule="evenodd" clip-rule="evenodd" d="M12.0007 2.1001C9.7755 2.1001 7.94611 2.88789 6.68862 4.37443C5.4485 5.84044 4.85076 7.8832 4.85076 10.2501L4.85076 11.0001C4.85076 13.4652 4.16753 14.9249 3.19441 15.8682C2.81287 16.2381 2.77327 16.7499 2.90965 17.1264C3.04835 17.5094 3.42845 17.9001 4.00032 17.9001H20.0011C20.573 17.9001 20.9531 17.5094 21.0918 17.1264C21.2282 16.7499 21.1886 16.2381 20.807 15.8682C19.8339 14.9249 19.1507 13.4652 19.1507 11.0001L19.1507 10.2501C19.1507 7.8832 18.553 5.84044 17.3128 4.37443C16.0554 2.88789 14.226 2.1001 12.0007 2.1001ZM6.65075 10.2501C6.65075 8.16522 7.17801 6.58298 8.06287 5.53693C8.93038 4.51142 10.226 3.9001 12.0007 3.9001C13.7755 3.9001 15.0711 4.51142 15.9386 5.53693C16.8235 6.58297 17.3507 8.16522 17.3507 10.2501L17.3507 11.0001C17.3507 13.1628 17.8188 14.8273 18.6694 16.1001H5.33204C6.18261 14.8273 6.65075 13.1628 6.65075 11.0001L6.65075 10.2501Z" fill="currentColor"/>
<path d="M10.0007 20.0999C9.50369 20.0999 9.10075 20.5029 9.10075 20.9999C9.10075 21.497 9.50369 21.8999 10.0007 21.8999H14.0007C14.4978 21.8999 14.9007 21.497 14.9007 20.9999C14.9007 20.5029 14.4978 20.0999 14.0007 20.0999H10.0007Z" fill="currentColor"/>
</svg>
