<svg width="24" height="24" viewBox="0 0 24 24" fill="none" xmlns="http://www.w3.org/2000/svg">
<path d="M6.68844 4.37443C7.94592 2.88789 9.77531 2.1001 12.0005 2.1001C12.2848 2.1001 12.5631 2.11289 12.835 2.13849C13.3298 2.18509 13.6932 2.62404 13.6466 3.11891C13.6 3.61377 13.1611 3.97717 12.6662 3.93057C12.4527 3.91046 12.2309 3.9001 12.0005 3.9001C10.2258 3.9001 8.93019 4.51142 8.06269 5.53693C7.17782 6.58298 6.65057 8.16522 6.65057 10.2501L6.65057 11.0001C6.65057 13.1628 6.18243 14.8273 5.33185 16.1001H18.6693C17.9283 14.991 17.4756 13.582 17.373 11.8018C17.3444 11.3055 17.7235 10.8801 18.2197 10.8515C18.716 10.8229 19.1414 11.202 19.17 11.6982C19.2878 13.7431 19.9256 15.014 20.8069 15.8682C21.1884 16.2381 21.228 16.7499 21.0916 17.1265C20.9529 17.5094 20.5728 17.9001 20.0009 17.9001H4.00013C3.42827 17.9001 3.04817 17.5094 2.90947 17.1264C2.77308 16.7499 2.81269 16.2381 3.19423 15.8682C4.16734 14.9249 4.85057 13.4652 4.85057 11.0001L4.85057 10.2501C4.85057 7.8832 5.44831 5.84044 6.68844 4.37443Z" fill="currentColor"/>
<path d="M9.10058 21C9.10058 20.5029 9.50353 20.1 10.0006 20.1H14.0006C14.4976 20.1 14.9006 20.5029 14.9006 21C14.9006 21.4971 14.4976 21.9 14.0006 21.9H10.0006C9.50353 21.9 9.10058 21.4971 9.10058 21Z" fill="currentColor"/>
<path d="M19.1506 3.00012C19.1506 2.50307 18.7477 2.10012 18.2506 2.10012C17.7536 2.10012 17.3506 2.50307 17.3506 3.00012V4.60012H15.7506C15.2536 4.60012 14.8506 5.00307 14.8506 5.50012C14.8506 5.99718 15.2536 6.40012 15.7506 6.40012H17.3506V8.00012C17.3506 8.49718 17.7536 8.90012 18.2506 8.90012C18.7477 8.90012 19.1506 8.49718 19.1506 8.00012V6.40012H20.7506C21.2477 6.40012 21.6506 5.99718 21.6506 5.50012C21.6506 5.00307 21.2477 4.60012 20.7506 4.60012H19.1506V3.00012Z" fill="currentColor"/>
</svg>
