<svg width="24" height="24" viewBox="0 0 24 24" fill="none" xmlns="http://www.w3.org/2000/svg">
<path fill-rule="evenodd" clip-rule="evenodd" d="M5.41419 3.3501C4.88436 3.35009 4.43313 3.35007 4.06272 3.38034C3.67356 3.41213 3.29497 3.48177 2.93303 3.66618C2.38737 3.94421 1.94372 4.38786 1.66569 4.93353C1.48128 5.29546 1.41165 5.67406 1.37985 6.06322C1.34959 6.43363 1.3496 6.88478 1.34961 7.41462V15.3355C1.3496 15.8653 1.34959 16.3166 1.37985 16.687C1.41165 17.0761 1.48128 17.4547 1.66569 17.8167C1.94372 18.3623 2.38737 18.806 2.93303 19.084C3.29497 19.2684 3.67356 19.3381 4.06272 19.3699C4.43315 19.4001 4.88432 19.4001 5.41419 19.4001H7.51136C8.28797 19.4001 8.52959 19.4059 8.74718 19.4581C8.96145 19.5096 9.1663 19.5944 9.35419 19.7096C9.54499 19.8265 9.71993 19.9932 10.2691 20.5424L11.3632 21.6365C11.5353 21.8086 11.7654 21.9001 11.9996 21.9001C12.2311 21.9002 12.4692 21.8034 12.636 21.6365L13.7301 20.5424C14.2793 19.9932 14.4542 19.8265 14.645 19.7096C14.8329 19.5944 15.0377 19.5096 15.252 19.4581C15.4696 19.4059 15.7112 19.4001 16.4878 19.4001H18.585C19.1149 19.4001 19.566 19.4001 19.9365 19.3699C20.3256 19.3381 20.7042 19.2684 21.0662 19.084C21.6118 18.806 22.0555 18.3623 22.3335 17.8167C22.5179 17.4547 22.5875 17.0761 22.6193 16.687C22.6496 16.3166 22.6496 15.8654 22.6496 15.3356V7.4147C22.6496 6.88485 22.6496 6.43364 22.6193 6.06322C22.5875 5.67406 22.5179 5.29546 22.3335 4.93353C22.0555 4.38786 21.6118 3.94421 21.0662 3.66618C20.7042 3.48177 20.3256 3.41213 19.9365 3.38034C19.5661 3.35007 19.1149 3.35009 18.5851 3.3501H16.7619C15.9539 3.35009 15.293 3.35008 14.7559 3.39396C14.2 3.43938 13.6979 3.53626 13.229 3.77518C12.754 4.01723 12.3364 4.35261 11.9996 4.75814C11.6627 4.35261 11.2452 4.01723 10.7701 3.77518C10.3013 3.53626 9.79918 3.43938 9.24326 3.39396C8.70621 3.35008 8.0454 3.35009 7.2374 3.3501H5.41419ZM3.90969 5.2039C4.04121 5.16117 4.23505 5.15007 5.04961 5.15007H7.7996C8.98641 5.15007 9.36637 5.16117 9.64853 5.25285C10.2878 5.46057 10.7891 5.96181 10.9968 6.60113C11.0885 6.88328 11.0996 7.26325 11.0996 8.45007V18.8283C10.9022 18.6343 10.7337 18.4789 10.5493 18.3449C10.0514 17.9831 9.47493 17.7444 8.86705 17.6481C8.56258 17.5999 8.25101 17.5999 7.82375 17.6001L5.04961 17.6001C4.23505 17.6001 4.04121 17.589 3.90969 17.5462C3.57481 17.4374 3.31226 17.1749 3.20345 16.84C3.16072 16.7085 3.14961 16.5146 3.14961 15.7001V7.05007C3.14961 6.2355 3.16072 6.04167 3.20345 5.91015C3.31226 5.57527 3.57481 5.31271 3.90969 5.2039ZM20.0895 5.2039C19.958 5.16117 19.7641 5.15007 18.9496 5.15007H16.1996C15.0128 5.15007 14.6328 5.16117 14.3507 5.25285C13.7113 5.46057 13.2101 5.96181 13.0024 6.60113C12.9107 6.88328 12.8996 7.26325 12.8996 8.45007V18.8283C13.097 18.6343 13.2655 18.4789 13.4499 18.3449C13.9478 17.9831 14.5243 17.7444 15.1321 17.6481C15.4366 17.5999 15.7482 17.5999 16.1754 17.6001L18.9496 17.6001C19.7641 17.6001 19.958 17.589 20.0895 17.5462C20.4244 17.4374 20.6869 17.1749 20.7957 16.84C20.8385 16.7085 20.8496 16.5146 20.8496 15.7001V7.05007C20.8496 6.2355 20.8385 6.04167 20.7957 5.91015C20.6869 5.57527 20.4244 5.31271 20.0895 5.2039Z" fill="currentColor"/>
</svg>
