<svg width="24" height="24" viewBox="0 0 24 24" fill="none" xmlns="http://www.w3.org/2000/svg">
<path d="M11.1996 9.0124C11.1996 8.20434 11.1996 7.54349 11.1557 7.00642C11.1103 6.4505 11.0134 5.94843 10.7745 5.47954C10.4006 4.74571 9.80398 4.14908 9.07015 3.77518C8.60018 3.53571 8.0947 3.43918 7.53506 3.3939C6.99337 3.35008 6.32539 3.35009 5.50725 3.3501H5.43431C4.89772 3.35009 4.44181 3.35008 4.06844 3.38028C3.67722 3.41193 3.29605 3.48122 2.93304 3.66618C2.38737 3.94421 1.94373 4.38786 1.66569 4.93353C1.48128 5.29546 1.41165 5.67405 1.37985 6.06322C1.34959 6.43362 1.3496 6.88475 1.34961 7.41457V15.3355C1.3496 15.8653 1.34959 16.3166 1.37985 16.687C1.41165 17.0761 1.48128 17.4547 1.66569 17.8167C1.94373 18.3623 2.38737 18.806 2.93304 19.084C3.29497 19.2684 3.67356 19.3381 4.06272 19.3699C4.43315 19.4001 4.88433 19.4001 5.4142 19.4001H6.51137C7.28798 19.4001 7.5296 19.4059 7.74719 19.4581C7.96146 19.5096 8.16631 19.5944 8.3542 19.7096C8.545 19.8265 8.71994 19.9932 9.26908 20.5424C9.81148 21.0848 10.0827 21.356 10.3099 21.399C10.603 21.4546 10.9012 21.331 11.0693 21.0845C11.1995 20.8934 11.1995 20.5098 11.1995 19.7428L11.1996 9.0124Z" fill="currentColor"/>
<path d="M12.7995 19.7427C12.7995 20.51 12.7995 20.8937 12.9298 21.0849C13.0978 21.3313 13.3959 21.4548 13.6889 21.3993C13.9162 21.3563 14.1875 21.085 14.7301 20.5424C15.2792 19.9933 15.4542 19.8265 15.645 19.7096C15.8329 19.5944 16.0377 19.5096 16.252 19.4581C16.4696 19.4059 16.7112 19.4001 17.4878 19.4001H18.585C19.1149 19.4001 19.5661 19.4001 19.9365 19.3699C20.3256 19.3381 20.7042 19.2684 21.0662 19.084C21.6118 18.806 22.0555 18.3623 22.3335 17.8167C22.5179 17.4547 22.5876 17.0761 22.6194 16.687C22.6496 16.3166 22.6496 15.8654 22.6496 15.3355L22.6495 7.4147C22.6495 6.88484 22.6495 6.43364 22.6192 6.06322C22.5874 5.67405 22.5178 5.29546 22.3334 4.93353C22.0553 4.38786 21.6117 3.94421 21.066 3.66618C20.703 3.48122 20.3218 3.41193 19.9306 3.38028C19.5572 3.35008 19.1014 3.35009 18.5648 3.3501H18.4919C17.6738 3.35009 17.0057 3.35008 16.464 3.3939C15.9044 3.43918 15.3989 3.53571 14.9289 3.77518C14.1951 4.14908 13.5985 4.74571 13.2246 5.47954C12.9856 5.94843 12.8888 6.4505 12.8433 7.00642C12.7995 7.54349 12.7995 8.20434 12.7995 9.0124L12.7995 19.7427Z" fill="currentColor"/>
</svg>
