<svg width="24" height="24" viewBox="0 0 24 24" fill="none" xmlns="http://www.w3.org/2000/svg">
<path fill-rule="evenodd" clip-rule="evenodd" d="M2.34961 12.0001C2.34961 6.67055 6.67005 2.3501 11.9996 2.3501C17.3291 2.3501 21.6495 6.67055 21.6495 12.0001C21.6495 13.5384 21.2889 14.9948 20.6471 16.2873L21.1414 18.0997C21.2533 18.5098 21.3531 18.8758 21.4062 19.1763C21.4599 19.4809 21.4966 19.867 21.3493 20.2526C21.1564 20.7579 20.7573 21.157 20.2521 21.3499C19.8664 21.4971 19.4803 21.4605 19.1758 21.4067C18.8752 21.3537 18.5093 21.2538 18.0991 21.1419L16.2867 20.6476C14.9943 21.2895 13.5379 21.6501 11.9996 21.6501C6.67005 21.6501 2.34961 17.3296 2.34961 12.0001ZM12.9 8.00024C12.9 7.50319 12.4971 7.10024 12 7.10024C11.503 7.10024 11.1 7.50319 11.1 8.00024V11.1002H8.00005C7.50299 11.1002 7.10005 11.5032 7.10005 12.0002C7.10005 12.4973 7.50299 12.9002 8.00005 12.9002H11.1V16.0002C11.1 16.4973 11.503 16.9002 12 16.9002C12.4971 16.9002 12.9 16.4973 12.9 16.0002V12.9002H16C16.4971 12.9002 16.9 12.4973 16.9 12.0002C16.9 11.5032 16.4971 11.1002 16 11.1002H12.9V8.00024Z" fill="currentColor"/>
</svg>
