<svg width="24" height="24" viewBox="0 0 24 24" fill="none" xmlns="http://www.w3.org/2000/svg">
<path fill-rule="evenodd" clip-rule="evenodd" d="M11.9996 4.1501C7.66415 4.1501 4.1496 7.66466 4.1496 12.0001C4.1496 16.3355 7.66415 19.8501 11.9996 19.8501C13.3608 19.8501 14.6387 19.5044 15.7528 18.8966C15.9569 18.7853 16.1962 18.7572 16.4206 18.8184L18.535 19.3951C18.9948 19.5205 19.2796 19.5972 19.4887 19.6341C19.5631 19.6473 19.6102 19.6517 19.6366 19.6531C19.6425 19.6484 19.6479 19.643 19.6526 19.6371C19.6511 19.6107 19.6467 19.5636 19.6336 19.4893C19.5967 19.2802 19.5199 18.9953 19.3945 18.5356L18.8179 16.4211C18.7567 16.1968 18.7847 15.9575 18.8961 15.7533C19.5038 14.6392 19.8495 13.3614 19.8495 12.0001C19.8495 7.66466 16.335 4.1501 11.9996 4.1501ZM2.34961 12.0001C2.34961 6.67055 6.67004 2.3501 11.9996 2.3501C17.3291 2.3501 21.6495 6.67055 21.6495 12.0001C21.6495 13.5384 21.2889 14.9948 20.6471 16.2873L21.1414 18.0998C21.2533 18.5099 21.3531 18.8758 21.4062 19.1763C21.4599 19.4809 21.4966 19.867 21.3493 20.2526C21.1564 20.7579 20.7573 21.157 20.2521 21.3499C19.8664 21.4971 19.4803 21.4605 19.1758 21.4067C18.8752 21.3537 18.5094 21.2539 18.0993 21.142L16.2867 20.6476C14.9943 21.2895 13.5379 21.6501 11.9996 21.6501C6.67004 21.6501 2.34961 17.3296 2.34961 12.0001Z" fill="currentColor"/>
</svg>
