<svg width="24" height="24" viewBox="0 0 24 24" fill="none" xmlns="http://www.w3.org/2000/svg">
<path d="M11.9994 2.34998C6.66986 2.34998 2.34943 6.67043 2.34943 12C2.34943 17.3295 6.66986 21.65 11.9994 21.65C13.5377 21.65 14.9941 21.2894 16.2865 20.6475L18.0989 21.1418C18.5091 21.2537 18.875 21.3535 19.1756 21.4066C19.4802 21.4604 19.8662 21.497 20.2519 21.3498C20.7571 21.1569 21.1562 20.7578 21.3492 20.2525C21.4964 19.8668 21.4598 19.4808 21.406 19.1762C21.3529 18.8756 21.2531 18.5098 21.1412 18.0996L20.6469 16.2871C21.2888 14.9947 21.6494 13.5383 21.6494 12C21.6494 6.67043 17.3289 2.34998 11.9994 2.34998Z" fill="currentColor"/>
</svg>
