<svg width="24" height="24" viewBox="0 0 24 24" fill="none" xmlns="http://www.w3.org/2000/svg">
<path d="M12.9 8.0001C12.9 7.50304 12.4971 7.1001 12 7.1001C11.503 7.1001 11.1 7.50304 11.1 8.0001V11.1001H8.00002C7.50297 11.1001 7.10002 11.503 7.10002 12.0001C7.10002 12.4972 7.50297 12.9001 8.00002 12.9001H11.1V16.0001C11.1 16.4972 11.503 16.9001 12 16.9001C12.4971 16.9001 12.9 16.4972 12.9 16.0001V12.9001H16C16.4971 12.9001 16.9 12.4972 16.9 12.0001C16.9 11.503 16.4971 11.1001 16 11.1001H12.9V8.0001Z" fill="currentColor"/>
<path fill-rule="evenodd" clip-rule="evenodd" d="M11.9996 2.34998C6.67005 2.34998 2.34961 6.67043 2.34961 12C2.34961 17.3295 6.67005 21.65 11.9996 21.65C13.5379 21.65 14.9943 21.2894 16.2867 20.6475L18.0991 21.1418C18.5093 21.2537 18.8752 21.3535 19.1758 21.4066C19.4803 21.4604 19.8664 21.497 20.2521 21.3498C20.7573 21.1569 21.1564 20.7578 21.3493 20.2525C21.4966 19.8668 21.4599 19.4808 21.4062 19.1762C21.3531 18.8757 21.2533 18.5098 21.1414 18.0997L20.6471 16.2871C21.2889 14.9947 21.6495 13.5383 21.6495 12C21.6495 6.67043 17.3291 2.34998 11.9996 2.34998ZM4.14966 12.0001C4.14966 7.66463 7.66422 4.15007 11.9996 4.15007C16.3351 4.15007 19.8496 7.66463 19.8496 12.0001C19.8496 13.3613 19.5039 14.6392 18.8961 15.7533C18.7848 15.9574 18.7567 16.1967 18.8179 16.4211L19.6709 19.5485C19.6778 19.5741 19.6757 19.5898 19.6725 19.6008C19.6686 19.6145 19.6599 19.6307 19.6451 19.6456C19.6302 19.6604 19.614 19.6691 19.6003 19.673C19.5893 19.6761 19.5736 19.6783 19.5481 19.6713L16.4206 18.8184C16.1963 18.7572 15.957 18.7852 15.7528 18.8966C14.6387 19.5043 13.3609 19.8501 11.9996 19.8501C7.66422 19.8501 4.14966 16.3355 4.14966 12.0001Z" fill="currentColor"/>
</svg>
