<svg width="24" height="24" viewBox="0 0 24 24" fill="none" xmlns="http://www.w3.org/2000/svg">
<path fill-rule="evenodd" clip-rule="evenodd" d="M11.9996 2.10107C7.9127 2.10107 4.59961 5.41417 4.59961 9.50107C4.59961 12.262 6.11162 14.6682 8.34961 15.9395L8.34961 16.1344C8.34959 16.5259 8.34957 16.8724 8.37303 17.1596C8.39802 17.4653 8.45403 17.7822 8.61119 18.0907C8.84129 18.5422 9.20844 18.9094 9.66003 19.1395C9.96849 19.2967 10.2853 19.3527 10.5911 19.3776C10.8783 19.4011 11.2247 19.4011 11.6162 19.4011H12.3829C12.7744 19.4011 13.121 19.4011 13.4081 19.3776C13.7139 19.3527 14.0307 19.2967 14.3392 19.1395C14.7908 18.9094 15.1579 18.5422 15.388 18.0907C15.5452 17.7822 15.6012 17.4653 15.6262 17.1596C15.6496 16.8724 15.6496 16.526 15.6496 16.1345L15.6496 15.9395C17.8876 14.6682 19.3996 12.262 19.3996 9.50107C19.3996 5.41417 16.0865 2.10107 11.9996 2.10107ZM6.39966 9.50088C6.39966 6.40808 8.90686 3.90088 11.9997 3.90088C15.0925 3.90088 17.5997 6.40808 17.5997 9.50088C17.5997 11.7455 16.279 13.6836 14.3684 14.5769C14.0519 14.7249 13.8497 15.0428 13.8497 15.3922V16.4009C13.8497 17.0293 13.8386 17.1301 13.8203 17.1863C13.7609 17.369 13.6177 17.5122 13.4351 17.5715C13.3789 17.5898 13.2781 17.6009 12.6497 17.6009H11.3497C10.7212 17.6009 10.6205 17.5898 10.5642 17.5715C10.3816 17.5122 10.2384 17.369 10.179 17.1863C10.1608 17.1301 10.1497 17.0293 10.1497 16.4009V15.3922C10.1497 15.0428 9.9474 14.7249 9.63087 14.5769C7.72029 13.6836 6.39966 11.7455 6.39966 9.50088Z" fill="currentColor"/>
<path d="M9.74963 21.1015C9.25258 21.1015 8.84963 21.5044 8.84963 22.0015C8.84963 22.4985 9.25258 22.9015 9.74963 22.9015H14.2496C14.7467 22.9015 15.1496 22.4985 15.1496 22.0015C15.1496 21.5044 14.7467 21.1015 14.2496 21.1015H9.74963Z" fill="currentColor"/>
</svg>
