<svg width="24" height="24" viewBox="0 0 24 24" fill="none" xmlns="http://www.w3.org/2000/svg">
<path fill-rule="evenodd" clip-rule="evenodd" d="M9.56965 2.09998H14.4291C14.6835 2.09995 14.9255 2.09993 15.1295 2.11659C15.3519 2.13476 15.607 2.17715 15.862 2.30707C16.2195 2.48923 16.5101 2.77989 16.6923 3.1374C16.8222 3.39237 16.8646 3.64748 16.8828 3.86989C16.8994 4.07385 16.8994 4.3159 16.8994 4.57022L16.8994 5.59998L17.8348 5.59998C18.3646 5.59996 18.8158 5.59995 19.1862 5.63022C19.5754 5.66201 19.954 5.73165 20.3159 5.91606C20.8616 6.19409 21.3052 6.63774 21.5833 7.18341C21.7677 7.54534 21.8373 7.92393 21.8691 8.31309C21.8994 8.68351 21.8994 9.13466 21.8994 9.6645V16.8354C21.8994 17.3652 21.8994 17.8165 21.8691 18.1869C21.8373 18.576 21.7677 18.9546 21.5833 19.3166C21.3052 19.8622 20.8616 20.3059 20.3159 20.5839C19.954 20.7683 19.5754 20.8379 19.1862 20.8697C18.8158 20.9 18.3647 20.9 17.8349 20.9H6.16401C5.63418 20.9 5.18295 20.9 4.81254 20.8697C4.42338 20.8379 4.04478 20.7683 3.68285 20.5839C3.13718 20.3059 2.69354 19.8622 2.41551 19.3166C2.2311 18.9546 2.16146 18.576 2.12967 18.1869C2.0994 17.8165 2.09941 17.3653 2.09943 16.8355V9.66458C2.09941 9.13474 2.0994 8.68351 2.12967 8.31309C2.16146 7.92393 2.2311 7.54534 2.41551 7.18341C2.69354 6.63774 3.13718 6.19409 3.68285 5.91606C4.04478 5.73165 4.42338 5.66201 4.81254 5.63022C5.18297 5.59995 5.63415 5.59996 6.16401 5.59998L7.09942 5.59998L7.09942 4.57022C7.09939 4.3159 7.09937 4.07385 7.11603 3.86989C7.1342 3.64748 7.17659 3.39237 7.3065 3.1374C7.48866 2.77989 7.77933 2.48923 8.13683 2.30707C8.39181 2.17715 8.64692 2.13476 8.86933 2.11659C9.07329 2.09993 9.31533 2.09995 9.56965 2.09998ZM8.8993 5.60004H15.0993V3.99992C15.0993 3.94469 15.0545 3.89992 14.9993 3.89992H8.9993C8.94407 3.89992 8.8993 3.94469 8.8993 3.99992V5.60004ZM8.99931 10.1C8.50225 10.1 8.09931 10.5029 8.09931 11C8.09931 11.4971 8.50225 11.9 8.99931 11.9H14.9993C15.4963 11.9 15.8993 11.4971 15.8993 11C15.8993 10.5029 15.4963 10.1 14.9993 10.1H8.99931Z" fill="currentColor"/>
</svg>
