<svg width="24" height="24" viewBox="0 0 24 24" fill="none" xmlns="http://www.w3.org/2000/svg">
<path d="M8.99949 10.1C8.50244 10.1 8.09949 10.5029 8.09949 11C8.09949 11.4971 8.50244 11.9 8.99949 11.9H14.9995C15.4965 11.9 15.8995 11.4971 15.8995 11C15.8995 10.5029 15.4965 10.1 14.9995 10.1H8.99949Z" fill="currentColor"/>
<path fill-rule="evenodd" clip-rule="evenodd" d="M9.56983 2.09998H14.4293C14.6837 2.09995 14.9257 2.09993 15.1297 2.11659C15.3521 2.13476 15.6072 2.17715 15.8621 2.30707C16.2197 2.48923 16.5103 2.77989 16.6925 3.1374C16.8224 3.39237 16.8648 3.64748 16.883 3.86989C16.8996 4.07385 16.8996 4.3159 16.8996 4.57022L16.8996 5.59998L17.835 5.59998C18.3648 5.59996 18.816 5.59995 19.1864 5.63022C19.5756 5.66201 19.9542 5.73165 20.3161 5.91606C20.8618 6.19409 21.3054 6.63774 21.5835 7.18341C21.7679 7.54534 21.8375 7.92393 21.8693 8.31309C21.8996 8.68351 21.8996 9.13466 21.8995 9.6645V16.8354C21.8996 17.3652 21.8996 17.8165 21.8693 18.1869C21.8375 18.576 21.7679 18.9546 21.5835 19.3166C21.3054 19.8622 20.8618 20.3059 20.3161 20.5839C19.9542 20.7683 19.5756 20.8379 19.1864 20.8697C18.816 20.9 18.3649 20.9 17.835 20.9H6.16419C5.63436 20.9 5.18313 20.9 4.81272 20.8697C4.42356 20.8379 4.04497 20.7683 3.68304 20.5839C3.13737 20.3059 2.69372 19.8622 2.41569 19.3166C2.23128 18.9546 2.16165 18.576 2.12985 18.1869C2.09959 17.8165 2.0996 17.3653 2.09961 16.8355V9.66458C2.0996 9.13474 2.09959 8.68351 2.12985 8.31309C2.16165 7.92393 2.23128 7.54534 2.41569 7.18341C2.69372 6.63774 3.13737 6.19409 3.68304 5.91606C4.04497 5.73165 4.42356 5.66201 4.81272 5.63022C5.18315 5.59995 5.63433 5.59996 6.1642 5.59998L7.0996 5.59998L7.0996 4.57022C7.09957 4.3159 7.09955 4.07385 7.11621 3.86989C7.13438 3.64748 7.17677 3.39237 7.30669 3.1374C7.48885 2.77989 7.77951 2.48923 8.13701 2.30707C8.39199 2.17715 8.6471 2.13476 8.86951 2.11659C9.07347 2.09993 9.31551 2.09995 9.56983 2.09998ZM15.0996 4.00002V5.60002H8.89958V4.00002C8.89958 3.9448 8.94435 3.90002 8.99958 3.90002H14.9996C15.0548 3.90002 15.0996 3.94479 15.0996 4.00002ZM5.79959 7.40002C4.98503 7.40002 4.79119 7.41113 4.65967 7.45386C4.32479 7.56267 4.06224 7.82522 3.95343 8.16011C3.9107 8.29163 3.89959 8.48546 3.89959 9.30002V17.2C3.89959 18.0146 3.9107 18.2084 3.95343 18.3399C4.06224 18.6748 4.32479 18.9374 4.65967 19.0462C4.79119 19.0889 4.98503 19.1 5.79958 19.1H18.1995C19.0141 19.1 19.2079 19.0889 19.3394 19.0462C19.6743 18.9374 19.9369 18.6748 20.0457 18.3399C20.0884 18.2084 20.0995 18.0146 20.0995 17.2V9.30002C20.0995 8.48546 20.0884 8.29163 20.0457 8.16011C19.9369 7.82522 19.6743 7.56267 19.3394 7.45386C19.2079 7.41113 19.0141 7.40002 18.1995 7.40002H5.79959Z" fill="currentColor"/>
</svg>
