<svg width="24" height="24" viewBox="0 0 24 24" fill="none" xmlns="http://www.w3.org/2000/svg">
<path fill-rule="evenodd" clip-rule="evenodd" d="M16.3993 1.75022C16.3993 1.25316 15.9964 0.85022 15.4993 0.85022C15.0023 0.85022 14.5993 1.25316 14.5993 1.75022V2.84983H9.39936V1.75022C9.39936 1.25316 8.99642 0.85022 8.49936 0.85022C8.0023 0.85022 7.59936 1.25316 7.59936 1.75022V2.84983H6.91421C6.38437 2.84982 5.93314 2.84981 5.56273 2.88007C5.17357 2.91186 4.79497 2.9815 4.43304 3.16591C3.88737 3.44395 3.44373 3.88759 3.1657 4.43326C2.98128 4.79519 2.91165 5.17379 2.87985 5.56295C2.84959 5.93333 2.8496 6.38445 2.84961 6.91424V17.0852C2.8496 17.615 2.84959 18.0663 2.87985 18.4367C2.91165 18.8259 2.98128 19.2045 3.1657 19.5664C3.44373 20.1121 3.88737 20.5557 4.43304 20.8337C4.79498 21.0182 5.17357 21.0878 5.56273 21.1196C5.93313 21.1499 6.38427 21.1498 6.91408 21.1498L11.4996 21.1502C11.9966 21.1502 12.3996 20.7473 12.3996 20.2502C12.3996 19.7532 11.9966 19.3502 11.4996 19.3502L6.54963 19.3498C5.73507 19.3498 5.54124 19.3387 5.40971 19.296C5.07483 19.1872 4.81228 18.9246 4.70347 18.5897C4.66074 18.4582 4.64963 18.2644 4.64963 17.4498V10.3992H19.3495V11.5002C19.3495 11.9973 19.7525 12.4002 20.2495 12.4002C20.7466 12.4002 21.1495 11.9973 21.1495 11.5002L21.1495 6.91443C21.1496 6.38461 21.1496 5.93335 21.1193 5.56295C21.0875 5.17379 21.0179 4.79519 20.8335 4.43326C20.5554 3.88759 20.1118 3.44395 19.5661 3.16591C19.2042 2.9815 18.8256 2.91186 18.4364 2.88007C18.066 2.84981 17.6149 2.84982 17.085 2.84983H16.3993V1.75022ZM19.3496 8.59924H4.64963V6.54983C4.64963 5.73526 4.66074 5.54143 4.70347 5.40991C4.81228 5.07502 5.07483 4.81247 5.40971 4.70366C5.54124 4.66093 5.73507 4.64983 6.54963 4.64983H7.59936V5.75022C7.59936 6.24728 8.0023 6.65022 8.49936 6.65022C8.99642 6.65022 9.39936 6.24728 9.39936 5.75022V4.64983H14.5993V5.75022C14.5993 6.24728 15.0023 6.65022 15.4993 6.65022C15.9964 6.65022 16.3993 6.24728 16.3993 5.75022V4.64983H17.4496C18.2641 4.64983 18.458 4.66093 18.5895 4.70366C18.9244 4.81247 19.1869 5.07502 19.2957 5.40991C19.3385 5.54143 19.3496 5.73526 19.3496 6.54983V8.59924Z" fill="currentColor"/>
<path d="M17.9494 14.4996C17.1486 14.4996 16.4994 15.1488 16.4994 15.9496C16.4994 16.7504 17.1486 17.3996 17.9494 17.3996C18.7502 17.3996 19.3994 16.7504 19.3994 15.9496C19.3994 15.1488 18.7502 14.4996 17.9494 14.4996Z" fill="currentColor"/>
<path d="M17.9494 18.2515C17.1249 18.2515 16.3462 18.4473 15.7587 18.8313C15.1626 19.2209 14.7494 19.8191 14.7494 20.5783C14.7494 20.8949 15.006 21.1515 15.3226 21.1515H20.5762C20.8928 21.1515 21.1494 20.8949 21.1494 20.5783C21.1494 19.8191 20.7361 19.2209 20.1401 18.8313C19.5525 18.4473 18.7738 18.2515 17.9494 18.2515Z" fill="currentColor"/>
</svg>
