<svg width="24" height="24" viewBox="0 0 24 24" fill="none" xmlns="http://www.w3.org/2000/svg">
<path fill-rule="evenodd" clip-rule="evenodd" d="M9.39937 1.7501C9.39937 1.25304 8.99642 0.850098 8.49937 0.850098C8.00231 0.850098 7.59937 1.25304 7.59937 1.7501V2.84988H6.91419C6.38434 2.84986 5.93314 2.84985 5.56272 2.88012C5.17356 2.91191 4.79497 2.98155 4.43303 3.16596C3.88737 3.44399 3.44372 3.88764 3.16569 4.43331C2.98128 4.79524 2.91165 5.17383 2.87985 5.563C2.84959 5.93341 2.8496 6.38456 2.84961 6.91439V17.0853C2.8496 17.6151 2.84959 18.0664 2.87985 18.4368C2.91165 18.8259 2.98128 19.2045 3.16569 19.5665C3.44372 20.1121 3.88737 20.5558 4.43303 20.8338C4.79497 21.0182 5.17356 21.0878 5.56272 21.1196C5.93313 21.1499 6.38427 21.1499 6.9141 21.1499H17.085C17.6148 21.1499 18.066 21.1499 18.4364 21.1196C18.8256 21.0878 19.2042 21.0182 19.5661 20.8338C20.1118 20.5558 20.5554 20.1121 20.8335 19.5665C21.0179 19.2045 21.0875 18.8259 21.1193 18.4368C21.1496 18.0664 21.1496 17.6152 21.1495 17.0854V6.91447C21.1496 6.38465 21.1496 5.9334 21.1193 5.563C21.0875 5.17383 21.0179 4.79524 20.8335 4.43331C20.5554 3.88764 20.1118 3.44399 19.5661 3.16596C19.2042 2.98155 18.8256 2.91191 18.4364 2.88012C18.066 2.84985 17.6148 2.84986 17.085 2.84988H16.3993V1.75012C16.3993 1.25307 15.9964 0.850122 15.4993 0.850122C15.0023 0.850122 14.5993 1.25307 14.5993 1.75012V2.84988H9.39937V1.7501ZM14.5993 5.75012V4.64987H9.39937V5.7501C9.39937 6.24715 8.99642 6.6501 8.49937 6.6501C8.00231 6.6501 7.59937 6.24715 7.59937 5.7501V4.64987H6.54962C5.73506 4.64987 5.54123 4.66098 5.4097 4.70371C5.07482 4.81252 4.81227 5.07507 4.70346 5.40996C4.66073 5.54148 4.64963 5.73531 4.64963 6.54987V8.59985H19.3496V6.54987C19.3496 5.73531 19.3385 5.54148 19.2957 5.40996C19.1869 5.07507 18.9244 4.81252 18.5895 4.70371C18.458 4.66098 18.2641 4.64987 17.4496 4.64987H16.3993V5.75012C16.3993 6.24718 15.9964 6.65012 15.4993 6.65012C15.0023 6.65012 14.5993 6.24718 14.5993 5.75012ZM19.3496 10.3999H4.64963V17.4499C4.64963 18.2644 4.66073 18.4583 4.70346 18.5898C4.81227 18.9247 5.07482 19.1872 5.4097 19.296C5.54123 19.3388 5.73506 19.3499 6.54962 19.3499H17.4496C18.2641 19.3499 18.458 19.3388 18.5895 19.296C18.9244 19.1872 19.1869 18.9247 19.2957 18.5898C19.3385 18.4583 19.3496 18.2644 19.3496 17.4499V10.3999Z" fill="currentColor"/>
</svg>
