<svg width="24" height="24" viewBox="0 0 24 24" fill="none" xmlns="http://www.w3.org/2000/svg">
<path d="M8.64918 12.5C8.64918 10.6498 10.149 9.15 11.9992 9.15C13.8493 9.15 15.3492 10.6498 15.3492 12.5C15.3492 14.3502 13.8493 15.85 11.9992 15.85C10.149 15.85 8.64918 14.3502 8.64918 12.5Z" fill="currentColor"/>
<path fill-rule="evenodd" clip-rule="evenodd" d="M10.6587 2.35015L13.3408 2.35015C13.8032 2.34974 14.1932 2.3494 14.5663 2.44976C14.8942 2.53797 15.2041 2.68309 15.4818 2.87851C15.7977 3.10082 16.0472 3.40065 16.3429 3.75611L17.6715 5.3502L18.3349 5.3502C18.8648 5.35018 19.316 5.35017 19.6864 5.38044C20.0756 5.41223 20.4542 5.48187 20.8161 5.66628C21.3618 5.94431 21.8054 6.38796 22.0835 6.93363C22.2679 7.29556 22.3375 7.67415 22.3693 8.06332C22.3996 8.43374 22.3995 8.88491 22.3995 9.41476V17.0856C22.3995 17.6155 22.3996 18.0667 22.3693 18.4371C22.3375 18.8262 22.2679 19.2048 22.0835 19.5668C21.8054 20.1124 21.3618 20.5561 20.8161 20.8341C20.4542 21.0185 20.0756 21.0882 19.6864 21.12C19.316 21.1502 18.8648 21.1502 18.335 21.1502H5.66419C5.13434 21.1502 4.68314 21.1502 4.31272 21.12C3.92356 21.0882 3.54496 21.0185 3.18303 20.8341C2.63737 20.5561 2.19372 20.1124 1.91569 19.5668C1.73128 19.2048 1.66164 18.8262 1.62985 18.4371C1.59958 18.0667 1.5996 17.6155 1.59961 17.0857V9.4148C1.5996 8.88495 1.59958 8.43373 1.62985 8.06332C1.66164 7.67415 1.73128 7.29556 1.91569 6.93363C2.19372 6.38796 2.63737 5.94431 3.18303 5.66628C3.54496 5.48187 3.92356 5.41223 4.31272 5.38044C4.68315 5.35017 5.13433 5.35018 5.6642 5.3502L6.32849 5.3502L7.65609 3.75668C7.95184 3.40108 8.20129 3.10114 8.51728 2.87873C8.79503 2.68324 9.10496 2.53805 9.43294 2.4498C9.80609 2.3494 10.1962 2.34974 10.6587 2.35015ZM11.9992 7.35C9.15491 7.35 6.84919 9.65573 6.84919 12.5C6.84919 15.3443 9.15491 17.65 11.9992 17.65C14.8434 17.65 17.1491 15.3443 17.1491 12.5C17.1491 9.65573 14.8434 7.35 11.9992 7.35Z" fill="currentColor"/>
</svg>
