<svg width="24" height="24" viewBox="0 0 24 24" fill="none" xmlns="http://www.w3.org/2000/svg">
<path fill-rule="evenodd" clip-rule="evenodd" d="M11.9992 7.60003C9.293 7.60003 7.0992 9.79384 7.0992 12.5C7.0992 15.2062 9.293 17.4 11.9992 17.4C14.7054 17.4 16.8992 15.2062 16.8992 12.5C16.8992 9.79384 14.7054 7.60003 11.9992 7.60003ZM8.89919 12.5C8.89919 10.788 10.2871 9.40003 11.9992 9.40003C13.7113 9.40003 15.0992 10.788 15.0992 12.5C15.0992 14.2121 13.7113 15.6 11.9992 15.6C10.2871 15.6 8.89919 14.2121 8.89919 12.5Z" fill="currentColor"/>
<path fill-rule="evenodd" clip-rule="evenodd" d="M10.6587 2.35015C10.1962 2.34974 9.80609 2.3494 9.43294 2.4498C9.10496 2.53805 8.79503 2.68324 8.51728 2.87873C8.20129 3.10114 7.95184 3.40108 7.65609 3.75668L6.32849 5.3502L5.6642 5.3502C5.13433 5.35018 4.68315 5.35017 4.31272 5.38044C3.92356 5.41223 3.54497 5.48187 3.18303 5.66628C2.63737 5.94431 2.19372 6.38796 1.91569 6.93363C1.73128 7.29556 1.66165 7.67415 1.62985 8.06332C1.59959 8.43373 1.5996 8.88489 1.59961 9.41472V17.0856C1.5996 17.6154 1.59959 18.0667 1.62985 18.4371C1.66165 18.8262 1.73128 19.2048 1.91569 19.5668C2.19372 20.1124 2.63737 20.5561 3.18303 20.8341C3.54497 21.0185 3.92356 21.0882 4.31272 21.12C4.68313 21.1502 5.13429 21.1502 5.66414 21.1502H18.335C18.8648 21.1502 19.316 21.1502 19.6864 21.12C20.0756 21.0882 20.4542 21.0185 20.8161 20.8341C21.3618 20.5561 21.8054 20.1124 22.0835 19.5668C22.2679 19.2048 22.3375 18.8262 22.3693 18.4371C22.3996 18.0667 22.3995 17.6155 22.3995 17.0857V9.41479C22.3995 8.88495 22.3996 8.43373 22.3693 8.06332C22.3375 7.67415 22.2679 7.29556 22.0835 6.93363C21.8054 6.38796 21.3618 5.94431 20.8161 5.66628C20.4542 5.48187 20.0756 5.41223 19.6864 5.38044C19.316 5.35017 18.8648 5.35018 18.3349 5.3502L17.6715 5.3502L16.3429 3.75611C16.0472 3.40065 15.7977 3.10082 15.4818 2.87851C15.2041 2.68309 14.8942 2.53797 14.5663 2.44976C14.1932 2.3494 13.8032 2.34974 13.3408 2.35015L10.6587 2.35015ZM9.99471 4.16711C10.0716 4.1535 10.1622 4.15027 10.5612 4.15027H13.4383C13.8373 4.15027 13.9278 4.15349 14.0047 4.16711C14.1956 4.20089 14.3741 4.28451 14.5223 4.40949C14.5819 4.45985 14.6424 4.5273 14.8978 4.83378L16.3488 6.57468L16.3608 6.58908C16.4033 6.6406 16.4835 6.73767 16.5815 6.82035C16.7701 6.97942 16.9973 7.08584 17.2402 7.12884C17.3665 7.15119 17.4924 7.15063 17.5592 7.15033L17.5779 7.15027H18.6996C19.5141 7.15027 19.708 7.16137 19.8395 7.20411C20.1744 7.31292 20.4369 7.57547 20.5457 7.91035C20.5885 8.04187 20.5996 8.23571 20.5996 9.05027V17.4503C20.5996 18.2648 20.5885 18.4587 20.5457 18.5902C20.4369 18.9251 20.1744 19.1876 19.8395 19.2964C19.708 19.3392 19.5141 19.3503 18.6996 19.3503H5.29963C4.48507 19.3503 4.29124 19.3392 4.15972 19.2964C3.82484 19.1876 3.56229 18.9251 3.45348 18.5902C3.41074 18.4587 3.39964 18.2648 3.39964 17.4503V9.05027C3.39964 8.23571 3.41074 8.04187 3.45348 7.91035C3.56229 7.57547 3.82484 7.31292 4.15972 7.20411C4.29124 7.16137 4.48507 7.15027 5.29963 7.15027H6.42221L6.4409 7.15033C6.50773 7.15063 6.63365 7.15119 6.75997 7.12883C7.00293 7.08581 7.23021 6.97935 7.41879 6.82021C7.51683 6.73748 7.59699 6.64038 7.63954 6.58884L7.65146 6.57445L9.10149 4.83406C9.35695 4.52745 9.41737 4.45998 9.47707 4.4096C9.62523 4.28457 9.80381 4.20091 9.99471 4.16711Z" fill="currentColor"/>
</svg>
