<svg width="24" height="24" viewBox="0 0 24 24" fill="none" xmlns="http://www.w3.org/2000/svg">
<path d="M13.8635 9.2932C13.2257 8.50816 12.9068 8.11564 12.5228 7.97313C12.1861 7.84815 11.8157 7.84815 11.4789 7.97313C11.095 8.11564 10.776 8.50816 10.1382 9.2932L8.68054 11.0873C7.664 12.3384 7.15574 12.9639 7.15237 13.4911C7.14945 13.9495 7.35629 14.3841 7.7139 14.6709C8.12516 15.0007 8.93118 15.0007 10.5432 15.0007H13.4585C15.0706 15.0007 15.8766 15.0007 16.2878 14.6709C16.6454 14.3841 16.8523 13.9495 16.8494 13.4911C16.846 12.9639 16.3377 12.3384 15.3212 11.0873L13.8635 9.2932Z" fill="currentColor"/>
</svg>
