<svg width="24" height="24" viewBox="0 0 24 24" fill="none" xmlns="http://www.w3.org/2000/svg">
<path d="M12.3904 6.66573C12.146 6.53395 11.8517 6.53395 11.6073 6.66573C11.396 6.77966 11.2914 6.99399 11.2324 7.12663C11.1651 7.27769 11.0948 7.47998 11.0136 7.71353C10.9408 7.92309 10.8706 8.13378 10.7946 8.3422C10.5728 8.35015 10.3508 8.35175 10.129 8.35627C9.88177 8.3613 9.66766 8.36565 9.50319 8.38294C9.35881 8.39812 9.12265 8.43134 8.94899 8.5971C8.74814 8.78882 8.6572 9.0687 8.70701 9.34186C8.75007 9.57803 8.9216 9.74372 9.02949 9.84087C9.15237 9.95152 9.32302 10.0809 9.52005 10.2303C9.69685 10.3643 9.87556 10.4961 10.0503 10.6329C9.98931 10.8462 9.92222 11.0579 9.85798 11.2702C9.78637 11.5069 9.72434 11.7119 9.68997 11.8736C9.65978 12.0156 9.61841 12.2505 9.72239 12.4669C9.84265 12.7172 10.0807 12.8901 10.3559 12.9272C10.5938 12.9592 10.8044 12.8473 10.9302 12.7747C11.0734 12.692 11.2492 12.5697 11.4521 12.4284C11.6342 12.3017 11.8148 12.1725 11.9988 12.0486C12.1829 12.1724 12.3635 12.3017 12.5456 12.4284C12.7485 12.5697 12.9243 12.692 13.0675 12.7747C13.1932 12.8473 13.4038 12.9592 13.6418 12.9272C13.9169 12.8901 14.155 12.7172 14.2753 12.4669C14.3793 12.2505 14.3379 12.0156 14.3077 11.8736C14.2733 11.7119 14.2113 11.5069 14.1397 11.2702C14.0754 11.0579 14.0084 10.8462 13.9474 10.6329C14.1221 10.4961 14.3008 10.3643 14.4776 10.2303C14.6746 10.0809 14.8453 9.95152 14.9682 9.84087C15.0761 9.74372 15.2476 9.57803 15.2907 9.34186C15.3405 9.0687 15.2495 8.78882 15.0487 8.5971C14.875 8.43134 14.6389 8.39812 14.4945 8.38294C14.33 8.36565 14.1159 8.3613 13.8687 8.35627C13.6469 8.35175 13.4248 8.35015 13.2031 8.3422C13.127 8.13378 13.0569 7.92309 12.984 7.71353C12.9029 7.47999 12.8326 7.27769 12.7653 7.12663C12.7063 6.99399 12.6017 6.77966 12.3904 6.66573Z" fill="currentColor"/>
<path d="M9.49938 15.3508C9.00232 15.3508 8.59938 15.7537 8.59938 16.2508C8.59938 16.7478 9.00232 17.1508 9.49938 17.1508H14.4994C14.9964 17.1508 15.3994 16.7478 15.3994 16.2508C15.3994 15.7537 14.9964 15.3508 14.4994 15.3508H9.49938Z" fill="currentColor"/>
<path fill-rule="evenodd" clip-rule="evenodd" d="M8.71284 2.1001H15.2863C15.9551 2.10009 16.5111 2.10008 16.9648 2.13715C17.4374 2.17576 17.8777 2.25901 18.2931 2.47068C18.9329 2.79665 19.453 3.31678 19.779 3.95653C19.9906 4.37194 20.0739 4.81228 20.1125 5.28482C20.1496 5.73854 20.1496 6.29449 20.1496 6.96324V17.0369C20.1496 17.7056 20.1496 18.2617 20.1125 18.7154C20.0739 19.1879 19.9906 19.6283 19.779 20.0437C19.453 20.6834 18.9329 21.2036 18.2931 21.5295C17.8777 21.7412 17.4374 21.8244 16.9648 21.8631C16.5111 21.9001 15.9551 21.9001 15.2863 21.9001H8.71284C8.04404 21.9001 7.48806 21.9001 7.03432 21.8631C6.56178 21.8244 6.12145 21.7412 5.70604 21.5295C5.06629 21.2036 4.54616 20.6834 4.22019 20.0437C4.00853 19.6283 3.92527 19.1879 3.88666 18.7154C3.84959 18.2616 3.8496 17.7057 3.84961 17.0369V6.96335C3.8496 6.29456 3.84959 5.73855 3.88666 5.28482C3.92527 4.81228 4.00853 4.37194 4.22019 3.95653C4.54616 3.31678 5.06629 2.79665 5.70604 2.47068C6.12145 2.25901 6.56178 2.17576 7.03432 2.13715C7.48805 2.10008 8.04407 2.10009 8.71284 2.1001ZM8.24967 3.89825C7.24898 3.89825 6.96209 3.90935 6.75525 3.97655C6.26815 4.13482 5.88626 4.51672 5.72799 5.00382C5.66078 5.21066 5.64968 5.49756 5.64968 6.49825V17.4982C5.64968 18.4989 5.66078 18.7858 5.72799 18.9927C5.88626 19.4798 6.26815 19.8617 6.75525 20.0199C6.96209 20.0871 7.24898 20.0982 8.24967 20.0982H15.7496C16.7503 20.0982 17.0372 20.0871 17.2441 20.0199C17.7312 19.8617 18.1131 19.4798 18.2713 18.9927C18.3385 18.7858 18.3496 18.4989 18.3496 17.4982V6.49825C18.3496 5.49756 18.3385 5.21066 18.2713 5.00382C18.1131 4.51672 17.7312 4.13482 17.2441 3.97655C17.0372 3.90935 16.7503 3.89825 15.7496 3.89825H8.24967Z" fill="currentColor"/>
</svg>
