<svg width="24" height="24" viewBox="0 0 24 24" fill="none" xmlns="http://www.w3.org/2000/svg">
<path d="M16.386 11.8858L20.1359 8.13576C20.4874 7.78429 20.4874 7.21444 20.1359 6.86297L16.386 3.11297C16.0345 2.7615 15.4646 2.7615 15.1132 3.11297C14.7617 3.46444 14.7617 4.03429 15.1132 4.38576L17.3268 6.59937H4.49961C4.00255 6.59937 3.59961 7.00231 3.59961 7.49937C3.59961 7.99642 4.00255 8.39937 4.49961 8.39937H17.3268L15.1132 10.613C14.7617 10.9644 14.7617 11.5343 15.1132 11.8858C15.4646 12.2372 16.0345 12.2372 16.386 11.8858Z" fill="currentColor"/>
<path d="M3.86321 17.1362C3.51174 16.7848 3.51174 16.2149 3.86321 15.8635L7.61319 12.1135C7.96466 11.762 8.53451 11.762 8.88598 12.1135C9.23745 12.4649 9.23745 13.0348 8.88598 13.3862L6.67239 15.5999H19.4995C19.9966 15.5999 20.3995 16.0028 20.3995 16.4999C20.3995 16.9969 19.9966 17.3999 19.4995 17.3999H6.67239L8.88598 19.6135C9.23745 19.9649 9.23745 20.5348 8.88598 20.8862C8.53451 21.2377 7.96466 21.2377 7.61319 20.8862L3.86321 17.1362Z" fill="currentColor"/>
</svg>
