<svg width="24" height="24" viewBox="0 0 24 24" fill="none" xmlns="http://www.w3.org/2000/svg">
<path fill-rule="evenodd" clip-rule="evenodd" d="M6.17829 8.84031C3.25104 9.63911 1.09917 12.317 1.09917 15.4975C1.09917 16.4292 1.28431 17.3196 1.6204 18.1325L0.991078 20.44C0.937865 20.6349 0.88295 20.8361 0.852712 21.0074C0.821839 21.1822 0.785728 21.4749 0.903875 21.7843C1.04602 22.1566 1.3401 22.4507 1.71239 22.5928C2.02182 22.711 2.31444 22.6748 2.4893 22.644C2.66053 22.6137 2.86169 22.5588 3.05662 22.5056L5.36419 21.8763C6.17703 22.2124 7.06745 22.3975 7.99915 22.3975C10.7748 22.3975 13.1677 20.7586 14.2628 18.3956C14.3413 18.3978 14.42 18.3989 14.499 18.3989C15.809 18.3989 17.051 18.0984 18.1579 17.5621L19.8868 18.0336C20.2102 18.1218 20.51 18.2036 20.7588 18.2475C21.0115 18.2921 21.3601 18.3286 21.7153 18.193C22.1674 18.0204 22.5245 17.6633 22.6971 17.2112C22.8327 16.856 22.7963 16.5073 22.7516 16.2547C22.7077 16.0059 22.6259 15.7061 22.5377 15.3827L22.0654 13.651C22.5997 12.5458 22.899 11.3062 22.899 9.99888C22.899 5.35969 19.1382 1.59888 14.499 1.59888C10.2529 1.59888 6.74266 4.74938 6.17829 8.84031ZM8.04808 8.59768C11.8363 8.62399 14.8991 11.7031 14.8991 15.4975C14.8991 15.8698 14.8696 16.2352 14.8129 16.5916C15.8306 16.544 16.7861 16.2665 17.6307 15.8102C17.8342 15.7003 18.0722 15.6729 18.2953 15.7338L20.3248 16.2873C20.6127 16.3658 20.8087 16.4187 20.9556 16.4515C20.9228 16.3046 20.8699 16.1086 20.7914 15.8207L20.2373 13.7889C20.1765 13.566 20.2037 13.3284 20.3133 13.1251C20.8143 12.1955 21.099 11.1318 21.099 9.99888C21.099 6.3538 18.1441 3.39888 14.499 3.39888C11.3348 3.39888 8.69059 5.62567 8.04808 8.59768ZM13.0991 15.4975C13.0991 12.6809 10.8158 10.3975 7.99915 10.3975C5.18251 10.3975 2.89916 12.6809 2.89916 15.4975C2.89916 16.2787 3.07417 17.0165 3.38628 17.676C3.47813 17.8701 3.49756 18.0906 3.44106 18.2978L2.78186 20.7148L5.19891 20.0556C5.40607 19.9991 5.6266 20.0186 5.82069 20.1104C6.4802 20.4225 7.21799 20.5975 7.99915 20.5975C10.8158 20.5975 13.0991 18.3142 13.0991 15.4975Z" fill="currentColor"/>
</svg>
