<svg width="24" height="24" viewBox="0 0 24 24" fill="none" xmlns="http://www.w3.org/2000/svg">
<path fill-rule="evenodd" clip-rule="evenodd" d="M2.58193 4.91748C2.07425 4.4098 2.07425 3.58668 2.58193 3.079C3.08962 2.57132 3.91273 2.57132 4.42041 3.079L12.4204 11.079C12.9281 11.5867 12.9281 12.4098 12.4204 12.9175L4.42041 20.9175C3.91273 21.4252 3.08962 21.4252 2.58193 20.9175C2.07425 20.4098 2.07425 19.5867 2.58193 19.079L9.6627 11.9982L2.58193 4.91748ZM12.0819 4.91748C11.5743 4.4098 11.5743 3.58668 12.0819 3.079C12.5896 2.57132 13.4127 2.57132 13.9204 3.079L21.9204 11.079C22.4281 11.5867 22.4281 12.4098 21.9204 12.9175L13.9204 20.9175C13.4127 21.4252 12.5896 21.4252 12.0819 20.9175C11.5743 20.4098 11.5743 19.5867 12.0819 19.079L19.1627 11.9982L12.0819 4.91748Z" fill="currentColor"/>
</svg>
