<svg width="24" height="24" viewBox="0 0 24 24" fill="none" xmlns="http://www.w3.org/2000/svg">
<path fill-rule="evenodd" clip-rule="evenodd" d="M2.86321 4.63991C2.51174 4.28844 2.51174 3.71859 2.86321 3.36712C3.21469 3.01565 3.78453 3.01565 4.13601 3.36712L12.136 11.3671C12.4875 11.7186 12.4875 12.2884 12.136 12.6399L4.13601 20.6399C3.78453 20.9914 3.21469 20.9914 2.86321 20.6399C2.51174 20.2884 2.51174 19.7186 2.86321 19.3671L10.2268 12.0035L2.86321 4.63991ZM12.3632 4.63991C12.0117 4.28844 12.0117 3.71859 12.3632 3.36712C12.7147 3.01565 13.2845 3.01565 13.636 3.36712L21.636 11.3671C21.9875 11.7186 21.9875 12.2884 21.636 12.6399L13.636 20.6399C13.2845 20.9914 12.7147 20.9914 12.3632 20.6399C12.0117 20.2884 12.0117 19.7186 12.3632 19.3671L19.7268 12.0035L12.3632 4.63991Z" fill="currentColor"/>
</svg>
