<svg width="24" height="24" viewBox="0 0 24 24" fill="none" xmlns="http://www.w3.org/2000/svg">
<path fill-rule="evenodd" clip-rule="evenodd" d="M19.9189 6.41748C20.4266 5.9098 20.4266 5.08668 19.9189 4.579C19.4112 4.07132 18.5881 4.07132 18.0804 4.579L11.5804 11.079C11.0727 11.5867 11.0727 12.4098 11.5804 12.9175L18.0804 19.4175C18.5881 19.9252 19.4112 19.9252 19.9189 19.4175C20.4266 18.9098 20.4266 18.0867 19.9189 17.579L14.3381 11.9982L19.9189 6.41748ZM11.9185 6.41768C12.4261 5.90999 12.4261 5.08688 11.9185 4.5792C11.4108 4.07152 10.5877 4.07152 10.08 4.5792L3.57998 11.0792C3.0723 11.5869 3.0723 12.41 3.57998 12.9177L10.08 19.4177C10.5877 19.9254 11.4108 19.9254 11.9185 19.4177C12.4261 18.91 12.4261 18.0869 11.9185 17.5792L6.3377 11.9984L11.9185 6.41768Z" fill="currentColor"/>
</svg>
