<svg width="24" height="24" viewBox="0 0 24 24" fill="none" xmlns="http://www.w3.org/2000/svg">
<path fill-rule="evenodd" clip-rule="evenodd" d="M4.36321 6.13991C4.01174 5.78844 4.01174 5.21859 4.36321 4.86712C4.71469 4.51565 5.28453 4.51565 5.63601 4.86712L12.136 11.3671C12.3048 11.5359 12.3996 11.7648 12.3996 12.0035C12.3996 12.2422 12.3048 12.4711 12.136 12.6399L5.63601 19.1399C5.28453 19.4914 4.71469 19.4914 4.36321 19.1399C4.01174 18.7884 4.01174 18.2186 4.36321 17.8671L10.2268 12.0035L4.36321 6.13991ZM12.3634 6.13991C12.0119 5.78844 12.0119 5.21859 12.3634 4.86712C12.7149 4.51565 13.2847 4.51565 13.6362 4.86712L20.1362 11.3671C20.305 11.5359 20.3998 11.7648 20.3998 12.0035C20.3998 12.2422 20.305 12.4711 20.1362 12.6399L13.6362 19.1399C13.2847 19.4914 12.7149 19.4914 12.3634 19.1399C12.0119 18.7884 12.0119 18.2186 12.3634 17.8671L18.227 12.0035L12.3634 6.13991Z" fill="currentColor"/>
</svg>
