<svg width="24" height="24" viewBox="0 0 24 24" fill="none" xmlns="http://www.w3.org/2000/svg">
<path fill-rule="evenodd" clip-rule="evenodd" d="M11.636 4.63894C11.9875 4.28746 11.9875 3.71761 11.636 3.36614C11.2845 3.01467 10.7147 3.01467 10.3632 3.36614L2.36321 11.3661C2.01174 11.7176 2.01174 12.2875 2.36321 12.6389L10.3632 20.6389C10.7147 20.9904 11.2845 20.9904 11.636 20.6389C11.9875 20.2875 11.9875 19.7176 11.636 19.3661L4.2724 12.0025L11.636 4.63894ZM21.136 4.63933C21.4875 4.28785 21.4875 3.71801 21.136 3.36653C20.7846 3.01506 20.2147 3.01506 19.8632 3.36653L11.8632 11.3665C11.5118 11.718 11.5118 12.2879 11.8632 12.6393L19.8632 20.6393C20.2147 20.9908 20.7846 20.9908 21.136 20.6393C21.4875 20.2879 21.4875 19.718 21.136 19.3665L13.7724 12.0029L21.136 4.63933Z" fill="currentColor"/>
</svg>
