<svg width="24" height="24" viewBox="0 0 24 24" fill="none" xmlns="http://www.w3.org/2000/svg">
<path fill-rule="evenodd" clip-rule="evenodd" d="M21.4185 4.91748C21.9261 4.4098 21.9261 3.58668 21.4185 3.079C20.9108 2.57132 20.0877 2.57132 19.58 3.079L11.58 11.079C11.0723 11.5867 11.0723 12.4098 11.58 12.9175L19.58 20.9175C20.0877 21.4252 20.9108 21.4252 21.4185 20.9175C21.9261 20.4098 21.9261 19.5867 21.4185 19.079L14.3377 11.9982L21.4185 4.91748ZM11.9185 4.91768C12.4261 4.40999 12.4261 3.58688 11.9185 3.0792C11.4108 2.57152 10.5877 2.57152 10.08 3.0792L2.07998 11.0792C1.5723 11.5869 1.5723 12.41 2.07998 12.9177L10.08 20.9177C10.5877 21.4254 11.4108 21.4254 11.9185 20.9177C12.4261 20.41 12.4261 19.5869 11.9185 19.0792L4.8377 11.9984L11.9185 4.91768Z" fill="currentColor"/>
</svg>
