<svg width="24" height="24" viewBox="0 0 24 24" fill="none" xmlns="http://www.w3.org/2000/svg">
<path fill-rule="evenodd" clip-rule="evenodd" d="M4.07998 6.42334C3.5723 5.91566 3.5723 5.09254 4.07998 4.58486C4.58766 4.07718 5.41078 4.07718 5.91846 4.58486L12.4185 11.0849C12.6623 11.3287 12.7992 11.6593 12.7992 12.0041C12.7992 12.3489 12.6623 12.6795 12.4185 12.9233L5.91846 19.4233C5.41078 19.931 4.58766 19.931 4.07998 19.4233C3.5723 18.9157 3.5723 18.0925 4.07998 17.5849L9.66075 12.0041L4.07998 6.42334ZM12.0801 6.42334C11.5724 5.91566 11.5724 5.09254 12.0801 4.58486C12.5878 4.07718 13.4109 4.07718 13.9186 4.58486L20.4186 11.0849C20.6624 11.3287 20.7994 11.6593 20.7994 12.0041C20.7994 12.3489 20.6624 12.6795 20.4186 12.9233L13.9186 19.4233C13.4109 19.931 12.5878 19.931 12.0801 19.4233C11.5724 18.9157 11.5724 18.0925 12.0801 17.5849L17.6609 12.0041L12.0801 6.42334Z" fill="currentColor"/>
</svg>
