<svg width="24" height="24" viewBox="0 0 24 24" fill="none" xmlns="http://www.w3.org/2000/svg">
<path fill-rule="evenodd" clip-rule="evenodd" d="M2.09943 12.0001C2.09943 6.53248 6.53179 2.1001 11.9994 2.1001C17.467 2.1001 21.8994 6.53248 21.8994 12.0001C21.8994 17.4677 17.467 21.9001 11.9994 21.9001C6.53179 21.9001 2.09943 17.4677 2.09943 12.0001ZM11.9995 7.1C12.4965 7.1 12.8995 7.50294 12.8995 8V12.5C12.8995 12.9971 12.4965 13.4 11.9995 13.4C11.5024 13.4 11.0995 12.9971 11.0995 12.5V8C11.0995 7.50294 11.5024 7.1 11.9995 7.1ZM12.9994 16C12.9994 16.5523 12.5516 17 11.9994 17C11.4471 17 10.9994 16.5523 10.9994 16C10.9994 15.4477 11.4471 15 11.9994 15C12.5516 15 12.9994 15.4477 12.9994 16Z" fill="currentColor"/>
</svg>
