<svg width="24" height="24" viewBox="0 0 24 24" fill="none" xmlns="http://www.w3.org/2000/svg">
<path d="M8.09963 12C8.09963 9.84609 9.84572 8.1 11.9996 8.1C14.1535 8.1 15.8996 9.84609 15.8996 12C15.8996 14.1539 14.1535 15.9 11.9996 15.9C9.84572 15.9 8.09963 14.1539 8.09963 12Z" fill="currentColor"/>
<path fill-rule="evenodd" clip-rule="evenodd" d="M2.09961 12.0001C2.09961 6.53248 6.53199 2.1001 11.9996 2.1001C17.4672 2.1001 21.8996 6.53248 21.8996 12.0001C21.8996 17.4677 17.4672 21.9001 11.9996 21.9001C6.53199 21.9001 2.09961 17.4677 2.09961 12.0001ZM11.9996 3.9001C7.5261 3.9001 3.89961 7.52659 3.89961 12.0001C3.89961 16.4736 7.5261 20.1001 11.9996 20.1001C16.4731 20.1001 20.0996 16.4736 20.0996 12.0001C20.0996 7.52659 16.4731 3.9001 11.9996 3.9001Z" fill="currentColor"/>
</svg>
