<svg width="24" height="24" viewBox="0 0 24 24" fill="none" xmlns="http://www.w3.org/2000/svg">
<path fill-rule="evenodd" clip-rule="evenodd" d="M2.09949 12.0001C2.09949 6.53248 6.53185 2.1001 11.9994 2.1001C17.467 2.1001 21.8994 6.53248 21.8994 12.0001C21.8994 17.4677 17.467 21.9001 11.9994 21.9001C6.53185 21.9001 2.09949 17.4677 2.09949 12.0001ZM12.9994 8C12.9994 8.55228 12.5517 9 11.9994 9C11.4471 9 10.9994 8.55228 10.9994 8C10.9994 7.44772 11.4471 7 11.9994 7C12.5517 7 12.9994 7.44772 12.9994 8ZM11.9995 10.6C12.4966 10.6 12.8995 11.0029 12.8995 11.5V16C12.8995 16.4971 12.4966 16.9 11.9995 16.9C11.5025 16.9 11.0995 16.4971 11.0995 16V11.5C11.0995 11.0029 11.5025 10.6 11.9995 10.6Z" fill="currentColor"/>
</svg>
