<svg width="24" height="24" viewBox="0 0 24 24" fill="none" xmlns="http://www.w3.org/2000/svg">
<path d="M12.8996 8C12.8996 7.50294 12.4967 7.1 11.9996 7.1C11.5026 7.1 11.0996 7.50294 11.0996 8V11.1H7.99962C7.50256 11.1 7.09962 11.5029 7.09962 12C7.09962 12.4971 7.50256 12.9 7.99962 12.9H11.0996V16C11.0996 16.4971 11.5026 16.9 11.9996 16.9C12.4967 16.9 12.8996 16.4971 12.8996 16V12.9H15.9996C16.4966 12.9 16.8996 12.4971 16.8996 12C16.8996 11.5029 16.4966 11.1 15.9996 11.1H12.8996V8Z" fill="currentColor"/>
<path fill-rule="evenodd" clip-rule="evenodd" d="M11.9996 2.1001C6.53197 2.1001 2.09961 6.53248 2.09961 12.0001C2.09961 17.4677 6.53197 21.9001 11.9996 21.9001C17.4672 21.9001 21.8995 17.4677 21.8995 12.0001C21.8995 6.53248 17.4672 2.1001 11.9996 2.1001ZM3.8996 12.0001C3.8996 7.52659 7.52608 3.9001 11.9996 3.9001C16.4731 3.9001 20.0995 7.52659 20.0995 12.0001C20.0995 16.4736 16.4731 20.1001 11.9996 20.1001C7.52608 20.1001 3.8996 16.4736 3.8996 12.0001Z" fill="currentColor"/>
</svg>
