<svg width="24" height="24" viewBox="0 0 24 24" fill="none" xmlns="http://www.w3.org/2000/svg">
<path d="M9.63589 8.36409C9.28441 8.01262 8.71457 8.01262 8.3631 8.36409C8.01163 8.71556 8.01163 9.28541 8.3631 9.63688L10.7267 12.0005L8.3631 14.3641C8.01163 14.7156 8.01163 15.2854 8.3631 15.6369C8.71457 15.9884 9.28441 15.9884 9.63589 15.6369L11.9995 13.2733L14.3631 15.6369C14.7145 15.9884 15.2844 15.9884 15.6359 15.6369C15.9873 15.2854 15.9873 14.7156 15.6359 14.3641L13.2723 12.0005L15.6359 9.63688C15.9873 9.28541 15.9873 8.71556 15.6359 8.36409C15.2844 8.01262 14.7145 8.01262 14.3631 8.36409L11.9995 10.7277L9.63589 8.36409Z" fill="currentColor"/>
<path fill-rule="evenodd" clip-rule="evenodd" d="M11.9995 2.1001C6.53188 2.1001 2.09952 6.53248 2.09952 12.0001C2.09952 17.4677 6.53188 21.9001 11.9995 21.9001C17.4671 21.9001 21.8994 17.4677 21.8994 12.0001C21.8994 6.53248 17.4671 2.1001 11.9995 2.1001ZM3.89951 12.0001C3.89951 7.52659 7.52599 3.9001 11.9995 3.9001C16.473 3.9001 20.0994 7.52659 20.0994 12.0001C20.0994 16.4736 16.473 20.1001 11.9995 20.1001C7.52599 20.1001 3.89951 16.4736 3.89951 12.0001Z" fill="currentColor"/>
</svg>
