<svg width="24" height="24" viewBox="0 0 24 24" fill="none" xmlns="http://www.w3.org/2000/svg">
<path d="M11.1894 13.0148C11.1025 13.4917 11.5089 13.8908 11.9938 13.8908C12.4778 13.8908 12.8451 13.4845 13.0068 13.0283C13.2201 12.4264 13.6527 12.0647 14.0835 11.7046C14.6809 11.2053 15.2746 10.709 15.2746 9.57944C15.2746 7.83142 13.8583 6.80195 12.055 6.80195C10.4161 6.80195 9.18018 7.6659 8.81895 9.06834C8.69798 9.53798 9.10501 9.93872 9.58999 9.93872C10.0737 9.93872 10.4291 9.52024 10.6533 9.09164C10.8945 8.6309 11.3581 8.36801 11.9859 8.36343C12.8495 8.37034 13.4506 8.8678 13.4506 9.64854C13.4506 10.2808 13.055 10.5818 12.5894 10.936C12.0445 11.3505 11.4038 11.838 11.1894 13.0148Z" fill="currentColor"/>
<path d="M10.8804 16.0603C10.8735 16.6821 11.3433 17.1381 11.9997 17.1381C12.6422 17.1381 13.1121 16.6821 13.119 16.0603C13.1121 15.4384 12.6422 14.9824 11.9997 14.9824C11.3433 14.9824 10.8735 15.4384 10.8804 16.0603Z" fill="currentColor"/>
<path fill-rule="evenodd" clip-rule="evenodd" d="M11.9996 2.1001C6.53197 2.1001 2.09961 6.53248 2.09961 12.0001C2.09961 17.4677 6.53197 21.9001 11.9996 21.9001C17.4672 21.9001 21.8995 17.4677 21.8995 12.0001C21.8995 6.53248 17.4672 2.1001 11.9996 2.1001ZM3.8996 12.0001C3.8996 7.52659 7.52608 3.9001 11.9996 3.9001C16.4731 3.9001 20.0995 7.52659 20.0995 12.0001C20.0995 16.4736 16.4731 20.1001 11.9996 20.1001C7.52608 20.1001 3.8996 16.4736 3.8996 12.0001Z" fill="currentColor"/>
</svg>
