<svg width="24" height="24" viewBox="0 0 24 24" fill="none" xmlns="http://www.w3.org/2000/svg">
<path fill-rule="evenodd" clip-rule="evenodd" d="M9.31908 15.3806C9.31908 15.8607 9.70822 16.2498 10.1883 16.2498C10.6683 16.2498 11.0574 15.8607 11.0574 15.3806V13.3721H12.232C14.17 13.3721 15.4973 12.2269 15.4973 10.5532C15.4973 8.89119 14.17 7.746 12.232 7.746H10.9191C10.359 7.746 10.079 7.746 9.86509 7.85499C9.67693 7.95086 9.52395 8.10384 9.42807 8.29201C9.31908 8.50592 9.31908 8.78594 9.31908 9.346V15.3806ZM12.2555 11.7865H11.0574V9.33165H12.2555C13.1892 9.33165 13.7472 9.78973 13.7472 10.5532C13.7472 11.3225 13.1892 11.7865 12.2555 11.7865Z" fill="currentColor"/>
<path fill-rule="evenodd" clip-rule="evenodd" d="M11.9996 2.1001C6.53197 2.1001 2.09961 6.53248 2.09961 12.0001C2.09961 17.4677 6.53197 21.9001 11.9996 21.9001C17.4672 21.9001 21.8995 17.4677 21.8995 12.0001C21.8995 6.53248 17.4672 2.1001 11.9996 2.1001ZM3.8996 12.0001C3.8996 7.52659 7.52608 3.9001 11.9996 3.9001C16.4731 3.9001 20.0995 7.52659 20.0995 12.0001C20.0995 16.4736 16.4731 20.1001 11.9996 20.1001C7.52608 20.1001 3.8996 16.4736 3.8996 12.0001Z" fill="currentColor"/>
</svg>
