<svg width="24" height="24" viewBox="0 0 24 24" fill="none" xmlns="http://www.w3.org/2000/svg">
<path d="M12.9995 8C12.9995 8.55228 12.5518 9 11.9995 9C11.4473 9 10.9995 8.55228 10.9995 8C10.9995 7.44772 11.4473 7 11.9995 7C12.5518 7 12.9995 7.44772 12.9995 8Z" fill="currentColor"/>
<path d="M12.8997 11.5C12.8997 11.0029 12.4967 10.6 11.9997 10.6C11.5026 10.6 11.0997 11.0029 11.0997 11.5V16C11.0997 16.4971 11.5026 16.9 11.9997 16.9C12.4967 16.9 12.8997 16.4971 12.8997 16V11.5Z" fill="currentColor"/>
<path fill-rule="evenodd" clip-rule="evenodd" d="M2.09961 12.0001C2.09961 6.53248 6.53197 2.1001 11.9996 2.1001C17.4672 2.1001 21.8995 6.53248 21.8995 12.0001C21.8995 17.4677 17.4672 21.9001 11.9996 21.9001C6.53197 21.9001 2.09961 17.4677 2.09961 12.0001ZM11.9996 3.9001C7.52608 3.9001 3.8996 7.52659 3.8996 12.0001C3.8996 16.4736 7.52608 20.1001 11.9996 20.1001C16.473 20.1001 20.0995 16.4736 20.0995 12.0001C20.0995 7.52659 16.473 3.9001 11.9996 3.9001Z" fill="currentColor"/>
</svg>
