<svg width="24" height="24" viewBox="0 0 24 24" fill="none" xmlns="http://www.w3.org/2000/svg">
<path d="M12.9995 16C12.9995 16.5523 12.5518 17 11.9995 17C11.4473 17 10.9995 16.5523 10.9995 16C10.9995 15.4477 11.4473 15 11.9995 15C12.5518 15 12.9995 15.4477 12.9995 16Z" fill="currentColor"/>
<path d="M12.8997 8C12.8997 7.50294 12.4967 7.1 11.9997 7.1C11.5026 7.1 11.0997 7.50294 11.0997 8V12.5C11.0997 12.9971 11.5026 13.4 11.9997 13.4C12.4967 13.4 12.8997 12.9971 12.8997 12.5V8Z" fill="currentColor"/>
<path fill-rule="evenodd" clip-rule="evenodd" d="M2.09961 12.0001C2.09961 6.53248 6.53197 2.1001 11.9996 2.1001C17.4672 2.1001 21.8995 6.53248 21.8995 12.0001C21.8995 17.4677 17.4672 21.9001 11.9996 21.9001C6.53197 21.9001 2.09961 17.4677 2.09961 12.0001ZM11.9996 3.9001C7.52608 3.9001 3.8996 7.52659 3.8996 12.0001C3.8996 16.4736 7.52608 20.1001 11.9996 20.1001C16.4731 20.1001 20.0995 16.4736 20.0995 12.0001C20.0995 7.52659 16.4731 3.9001 11.9996 3.9001Z" fill="currentColor"/>
</svg>
