<svg width="24" height="24" viewBox="0 0 24 24" fill="none" xmlns="http://www.w3.org/2000/svg">
<path fill-rule="evenodd" clip-rule="evenodd" d="M2.09955 12.0001C2.09955 6.53248 6.53191 2.1001 11.9995 2.1001C17.4671 2.1001 21.8995 6.53248 21.8995 12.0001C21.8995 17.4677 17.4671 21.9001 11.9995 21.9001C6.53191 21.9001 2.09955 17.4677 2.09955 12.0001ZM12.8995 7.75C12.8995 7.25294 12.4966 6.85 11.9995 6.85C11.5025 6.85 11.0995 7.25294 11.0995 7.75V11.1H7.74955C7.2525 11.1 6.84955 11.5029 6.84955 12C6.84955 12.4971 7.2525 12.9 7.74955 12.9H11.0995V16.25C11.0995 16.7471 11.5025 17.15 11.9995 17.15C12.4966 17.15 12.8995 16.7471 12.8995 16.25V12.9H16.2495C16.7466 12.9 17.1495 12.4971 17.1495 12C17.1495 11.5029 16.7466 11.1 16.2495 11.1H12.8995V7.75Z" fill="currentColor"/>
</svg>
