<svg width="24" height="24" viewBox="0 0 24 24" fill="none" xmlns="http://www.w3.org/2000/svg">
<path fill-rule="evenodd" clip-rule="evenodd" d="M12 2.1001C17.4674 2.10033 21.9004 6.53301 21.9004 12.0005C21.9002 17.4678 17.4673 21.9007 12 21.9009C6.53253 21.9009 2.09982 17.4679 2.09961 12.0005C2.09961 6.53287 6.5324 2.1001 12 2.1001ZM9.2998 8.3999C8.80278 8.39994 8.39941 8.80326 8.39941 9.30029C8.39956 9.79721 8.80287 10.1997 9.2998 10.1997H12.5273L8.66309 14.064C8.31207 14.4154 8.3119 14.9851 8.66309 15.3364C9.01453 15.6878 9.58505 15.6878 9.93652 15.3364L13.7998 11.4731V14.6997C13.7999 15.1967 14.2032 15.6001 14.7002 15.6001C15.197 15.5999 15.5995 15.1966 15.5996 14.6997V9.30029C15.5996 8.80338 15.1971 8.40013 14.7002 8.3999H9.2998Z" fill="currentColor"/>
</svg>
