<svg width="24" height="24" viewBox="0 0 24 24" fill="none" xmlns="http://www.w3.org/2000/svg">
<path d="M16.6462 9.87603C16.9919 9.51888 16.9826 8.94911 16.6255 8.60341C16.2683 8.25772 15.6986 8.26701 15.3529 8.62416L10.6769 13.4551L8.64712 11.3523C8.30191 10.9947 7.73215 10.9846 7.37453 11.3298C7.01691 11.675 7.00684 12.2448 7.35205 12.6024L10.0285 15.3752C10.198 15.5507 10.4314 15.6499 10.6754 15.6501C10.9194 15.6503 11.153 15.5514 11.3227 15.376L16.6462 9.87603Z" fill="currentColor"/>
<path fill-rule="evenodd" clip-rule="evenodd" d="M11.9996 2.1001C6.53197 2.1001 2.09961 6.53248 2.09961 12.0001C2.09961 17.4677 6.53197 21.9001 11.9996 21.9001C17.4672 21.9001 21.8995 17.4677 21.8995 12.0001C21.8995 6.53248 17.4672 2.1001 11.9996 2.1001ZM3.8996 12.0001C3.8996 7.52659 7.52608 3.9001 11.9996 3.9001C16.4731 3.9001 20.0995 7.52659 20.0995 12.0001C20.0995 16.4736 16.4731 20.1001 11.9996 20.1001C7.52608 20.1001 3.8996 16.4736 3.8996 12.0001Z" fill="currentColor"/>
</svg>
