<svg width="24" height="24" viewBox="0 0 24 24" fill="none" xmlns="http://www.w3.org/2000/svg">
<path d="M14.7002 8.3999C15.1971 8.40013 15.5996 8.80338 15.5996 9.30029V14.6997C15.5996 15.1966 15.1971 15.5999 14.7002 15.6001C14.2031 15.6001 13.7998 15.1968 13.7998 14.6997V11.4731L9.93652 15.3364C9.58505 15.6879 9.01455 15.6879 8.66309 15.3364C8.31187 14.985 8.31197 14.4154 8.66309 14.064L12.5273 10.1997H9.2998C8.8028 10.1997 8.39949 9.79728 8.39941 9.30029C8.39941 8.80324 8.80275 8.3999 9.2998 8.3999H14.7002Z" fill="currentColor"/>
<path fill-rule="evenodd" clip-rule="evenodd" d="M12 2.1001C17.4674 2.10033 21.9004 6.53301 21.9004 12.0005C21.9002 17.4678 17.4673 21.9007 12 21.9009C6.53253 21.9009 2.09982 17.4679 2.09961 12.0005C2.09961 6.53287 6.5324 2.1001 12 2.1001ZM12 3.90088C7.52652 3.90088 3.90039 7.52698 3.90039 12.0005C3.9006 16.4738 7.52665 20.1001 12 20.1001C16.4732 20.0999 20.0994 16.4737 20.0996 12.0005C20.0996 7.52712 16.4733 3.90111 12 3.90088Z" fill="currentColor"/>
</svg>
