<svg width="24" height="24" viewBox="0 0 24 24" fill="none" xmlns="http://www.w3.org/2000/svg">
<path fill-rule="evenodd" clip-rule="evenodd" d="M2.09943 12.0001C2.09943 6.53248 6.53179 2.1001 11.9994 2.1001C17.467 2.1001 21.8993 6.53248 21.8993 12.0001C21.8993 17.4677 17.467 21.9001 11.9994 21.9001C6.53179 21.9001 2.09943 17.4677 2.09943 12.0001ZM11.1093 13.1165C11.0124 13.6409 11.4596 14.08 11.993 14.08C12.5254 14.08 12.9293 13.6328 13.1099 13.1319C13.3446 12.4807 13.8163 12.0841 14.2868 11.6886C14.9456 11.1348 15.6019 10.5831 15.6019 9.3375C15.6019 7.41467 14.0439 6.28226 12.0603 6.28226C10.2576 6.28226 8.89802 7.23259 8.50066 8.77528C8.3676 9.29189 8.81534 9.7327 9.34881 9.7327C9.88091 9.7327 10.2718 9.27237 10.5185 8.80092C10.7837 8.2941 11.2937 8.00492 11.9843 7.99988C12.9343 8.00748 13.5955 8.55469 13.5955 9.4135C13.5955 10.1105 13.1584 10.4457 12.6449 10.8397C12.0472 11.2982 11.3458 11.8362 11.1093 13.1165ZM10.7683 16.4664C10.7607 17.1504 11.2775 17.652 11.9995 17.652C12.7063 17.652 13.2231 17.1504 13.2307 16.4664C13.2231 15.7824 12.7063 15.2808 11.9995 15.2808C11.2775 15.2808 10.7607 15.7824 10.7683 16.4664Z" fill="currentColor"/>
</svg>
