<svg width="24" height="24" viewBox="0 0 24 24" fill="none" xmlns="http://www.w3.org/2000/svg">
<path d="M11.4994 6.59971C11.9965 6.59971 12.3994 7.00265 12.3994 7.49971V12.127L14.6106 14.3382C14.962 14.6897 14.962 15.2595 14.6106 15.611C14.2591 15.9624 13.6892 15.9624 13.3378 15.611L10.8629 13.1361C10.6834 12.9566 10.5956 12.7201 10.5994 12.4848V7.49971C10.5994 7.00265 11.0024 6.59971 11.4994 6.59971Z" fill="currentColor"/>
<path fill-rule="evenodd" clip-rule="evenodd" d="M11.9996 2.1001C6.53197 2.1001 2.09961 6.53248 2.09961 12.0001C2.09961 17.4677 6.53197 21.9001 11.9996 21.9001C17.4672 21.9001 21.8995 17.4677 21.8995 12.0001C21.8995 6.53248 17.4672 2.1001 11.9996 2.1001ZM3.8996 12.0001C3.8996 7.52659 7.52608 3.9001 11.9996 3.9001C16.4731 3.9001 20.0995 7.52659 20.0995 12.0001C20.0995 16.4736 16.4731 20.1001 11.9996 20.1001C7.52608 20.1001 3.8996 16.4736 3.8996 12.0001Z" fill="currentColor"/>
</svg>
