<svg width="24" height="24" viewBox="0 0 24 24" fill="none" xmlns="http://www.w3.org/2000/svg">
<path fill-rule="evenodd" clip-rule="evenodd" d="M11.9996 2.1001C6.53197 2.1001 2.09961 6.53248 2.09961 12.0001C2.09961 17.4677 6.53197 21.9001 11.9996 21.9001C17.4672 21.9001 21.8995 17.4677 21.8995 12.0001C21.8995 6.53248 17.4672 2.1001 11.9996 2.1001ZM11.4995 6.09951C11.9965 6.09951 12.3995 6.50246 12.3995 6.99951V12.1268L14.7142 14.4415C15.0656 14.793 15.0656 15.3629 14.7142 15.7143C14.3627 16.0658 13.7928 16.0658 13.4414 15.7143L10.863 13.1359C10.6834 12.9564 10.5956 12.7199 10.5995 12.4846V6.99951C10.5995 6.50246 11.0024 6.09951 11.4995 6.09951Z" fill="currentColor"/>
</svg>
