<svg width="24" height="24" viewBox="0 0 24 24" fill="none" xmlns="http://www.w3.org/2000/svg">
<path d="M14.2177 3.12669C14.7 3.24725 14.9931 3.73589 14.8726 4.2181L10.8726 20.2181C10.752 20.7003 10.2634 20.9935 9.7812 20.873C9.29898 20.7524 9.0058 20.2638 9.12635 19.7815L13.1263 3.78154C13.2469 3.29932 13.7355 3.00614 14.2177 3.12669Z" fill="currentColor"/>
<path d="M16.3631 6.36343C16.0116 6.7149 16.0116 7.28475 16.3631 7.63622L20.7266 11.9998L16.3631 16.3634C16.0116 16.7149 16.0116 17.2847 16.3631 17.6362C16.7145 17.9877 17.2844 17.9877 17.6358 17.6362L22.6358 12.6362C22.9873 12.2847 22.9873 11.7149 22.6358 11.3634L17.6358 6.36343C17.2844 6.01195 16.7145 6.01195 16.3631 6.36343Z" fill="currentColor"/>
<path d="M7.63598 7.63622C7.98745 7.28475 7.98745 6.7149 7.63598 6.36343C7.28451 6.01195 6.71466 6.01195 6.36319 6.36343L1.36321 11.3634C1.01174 11.7149 1.01174 12.2847 1.36321 12.6362L6.36319 17.6362C6.71466 17.9877 7.28451 17.9877 7.63598 17.6362C7.98745 17.2847 7.98745 16.7149 7.63598 16.3634L3.27239 11.9998L7.63598 7.63622Z" fill="currentColor"/>
</svg>
