<svg width="24" height="24" viewBox="0 0 24 24" fill="none" xmlns="http://www.w3.org/2000/svg">
<path fill-rule="evenodd" clip-rule="evenodd" d="M5.86823 3.09522H16.1349C16.5264 3.0952 16.8729 3.09518 17.1601 3.11864C17.4658 3.14363 17.7827 3.19964 18.0911 3.3568C18.5427 3.5869 18.9099 3.95405 19.14 4.40564C19.257 4.63528 19.3179 4.86957 19.3517 5.10049H19.7506C22.0426 5.10049 23.9006 6.95851 23.9006 9.25049C23.9006 11.5425 22.0426 13.4005 19.7506 13.4005H18.4407C17.035 16.0732 14.2315 17.8962 11.0019 17.8962C6.36264 17.8962 2.60156 14.1343 2.60156 9.49522V6.36188C2.60155 5.97038 2.60153 5.62388 2.62499 5.33673C2.64997 5.03095 2.70598 4.7141 2.86315 4.40564C3.09325 3.95405 3.4604 3.5869 3.91199 3.3568C4.22044 3.19964 4.53729 3.14363 4.84308 3.11864C5.13022 3.09518 5.47675 3.0952 5.86823 3.09522ZM19.7506 6.90049H19.4016V9.49522C19.4016 10.2222 19.3092 10.9277 19.1356 11.6005H19.7506C21.0485 11.6005 22.1006 10.5484 22.1006 9.25049C22.1006 7.95262 21.0485 6.90049 19.7506 6.90049Z" fill="currentColor"/>
<path d="M4.75171 20.0995C4.25465 20.0995 3.85171 20.5025 3.85171 20.9995C3.85171 21.4966 4.25465 21.8995 4.75171 21.8995H17.7517C18.2488 21.8995 18.6517 21.4966 18.6517 20.9995C18.6517 20.5025 18.2488 20.0995 17.7517 20.0995H4.75171Z" fill="currentColor"/>
</svg>
