<svg width="24" height="24" viewBox="0 0 24 24" fill="none" xmlns="http://www.w3.org/2000/svg">
<path fill-rule="evenodd" clip-rule="evenodd" d="M6.66616 3.09522C6.13632 3.0952 5.6851 3.09519 5.31468 3.12545C4.92552 3.15725 4.54693 3.22688 4.18499 3.4113C3.63932 3.68933 3.19568 4.13297 2.91765 4.67864C2.73323 5.04058 2.6636 5.41917 2.6318 5.80833C2.60154 6.17875 2.60155 6.62991 2.60156 7.15976V9.49522C2.60156 14.1343 6.36264 17.8962 11.0019 17.8962C14.4312 17.8962 17.38 15.8408 18.6851 12.8952H20.0014C22.1554 12.8952 23.9014 11.1491 23.9014 8.99522C23.9014 6.84131 22.1554 5.09522 20.0014 5.09522L19.2497 5.09644C19.2086 4.95501 19.1553 4.81563 19.0855 4.67864C18.8075 4.13297 18.3638 3.68933 17.8181 3.4113C17.4562 3.22688 17.0776 3.15725 16.6885 3.12545C16.318 3.09519 15.8669 3.0952 15.337 3.09522H6.66616ZM19.4014 6.89619C19.4016 6.98178 19.4016 7.06966 19.4016 7.15981V9.49522C19.4016 10.0423 19.3493 10.5772 19.2494 11.0952H20.0014C21.1612 11.0952 22.1014 10.155 22.1014 8.99522C22.1014 7.83564 21.1616 6.89558 20.0021 6.89522L19.4014 6.89619ZM5.16169 4.94886C5.29322 4.90612 5.48705 4.89502 6.30161 4.89502H15.7016C16.5162 4.89502 16.71 4.90612 16.8415 4.94886C17.1764 5.05767 17.439 5.32022 17.5478 5.6551C17.5905 5.78662 17.6016 5.98046 17.6016 6.79502V9.49502C17.6016 13.1403 14.6468 16.096 11.002 16.096C7.357 16.096 4.40161 13.1402 4.40161 9.49502V6.79502C4.40161 5.98046 4.41272 5.78662 4.45545 5.6551C4.56426 5.32022 4.82681 5.05767 5.16169 4.94886Z" fill="currentColor"/>
<path d="M3.85183 20.9995C3.85183 20.5025 4.25478 20.0995 4.75183 20.0995H17.7518C18.2489 20.0995 18.6518 20.5025 18.6518 20.9995C18.6518 21.4966 18.2489 21.8995 17.7518 21.8995H4.75183C4.25478 21.8995 3.85183 21.4966 3.85183 20.9995Z" fill="currentColor"/>
</svg>
