<svg width="24" height="24" viewBox="0 0 24 24" fill="none" xmlns="http://www.w3.org/2000/svg">
<path fill-rule="evenodd" clip-rule="evenodd" d="M6.28276 3.25705C7.75282 2.67001 9.75014 2.34887 11.9997 2.34912C14.2491 2.34937 16.2463 2.67051 17.7163 3.25739C19.0974 3.80878 20.395 4.76806 20.3995 6.2414C20.3996 6.24413 20.3996 6.24687 20.3996 6.24961V17.4996L20.3995 17.5097C20.3936 18.9815 19.0968 19.9403 17.7164 20.4915C16.2464 21.0786 14.249 21.3997 11.9995 21.3995C9.75007 21.3992 7.75282 21.0781 6.28283 20.4912C4.89933 19.9388 3.59961 18.9772 3.59961 17.4995L3.59963 17.4928V13.7606L3.59961 13.7495L3.59963 13.7428V10.0106L3.59961 9.99946L3.59963 9.99276V6.26021C3.59962 6.25652 3.59961 6.25282 3.59961 6.24912C3.59961 4.77151 4.89918 3.80957 6.28276 3.25705ZM5.39963 8.81847V10.0039C5.40261 10.2771 5.67942 10.8121 6.95024 11.3195C8.14153 11.7951 9.89427 12.0992 11.9997 12.0995C14.105 12.0997 15.8576 11.7956 17.0489 11.3199C18.3266 10.8097 18.5996 10.2714 18.5996 9.99946L18.5996 9.99271V8.81872C18.3177 8.97988 18.0191 9.12033 17.7164 9.24119C16.2464 9.82824 14.249 10.1494 11.9995 10.1491C9.75007 10.1489 7.75282 9.82774 6.28283 9.24085C5.98018 9.12002 5.68153 8.9796 5.39963 8.81847ZM5.39963 13.7539V12.5688C5.68153 12.7299 5.98018 12.8704 6.28283 12.9912C7.75282 13.5781 9.75007 13.8992 11.9995 13.8995C14.249 13.8997 16.2464 13.5786 17.7164 12.9915C18.0191 12.8707 18.3177 12.7302 18.5996 12.5691V13.7426L18.5996 13.7495C18.5996 14.0214 18.3266 14.5597 17.0489 15.0699C15.8576 15.5456 14.105 15.8497 11.9997 15.8495C9.89427 15.8492 8.14153 15.5451 6.95024 15.0695C5.67942 14.5621 5.40261 14.0271 5.39963 13.7539ZM17.7164 16.7415C18.0191 16.6207 18.3177 16.4802 18.5996 16.3191V17.4926L18.5996 17.4995C18.5996 17.7714 18.3266 18.3097 17.0489 18.8199C15.8576 19.2956 14.105 19.5997 11.9997 19.5995C9.89427 19.5992 8.14153 19.2951 6.95024 18.8195C5.67832 18.3117 5.40213 17.7762 5.39962 17.5032L5.39963 17.4996V16.3188C5.68153 16.4799 5.98018 16.6204 6.28283 16.7412C7.75282 17.3281 9.75007 17.6492 11.9995 17.6495C14.249 17.6497 16.2464 17.3286 17.7164 16.7415Z" fill="currentColor"/>
</svg>
