<svg width="24" height="24" viewBox="0 0 24 24" fill="none" xmlns="http://www.w3.org/2000/svg">
<path fill-rule="evenodd" clip-rule="evenodd" d="M3.59963 6.26021C3.59962 6.25652 3.59961 6.25282 3.59961 6.24912C3.59961 4.77151 4.89918 3.80957 6.28276 3.25705C7.75282 2.67001 9.75014 2.34887 11.9997 2.34912C14.2491 2.34937 16.2463 2.67051 17.7163 3.25739C19.0974 3.80876 20.3949 4.768 20.3995 6.24125C20.3996 6.244 20.3996 6.24676 20.3996 6.24951V17.4995L20.3995 17.5096C20.3936 18.9814 19.0968 19.9402 17.7164 20.4914C16.2464 21.0785 14.249 21.3996 11.9995 21.3994C9.75007 21.3991 7.75282 21.078 6.28283 20.4911C4.89933 19.9387 3.59961 18.9771 3.59961 17.4994L3.59963 17.4927V13.7605L3.59961 13.7494L3.59963 13.7427V10.0105L3.59961 9.99937L3.59963 9.99266V6.26021ZM5.39962 6.24553C5.40202 5.9725 5.67821 5.43668 6.95031 4.92869C8.14154 4.45299 9.8942 4.14889 11.9995 4.14912C14.1049 4.14936 15.8576 4.45347 17.0489 4.92909C18.3267 5.43923 18.5996 5.97732 18.5996 6.24912C18.5996 6.52102 18.3266 7.05932 17.0489 7.56955C15.8576 8.04525 14.105 8.34936 11.9997 8.34912C9.89427 8.34889 8.14153 8.04477 6.95024 7.56916C5.67942 7.06179 5.40261 6.52679 5.39963 6.25359V6.24951L5.39962 6.24553ZM18.5996 8.81872V9.99261L18.5996 9.99937C18.5996 10.2713 18.3266 10.8096 17.0489 11.3198C15.8576 11.7955 14.105 12.0996 11.9997 12.0994C9.89427 12.0991 8.14153 11.795 6.95024 11.3194C5.67942 10.812 5.40261 10.277 5.39963 10.0038V8.81847C5.68153 8.9796 5.98018 9.12002 6.28283 9.24085C7.75282 9.82774 9.75007 10.1489 11.9995 10.1491C14.249 10.1494 16.2464 9.82824 17.7164 9.24119C18.0191 9.12033 18.3177 8.97988 18.5996 8.81872ZM5.39963 13.7538V12.5687C5.68153 12.7298 5.98018 12.8703 6.28283 12.9911C7.75282 13.578 9.75007 13.8991 11.9995 13.8994C14.249 13.8996 16.2464 13.5785 17.7164 12.9914C18.0191 12.8706 18.3177 12.7301 18.5996 12.569V13.7425L18.5996 13.7494C18.5996 14.0213 18.3266 14.5596 17.0489 15.0698C15.8576 15.5455 14.105 15.8496 11.9997 15.8494C9.89427 15.8491 8.14153 15.545 6.95024 15.0694C5.67942 14.562 5.40261 14.027 5.39963 13.7538ZM17.7164 16.7414C18.0191 16.6206 18.3177 16.4801 18.5996 16.319V17.4925L18.5996 17.4994C18.5996 17.7713 18.3266 18.3096 17.0489 18.8198C15.8576 19.2955 14.105 19.5996 11.9997 19.5994C9.89427 19.5991 8.14153 19.295 6.95024 18.8194C5.67832 18.3116 5.40213 17.7761 5.39962 17.5031L5.39963 17.4995V16.3187C5.68153 16.4798 5.98018 16.6203 6.28283 16.7411C7.75282 17.328 9.75007 17.6491 11.9995 17.6494C14.249 17.6496 16.2464 17.3285 17.7164 16.7414Z" fill="currentColor"/>
</svg>
