<svg width="24" height="24" viewBox="0 0 24 24" fill="none" xmlns="http://www.w3.org/2000/svg">
<path fill-rule="evenodd" clip-rule="evenodd" d="M16.2373 3.1001C17.0454 3.10009 17.7062 3.10008 18.2433 3.14396C18.7992 3.18938 19.3013 3.28626 19.7702 3.52517C20.504 3.89908 21.1006 4.4957 21.4745 5.22954C21.7134 5.69842 21.8103 6.2005 21.8557 6.75642C21.8996 7.29349 21.8996 7.95434 21.8996 8.76239V15.2378C21.8996 16.0459 21.8996 16.7067 21.8557 17.2438C21.8103 17.7997 21.7134 18.3018 21.4745 18.7707C21.1006 19.5045 20.504 20.1011 19.7702 20.475C19.3013 20.7139 18.7992 20.8108 18.2433 20.8562C17.7062 20.9001 17.0454 20.9001 16.2373 20.9001H7.76191C6.95385 20.9001 6.293 20.9001 5.75593 20.8562C5.20001 20.8108 4.69794 20.7139 4.22905 20.475C3.49522 20.1011 2.89859 19.5045 2.52469 18.7707C2.28577 18.3018 2.18889 17.7997 2.14347 17.2438C2.09959 16.7067 2.0996 16.0459 2.09961 15.2378V8.7624C2.0996 7.95436 2.09959 7.29349 2.14347 6.75642C2.18889 6.2005 2.28577 5.69842 2.52469 5.22954C2.89859 4.4957 3.49522 3.89908 4.22905 3.52517C4.69794 3.28626 5.20001 3.18938 5.75593 3.14396C6.293 3.10008 6.95385 3.10009 7.7619 3.1001H16.2373ZM14.0993 4.9001H9.89927V19.1001H14.0993V4.9001ZM15.8993 19.1001V4.9001H16.1996C17.0545 4.9001 17.6416 4.9008 18.0967 4.93798C18.5413 4.97431 18.7801 5.04091 18.953 5.12898C19.3481 5.33032 19.6694 5.65158 19.8707 6.04672C19.9588 6.21956 20.0254 6.45839 20.0617 6.90299C20.0989 7.3581 20.0996 7.94517 20.0996 8.8001V15.2001C20.0996 16.055 20.0989 16.6421 20.0617 17.0972C20.0254 17.5418 19.9588 17.7806 19.8707 17.9535C19.6694 18.3486 19.3481 18.6699 18.953 18.8712C18.7801 18.9593 18.5413 19.0259 18.0967 19.0622C17.6416 19.0994 17.0545 19.1001 16.1996 19.1001H15.8993ZM7.79961 4.9001H8.09927V19.1001H7.79961C6.94468 19.1001 6.35761 19.0994 5.90251 19.0622C5.45791 19.0259 5.21908 18.9593 5.04623 18.8712C4.65109 18.6699 4.32983 18.3486 4.1285 17.9535C4.04043 17.7806 3.97382 17.5418 3.93749 17.0972C3.90031 16.6421 3.89961 16.055 3.89961 15.2001V8.8001C3.89961 7.94517 3.90031 7.3581 3.93749 6.90299C3.97382 6.45839 4.04043 6.21956 4.1285 6.04672C4.32983 5.65158 4.65109 5.33032 5.04623 5.12898C5.21908 5.04091 5.45791 4.97431 5.90251 4.93798C6.35761 4.9008 6.94468 4.9001 7.79961 4.9001Z" fill="currentColor"/>
</svg>
