<svg width="24" height="24" viewBox="0 0 24 24" fill="none" xmlns="http://www.w3.org/2000/svg">
<path d="M13.4994 12.0002C13.4994 12.8286 12.8279 13.5002 11.9994 13.5002C11.171 13.5002 10.4994 12.8286 10.4994 12.0002C10.4994 11.1718 11.171 10.5002 11.9994 10.5002C12.8279 10.5002 13.4994 11.1718 13.4994 12.0002Z" fill="currentColor"/>
<path fill-rule="evenodd" clip-rule="evenodd" d="M2.09961 11.9996C2.09961 6.53199 6.53199 2.09961 11.9996 2.09961C17.4672 2.09961 21.8996 6.53199 21.8996 11.9996C21.8996 17.4672 17.4672 21.8996 11.9996 21.8996C6.53199 21.8996 2.09961 17.4672 2.09961 11.9996ZM9.90872 9.67656C9.82044 9.74255 9.74211 9.82088 9.67613 9.90915C9.59509 10.0176 9.54267 10.1373 9.52952 10.1674L9.52704 10.173L7.36785 14.9232C7.3094 15.0516 7.24362 15.1962 7.19962 15.3205L7.1984 15.3239C7.16362 15.422 7.05389 15.7316 7.16177 16.0796C7.27403 16.4417 7.55757 16.7253 7.91972 16.8375C8.26774 16.9454 8.57726 16.8357 8.67539 16.8009L8.67883 16.7997C8.80306 16.7557 8.94763 16.6899 9.0761 16.6315L13.8263 14.4723L13.8319 14.4698C13.862 14.4566 13.9817 14.4042 14.0901 14.3232C14.1784 14.2572 14.2567 14.1788 14.3227 14.0906C14.4038 13.9822 14.4562 13.8624 14.4693 13.8323L14.4718 13.8267L16.631 9.07659C16.6894 8.94813 16.7552 8.80353 16.7992 8.6793L16.8004 8.67586C16.8352 8.57773 16.9449 8.26821 16.837 7.92019C16.7248 7.55805 16.4412 7.2745 16.0791 7.16225C15.7311 7.05437 15.4216 7.16409 15.3234 7.19888L15.32 7.2001C15.1958 7.24409 15.0512 7.30987 14.9227 7.36831L10.1726 9.52747L10.1669 9.52996C10.1369 9.5431 10.0171 9.59552 9.90872 9.67656Z" fill="currentColor"/>
</svg>
