<svg width="24" height="24" viewBox="0 0 24 24" fill="none" xmlns="http://www.w3.org/2000/svg">
<path d="M21.1498 2.7501C21.1498 2.25304 20.7468 1.8501 20.2498 1.8501C19.7527 1.8501 19.3498 2.25304 19.3498 2.7501V4.3501H17.7498C17.2527 4.3501 16.8498 4.75304 16.8498 5.2501C16.8498 5.74716 17.2527 6.1501 17.7498 6.1501H19.3498V7.7501C19.3498 8.24716 19.7527 8.6501 20.2498 8.6501C20.7468 8.6501 21.1498 8.24716 21.1498 7.7501V6.1501H22.7498C23.2468 6.1501 23.6498 5.74716 23.6498 5.2501C23.6498 4.75304 23.2468 4.3501 22.7498 4.3501H21.1498V2.7501Z" fill="currentColor"/>
<path d="M6.99958 10.0998C6.50252 10.0998 6.09958 10.5028 6.09958 10.9998C6.09958 11.4969 6.50252 11.8998 6.99958 11.8998H10.9996C11.4966 11.8998 11.8996 11.4969 11.8996 10.9998C11.8996 10.5028 11.4966 10.0998 10.9996 10.0998H6.99958Z" fill="currentColor"/>
<path d="M6.99958 6.09981C6.50252 6.09981 6.09958 6.50275 6.09958 6.99981C6.09958 7.49686 6.50252 7.89981 6.99958 7.89981H10.9996C11.4966 7.89981 11.8996 7.49686 11.8996 6.99981C11.8996 6.50275 11.4966 6.09981 10.9996 6.09981H6.99958Z" fill="currentColor"/>
<path fill-rule="evenodd" clip-rule="evenodd" d="M5.86627 2.09971H12.1329C12.5244 2.09969 12.8709 2.09968 13.1581 2.12314C13.4638 2.14812 13.7807 2.20413 14.0891 2.3613C14.5407 2.59139 14.9079 2.95854 15.138 3.41013C15.2951 3.71859 15.3512 4.03544 15.3761 4.34123C15.3996 4.62836 15.3996 4.97481 15.3996 5.36628L15.3996 10.0997L18.1329 10.0997C18.5244 10.0997 18.8709 10.0997 19.158 10.1231C19.4638 10.1481 19.7807 10.2041 20.0891 10.3613C20.5407 10.5914 20.9079 10.9585 21.138 11.4101C21.2951 11.7186 21.3511 12.0354 21.3761 12.3412C21.3996 12.6284 21.3996 12.9749 21.3996 13.3664V21.8997H14.5207L14.4996 21.9L14.4784 21.8997H9.01307L8.99957 21.8998L8.98607 21.8997H2.59961L2.59961 5.36638C2.59959 4.97492 2.59958 4.62835 2.62304 4.34123C2.64802 4.03544 2.70403 3.71859 2.8612 3.41013C3.09129 2.95854 3.45845 2.59139 3.91003 2.3613C4.21849 2.20413 4.53534 2.14812 4.84112 2.12314C5.12825 2.09968 5.4748 2.09969 5.86627 2.09971ZM13.5996 20.0997H9.89957V16.9998C9.89957 16.5028 9.49663 16.0998 8.99957 16.0998C8.50252 16.0998 8.09957 16.5028 8.09957 16.9998V20.0997H4.39964V5.09966C4.39964 4.47122 4.41075 4.37045 4.42901 4.31425C4.48836 4.13158 4.63157 3.98837 4.81423 3.92902C4.87044 3.91076 4.97121 3.89966 5.59964 3.89966H12.3996C13.028 3.89966 13.1288 3.91076 13.185 3.92902C13.3677 3.98837 13.5109 4.13158 13.5702 4.31425C13.5885 4.37045 13.5996 4.47122 13.5996 5.09966V20.0997ZM15.3996 20.0997H19.5996V13.0997C19.5996 12.4712 19.5885 12.3705 19.5702 12.3142C19.5109 12.1316 19.3677 11.9884 19.185 11.929C19.1288 11.9108 19.028 11.8997 18.3996 11.8997H15.3996V20.0997Z" fill="currentColor"/>
</svg>
