<svg width="24" height="24" viewBox="0 0 24 24" fill="none" xmlns="http://www.w3.org/2000/svg">
<path d="M21.1497 2.7501C21.1497 2.25304 20.7468 1.8501 20.2498 1.8501C19.7527 1.8501 19.3498 2.25304 19.3498 2.7501V4.3501H17.7498C17.2527 4.3501 16.8498 4.75304 16.8498 5.2501C16.8498 5.74716 17.2527 6.1501 17.7498 6.1501H19.3498V7.7501C19.3498 8.24716 19.7527 8.6501 20.2498 8.6501C20.7468 8.6501 21.1497 8.24716 21.1497 7.7501V6.1501H22.7497C23.2468 6.1501 23.6497 5.74716 23.6497 5.2501C23.6497 4.75304 23.2468 4.3501 22.7497 4.3501H21.1497V2.7501Z" fill="currentColor"/>
<path fill-rule="evenodd" clip-rule="evenodd" d="M5.86627 2.09971C5.4748 2.09969 5.12825 2.09968 4.84112 2.12314C4.53534 2.14812 4.21849 2.20413 3.91003 2.3613C3.45845 2.59139 3.09129 2.95854 2.8612 3.41013C2.70403 3.71859 2.64802 4.03544 2.62304 4.34123C2.59958 4.62834 2.5996 4.97477 2.59961 5.36621L2.59961 21.8997H14.4784L14.4996 21.9L14.5207 21.8997H14.5996V17.7497C14.5996 17.2527 15.0025 16.8497 15.4996 16.8497C15.9966 16.8497 16.3996 17.2527 16.3996 17.7497V21.8997H21.3995V13.3664C21.3996 12.9749 21.3996 12.6284 21.3761 12.3412C21.3511 12.0354 21.2951 11.7186 21.138 11.4101C20.9079 10.9585 20.5407 10.5914 20.0891 10.3613C19.7807 10.2041 19.4638 10.1481 19.158 10.1231C18.8709 10.0997 18.5244 10.0997 18.133 10.0997L15.3996 10.0997L15.3996 5.36637C15.3996 4.97491 15.3996 4.62836 15.3761 4.34123C15.3511 4.03544 15.2951 3.71859 15.138 3.41013C14.9079 2.95854 14.5407 2.59139 14.0891 2.3613C13.7807 2.20413 13.4638 2.14812 13.1581 2.12314C12.8709 2.09968 12.5245 2.09969 12.133 2.09971H5.86627ZM6.99957 10.0998C6.50252 10.0998 6.09958 10.5028 6.09958 10.9998C6.09958 11.4969 6.50252 11.8998 6.99957 11.8998H10.9996C11.4966 11.8998 11.8996 11.4969 11.8996 10.9998C11.8996 10.5028 11.4966 10.0998 10.9996 10.0998H6.99957ZM6.99957 6.09981C6.50252 6.09981 6.09958 6.50275 6.09958 6.99981C6.09958 7.49686 6.50252 7.89981 6.99957 7.89981H10.9996C11.4966 7.89981 11.8996 7.49686 11.8996 6.99981C11.8996 6.50275 11.4966 6.09981 10.9996 6.09981H6.99957Z" fill="currentColor"/>
</svg>
