<svg width="24" height="24" viewBox="0 0 24 24" fill="none" xmlns="http://www.w3.org/2000/svg">
<path d="M1.85244 12.9538C1.32523 12.4266 1.32523 11.5719 1.85244 11.0447L4.85764 8.03945C5.38485 7.51224 6.23962 7.51224 6.76683 8.03945L9.77203 11.0447C10.2992 11.5719 10.2992 12.4266 9.77203 12.9538L6.76683 15.959C6.23962 16.4863 5.38485 16.4863 4.85764 15.959L1.85244 12.9538Z" fill="currentColor"/>
<path d="M8.04024 19.1418C7.51303 18.6146 7.51303 17.7598 8.04024 17.2326L11.0454 14.2274C11.5727 13.7002 12.4274 13.7002 12.9546 14.2274L15.9598 17.2326C16.487 17.7598 16.487 18.6146 15.9598 19.1418L12.9546 22.147C12.4274 22.6742 11.5727 22.6742 11.0454 22.147L8.04024 19.1418Z" fill="currentColor"/>
<path d="M8.04024 4.85813C7.51303 5.38534 7.51303 6.24011 8.04024 6.76732L11.0454 9.77252C11.5727 10.2997 12.4274 10.2997 12.9546 9.77252L15.9598 6.76732C16.487 6.24011 16.487 5.38534 15.9598 4.85813L12.9546 1.85293C12.4274 1.32572 11.5727 1.32572 11.0454 1.85292L8.04024 4.85813Z" fill="currentColor"/>
<path d="M14.2278 12.9548C13.7006 12.4276 13.7006 11.5728 14.2278 11.0456L17.233 8.04042C17.7602 7.51322 18.615 7.51322 19.1422 8.04042L22.1474 11.0456C22.6746 11.5728 22.6746 12.4276 22.1474 12.9548L19.1422 15.96C18.615 16.4872 17.7602 16.4872 17.233 15.96L14.2278 12.9548Z" fill="currentColor"/>
</svg>
