<svg width="24" height="24" viewBox="0 0 24 24" fill="none" xmlns="http://www.w3.org/2000/svg">
<path fill-rule="evenodd" clip-rule="evenodd" d="M5.86627 2.09961C5.47482 2.09959 5.12824 2.09958 4.84112 2.12304C4.53534 2.14802 4.21849 2.20403 3.91003 2.3612C3.45844 2.59129 3.09129 2.95845 2.8612 3.41004C2.70403 3.71849 2.64802 4.03534 2.62304 4.34113C2.59958 4.62825 2.59959 4.9747 2.59961 5.36615L2.59961 21.8996H14.4784L14.4996 21.8999L14.5207 21.8996H14.5996V17.7496C14.5996 17.2526 15.0025 16.8496 15.4996 16.8496C15.9966 16.8496 16.3996 17.2526 16.3996 17.7496V21.8996H21.3995V13.3663C21.3996 12.9748 21.3996 12.6283 21.3761 12.3411C21.3511 12.0353 21.2951 11.7185 21.138 11.41C20.9079 10.9584 20.5407 10.5913 20.0891 10.3612C19.7807 10.204 19.4638 10.148 19.158 10.123C18.8709 10.0996 18.5244 10.0996 18.1329 10.0996L15.3996 10.0996L15.3996 5.36628C15.3996 4.97481 15.3996 4.62826 15.3761 4.34113C15.3511 4.03534 15.2951 3.71849 15.138 3.41004C14.9079 2.95845 14.5407 2.59129 14.0891 2.3612C13.7807 2.20403 13.4638 2.14802 13.1581 2.12304C12.8709 2.09958 12.5245 2.09959 12.133 2.09961H5.86627ZM6.99957 10.0997C6.50252 10.0997 6.09958 10.5027 6.09958 10.9997C6.09958 11.4968 6.50252 11.8997 6.99957 11.8997H10.9996C11.4966 11.8997 11.8995 11.4968 11.8995 10.9997C11.8995 10.5027 11.4966 10.0997 10.9996 10.0997H6.99957ZM6.99957 6.09971C6.50252 6.09971 6.09958 6.50266 6.09958 6.99971C6.09958 7.49677 6.50252 7.89971 6.99957 7.89971H10.9996C11.4966 7.89971 11.8995 7.49677 11.8995 6.99971C11.8995 6.50266 11.4966 6.09971 10.9996 6.09971H6.99957Z" fill="currentColor"/>
<path d="M23.1358 4.63639C23.4872 4.28492 23.4872 3.71507 23.1358 3.3636C22.7843 3.01213 22.2144 3.01214 21.863 3.36361L19.4994 5.72725L18.3858 4.61365C18.0343 4.26218 17.4645 4.26218 17.113 4.61365C16.7615 4.96513 16.7615 5.53497 17.113 5.88645L18.863 7.63645C19.0318 7.80523 19.2607 7.90005 19.4994 7.90005C19.7381 7.90005 19.967 7.80523 20.1358 7.63644L23.1358 4.63639Z" fill="currentColor"/>
</svg>
