<svg width="24" height="24" viewBox="0 0 24 24" fill="none" xmlns="http://www.w3.org/2000/svg">
<path d="M6.99957 10.0997C6.50252 10.0997 6.09958 10.5027 6.09958 10.9997C6.09958 11.4968 6.50252 11.8997 6.99957 11.8997H10.9996C11.4966 11.8997 11.8996 11.4968 11.8996 10.9997C11.8996 10.5027 11.4966 10.0997 10.9996 10.0997H6.99957Z" fill="currentColor"/>
<path d="M6.99957 6.09971C6.50252 6.09971 6.09958 6.50266 6.09958 6.99971C6.09958 7.49677 6.50252 7.89971 6.99957 7.89971H10.9996C11.4966 7.89971 11.8996 7.49677 11.8996 6.99971C11.8996 6.50266 11.4966 6.09971 10.9996 6.09971H6.99957Z" fill="currentColor"/>
<path fill-rule="evenodd" clip-rule="evenodd" d="M5.86627 2.09961H12.1329C12.5244 2.09959 12.8709 2.09958 13.1581 2.12304C13.4638 2.14802 13.7807 2.20403 14.0891 2.3612C14.5407 2.59129 14.9079 2.95845 15.138 3.41004C15.2951 3.71849 15.3511 4.03534 15.3761 4.34113C15.3996 4.62826 15.3996 4.97471 15.3996 5.36618L15.3996 10.0996L18.1329 10.0996C18.5244 10.0996 18.8709 10.0996 19.158 10.123C19.4638 10.148 19.7807 10.204 20.0891 10.3612C20.5407 10.5913 20.9079 10.9584 21.138 11.41C21.2951 11.7185 21.3511 12.0353 21.3761 12.3411C21.3996 12.6283 21.3996 12.9747 21.3995 13.3662V21.8996H14.5207L14.4996 21.8999L14.4784 21.8996H9.01306L8.99957 21.8997L8.98607 21.8996H2.59961L2.59961 5.36628C2.59959 4.97481 2.59958 4.62826 2.62304 4.34113C2.64802 4.03534 2.70403 3.71849 2.8612 3.41004C3.09129 2.95845 3.45844 2.59129 3.91003 2.3612C4.21848 2.20403 4.53534 2.14802 4.84112 2.12304C5.12824 2.09958 5.47482 2.09959 5.86627 2.09961ZM13.5996 20.0996H9.89956V16.9997C9.89956 16.5027 9.49662 16.0997 8.99957 16.0997C8.50251 16.0997 8.09957 16.5027 8.09957 16.9997V20.0996H4.39964V5.09956C4.39964 4.47113 4.41074 4.37036 4.42901 4.31415C4.48836 4.13149 4.63157 3.98828 4.81423 3.92893C4.87043 3.91066 4.9712 3.89956 5.59964 3.89956H12.3996C13.028 3.89956 13.1288 3.91066 13.185 3.92893C13.3677 3.98828 13.5109 4.13149 13.5702 4.31415C13.5885 4.37036 13.5996 4.47113 13.5996 5.09956V20.0996ZM15.3996 20.0996H19.5996V13.0996C19.5996 12.4711 19.5885 12.3704 19.5702 12.3141C19.5109 12.1315 19.3676 11.9883 19.185 11.9289C19.1288 11.9107 19.028 11.8996 18.3996 11.8996H15.3996V20.0996Z" fill="currentColor"/>
<path d="M23.1358 4.63645C23.4873 4.28498 23.4873 3.71513 23.1358 3.36366C22.7843 3.01219 22.2145 3.0122 21.863 3.36367L19.4994 5.72731L18.3858 4.61371C18.0343 4.26224 17.4645 4.26224 17.113 4.61371C16.7615 4.96519 16.7615 5.53503 17.113 5.88651L18.863 7.63651C19.0318 7.80529 19.2607 7.90011 19.4994 7.90011C19.7381 7.90011 19.967 7.80529 20.1358 7.6365L23.1358 4.63645Z" fill="currentColor"/>
</svg>
