<svg width="24" height="24" viewBox="0 0 24 24" fill="none" xmlns="http://www.w3.org/2000/svg">
<path fill-rule="evenodd" clip-rule="evenodd" d="M2.78256 9.6894C2.50574 9.9662 2.26068 10.2112 2.07424 10.4309C1.87568 10.6648 1.69124 10.9284 1.58426 11.2576C1.42764 11.7397 1.42764 12.2589 1.58426 12.7409C1.69124 13.0702 1.87568 13.3338 2.07424 13.5677C2.26068 13.7873 2.50566 14.0323 2.78247 14.3091L3.50146 15.0281C3.77824 15.3049 4.0233 15.55 4.24291 15.7364C4.4768 15.9349 4.74046 16.1194 5.0697 16.2264C5.55172 16.383 6.07096 16.383 6.55298 16.2264C6.88222 16.1194 7.14588 15.9349 7.37977 15.7364C7.59939 15.5499 7.84438 15.3049 8.12118 15.0281L8.84012 14.3092C9.11695 14.0324 9.36199 13.7873 9.54844 13.5677C9.747 13.3338 9.93144 13.0702 10.0384 12.7409C10.195 12.2589 10.195 11.7397 10.0384 11.2576C9.93144 10.9284 9.747 10.6648 9.54844 10.4309C9.36199 10.2112 9.11699 9.96625 8.84016 9.68945L8.12122 8.97051C7.84442 8.69368 7.59939 8.44864 7.37977 8.26219C7.14588 8.06363 6.88222 7.87919 6.55298 7.77221C6.07096 7.61559 5.55172 7.61559 5.0697 7.77221C4.74046 7.87919 4.4768 8.06363 4.24291 8.26219C4.02329 8.44863 3.77832 8.69363 3.50152 8.97045L2.78256 9.6894ZM3.33205 11.7268C3.35888 11.6741 3.42229 11.595 3.86666 11.1506L4.96267 10.0546C5.40704 9.61024 5.48615 9.54683 5.53881 9.52C5.70993 9.43281 5.91246 9.43281 6.08359 9.52C6.13625 9.54683 6.21536 9.61023 6.65973 10.0546L7.75574 11.1506C8.20011 11.595 8.26352 11.6741 8.29035 11.7268C8.37754 11.8979 8.37754 12.1004 8.29035 12.2715C8.26352 12.3242 8.20011 12.4033 7.75574 12.8477L6.65973 13.9437C6.21536 14.3881 6.13625 14.4515 6.08359 14.4783C5.91246 14.5655 5.70993 14.5655 5.53881 14.4783C5.48615 14.4515 5.40704 14.3881 4.96267 13.9437L3.86666 12.8477C3.42229 12.4033 3.35888 12.3242 3.33205 12.2715C3.24486 12.1004 3.24486 11.8979 3.33205 11.7268Z" fill="currentColor"/>
<path fill-rule="evenodd" clip-rule="evenodd" d="M8.97043 15.8773C8.69359 16.1541 8.44855 16.3991 8.2621 16.6187C8.06355 16.8526 7.8791 17.1163 7.77213 17.4455C7.61551 17.9276 7.61551 18.4468 7.77213 18.9288C7.8791 19.2581 8.06355 19.5217 8.2621 19.7556C8.44855 19.9752 8.69354 20.2202 8.97037 20.497L9.68932 21.216C9.96612 21.4928 10.2112 21.7378 10.4308 21.9243C10.6647 22.1228 10.9283 22.3073 11.2576 22.4143C11.7396 22.5709 12.2588 22.5709 12.7408 22.4143C13.0701 22.3073 13.3337 22.1228 13.5676 21.9243C13.7873 21.7378 14.0323 21.4928 14.3091 21.216L15.028 20.4971C15.3048 20.2202 15.5498 19.9752 15.7363 19.7556C15.9349 19.5217 16.1193 19.2581 16.2263 18.9288C16.3829 18.4468 16.3829 17.9276 16.2263 17.4455C16.1193 17.1163 15.9349 16.8526 15.7363 16.6187C15.5499 16.3991 15.3049 16.1541 15.028 15.8773L14.3091 15.1584C14.0323 14.8816 13.7873 14.6365 13.5676 14.4501C13.3337 14.2515 13.0701 14.0671 12.7408 13.9601C12.2588 13.8035 11.7396 13.8035 11.2576 13.9601C10.9283 14.0671 10.6647 14.2515 10.4308 14.4501C10.2111 14.6365 9.96616 14.8815 9.68935 15.1584L8.97043 15.8773ZM9.51992 17.9146C9.54675 17.862 9.61015 17.7829 10.0545 17.3385L11.1505 16.2425C11.5949 15.7981 11.674 15.7347 11.7267 15.7079C11.8978 15.6207 12.1003 15.6207 12.2715 15.7079C12.3241 15.7347 12.4032 15.7981 12.8476 16.2425L13.9436 17.3385C14.388 17.7829 14.4514 17.862 14.4782 17.9146C14.5654 18.0858 14.5654 18.2883 14.4782 18.4594C14.4514 18.5121 14.388 18.5912 13.9436 19.0356L12.8476 20.1316C12.4032 20.5759 12.3241 20.6394 12.2715 20.6662C12.1003 20.7534 11.8978 20.7534 11.7267 20.6662C11.674 20.6394 11.5949 20.5759 11.1505 20.1316L10.0545 19.0356C9.61015 18.5912 9.54675 18.5121 9.51992 18.4594C9.43272 18.2883 9.43272 18.0858 9.51992 17.9146Z" fill="currentColor"/>
<path fill-rule="evenodd" clip-rule="evenodd" d="M8.97043 3.50292L9.68932 2.78403C9.96614 2.50718 10.2111 2.26216 10.4308 2.0757C10.6647 1.87715 10.9283 1.6927 11.2576 1.58573C11.7396 1.42911 12.2588 1.42911 12.7408 1.58573C13.0701 1.6927 13.3337 1.87715 13.5676 2.0757C13.7873 2.26216 14.0323 2.50718 14.3091 2.78403L15.028 3.50292C15.3048 3.77975 15.5498 4.02474 15.7363 4.24438C15.9349 4.47827 16.1193 4.74192 16.2263 5.07116C16.3829 5.55319 16.3829 6.07242 16.2263 6.55445C16.1193 6.88369 15.9349 7.14734 15.7363 7.38123C15.5499 7.60086 15.3049 7.84584 15.028 8.12265L14.3091 8.84158C14.0323 9.11842 13.7873 9.36346 13.5676 9.54991C13.3337 9.74846 13.0701 9.93291 12.7408 10.0399C12.2588 10.1965 11.7396 10.1965 11.2576 10.0399C10.9283 9.93291 10.6647 9.74846 10.4308 9.54991C10.2111 9.36345 9.96616 9.11844 9.68935 8.8416L8.97043 8.12269C8.69359 7.84587 8.44856 7.60086 8.2621 7.38123C8.06355 7.14734 7.8791 6.88369 7.77213 6.55445C7.61551 6.07242 7.61551 5.55319 7.77213 5.07116C7.8791 4.74192 8.06355 4.47827 8.2621 4.24438C8.44856 4.02474 8.69358 3.77975 8.97043 3.50292ZM10.0545 4.96414C9.61015 5.40851 9.54675 5.48761 9.51992 5.54027C9.43272 5.7114 9.43272 5.91393 9.51992 6.08506C9.54675 6.13772 9.61015 6.21682 10.0545 6.66119L11.1505 7.75721C11.5949 8.20158 11.674 8.26498 11.7267 8.29181C11.8978 8.37901 12.1003 8.37901 12.2715 8.29181C12.3241 8.26498 12.4032 8.20158 12.8476 7.75721L13.9436 6.66119C14.388 6.21682 14.4514 6.13772 14.4782 6.08506C14.5654 5.91393 14.5654 5.7114 14.4782 5.54027C14.4514 5.48761 14.388 5.40851 13.9436 4.96414L12.8476 3.86812C12.4032 3.42375 12.3241 3.36035 12.2715 3.33352C12.1003 3.24632 11.8978 3.24632 11.7267 3.33352C11.674 3.36035 11.5949 3.42375 11.1505 3.86812L10.0545 4.96414Z" fill="currentColor"/>
<path fill-rule="evenodd" clip-rule="evenodd" d="M15.158 9.69045C14.8811 9.96727 14.6361 10.2123 14.4496 10.4319C14.2511 10.6658 14.0666 10.9295 13.9597 11.2587C13.803 11.7407 13.803 12.26 13.9597 12.742C14.0666 13.0712 14.2511 13.3349 14.4496 13.5688C14.6361 13.7884 14.8811 14.0334 15.1579 14.3102L15.8769 15.0291C16.1537 15.306 16.3987 15.551 16.6183 15.7374C16.8522 15.936 17.1159 16.1204 17.4451 16.2274C17.9271 16.384 18.4464 16.384 18.9284 16.2274C19.2576 16.1204 19.5213 15.936 19.7552 15.7374C19.9748 15.551 20.2198 15.306 20.4966 15.0291L21.2155 14.3102C21.4924 14.0334 21.7374 13.7884 21.9238 13.5688C22.1224 13.3349 22.3068 13.0712 22.4138 12.742C22.5704 12.26 22.5704 11.7407 22.4138 11.2587C22.3068 10.9295 22.1224 10.6658 21.9238 10.4319C21.7374 10.2123 21.4924 9.96728 21.2155 9.69045L20.4966 8.97156C20.2198 8.69471 19.9748 8.44969 19.7552 8.26323C19.5213 8.06468 19.2576 7.88023 18.9284 7.77325C18.4464 7.61664 17.9271 7.61664 17.4451 7.77326C17.1159 7.88023 16.8522 8.06468 16.6183 8.26323C16.3987 8.44969 16.1537 8.6947 15.8769 8.97154L15.158 9.69045ZM15.7074 11.7278C15.7343 11.6751 15.7977 11.596 16.242 11.1517L17.3381 10.0557C17.7824 9.61128 17.8615 9.54788 17.9142 9.52105C18.0853 9.43385 18.2879 9.43385 18.459 9.52105C18.5116 9.54788 18.5907 9.61128 19.0351 10.0557L20.1311 11.1517C20.5755 11.596 20.6389 11.6751 20.6657 11.7278C20.7529 11.8989 20.7529 12.1015 20.6657 12.2726C20.6389 12.3252 20.5755 12.4044 20.1311 12.8487L19.0351 13.9447C18.5907 14.3891 18.5116 14.4525 18.459 14.4793C18.2879 14.5665 18.0853 14.5665 17.9142 14.4793C17.8615 14.4525 17.7824 14.3891 17.3381 13.9447L16.242 12.8487C15.7977 12.4044 15.7343 12.3252 15.7074 12.2726C15.6203 12.1015 15.6203 11.8989 15.7074 11.7278Z" fill="currentColor"/>
</svg>
