<svg width="24" height="24" viewBox="0 0 24 24" fill="none" xmlns="http://www.w3.org/2000/svg">
<path fill-rule="evenodd" clip-rule="evenodd" d="M9.92187 9.67041C9.82546 9.74072 9.74057 9.8256 9.67027 9.92201C9.58383 10.0405 9.5309 10.1724 9.51768 10.2053L9.5152 10.2114L7.64861 14.6625C7.59833 14.7822 7.53992 14.9214 7.50141 15.042C7.46976 15.1412 7.37455 15.4399 7.48286 15.7753C7.59644 16.1269 7.87209 16.4026 8.22375 16.5162C8.5591 16.6245 8.85784 16.5293 8.95699 16.4976C9.07765 16.4591 9.21679 16.4007 9.33655 16.3504L13.7876 14.4838L13.7937 14.4813C13.8266 14.4681 13.9585 14.4152 14.077 14.3288C14.1734 14.2585 14.2583 14.1736 14.3286 14.0772C14.4151 13.9586 14.468 13.8268 14.4812 13.7939L14.4837 13.7877L16.3502 9.33674C16.4005 9.21698 16.4589 9.07783 16.4974 8.95718C16.5291 8.85802 16.6243 8.55928 16.516 8.22393C16.4024 7.87228 16.1268 7.59663 15.7751 7.48305C15.4398 7.37474 15.141 7.46995 15.0419 7.50159C14.9212 7.5401 14.7821 7.59851 14.6623 7.64879L10.2113 9.51534L10.2052 9.51783C10.1723 9.53104 10.0404 9.58398 9.92187 9.67041ZM12.9995 12.0002C12.9995 12.5525 12.5517 13.0002 11.9995 13.0002C11.4472 13.0002 10.9995 12.5525 10.9995 12.0002C10.9995 11.4479 11.4472 11.0002 11.9995 11.0002C12.5517 11.0002 12.9995 11.4479 12.9995 12.0002Z" fill="currentColor"/>
<path fill-rule="evenodd" clip-rule="evenodd" d="M11.9996 2.09961C6.53199 2.09961 2.09961 6.53199 2.09961 11.9996C2.09961 17.4672 6.53199 21.8996 11.9996 21.8996C17.4672 21.8996 21.8996 17.4672 21.8996 11.9996C21.8996 6.53199 17.4672 2.09961 11.9996 2.09961ZM3.89961 11.9996C3.89961 7.5261 7.5261 3.89961 11.9996 3.89961C16.4731 3.89961 20.0996 7.5261 20.0996 11.9996C20.0996 16.4731 16.4731 20.0996 11.9996 20.0996C7.5261 20.0996 3.89961 16.4731 3.89961 11.9996Z" fill="currentColor"/>
</svg>
