<svg width="24" height="24" viewBox="0 0 24 24" fill="none" xmlns="http://www.w3.org/2000/svg">
<path fill-rule="evenodd" clip-rule="evenodd" d="M6.16419 2.59961C5.63436 2.5996 5.18313 2.59959 4.81272 2.62985C4.42356 2.66165 4.04497 2.73128 3.68303 2.91569C3.13737 3.19373 2.69372 3.63737 2.41569 4.18304C2.23128 4.54497 2.16165 4.92357 2.12985 5.31273C2.09959 5.68313 2.0996 6.13428 2.09961 6.6641V14.335C2.0996 14.8648 2.09959 15.3161 2.12985 15.6865C2.16165 16.0757 2.23128 16.4543 2.41569 16.8162C2.69372 17.3619 3.13737 17.8055 3.68303 18.0835C4.04497 18.2679 4.42356 18.3376 4.81272 18.3694C5.18315 18.3996 5.63433 18.3996 6.16419 18.3996H13.835C14.3648 18.3996 14.816 18.3996 15.1864 18.3694C15.5756 18.3376 15.9542 18.2679 16.3161 18.0835C16.8618 17.8055 17.3054 17.3619 17.5835 16.8162C17.7679 16.4543 17.8375 16.0757 17.8693 15.6865C17.8996 15.3161 17.8996 14.8649 17.8996 14.335V6.66421C17.8996 6.13434 17.8996 5.68316 17.8693 5.31273C17.8375 4.92357 17.7679 4.54497 17.5835 4.18304C17.3054 3.63737 16.8618 3.19373 16.3161 2.91569C15.9542 2.73128 15.5756 2.66165 15.1864 2.62985C14.816 2.59959 14.3649 2.5996 13.8351 2.59961H6.16419ZM4.65961 4.45384C4.79113 4.4111 4.98497 4.4 5.79952 4.4H14.1995C15.0141 4.4 15.2079 4.4111 15.3394 4.45384C15.6743 4.56265 15.9368 4.8252 16.0456 5.16008C16.0884 5.2916 16.0995 5.48544 16.0995 6.3V14.7C16.0995 15.5146 16.0884 15.7084 16.0456 15.8399C15.9368 16.1748 15.6743 16.4374 15.3394 16.5462C15.2079 16.5889 15.0141 16.6 14.1995 16.6H5.79952C4.98497 16.6 4.79113 16.5889 4.65961 16.5462C4.32473 16.4374 4.06218 16.1748 3.95337 15.8399C3.91063 15.7084 3.89953 15.5146 3.89953 14.7V6.3C3.89953 5.48544 3.91063 5.2916 3.95337 5.16008C4.06218 4.8252 4.32473 4.56265 4.65961 4.45384Z" fill="currentColor"/>
<path d="M21.8997 9.39974C21.8997 8.90256 21.4967 8.49951 20.9995 8.49951C20.5023 8.49951 20.0993 8.90256 20.0993 9.39974V18.701C20.0993 19.5155 20.0882 19.7094 20.0455 19.8409C19.9366 20.1758 19.6741 20.4383 19.3392 20.5471C19.2077 20.5899 19.0139 20.601 18.1993 20.601H8.89838C8.40187 20.601 7.99937 21.0035 7.99937 21.5C7.99937 21.9965 8.40187 22.399 8.89839 22.399H17.8352C18.365 22.399 18.8162 22.399 19.1866 22.3688C19.5758 22.337 19.9544 22.2673 20.3163 22.0829C20.862 21.8049 21.3056 21.3613 21.5837 20.8156C21.7681 20.4537 21.8377 20.0751 21.8695 19.6859C21.8998 19.3155 21.8998 18.8643 21.8997 18.3345V9.39974Z" fill="currentColor"/>
</svg>
