<svg width="24" height="24" viewBox="0 0 24 24" fill="none" xmlns="http://www.w3.org/2000/svg">
<path fill-rule="evenodd" clip-rule="evenodd" d="M12.734 2.97891C12.5653 2.7407 12.2915 2.59912 11.9996 2.59912C11.7077 2.59912 11.4339 2.7407 11.2652 2.97891L8.86182 6.37189C8.53 6.84034 8.31183 7.14714 8.12622 7.36851C7.94739 7.58179 7.84875 7.65311 7.78332 7.68748C7.5779 7.79541 7.3436 7.83561 7.11395 7.80233C7.04081 7.79173 6.92403 7.75737 6.68434 7.6159C6.43555 7.46906 6.12759 7.25253 5.6586 6.92148L4.01864 5.76385C3.72967 5.55987 3.34801 5.54407 3.04316 5.72347C2.73832 5.90286 2.56682 6.24419 2.60484 6.59585L3.60484 15.8459C3.65424 16.3028 4.04001 16.6491 4.49962 16.6491H19.4996C19.9592 16.6491 20.3449 16.3028 20.3943 15.8459L21.3943 6.59585C21.4324 6.24419 21.2609 5.90286 20.956 5.72347C20.6512 5.54407 20.2695 5.55987 19.9805 5.76385L18.3406 6.92148C17.8716 7.25253 17.5636 7.46906 17.3148 7.6159C17.0752 7.75737 16.9584 7.79173 16.8852 7.80233C16.6556 7.83561 16.4213 7.79541 16.2159 7.68748C16.1504 7.65311 16.0518 7.58179 15.873 7.36851C15.6874 7.14714 15.4692 6.84034 15.1374 6.37189L12.734 2.97891ZM11.9996 5.05615L13.9732 7.84266C14.3286 8.34543 14.6229 8.76186 14.9941 9.03861C15.7375 9.59289 16.7011 9.75822 17.5868 9.48345C18.029 9.34625 18.4452 9.05175 18.9479 8.69617L19.3906 8.38354L18.6916 14.8491H5.30755L4.60857 8.38354L5.05131 8.69617C5.55391 9.05175 5.97017 9.34625 6.41239 9.48345C7.29804 9.75822 8.26169 9.59289 9.00511 9.03861C9.3763 8.76185 9.67059 8.34544 10.0259 7.84266L11.9996 5.05615Z" fill="currentColor"/>
<path d="M4.99968 19.0991C4.50263 19.0991 4.09968 19.5021 4.09968 19.9991C4.09968 20.4962 4.50263 20.8991 4.99968 20.8991H18.9996C19.4967 20.8991 19.8996 20.4962 19.8996 19.9991C19.8996 19.5021 19.4967 19.0991 18.9996 19.0991H4.99968Z" fill="currentColor"/>
</svg>
