<svg width="24" height="24" viewBox="0 0 24 24" fill="none" xmlns="http://www.w3.org/2000/svg">
<path d="M11.9996 2.59912C12.2915 2.59912 12.5653 2.7407 12.734 2.97891L15.1374 6.37189C15.4692 6.84034 15.6874 7.14714 15.873 7.36851C16.0518 7.58179 16.1504 7.65311 16.2159 7.68748C16.4213 7.79541 16.6556 7.83561 16.8852 7.80233C16.9584 7.79173 17.0752 7.75737 17.3148 7.6159C17.5636 7.46906 17.8716 7.25253 18.3406 6.92148L19.9805 5.76385C20.2695 5.55987 20.6512 5.54407 20.956 5.72347C21.2609 5.90286 21.4324 6.24419 21.3943 6.59585L20.3943 15.8459C20.3449 16.3028 19.9592 16.6491 19.4996 16.6491H4.49962C4.04001 16.6491 3.65424 16.3028 3.60484 15.8459L2.60484 6.59585C2.56682 6.24419 2.73832 5.90286 3.04316 5.72347C3.34801 5.54407 3.72967 5.55987 4.01864 5.76385L5.6586 6.92148C6.12759 7.25253 6.43555 7.46906 6.68434 7.6159C6.92403 7.75737 7.04081 7.79173 7.11395 7.80233C7.3436 7.83561 7.5779 7.79541 7.78332 7.68748C7.84875 7.65311 7.94739 7.58179 8.12622 7.36851C8.31183 7.14714 8.53 6.84034 8.86182 6.37189L11.2652 2.97891C11.4339 2.7407 11.7077 2.59912 11.9996 2.59912Z" fill="currentColor"/>
<path d="M4.99968 19.0991C4.50263 19.0991 4.09968 19.5021 4.09968 19.9991C4.09968 20.4962 4.50263 20.8991 4.99968 20.8991H18.9996C19.4967 20.8991 19.8996 20.4962 19.8996 19.9991C19.8996 19.5021 19.4967 19.0991 18.9996 19.0991H4.99968Z" fill="currentColor"/>
</svg>
