<svg width="24" height="24" viewBox="0 0 24 24" fill="none" xmlns="http://www.w3.org/2000/svg">
<path fill-rule="evenodd" clip-rule="evenodd" d="M10 2.09961C14.3628 2.09983 17.9004 5.63709 17.9004 10C17.9003 11.8568 17.257 13.5625 16.1846 14.9111L21.1367 19.8633C21.4878 20.2148 21.4881 20.7854 21.1367 21.1367C20.7854 21.488 20.2148 21.4878 19.8633 21.1367L14.9111 16.1846C13.5625 17.257 11.8568 17.9003 10 17.9004C5.63709 17.9004 2.09982 14.3629 2.09961 10C2.09961 5.63695 5.63696 2.09961 10 2.09961ZM10 3.90039C6.63108 3.90039 3.90039 6.63106 3.90039 10C3.9006 13.3688 6.63121 16.0996 10 16.0996C13.3686 16.0994 16.0994 13.3686 16.0996 10C16.0996 6.6312 13.3687 3.90062 10 3.90039Z" fill="currentColor"/>
<path d="M13.5753 11.1393C13.7352 11.0865 13.9051 11.0303 14.0361 10.9746C14.123 10.9377 14.4282 10.8135 14.5976 10.5039C14.6834 10.3471 14.7261 10.1735 14.7259 10C14.7261 9.82651 14.6834 9.65295 14.5976 9.49609C14.4282 9.18654 14.123 9.06235 14.0361 9.02539C13.9051 8.9697 13.7352 8.91354 13.5752 8.86069L12.8906 8.63477C12.2865 8.43517 12.1342 8.37703 12.0166 8.29688C11.8932 8.21265 11.7864 8.10576 11.7021 7.98242C11.6218 7.86477 11.564 7.71293 11.3642 7.1084L11.1386 6.4248C11.0857 6.2646 11.0294 6.09419 10.9736 5.96289C10.937 5.87677 10.8129 5.5713 10.5029 5.40137C10.3461 5.31555 10.1724 5.27248 9.999 5.27246C9.82562 5.27241 9.65204 5.3157 9.49509 5.40137C9.1848 5.57116 9.06012 5.87654 9.02341 5.96289C8.96758 6.09422 8.91231 6.26452 8.85935 6.4248L8.63279 7.1084C8.43321 7.71246 8.37603 7.8648 8.29588 7.98242C8.21165 8.10584 8.10381 8.21258 7.98045 8.29688C7.86284 8.37709 7.71132 8.43522 7.1074 8.63477L6.42283 8.86035C6.26276 8.91324 6.0932 8.96963 5.96189 9.02539C5.87611 9.06187 5.57046 9.18575 5.40037 9.49609C5.31446 9.65309 5.27153 9.82654 5.27155 10C5.27153 10.1735 5.31446 10.3469 5.40037 10.5039C5.57046 10.8143 5.87611 10.9381 5.96189 10.9746C6.0932 11.0304 6.26276 11.0868 6.42283 11.1396L7.1074 11.3652C7.71132 11.5648 7.86284 11.6229 7.98045 11.7031C8.10381 11.7874 8.21165 11.8942 8.29588 12.0176C8.37603 12.1352 8.43321 12.2875 8.63279 12.8916L8.85935 13.5752C8.91231 13.7355 8.96758 13.9058 9.02341 14.0371C9.06012 14.1235 9.1848 14.4288 9.49509 14.5986C9.65204 14.6843 9.82562 14.7276 9.999 14.7275C10.1724 14.7275 10.3461 14.6844 10.5029 14.5986C10.8129 14.4287 10.937 14.1232 10.9736 14.0371C11.0294 13.9058 11.0857 13.7354 11.1386 13.5752L11.3642 12.8916C11.564 12.2871 11.6218 12.1352 11.7021 12.0176C11.7864 11.8942 11.8932 11.7873 12.0166 11.7031C12.1342 11.623 12.2865 11.5648 12.8906 11.3652L13.5753 11.1393Z" fill="currentColor"/>
</svg>
