<svg width="24" height="24" viewBox="0 0 24 24" fill="none" xmlns="http://www.w3.org/2000/svg">
<path fill-rule="evenodd" clip-rule="evenodd" d="M5.11627 3.1001C4.72482 3.10008 4.37824 3.10007 4.09112 3.12353C3.78534 3.14851 3.46849 3.20452 3.16003 3.36169C2.70845 3.59178 2.34129 3.95894 2.1112 4.41053C1.95403 4.71898 1.89802 5.03583 1.87304 5.34162C1.84958 5.62874 1.84959 5.97519 1.84961 6.36664V14.1334C1.84959 14.5249 1.84958 14.8715 1.87304 15.1586C1.89802 15.4644 1.95403 15.7812 2.1112 16.0897C2.34129 16.5413 2.70845 16.9084 3.16003 17.1385C3.46849 17.2957 3.78534 17.3517 4.09112 17.3767C4.37825 17.4001 4.72471 17.4001 5.11617 17.4001L11.0996 17.4001V19.5998H6.99925C6.50219 19.5998 6.09925 20.0028 6.09925 20.4998C6.09925 20.9969 6.50219 21.3998 6.99925 21.3998H16.9992C17.4963 21.3998 17.8992 20.9969 17.8992 20.4998C17.8992 20.0028 17.4963 19.5998 16.9992 19.5998H12.8996V17.4001L18.8829 17.4001C19.2744 17.4001 19.6209 17.4001 19.908 17.3767C20.2138 17.3517 20.5307 17.2957 20.8391 17.1385C21.2907 16.9084 21.6579 16.5413 21.888 16.0897C22.0451 15.7812 22.1011 15.4644 22.1261 15.1586C22.1496 14.8714 22.1496 14.525 22.1496 14.1335V6.36677C22.1496 5.97527 22.1496 5.62876 22.1261 5.34162C22.1011 5.03583 22.0451 4.71898 21.888 4.41053C21.6579 3.95894 21.2907 3.59178 20.8391 3.36169C20.5307 3.20452 20.2138 3.14851 19.908 3.12353C19.6209 3.10007 19.2745 3.10008 18.883 3.1001H5.11627ZM4.06405 4.92966C4.12026 4.9114 4.22103 4.9003 4.84946 4.9003H19.1494C19.7778 4.9003 19.8786 4.9114 19.9348 4.92966C20.1175 4.98901 20.2607 5.13222 20.32 5.31489C20.3383 5.37109 20.3494 5.47186 20.3494 6.1003V14.4003C20.3494 15.0287 20.3383 15.1295 20.32 15.1857C20.2607 15.3684 20.1175 15.5116 19.9348 15.5709C19.8786 15.5892 19.7778 15.6003 19.1494 15.6003H4.84946C4.22103 15.6003 4.12026 15.5892 4.06405 15.5709C3.88139 15.5116 3.73818 15.3684 3.67883 15.1857C3.66057 15.1295 3.64946 15.0287 3.64946 14.4003V6.1003C3.64946 5.47186 3.66057 5.37109 3.67883 5.31489C3.73818 5.13222 3.88139 4.98901 4.06405 4.92966Z" fill="currentColor"/>
</svg>
