<svg width="24" height="24" viewBox="0 0 24 24" fill="none" xmlns="http://www.w3.org/2000/svg">
<path d="M5.11627 3.1001H18.8829C19.2744 3.10008 19.6209 3.10007 19.908 3.12353C20.2138 3.14851 20.5307 3.20452 20.8391 3.36169C21.2907 3.59178 21.6579 3.95894 21.888 4.41052C22.0451 4.71898 22.1011 5.03583 22.1261 5.34162C22.1496 5.62877 22.1496 5.97525 22.1496 6.36675V14.1334C22.1496 14.5249 22.1496 14.8714 22.1261 15.1586C22.1011 15.4644 22.0451 15.7812 21.888 16.0897C21.6579 16.5413 21.2907 16.9084 20.8391 17.1385C20.5307 17.2957 20.2138 17.3517 19.908 17.3767C19.6209 17.4001 19.2745 17.4001 18.883 17.4001L12.8996 17.4001V19.5998H16.9992C17.4963 19.5998 17.8992 20.0028 17.8992 20.4998C17.8992 20.9969 17.4963 21.3998 16.9992 21.3998H6.99925C6.50219 21.3998 6.09925 20.9969 6.09925 20.4998C6.09925 20.0028 6.50219 19.5998 6.99925 19.5998H11.0996V17.4001L5.11627 17.4001C4.7248 17.4001 4.37825 17.4001 4.09112 17.3767C3.78534 17.3517 3.46849 17.2957 3.16003 17.1385C2.70844 16.9084 2.34129 16.5413 2.1112 16.0897C1.95403 15.7812 1.89802 15.4644 1.87304 15.1586C1.84958 14.8715 1.84959 14.525 1.84961 14.1335V6.36677C1.84959 5.9753 1.84958 5.62875 1.87304 5.34162C1.89802 5.03583 1.95403 4.71898 2.1112 4.41052C2.34129 3.95894 2.70844 3.59178 3.16003 3.36169C3.46849 3.20452 3.78534 3.14851 4.09112 3.12353C4.37825 3.10007 4.7248 3.10008 5.11627 3.1001Z" fill="currentColor"/>
</svg>
