<svg width="24" height="24" viewBox="0 0 24 24" fill="none" xmlns="http://www.w3.org/2000/svg">
<path fill-rule="evenodd" clip-rule="evenodd" d="M7.68635 3.10065L7.59221 3.10038C7.2329 3.09886 6.80276 3.09704 6.41208 3.28003C6.0214 3.46301 5.74743 3.79461 5.51858 4.07162L5.45851 4.14411L2.14448 8.12094C1.90414 8.40925 1.6729 8.68664 1.50987 8.94168C1.32648 9.22854 1.16661 9.5795 1.17619 10.0133C1.18578 10.4471 1.361 10.7907 1.55687 11.0692C1.73101 11.3168 1.97427 11.5837 2.22711 11.8611L9.89221 20.274C10.2063 20.6188 10.5017 20.9432 10.7784 21.1733C11.0856 21.4288 11.4817 21.6658 11.9996 21.6658C12.5175 21.6658 12.9136 21.4288 13.2208 21.1733C13.4975 20.9432 13.7929 20.6188 14.107 20.274L21.7721 11.861C22.025 11.5836 22.2682 11.3168 22.4423 11.0692C22.6382 10.7907 22.8134 10.4471 22.823 10.0133C22.8326 9.5795 22.6727 9.22854 22.4893 8.94168C22.3263 8.68664 22.0951 8.40925 21.8547 8.12093L18.5407 4.14411L18.4806 4.07161C18.2518 3.79461 17.9778 3.46301 17.5871 3.28003C17.1964 3.09704 16.7663 3.09886 16.407 3.10038L16.3129 3.10065H7.68635ZM11.9996 8.63391L8.73299 4.90065H15.2662L11.9996 8.63391ZM13.983 9.10065L17.2329 5.38646L20.3281 9.10065H13.983ZM6.7663 5.38646L10.0162 9.10065H3.67114L6.7663 5.38646ZM11.0996 18.9265V10.9006H3.78714L11.0996 18.9265ZM12.8996 10.9006V18.9265L20.2121 10.9006H12.8996Z" fill="currentColor"/>
</svg>
