<svg width="24" height="24" viewBox="0 0 24 24" fill="none" xmlns="http://www.w3.org/2000/svg">
<path d="M5.82899 3.99995C5.80885 4.02415 5.78908 4.04808 5.76964 4.07162L5.70957 4.14411L2.39433 8.1224C2.15424 8.41041 1.92322 8.68753 1.76031 8.94234C1.72787 8.99307 1.69617 9.0458 1.66602 9.10065H10.0796L5.82899 3.99995Z" fill="currentColor"/>
<path d="M1.6969 10.9006C1.73186 10.9591 1.7686 11.0149 1.80611 11.0683C1.97984 11.3159 2.22257 11.5828 2.47484 11.8602L9.89113 20.0181C10.2054 20.364 10.5011 20.6893 10.778 20.9201C10.8761 21.0018 10.9833 21.0817 11.1006 21.1526V10.9006H1.6969Z" fill="currentColor"/>
<path d="M12.9006 21.1527C13.018 21.0818 13.1252 21.0019 13.2233 20.9201C13.5002 20.6893 13.7958 20.364 14.1101 20.0182L21.5265 11.8602C21.7788 11.5828 22.0215 11.3159 22.1952 11.0683C22.2327 11.0149 22.2695 10.9591 22.3044 10.9006H12.9006V21.1527Z" fill="currentColor"/>
<path d="M22.3353 9.10065C22.3052 9.0458 22.2735 8.99307 22.241 8.94234C22.0781 8.68754 21.8471 8.41043 21.607 8.12243L18.2918 4.14411L18.2317 4.07161C18.2122 4.04806 18.1924 4.02412 18.1723 3.99991L13.9217 9.10065H22.3353Z" fill="currentColor"/>
<path d="M16.5729 3.10751C16.4288 3.09924 16.2887 3.09983 16.1581 3.10038L16.0639 3.10065H7.93742L7.84327 3.10038C7.71257 3.09983 7.5725 3.09924 7.42837 3.10751L12.0006 8.59422L16.5729 3.10751Z" fill="currentColor"/>
</svg>
