<svg width="24" height="24" viewBox="0 0 24 24" fill="none" xmlns="http://www.w3.org/2000/svg">
<path d="M14.2169 20.1641C13.847 21.0624 12.9716 21.6486 12.0002 21.6486C10.6762 21.6486 9.60289 20.5753 9.60289 19.2514V14.8986L6.40008 14.8986C5.78264 14.8987 5.26195 14.8987 4.83981 14.8621C4.40049 14.824 3.97219 14.7406 3.57694 14.5137C2.9885 14.1759 2.53714 13.6425 2.30139 13.0063C2.14303 12.5789 2.13162 12.1427 2.16679 11.7032C2.20057 11.2808 2.28674 10.7674 2.38892 10.1585L3.1725 5.48867C3.2476 5.04108 3.31208 4.65675 3.38972 4.34176C3.47189 4.00843 3.58277 3.6896 3.7817 3.39095C4.08477 2.93596 4.51028 2.5759 5.00915 2.3523C5.3366 2.20553 5.66938 2.14894 6.01172 2.12307C6.33523 2.09862 6.72496 2.09863 7.17884 2.09864H17.1028V13.1554L14.2169 20.1641Z" fill="currentColor"/>
<path d="M18.9028 13.1486L20.2249 13.1486C20.3452 13.1487 20.4835 13.1487 20.6045 13.1388C20.7436 13.1275 20.9369 13.0987 21.1384 12.996C21.4019 12.8618 21.616 12.6477 21.7502 12.3842C21.8529 12.1827 21.8817 11.9894 21.893 11.8503C21.9029 11.7293 21.9029 11.591 21.9028 11.4707V3.77654C21.9029 3.6563 21.9029 3.51799 21.893 3.39695C21.8817 3.25792 21.8529 3.06455 21.7502 2.86306C21.616 2.59963 21.4019 2.38546 21.1384 2.25123C20.9369 2.14856 20.7436 2.1198 20.6045 2.10844C20.4835 2.09856 20.3452 2.0986 20.225 2.09864L18.9028 2.09864V13.1486Z" fill="currentColor"/>
</svg>
