<svg width="24" height="24" viewBox="0 0 24 24" fill="none" xmlns="http://www.w3.org/2000/svg">
<path fill-rule="evenodd" clip-rule="evenodd" d="M12.0002 21.6496C12.9716 21.6496 13.847 21.0634 14.2169 20.1651L17.1056 13.1496L20.225 13.1496C20.3452 13.1497 20.4835 13.1497 20.6045 13.1398C20.7436 13.1285 20.9369 13.0997 21.1384 12.997C21.4019 12.8628 21.616 12.6486 21.7503 12.3852C21.8529 12.1837 21.8817 11.9903 21.8931 11.8513C21.9029 11.7303 21.9029 11.592 21.9029 11.4717V3.77752C21.9029 3.65728 21.9029 3.51897 21.8931 3.39793C21.8817 3.2589 21.8529 3.06553 21.7503 2.86403C21.616 2.6006 21.4019 2.38643 21.1384 2.25221C20.9369 2.14954 20.7436 2.12078 20.6045 2.10942C20.4835 2.09953 20.3453 2.09958 20.225 2.09961L7.17884 2.09962C6.72496 2.0996 6.33523 2.09959 6.01172 2.12405C5.66938 2.14992 5.33661 2.20651 5.00915 2.35328C4.51028 2.57687 4.08477 2.93693 3.7817 3.39193C3.58277 3.69058 3.47189 4.0094 3.38972 4.34274C3.31208 4.65773 3.2476 5.04205 3.17251 5.48965L2.38896 10.1593C2.28678 10.7681 2.20057 11.2818 2.16679 11.7041C2.13162 12.1437 2.14303 12.5799 2.30139 13.0073C2.53714 13.6435 2.98851 14.1769 3.57694 14.5147C3.9722 14.7416 4.40049 14.825 4.83981 14.8631C5.26196 14.8996 5.78264 14.8996 6.40008 14.8996L9.6029 14.8996V19.2523C9.6029 20.5763 10.6762 21.6496 12.0002 21.6496ZM12.5527 19.4812C12.4605 19.705 12.2424 19.8511 12.0004 19.8511C11.6705 19.8511 11.4031 19.5837 11.4031 19.2538V14.0011C11.4031 13.504 11.0002 13.1011 10.5031 13.1011H5.96631C5.52361 13.1011 5.23009 13.1007 5.00494 13.0877C4.78414 13.0748 4.69284 13.0522 4.64638 13.0354C4.2787 12.9022 4.00935 12.5839 3.93889 12.1993C3.92999 12.1507 3.92276 12.0569 3.94666 11.837C3.97103 11.6128 4.01925 11.3233 4.09251 10.8867L4.99861 5.48666C5.11428 4.79735 5.14994 4.63737 5.20362 4.52544C5.33925 4.24262 5.58915 4.03115 5.89051 3.9442C6.00979 3.90978 6.17346 3.90108 6.87241 3.90108H15.6029V12.0734L12.5527 19.4812ZM17.4029 11.3511H20.1031V3.90108H17.4029V11.3511Z" fill="currentColor"/>
</svg>
