<svg width="24" height="24" viewBox="0 0 24 24" fill="none" xmlns="http://www.w3.org/2000/svg">
<path fill-rule="evenodd" clip-rule="evenodd" d="M13.2788 2.15275C13.0558 2.09922 12.8288 2.09974 12.637 2.10018L12.5868 2.10026L7.91416 2.10026C7.3843 2.10024 6.93312 2.10023 6.56269 2.13049C6.17353 2.16229 5.79493 2.23192 5.433 2.41634C4.88734 2.69437 4.44369 3.13801 4.16566 3.68368C3.98125 4.04562 3.91161 4.42421 3.87982 4.81337C3.84956 5.18378 3.84957 5.63494 3.84958 6.16477V17.8357C3.84957 18.3655 3.84956 18.8167 3.87982 19.1871C3.91161 19.5763 3.98125 19.9549 4.16566 20.3168C4.44369 20.8625 4.88734 21.3061 5.433 21.5842C5.79493 21.7686 6.17353 21.8382 6.56269 21.87C6.9331 21.9003 7.38426 21.9003 7.9141 21.9003H16.0849C16.6148 21.9003 17.066 21.9003 17.4364 21.87C17.8256 21.8382 18.2042 21.7686 18.5661 21.5842C19.1118 21.3061 19.5554 20.8625 19.8334 20.3168C20.0179 19.9549 20.0875 19.5763 20.1193 19.1871C20.1495 18.8167 20.1495 18.3656 20.1495 17.8357V9.66255L20.1496 9.61237C20.15 9.4205 20.1506 9.19343 20.097 8.97044C20.0505 8.77656 19.9737 8.59121 19.8695 8.42121C19.7497 8.22567 19.5887 8.06549 19.4528 7.93013L19.4172 7.8947L14.3545 2.83241L14.319 2.79688C14.1837 2.66091 14.0235 2.50002 13.828 2.38021C13.658 2.27605 13.4727 2.19929 13.2788 2.15275ZM12.5999 3.90049C12.5956 3.90049 12.5912 3.90049 12.5868 3.90049H7.94955C7.37465 3.90049 6.9976 3.90119 6.70924 3.92475C6.4314 3.94745 6.31605 3.98681 6.25016 4.02038C6.04319 4.12585 5.87491 4.29412 5.76945 4.5011C5.73588 4.56699 5.69652 4.68234 5.67381 4.96018C5.65026 5.24854 5.64956 5.62559 5.64956 6.20049V17.8005C5.64956 18.3754 5.65026 18.7524 5.67381 19.0408C5.69652 19.3186 5.73588 19.434 5.76945 19.4999C5.87491 19.7069 6.04319 19.8751 6.25016 19.9806C6.31605 20.0142 6.4314 20.0535 6.70924 20.0762C6.9976 20.0998 7.37465 20.1005 7.94955 20.1005H16.0495C16.6244 20.1005 17.0015 20.0998 17.2898 20.0762C17.5677 20.0535 17.683 20.0142 17.7489 19.9806C17.9559 19.8751 18.1242 19.7069 18.2296 19.4999C18.2632 19.434 18.3025 19.3186 18.3252 19.0408C18.3488 18.7524 18.3495 18.3754 18.3495 17.8005V9.9002L15.0701 9.9002C14.8158 9.90023 14.5738 9.90025 14.3698 9.88359C14.1474 9.86542 13.8923 9.82303 13.6373 9.69311C13.2798 9.51096 12.9892 9.22029 12.807 8.86278C12.6771 8.60781 12.6347 8.3527 12.6165 8.13029C12.5999 7.92634 12.5999 7.68432 12.5999 7.43002L12.5999 3.90049ZM17.0768 8.1002L14.3999 5.42358V8.0002C14.3999 8.05542 14.4447 8.1002 14.4999 8.1002H17.0768Z" fill="currentColor"/>
</svg>
