<svg width="24" height="24" viewBox="0 0 24 24" fill="none" xmlns="http://www.w3.org/2000/svg">
<path d="M12.6499 2.1001C12.6456 2.10011 12.6413 2.10012 12.637 2.10013L12.5868 2.1002L7.91418 2.1002C7.38431 2.10019 6.93313 2.10018 6.5627 2.13044C6.17354 2.16224 5.79495 2.23187 5.43302 2.41629C4.88735 2.69432 4.44371 3.13796 4.16568 3.68363C3.98126 4.04556 3.91163 4.42416 3.87983 4.81332C3.84957 5.18374 3.84958 5.63491 3.84959 6.16476V17.8356C3.84958 18.3655 3.84957 18.8167 3.87983 19.1871C3.91163 19.5763 3.98126 19.9548 4.16568 20.3168C4.44371 20.8624 4.88735 21.3061 5.43302 21.5841C5.79495 21.7685 6.17354 21.8382 6.5627 21.87C6.93312 21.9002 7.38429 21.9002 7.91414 21.9002H16.085C16.6148 21.9002 17.066 21.9002 17.4364 21.87C17.8256 21.8382 18.2042 21.7685 18.5661 21.5841C19.1118 21.3061 19.5554 20.8624 19.8335 20.3168C20.0179 19.9548 20.0875 19.5763 20.1193 19.1871C20.1496 18.8167 20.1496 18.3655 20.1495 17.8357V9.85009L15.0713 9.85009C14.816 9.85011 14.5758 9.85013 14.3739 9.83364C14.1546 9.81572 13.9068 9.77418 13.6601 9.64845C13.312 9.47108 13.0289 9.18807 12.8516 8.83997C12.7259 8.59322 12.6843 8.34542 12.6664 8.1261C12.6499 7.92426 12.6499 7.6841 12.6499 7.42879L12.6499 2.1001Z" fill="currentColor"/>
<path d="M14.35 2.82781L14.3545 2.83236L19.6649 8.15047H14.5C14.4171 8.15047 14.35 8.08332 14.35 8.00047V2.82781Z" fill="currentColor"/>
</svg>
