<svg width="24" height="24" viewBox="0 0 24 24" fill="none" xmlns="http://www.w3.org/2000/svg">
<path fill-rule="evenodd" clip-rule="evenodd" d="M12.65 2.1001L12.65 7.42879C12.6499 7.6841 12.6499 7.92426 12.6664 8.1261C12.6843 8.34542 12.7259 8.59322 12.8516 8.83997C13.029 9.18807 13.312 9.47108 13.6601 9.64845C13.9068 9.77418 14.1546 9.81572 14.3739 9.83364C14.5758 9.85013 14.816 9.85011 15.0713 9.85009L20.1495 9.85009V17.8357C20.1496 18.3655 20.1496 18.8167 20.1193 19.1871C20.0875 19.5763 20.0179 19.9548 19.8335 20.3168C19.5554 20.8624 19.1118 21.3061 18.5661 21.5841C18.2042 21.7685 17.8256 21.8382 17.4364 21.87C17.066 21.9002 16.6149 21.9002 16.085 21.9002H7.91415C7.38433 21.9002 6.93312 21.9002 6.56272 21.87C6.17356 21.8382 5.79496 21.7685 5.43303 21.5841C4.88737 21.3061 4.44372 20.8624 4.16569 20.3168C3.98128 19.9548 3.91164 19.5763 3.87985 19.1871C3.84959 18.8167 3.8496 18.3655 3.84961 17.8356V6.16476C3.8496 5.63492 3.84959 5.18374 3.87985 4.81332C3.91164 4.42416 3.98128 4.04556 4.16569 3.68363C4.44372 3.13796 4.88737 2.69432 5.43303 2.41629C5.79496 2.23187 6.17356 2.16224 6.56272 2.13044C6.93315 2.10018 7.38433 2.10019 7.91419 2.1002L12.5868 2.1002L12.65 2.1001ZM7.10006 13.998C7.10006 13.5009 7.503 13.098 8.00006 13.098H12C12.4971 13.098 12.9 13.5009 12.9 13.998C12.9 14.495 12.4971 14.898 12 14.898H8.00006C7.503 14.898 7.10006 14.495 7.10006 13.998ZM7.10006 17.7494C7.10006 17.2524 7.503 16.8494 8.00006 16.8494H12C12.4971 16.8494 12.9 17.2524 12.9 17.7494C12.9 18.2465 12.4971 18.6494 12 18.6494H8.00006C7.503 18.6494 7.10006 18.2465 7.10006 17.7494Z" fill="currentColor"/>
<path d="M14.35 2.82781V8.00047C14.35 8.08332 14.4171 8.15047 14.5 8.15047H19.6649L14.35 2.82781Z" fill="currentColor"/>
</svg>
