<svg width="24" height="24" viewBox="0 0 24 24" fill="none" xmlns="http://www.w3.org/2000/svg">
<path d="M10.7494 11.5503C9.94861 11.5503 9.29942 12.1995 9.29942 13.0003C9.29942 13.8011 9.94861 14.4503 10.7494 14.4503C11.5502 14.4503 12.1994 13.8011 12.1994 13.0003C12.1994 12.1995 11.5502 11.5503 10.7494 11.5503Z" fill="currentColor"/>
<path d="M10.7494 15.3021C9.92497 15.3021 9.14626 15.498 8.5587 15.882C7.96266 16.2715 7.54943 16.8698 7.54943 17.629C7.54943 17.9455 7.80604 18.2021 8.12259 18.2021H13.3762C13.6928 18.2021 13.9494 17.9455 13.9494 17.629C13.9494 16.8698 13.5362 16.2715 12.9401 15.882C12.3526 15.498 11.5739 15.3021 10.7494 15.3021Z" fill="currentColor"/>
<path fill-rule="evenodd" clip-rule="evenodd" d="M12.637 2.10018C12.8289 2.09974 13.0559 2.09922 13.2789 2.15275C13.4727 2.19929 13.658 2.27605 13.828 2.38021C14.0236 2.50002 14.1837 2.66091 14.3191 2.79688L14.3545 2.83241L19.4173 7.8947L19.4528 7.93013C19.5888 8.06549 19.7497 8.22567 19.8695 8.42121C19.9737 8.59121 20.0505 8.77656 20.0971 8.97044C20.1506 9.19343 20.1501 9.4205 20.1496 9.61237L20.1496 9.66255V17.8357C20.1496 18.3656 20.1496 18.8167 20.1193 19.1871C20.0875 19.5763 20.0179 19.9549 19.8335 20.3168C19.5555 20.8625 19.1118 21.3061 18.5661 21.5842C18.2042 21.7686 17.8256 21.8382 17.4365 21.87C17.0661 21.9003 16.6148 21.9003 16.085 21.9003H7.91414C7.38431 21.9003 6.93313 21.9003 6.56272 21.87C6.17356 21.8382 5.79497 21.7686 5.43304 21.5842C4.88737 21.3061 4.44373 20.8625 4.16569 20.3168C3.98128 19.9549 3.91165 19.5763 3.87985 19.1871C3.84959 18.8167 3.8496 18.3655 3.84961 17.8357V6.16477C3.8496 5.63495 3.84959 5.18378 3.87985 4.81337C3.91165 4.42421 3.98128 4.04562 4.16569 3.68368C4.44373 3.13801 4.88737 2.69437 5.43304 2.41634C5.79497 2.23192 6.17356 2.16229 6.56272 2.13049C6.93315 2.10023 7.38433 2.10024 7.9142 2.10026L12.5868 2.10026L12.637 2.10018ZM12.5999 3.90049L12.5999 7.43002C12.5999 7.68431 12.5999 7.92635 12.6166 8.13029C12.6347 8.3527 12.6771 8.60781 12.807 8.86278C12.9892 9.22029 13.2799 9.51096 13.6374 9.69311C13.8923 9.82303 14.1474 9.86542 14.3699 9.88359C14.5738 9.90025 14.8159 9.90023 15.0702 9.9002L18.3496 9.9002V17.8005C18.3496 18.3754 18.3489 18.7524 18.3253 19.0408C18.3026 19.3186 18.2632 19.434 18.2297 19.4999C18.1242 19.7069 17.9559 19.8751 17.7489 19.9806C17.6831 20.0142 17.5677 20.0535 17.2899 20.0762C17.0015 20.0998 16.6245 20.1005 16.0496 20.1005H7.94958C7.37468 20.1005 6.99763 20.0998 6.70928 20.0762C6.43143 20.0535 6.31609 20.0142 6.2502 19.9806C6.04322 19.8751 5.87494 19.7069 5.76948 19.4999C5.73591 19.434 5.69655 19.3186 5.67385 19.0408C5.65029 18.7524 5.64959 18.3754 5.64959 17.8005V6.20049C5.64959 5.62559 5.65029 5.24854 5.67385 4.96018C5.69655 4.68234 5.73591 4.56699 5.76948 4.5011C5.87494 4.29412 6.04322 4.12585 6.2502 4.02038C6.31609 3.98681 6.43143 3.94745 6.70928 3.92475C6.99763 3.90119 7.37468 3.90049 7.94958 3.90049L12.5999 3.90049ZM14.4 5.42358L17.0768 8.1002H14.5C14.4447 8.1002 14.4 8.05542 14.4 8.0002V5.42358Z" fill="currentColor"/>
</svg>
