<svg width="24" height="24" viewBox="0 0 24 24" fill="none" xmlns="http://www.w3.org/2000/svg">
<path d="M7.84985 13.4996C7.84985 13.0026 8.2528 12.5996 8.74985 12.5996H12.7498C13.2469 12.5996 13.6498 13.0026 13.6498 13.4996C13.6498 13.9967 13.2469 14.3996 12.7498 14.3996H8.74985C8.2528 14.3996 7.84985 13.9967 7.84985 13.4996Z" fill="currentColor"/>
<path d="M7.84985 17.0001C7.84985 16.503 8.2528 16.1001 8.74985 16.1001H12.7498C13.2469 16.1001 13.6498 16.503 13.6498 17.0001C13.6498 17.4972 13.2469 17.9001 12.7498 17.9001H8.74985C8.2528 17.9001 7.84985 17.4972 7.84985 17.0001Z" fill="currentColor"/>
<path fill-rule="evenodd" clip-rule="evenodd" d="M13.2789 2.15275C13.0559 2.09922 12.8288 2.09974 12.637 2.10018L12.5868 2.10026H7.91419C7.38433 2.10024 6.93315 2.10023 6.56272 2.13049C6.17356 2.16229 5.79497 2.23192 5.43303 2.41634C4.88737 2.69437 4.44372 3.13801 4.16569 3.68368C3.98128 4.04562 3.91165 4.42421 3.87985 4.81337C3.84959 5.18378 3.8496 5.63494 3.84961 6.16477V17.8357C3.8496 18.3655 3.84959 18.8167 3.87985 19.1871C3.91165 19.5763 3.98128 19.9549 4.16569 20.3168C4.44372 20.8625 4.88737 21.3061 5.43303 21.5842C5.79497 21.7686 6.17356 21.8382 6.56272 21.87C6.93313 21.9003 7.38429 21.9003 7.91413 21.9003H16.085C16.6148 21.9003 17.066 21.9003 17.4364 21.87C17.8256 21.8382 18.2042 21.7686 18.5661 21.5842C19.1118 21.3061 19.5554 20.8625 19.8335 20.3168C20.0179 19.9549 20.0875 19.5763 20.1193 19.1871C20.1496 18.8167 20.1496 18.3656 20.1495 17.8357V9.66255L20.1496 9.61237C20.1501 9.4205 20.1506 9.19343 20.097 8.97044C20.0505 8.77656 19.9737 8.59121 19.8695 8.42121C19.7497 8.22567 19.5888 8.06549 19.4528 7.93013L19.4172 7.8947L14.3545 2.83241L14.3191 2.79688C14.1837 2.66091 14.0235 2.50002 13.828 2.38021C13.658 2.27605 13.4727 2.19929 13.2789 2.15275ZM12.5999 3.90049C12.5956 3.90049 12.5913 3.90049 12.5868 3.90049H7.94958C7.37468 3.90049 6.99763 3.90119 6.70927 3.92475C6.43143 3.94745 6.31608 3.98681 6.25019 4.02039C6.04322 4.12585 5.87494 4.29412 5.76948 4.5011C5.73591 4.56699 5.69655 4.68234 5.67385 4.96018C5.65029 5.24854 5.64959 5.62559 5.64959 6.20049V17.8005C5.64959 18.3754 5.65029 18.7524 5.67385 19.0408C5.69655 19.3186 5.73591 19.434 5.76948 19.4999C5.87494 19.7069 6.04322 19.8751 6.25019 19.9806C6.31608 20.0142 6.43143 20.0535 6.70927 20.0762C6.99763 20.0998 7.37468 20.1005 7.94958 20.1005H16.0495C16.6244 20.1005 17.0015 20.0998 17.2898 20.0762C17.5677 20.0535 17.683 20.0142 17.7489 19.9806C17.9559 19.8751 18.1242 19.7069 18.2296 19.4999C18.2632 19.434 18.3026 19.3186 18.3253 19.0408C18.3488 18.7524 18.3495 18.3754 18.3495 17.8005V9.9002L15.0702 9.9002C14.8159 9.90023 14.5738 9.90025 14.3698 9.88359C14.1474 9.86542 13.8923 9.82303 13.6374 9.69311C13.2798 9.51096 12.9892 9.22029 12.807 8.86278C12.6771 8.60781 12.6347 8.3527 12.6166 8.13029C12.5999 7.92634 12.5999 7.68432 12.5999 7.43002L12.5999 3.90049ZM17.0768 8.1002L14.4 5.42358V8.0002C14.4 8.05542 14.4447 8.1002 14.5 8.1002H17.0768Z" fill="currentColor"/>
</svg>
