<svg width="24" height="24" viewBox="0 0 24 24" fill="none" xmlns="http://www.w3.org/2000/svg">
<path d="M11.9994 2.59961C12.4964 2.59961 12.8994 3.00255 12.8994 3.49961V12.8273L15.863 9.8637C16.2144 9.51223 16.7843 9.51223 17.1357 9.8637C17.4872 10.2152 17.4872 10.785 17.1357 11.1365L12.6358 15.6365C12.2843 15.988 11.7144 15.988 11.363 15.6365L6.86298 11.1365C6.51151 10.785 6.51151 10.2152 6.86298 9.8637C7.21445 9.51223 7.7843 9.51223 8.13577 9.8637L11.0994 12.8273V3.49961C11.0994 3.00255 11.5023 2.59961 11.9994 2.59961Z" fill="currentColor"/>
<path d="M21.1496 14.8997C21.1496 14.4026 20.7466 13.9997 20.2496 13.9997C19.7525 13.9997 19.3496 14.4026 19.3496 14.8997V17.4498C19.3496 18.2644 19.3385 18.4582 19.2957 18.5897C19.1869 18.9246 18.9244 19.1872 18.5895 19.296C18.458 19.3387 18.2642 19.3498 17.4496 19.3498H6.54962C5.73506 19.3498 5.54123 19.3387 5.40971 19.296C5.07483 19.1872 4.81228 18.9246 4.70347 18.5897C4.66073 18.4582 4.64963 18.2644 4.64963 17.4498V14.8997C4.64963 14.4027 4.24668 13.9997 3.74962 13.9997C3.25256 13.9997 2.84961 14.4027 2.84961 14.8997V17.0852C2.8496 17.615 2.84959 18.0663 2.87985 18.4367C2.91165 18.8259 2.98128 19.2044 3.16569 19.5664C3.44373 20.112 3.88737 20.5557 4.43304 20.8337C4.79497 21.0181 5.17356 21.0878 5.56272 21.1196C5.93313 21.1498 6.38429 21.1498 6.91412 21.1498H17.085C17.6148 21.1498 18.066 21.1498 18.4365 21.1196C18.8256 21.0878 19.2042 21.0181 19.5661 20.8337C20.1118 20.5557 20.5554 20.112 20.8335 19.5664C21.0179 19.2044 21.0875 18.8259 21.1193 18.4367C21.1496 18.0663 21.1496 17.6151 21.1496 17.0853V14.8997Z" fill="currentColor"/>
</svg>
