<svg width="24" height="24" viewBox="0 0 24 24" fill="none" xmlns="http://www.w3.org/2000/svg">
<path d="M14.7498 2.84961C14.2527 2.84961 13.8498 3.25255 13.8498 3.74961C13.8498 4.24667 14.2527 4.64961 14.7498 4.64961H18.077L11.3634 11.3632C11.0119 11.7147 11.0119 12.2845 11.3634 12.636C11.7149 12.9875 12.2847 12.9875 12.6362 12.636L19.3497 5.9224V9.24961C19.3497 9.74667 19.7527 10.1496 20.2497 10.1496C20.7468 10.1496 21.1497 9.74667 21.1497 9.24961V3.74961C21.1497 3.25255 20.7468 2.84961 20.2497 2.84961H14.7498Z" fill="currentColor"/>
<path d="M10.0993 2.85019C10.5964 2.85019 10.9993 3.25314 10.9993 3.75019C10.9993 4.24725 10.5964 4.6502 10.0993 4.6502H8.54959C7.69467 4.6502 7.1076 4.65089 6.65249 4.68808C6.2079 4.7244 5.96907 4.79101 5.79622 4.87908C5.40108 5.08042 5.07982 5.40167 4.87849 5.79681C4.79042 5.96966 4.72381 6.20849 4.68749 6.65309C4.65031 7.1082 4.64961 7.69527 4.64961 8.5502V15.4502C4.64961 16.3051 4.65031 16.8922 4.68749 17.3473C4.72381 17.7919 4.79042 18.0307 4.87849 18.2036C5.07982 18.5987 5.40108 18.92 5.79622 19.1213C5.96907 19.2094 6.2079 19.276 6.65249 19.3123C7.1076 19.3495 7.69467 19.3502 8.54959 19.3502H15.4496C16.3045 19.3502 16.8916 19.3495 17.3467 19.3123C17.7913 19.276 18.0301 19.2094 18.2029 19.1213C18.5981 18.92 18.9193 18.5987 19.1207 18.2036C19.2087 18.0307 19.2754 17.7919 19.3117 17.3473C19.3489 16.8922 19.3496 16.3051 19.3496 15.4502V13.9003C19.3496 13.4032 19.7525 13.0003 20.2496 13.0003C20.7466 13.0003 21.1496 13.4032 21.1496 13.9003V15.4879C21.1496 16.296 21.1496 16.9568 21.1057 17.4939C21.0603 18.0498 20.9634 18.5519 20.7245 19.0208C20.3506 19.7546 19.754 20.3512 19.0201 20.7251C18.5512 20.964 18.0492 21.0609 17.4932 21.1063C16.9562 21.1502 16.2953 21.1502 15.4873 21.1502H8.51189C7.70384 21.1502 7.04299 21.1502 6.50592 21.1063C5.95001 21.0609 5.44793 20.964 4.97904 20.7251C4.24521 20.3512 3.64859 19.7546 3.27468 19.0208C3.03577 18.5519 2.93889 18.0498 2.89347 17.4939C2.84959 16.9568 2.8496 16.296 2.84961 15.4879V8.51249C2.8496 7.70446 2.84959 7.04358 2.89347 6.50651C2.93889 5.9506 3.03577 5.44852 3.27468 4.97963C3.64859 4.2458 4.24521 3.64918 4.97904 3.27527C5.44793 3.03636 5.95001 2.93948 6.50592 2.89406C7.04299 2.85018 7.70383 2.85018 8.51187 2.85019H10.0993Z" fill="currentColor"/>
</svg>
