<svg width="24" height="24" viewBox="0 0 24 24" fill="none" xmlns="http://www.w3.org/2000/svg">
<path fill-rule="evenodd" clip-rule="evenodd" d="M12.0004 8.09946C9.84651 8.09946 8.10042 9.84555 8.10042 11.9995C8.10042 14.1534 9.84651 15.8995 12.0004 15.8995C14.1543 15.8995 15.9004 14.1534 15.9004 11.9995C15.9004 9.84555 14.1543 8.09946 12.0004 8.09946ZM9.90042 11.9995C9.90042 10.8397 10.8406 9.89946 12.0004 9.89946C13.1602 9.89946 14.1004 10.8397 14.1004 11.9995C14.1004 13.1593 13.1602 14.0995 12.0004 14.0995C10.8406 14.0995 9.90042 13.1593 9.90042 11.9995Z" fill="currentColor"/>
<path fill-rule="evenodd" clip-rule="evenodd" d="M12.0005 19.399C16.5567 19.399 20.46 16.6035 22.0888 12.6342C22.2556 12.2275 22.2556 11.7711 22.0888 11.3644C20.46 7.39508 16.5567 4.59961 12.0005 4.59961C7.44431 4.59961 3.54102 7.39508 1.91226 11.3644C1.74539 11.7711 1.74539 12.2275 1.91226 12.6342C3.54102 16.6035 7.44431 19.399 12.0005 19.399ZM3.59807 11.9993C4.96953 8.71093 8.2151 6.39961 12.0005 6.39961C15.7859 6.39961 19.0315 8.71093 20.403 11.9993C19.0315 15.2877 15.7859 17.599 12.0005 17.599C8.2151 17.599 4.96953 15.2877 3.59807 11.9993Z" fill="currentColor"/>
</svg>
