<svg width="24" height="24" viewBox="0 0 24 24" fill="none" xmlns="http://www.w3.org/2000/svg">
<path d="M9.90061 12.0002C9.90061 10.8404 10.8408 9.9002 12.0006 9.9002C13.1604 9.9002 14.1006 10.8404 14.1006 12.0002C14.1006 13.16 13.1604 14.1002 12.0006 14.1002C10.8408 14.1002 9.90061 13.16 9.90061 12.0002Z" fill="currentColor"/>
<path fill-rule="evenodd" clip-rule="evenodd" d="M22.0946 12.6342C22.2615 12.2275 22.2615 11.7711 22.0946 11.3644C20.4659 7.39508 16.5626 4.59961 12.0064 4.59961C7.45016 4.59961 3.54688 7.39508 1.91812 11.3644C1.75125 11.7711 1.75125 12.2275 1.91812 12.6342C3.54688 16.6035 7.45016 19.399 12.0064 19.399C16.5626 19.399 20.4659 16.6035 22.0946 12.6342ZM12.0006 8.10019C9.8467 8.10019 8.10061 9.84628 8.10061 12.0002C8.10061 14.1541 9.8467 15.9002 12.0006 15.9002C14.1545 15.9002 15.9006 14.1541 15.9006 12.0002C15.9006 9.84628 14.1545 8.10019 12.0006 8.10019Z" fill="currentColor"/>
</svg>
