<svg width="24" height="24" viewBox="0 0 24 24" fill="none" xmlns="http://www.w3.org/2000/svg">
<path fill-rule="evenodd" clip-rule="evenodd" d="M4.63713 4.11321C4.28566 3.76174 3.71581 3.76174 3.36434 4.11321C3.01286 4.46469 3.01286 5.03453 3.36434 5.38601L5.0696 7.09127C3.69582 8.22593 2.60481 9.69077 1.91812 11.3643C1.75125 11.7709 1.75125 12.2274 1.91812 12.634C3.54688 16.6034 7.45016 19.3988 12.0064 19.3988C13.5845 19.3988 15.0843 19.0634 16.4384 18.4601L18.3643 20.386C18.7158 20.7375 19.2857 20.7375 19.6371 20.386C19.9886 20.0345 19.9886 19.4647 19.6371 19.1132L4.63713 4.11321ZM13.5559 15.5775L12.0769 14.0986C12.0516 14.0995 12.0262 14.1 12.0006 14.1C10.8408 14.1 9.90063 13.1598 9.90063 12C9.90063 11.9744 9.90108 11.949 9.90199 11.9237L8.42307 10.4447C8.21565 10.9212 8.10063 11.4472 8.10063 12C8.10063 14.1539 9.84672 15.9 12.0006 15.9C12.5534 15.9 13.0794 15.785 13.5559 15.5775Z" fill="currentColor"/>
<path d="M15.8195 12.7951L19.4685 16.4441C20.596 15.3848 21.4979 14.0882 22.0946 12.634C22.2615 12.2274 22.2615 11.7709 22.0946 11.3643C20.4659 7.39494 16.5626 4.59946 12.0064 4.59946C10.6969 4.59946 9.44127 4.83039 8.27813 5.25374L11.2055 8.18109C11.4622 8.12792 11.7282 8.09998 12.0006 8.09998C14.1545 8.09998 15.9006 9.84607 15.9006 12C15.9006 12.2725 15.8727 12.5384 15.8195 12.7951Z" fill="currentColor"/>
</svg>
