<svg width="24" height="24" viewBox="0 0 24 24" fill="none" xmlns="http://www.w3.org/2000/svg">
<path d="M15.8195 12.7955C15.8727 12.5387 15.9006 12.2727 15.9006 12.0001C15.9006 9.8462 14.1545 8.10011 12.0006 8.10011C11.7281 8.10011 11.4621 8.12807 11.2053 8.18128L15.8195 12.7955Z" fill="currentColor"/>
<path fill-rule="evenodd" clip-rule="evenodd" d="M3.3643 4.11321C3.71577 3.76174 4.28562 3.76174 4.6371 4.11321L6.57262 6.04874C8.17219 5.12712 10.0277 4.5999 12.0064 4.5999C16.5626 4.5999 20.4659 7.39538 22.0946 11.3647C22.2615 11.7714 22.2615 12.2278 22.0946 12.6345C21.2693 14.6459 19.8598 16.3559 18.0773 17.5534L19.6371 19.1132C19.9886 19.4647 19.9886 20.0345 19.6371 20.386C19.2856 20.7375 18.7158 20.7375 18.3643 20.386L16.4387 18.4604C15.0845 19.0638 13.5846 19.3993 12.0064 19.3993C7.45016 19.3993 3.54688 16.6038 1.91812 12.6345C1.75125 12.2278 1.75125 11.7714 1.91812 11.3647C2.60485 9.69112 3.69593 8.22621 5.06982 7.09152L3.3643 5.38601C3.01283 5.03453 3.01283 4.46469 3.3643 4.11321ZM6.34958 8.37128C5.1527 9.32231 4.20082 10.5684 3.60393 11.9996C4.97539 15.288 8.22096 17.5993 12.0064 17.5993C13.0755 17.5993 14.1016 17.4149 15.0545 17.0762L13.5559 15.5776C13.0795 15.7851 12.5535 15.9001 12.0006 15.9001C9.84673 15.9001 8.10064 14.154 8.10064 12.0001C8.10064 11.4473 8.21567 10.9213 8.42311 10.4448L6.34958 8.37128ZM16.7751 16.2512C18.3903 15.2554 19.6709 13.7689 20.4088 11.9996C19.0373 8.71122 15.7918 6.3999 12.0064 6.3999C10.5291 6.3999 9.13404 6.75191 7.90051 7.37663L16.7751 16.2512ZM9.902 11.9237L12.077 14.0987C12.0517 14.0997 12.0262 14.1001 12.0006 14.1001C10.8408 14.1001 9.90064 13.1599 9.90064 12.0001C9.90064 11.9745 9.9011 11.9491 9.902 11.9237Z" fill="currentColor"/>
</svg>
