<svg width="24" height="24" viewBox="0 0 24 24" fill="none" xmlns="http://www.w3.org/2000/svg">
<path d="M8.34634 13.4891C8.76657 13.2236 9.32244 13.3491 9.5879 13.7693C10.0942 14.5709 10.9855 15.1 11.9997 15.1C13.0139 15.1 13.9052 14.5709 14.4115 13.7693C14.677 13.3491 15.2328 13.2236 15.6531 13.4891C16.0733 13.7546 16.1988 14.3104 15.9333 14.7307C15.1111 16.0323 13.657 16.9 11.9997 16.9C10.3424 16.9 8.88834 16.0323 8.0661 14.7307C7.80064 14.3104 7.92611 13.7546 8.34634 13.4891Z" fill="currentColor"/>
<path d="M10.2496 10.25C10.2496 10.9404 9.68996 11.5 8.99961 11.5C8.30925 11.5 7.74961 10.9404 7.74961 10.25C7.74961 9.55964 8.30925 9 8.99961 9C9.68996 9 10.2496 9.55964 10.2496 10.25Z" fill="currentColor"/>
<path d="M16.2496 10.25C16.2496 10.9404 15.6899 11.5 14.9996 11.5C14.3092 11.5 13.7496 10.9404 13.7496 10.25C13.7496 9.55964 14.3092 9 14.9996 9C15.6899 9 16.2496 9.55964 16.2496 10.25Z" fill="currentColor"/>
<path fill-rule="evenodd" clip-rule="evenodd" d="M2.09967 12.0001C2.09967 6.53248 6.53203 2.1001 11.9996 2.1001C17.4672 2.1001 21.8996 6.53248 21.8996 12.0001C21.8996 17.4677 17.4672 21.9001 11.9996 21.9001C6.53203 21.9001 2.09967 17.4677 2.09967 12.0001ZM11.9996 3.9001C7.52614 3.9001 3.89966 7.52659 3.89966 12.0001C3.89966 16.4736 7.52614 20.1001 11.9996 20.1001C16.4731 20.1001 20.0996 16.4736 20.0996 12.0001C20.0996 7.52659 16.4731 3.9001 11.9996 3.9001Z" fill="currentColor"/>
</svg>
