<svg width="24" height="24" viewBox="0 0 24 24" fill="none" xmlns="http://www.w3.org/2000/svg">
<path fill-rule="evenodd" clip-rule="evenodd" d="M2.09961 12.0001C2.09961 6.53248 6.53197 2.1001 11.9996 2.1001C17.4672 2.1001 21.8995 6.53248 21.8995 12.0001C21.8995 17.4677 17.4672 21.9001 11.9996 21.9001C6.53197 21.9001 2.09961 17.4677 2.09961 12.0001ZM9.99948 10.25C9.99948 10.9404 9.43984 11.5 8.74949 11.5C8.05913 11.5 7.49949 10.9404 7.49949 10.25C7.49949 9.55964 8.05913 9 8.74949 9C9.43984 9 9.99948 9.55964 9.99948 10.25ZM16.4995 10.25C16.4995 10.9404 15.9398 11.5 15.2495 11.5C14.5591 11.5 13.9995 10.9404 13.9995 10.25C13.9995 9.55964 14.5591 9 15.2495 9C15.9398 9 16.4995 9.55964 16.4995 10.25ZM9.31379 13.7993C9.0649 13.3691 8.51435 13.2221 8.0841 13.471C7.65384 13.7198 7.50682 14.2704 7.7557 14.7007C8.60158 16.1629 10.1848 17.15 11.9996 17.15C13.8144 17.15 15.3976 16.1629 16.2435 14.7007C16.4924 14.2704 16.3454 13.7198 15.9151 13.471C15.4849 13.2221 14.9343 13.3691 14.6854 13.7993C14.1481 14.7283 13.1459 15.35 11.9996 15.35C10.8533 15.35 9.85115 14.7283 9.31379 13.7993Z" fill="currentColor"/>
</svg>
