<svg width="24" height="24" viewBox="0 0 24 24" fill="none" xmlns="http://www.w3.org/2000/svg">
<path d="M5.91655 3.09815C5.36752 3.09813 4.89531 3.09811 4.52768 3.13096C4.17645 3.16234 3.71367 3.23478 3.34681 3.54255C2.8869 3.92839 2.63639 4.50889 2.67117 5.10821C2.6989 5.58626 2.96367 5.97267 3.18178 6.24975C3.41009 6.53978 3.73403 6.88332 4.1107 7.28279L9.60069 13.1055L9.60068 20.4961C9.60063 20.6038 9.60055 20.7381 9.61121 20.8545C9.6225 20.9779 9.65447 21.2196 9.81734 21.4525C10.0065 21.7229 10.2988 21.9036 10.6253 21.9518C10.9064 21.9933 11.1369 21.9138 11.2523 21.8687C11.3612 21.8262 11.4813 21.7661 11.5775 21.7179L13.6378 20.6878L13.6515 20.6811C13.7128 20.6518 13.9064 20.5591 14.058 20.4044C14.1824 20.2773 14.2771 20.1241 14.3351 19.956C14.4057 19.7512 14.402 19.5366 14.4009 19.4687L14.4007 19.4534V13.1055L19.8907 7.2828C20.2673 6.88333 20.5913 6.53978 20.8196 6.24975C21.0377 5.97267 21.3025 5.58626 21.3302 5.10821C21.365 4.50889 21.1145 3.92839 20.6546 3.54255C20.2877 3.23478 19.8249 3.16234 19.4737 3.13096C19.1061 3.09811 18.6339 3.09813 18.0849 3.09815H5.91655Z" fill="currentColor"/>
</svg>
