<svg width="24" height="24" viewBox="0 0 24 24" fill="none" xmlns="http://www.w3.org/2000/svg">
<path fill-rule="evenodd" clip-rule="evenodd" d="M5.9072 3.09815H18.0941C18.6419 3.09813 19.1132 3.09811 19.4802 3.13092C19.831 3.16228 20.293 3.23469 20.6596 3.54188C21.1193 3.92715 21.3701 4.5069 21.3361 5.10577C21.3091 5.58327 21.0455 5.96957 20.8282 6.24675C20.6008 6.53672 20.2781 6.8802 19.903 7.27946L14.9006 12.6046V18.9534L14.9008 18.9687C14.902 19.0366 14.9057 19.2512 14.8351 19.456C14.7771 19.6241 14.6824 19.7773 14.558 19.9044C14.4064 20.0591 14.2128 20.1518 14.1515 20.1811L14.1378 20.1878L11.0776 21.7179C10.9813 21.7661 10.8612 21.8262 10.7523 21.8687C10.6369 21.9138 10.4064 21.9933 10.1253 21.9518C9.79874 21.9036 9.5065 21.7229 9.31732 21.4525C9.15445 21.2196 9.12248 20.9779 9.11119 20.8545C9.10053 20.7381 9.1006 20.6038 9.10066 20.4961L9.10067 12.6046L4.09825 7.2794C3.72318 6.88016 3.40051 6.5367 3.17314 6.24675C2.95579 5.96957 2.69226 5.58327 2.66517 5.10577C2.63119 4.5069 2.88201 3.92715 3.34176 3.54188C3.70833 3.23469 4.17032 3.16228 4.52115 3.13092C4.88814 3.09811 5.35945 3.09813 5.9072 3.09815ZM4.48922 5.06661L10.6566 11.6319C10.8134 11.7988 10.9007 12.0192 10.9007 12.2481V19.7939L13.1007 18.6939V12.2481C13.1007 12.0192 13.1879 11.7988 13.3447 11.6319L19.5121 5.06662C19.5721 5.00276 19.5268 4.89815 19.4392 4.89815H4.56211C4.4745 4.89815 4.42924 5.00276 4.48922 5.06661Z" fill="currentColor"/>
</svg>
