<svg width="24" height="24" viewBox="0 0 24 24" fill="none" xmlns="http://www.w3.org/2000/svg">
<path fill-rule="evenodd" clip-rule="evenodd" d="M5.14985 16.1484L5.27739 16.1059C7.4737 15.3738 9.86646 15.5064 11.9685 16.4765L12.3449 16.6502C14.1475 17.4822 16.1431 17.806 18.1163 17.5868L18.5149 17.5425C19.7303 17.4075 20.6499 16.3801 20.6499 15.1572V4.49976C20.6499 4.24376 20.5408 3.99987 20.3501 3.82914C20.1593 3.65841 19.9049 3.57699 19.6505 3.60526L17.9175 3.79781C16.2702 3.98085 14.6041 3.71049 13.0992 3.0159L12.087 2.54877C9.97764 1.57519 7.57647 1.4422 5.37244 2.17688C4.16457 2.5795 3.34985 3.70987 3.34985 4.98307V15.4788C3.34953 15.4926 3.34953 15.5066 3.34985 15.5205V20.9998C3.34985 21.4968 3.7528 21.8998 4.24985 21.8998C4.74691 21.8998 5.14985 21.4968 5.14985 20.9998V16.1484Z" fill="currentColor"/>
</svg>
