<svg width="24" height="24" viewBox="0 0 24 24" fill="none" xmlns="http://www.w3.org/2000/svg">
<path fill-rule="evenodd" clip-rule="evenodd" d="M5.14985 16.1487L5.27739 16.1062C7.4737 15.3741 9.86646 15.5066 11.9685 16.4768L12.3449 16.6505C14.1475 17.4824 16.1431 17.8063 18.1163 17.587L18.5149 17.5428C19.7303 17.4077 20.6499 16.3804 20.6499 15.1574V4.5C20.6499 4.244 20.5408 4.00012 20.3501 3.82939C20.1593 3.65866 19.9049 3.57724 19.6505 3.60551L17.9175 3.79806C16.2702 3.9811 14.6041 3.71073 13.0992 3.01614L12.087 2.54901C9.97764 1.57544 7.57647 1.44245 5.37244 2.17712C4.16457 2.57975 3.34985 3.71011 3.34985 4.98332V15.479C3.34953 15.4929 3.34953 15.5068 3.34985 15.5208V21C3.34985 21.4971 3.7528 21.9 4.24985 21.9C4.74691 21.9 5.14985 21.4971 5.14985 21V16.1487ZM11.3327 4.18334C9.63912 3.40167 7.71124 3.29489 5.94165 3.88475C5.4688 4.04237 5.14985 4.48488 5.14985 4.98332V14.2616C7.65711 13.5424 10.3452 13.7451 12.7228 14.8424L13.0992 15.0161C14.6041 15.7107 16.2702 15.9811 17.9175 15.7981L18.3161 15.7538C18.62 15.72 18.8499 15.4632 18.8499 15.1574V5.50554L18.1163 5.58705C16.1431 5.80629 14.1475 5.48245 12.3449 4.65047L11.3327 4.18334Z" fill="currentColor"/>
</svg>
