<svg width="24" height="24" viewBox="0 0 24 24" fill="none" xmlns="http://www.w3.org/2000/svg">
<path d="M8.63601 5.13625C8.98748 4.78478 8.98748 4.21493 8.63601 3.86346C8.28453 3.51199 7.71469 3.51199 7.36321 3.86346L2.86321 8.36346C2.69443 8.53224 2.59961 8.76116 2.59961 8.99985C2.59961 9.23855 2.69443 9.46747 2.86321 9.63625L7.36321 14.1362C7.71469 14.4877 8.28453 14.4877 8.63601 14.1362C8.98748 13.7848 8.98748 13.2149 8.63601 12.8635L5.67299 9.90044H15.4992C17.7636 9.90044 19.5992 11.7361 19.5992 14.0004C19.5992 16.2648 17.7636 18.1004 15.4992 18.1004H11.9992C11.5021 18.1004 11.0992 18.5034 11.0992 19.0004C11.0992 19.4975 11.5021 19.9004 11.9992 19.9004H15.4992C18.7577 19.9004 21.3992 17.2589 21.3992 14.0004C21.3992 10.742 18.7577 8.10044 15.4992 8.10044H5.67182L8.63601 5.13625Z" fill="currentColor"/>
</svg>
