<svg width="24" height="24" viewBox="0 0 24 24" fill="none" xmlns="http://www.w3.org/2000/svg">
<path d="M9.24917 10.0503C8.44836 10.0503 7.79917 10.6995 7.79917 11.5003C7.79917 12.3011 8.44836 12.9503 9.24917 12.9503C10.05 12.9503 10.6992 12.3011 10.6992 11.5003C10.6992 10.6995 10.05 10.0503 9.24917 10.0503Z" fill="currentColor"/>
<path d="M9.24917 13.8021C8.42472 13.8021 7.64601 13.998 7.05845 14.382C6.46241 14.7715 6.04918 15.3698 6.04918 16.129C6.04918 16.4455 6.30579 16.7021 6.62234 16.7021H11.876C12.1925 16.7021 12.4492 16.4455 12.4492 16.129C12.4492 15.3698 12.0359 14.7715 11.4399 14.382C10.8523 13.998 10.0736 13.8021 9.24917 13.8021Z" fill="currentColor"/>
<path fill-rule="evenodd" clip-rule="evenodd" d="M8.63084 3.40937C8.34007 3.34969 8.04435 3.34989 7.69412 3.35013L6.16416 3.35016C5.6343 3.35014 5.18312 3.35013 4.81269 3.38039C4.42353 3.41219 4.04493 3.48182 3.683 3.66624C3.13733 3.94427 2.69369 4.38791 2.41566 4.93358C2.23125 5.29552 2.16161 5.67411 2.12982 6.06327C2.09955 6.43369 2.09957 6.88491 2.09958 7.41475V16.5856C2.09957 17.1155 2.09955 17.5666 2.12982 17.937C2.16161 18.3262 2.23125 18.7048 2.41566 19.0667C2.69369 19.6124 3.13733 20.056 3.683 20.3341C4.04493 20.5185 4.42353 20.5881 4.81269 20.6199C5.1831 20.6502 5.6343 20.6502 6.16414 20.6502H17.835C18.3648 20.6502 18.816 20.6502 19.1864 20.6199C19.5756 20.5881 19.9542 20.5185 20.3161 20.3341C20.8618 20.056 21.3054 19.6124 21.5834 19.0667C21.7678 18.7048 21.8375 18.3262 21.8693 17.937C21.8995 17.5666 21.8995 17.1154 21.8995 16.5856V9.41471C21.8995 8.88487 21.8995 8.43369 21.8693 8.06327C21.8375 7.67411 21.7678 7.29552 21.5834 6.93358C21.3054 6.38791 20.8618 5.94427 20.3161 5.66624C19.9542 5.48182 19.5756 5.41219 19.1864 5.38039C18.816 5.35013 18.3648 5.35014 17.8349 5.35016L11.5651 5.35016L10.1356 4.20657C9.86229 3.98759 9.6315 3.8027 9.36717 3.66766C9.13448 3.54878 8.8868 3.4619 8.63084 3.40937ZM4.65968 5.2039C4.7912 5.16116 4.98503 5.15006 5.79959 5.15006H7.76721C8.06827 5.15006 8.13609 5.15195 8.19583 5.16006C8.34343 5.1801 8.48542 5.22991 8.61319 5.30646C8.6649 5.33745 8.71904 5.37834 8.95413 5.56641L10.6872 6.95284C10.8467 7.08051 11.045 7.15006 11.2494 7.15006H18.1995C19.0141 7.15006 19.2079 7.16116 19.3395 7.2039C19.6743 7.31271 19.9369 7.57526 20.0457 7.91014C20.0884 8.04166 20.0995 8.2355 20.0995 9.05006V16.9501C20.0995 17.7646 20.0884 17.9585 20.0457 18.09C19.9369 18.4249 19.6743 18.6874 19.3395 18.7962C19.2079 18.839 19.0141 18.8501 18.1995 18.8501H5.79959C4.98503 18.8501 4.7912 18.839 4.65968 18.7962C4.3248 18.6874 4.06225 18.4249 3.95344 18.09C3.9107 17.9585 3.8996 17.7646 3.8996 16.9501V7.05006C3.8996 6.2355 3.9107 6.04166 3.95344 5.91014C4.06225 5.57526 4.3248 5.31271 4.65968 5.2039Z" fill="currentColor"/>
</svg>
