<svg width="24" height="24" viewBox="0 0 24 24" fill="none" xmlns="http://www.w3.org/2000/svg">
<path d="M8.95417 10.1913C9.13937 10.097 9.35847 10.097 9.54368 10.1913C9.71165 10.2767 9.79437 10.4275 9.83045 10.4963C9.8713 10.5743 9.91279 10.6741 9.95374 10.7726L10.4185 11.89L11.6248 11.9867C11.7312 11.9952 11.8389 12.0039 11.9257 12.0186C12.0023 12.0317 12.1712 12.0637 12.3044 12.1971C12.4513 12.3441 12.519 12.5525 12.4866 12.7577C12.4572 12.9439 12.3394 13.0692 12.2851 13.1248C12.2236 13.1877 12.1415 13.258 12.0605 13.3274L11.1413 14.1147L11.4221 15.2919C11.4469 15.3956 11.472 15.5008 11.4848 15.5878C11.4961 15.6648 11.5177 15.8353 11.4321 16.0032C11.3376 16.1883 11.1604 16.3171 10.9552 16.3497C10.769 16.3793 10.6135 16.306 10.5438 16.2715C10.465 16.2324 10.3728 16.1761 10.2817 16.1205L9.24892 15.4896L8.21615 16.1204C8.12511 16.1761 8.03288 16.2324 7.95401 16.2715C7.88433 16.306 7.72881 16.3793 7.54268 16.3497C7.33746 16.3171 7.16021 16.1883 7.06576 16.0032C6.9801 15.8353 7.00178 15.6648 7.01307 15.5878C7.02585 15.5008 7.05094 15.3956 7.07572 15.2919L7.35652 14.1147L6.43743 13.3274C6.35639 13.258 6.27429 13.1877 6.21277 13.1248C6.15841 13.0692 6.04062 12.9439 6.01125 12.7577C5.97886 12.5525 6.04656 12.3441 6.19342 12.1971C6.3266 12.0637 6.49552 12.0317 6.57217 12.0186C6.65895 12.0039 6.76667 11.9952 6.87303 11.9867L8.07935 11.89L8.5441 10.7726C8.58506 10.6741 8.62654 10.5743 8.66739 10.4963C8.70348 10.4275 8.78619 10.2767 8.95417 10.1913Z" fill="currentColor"/>
<path fill-rule="evenodd" clip-rule="evenodd" d="M8.63085 3.40937C8.34008 3.34969 8.04437 3.34989 7.69413 3.35013L6.16418 3.35016C5.63431 3.35014 5.18313 3.35013 4.8127 3.38039C4.42354 3.41219 4.04495 3.48182 3.68302 3.66624C3.13735 3.94427 2.69371 4.38791 2.41568 4.93358C2.23126 5.29552 2.16163 5.67411 2.12983 6.06327C2.09957 6.43369 2.09958 6.88491 2.09959 7.41475V16.5856C2.09958 17.1155 2.09957 17.5666 2.12983 17.937C2.16163 18.3262 2.23126 18.7048 2.41568 19.0667C2.69371 19.6124 3.13735 20.056 3.68302 20.3341C4.04495 20.5185 4.42354 20.5881 4.8127 20.6199C5.18312 20.6502 5.63431 20.6502 6.16416 20.6502H17.835C18.3648 20.6502 18.816 20.6502 19.1864 20.6199C19.5756 20.5881 19.9542 20.5185 20.3161 20.3341C20.8618 20.056 21.3054 19.6124 21.5834 19.0667C21.7679 18.7048 21.8375 18.3262 21.8693 17.937C21.8995 17.5666 21.8995 17.1154 21.8995 16.5856V9.41471C21.8995 8.88487 21.8995 8.43369 21.8693 8.06327C21.8375 7.67411 21.7679 7.29552 21.5834 6.93358C21.3054 6.38791 20.8618 5.94427 20.3161 5.66624C19.9542 5.48182 19.5756 5.41219 19.1864 5.38039C18.816 5.35013 18.3648 5.35014 17.8349 5.35016L11.5651 5.35016L10.1357 4.20657C9.86231 3.98759 9.63152 3.8027 9.36719 3.66766C9.1345 3.54878 8.88681 3.4619 8.63085 3.40937ZM4.65969 5.2039C4.79121 5.16116 4.98505 5.15006 5.79961 5.15006H7.76723C8.06829 5.15006 8.13611 5.15195 8.19585 5.16006C8.34344 5.1801 8.48543 5.22991 8.6132 5.30646C8.66492 5.33745 8.71906 5.37834 8.95414 5.56641L10.6872 6.95284C10.8468 7.08051 11.045 7.15006 11.2494 7.15006H18.1996C19.0141 7.15006 19.208 7.16116 19.3395 7.2039C19.6744 7.31271 19.9369 7.57526 20.0457 7.91014C20.0884 8.04166 20.0996 8.2355 20.0996 9.05006V16.9501C20.0996 17.7646 20.0884 17.9585 20.0457 18.09C19.9369 18.4249 19.6744 18.6874 19.3395 18.7962C19.208 18.839 19.0141 18.8501 18.1996 18.8501H5.79961C4.98505 18.8501 4.79121 18.839 4.65969 18.7962C4.32481 18.6874 4.06226 18.4249 3.95345 18.09C3.91072 17.9585 3.89961 17.7646 3.89961 16.9501V7.05006C3.89961 6.2355 3.91072 6.04166 3.95345 5.91014C4.06226 5.57526 4.32481 5.31271 4.65969 5.2039Z" fill="currentColor"/>
</svg>
