<svg width="24" height="24" viewBox="0 0 24 24" fill="none" xmlns="http://www.w3.org/2000/svg">
<path fill-rule="evenodd" clip-rule="evenodd" d="M7.69415 3.34964C8.04438 3.3494 8.3401 3.3492 8.63087 3.40888C8.88683 3.46141 9.13451 3.5483 9.3672 3.66717C9.63153 3.80222 9.86232 3.98711 10.1357 4.20608L11.5651 5.34967L17.835 5.34967C18.3648 5.34965 18.816 5.34964 19.1864 5.37991C19.5756 5.4117 19.9542 5.48134 20.3161 5.66575C20.8618 5.94378 21.3054 6.38743 21.5835 6.9331C21.7679 7.29503 21.8375 7.67362 21.8693 8.06278C21.8996 8.43321 21.8995 8.88439 21.8995 9.41424V16.5851C21.8995 17.1149 21.8996 17.5661 21.8693 17.9366C21.8375 18.3257 21.7679 18.7043 21.5835 19.0662C21.3054 19.6119 20.8618 20.0556 20.3161 20.3336C19.9542 20.518 19.5756 20.5876 19.1864 20.6194C18.816 20.6497 18.3648 20.6497 17.835 20.6497H6.16417C5.63432 20.6497 5.18314 20.6497 4.81272 20.6194C4.42356 20.5876 4.04496 20.518 3.68303 20.3336C3.13737 20.0556 2.69372 19.6119 2.41569 19.0662C2.23128 18.7043 2.16164 18.3257 2.12985 17.9366C2.09958 17.5661 2.0996 17.1149 2.09961 16.5851V7.41424C2.0996 6.88439 2.09958 6.4332 2.12985 6.06278C2.16164 5.67362 2.23128 5.29503 2.41569 4.9331C2.69372 4.38743 3.13737 3.94378 3.68303 3.66575C4.04496 3.48134 4.42356 3.4117 4.81272 3.37991C5.18315 3.34964 5.63433 3.34965 6.16419 3.34967L7.69415 3.34964ZM8.45419 10.6913C8.63939 10.597 8.85849 10.597 9.04369 10.6913C9.21167 10.7767 9.29438 10.9275 9.33047 10.9963C9.37132 11.0743 9.4128 11.1741 9.45376 11.2726L9.91851 12.39L11.1248 12.4867C11.2312 12.4952 11.3389 12.5039 11.4257 12.5186C11.5023 12.5317 11.6713 12.5637 11.8044 12.6971C11.9513 12.8441 12.019 13.0525 11.9866 13.2577C11.9572 13.4439 11.8394 13.5692 11.7851 13.6248C11.7236 13.6877 11.6415 13.758 11.5605 13.8274L10.6413 14.6147L10.9221 15.7919C10.9469 15.8956 10.972 16.0008 10.9848 16.0878C10.9961 16.1648 11.0178 16.3353 10.9321 16.5032C10.8377 16.6883 10.6604 16.8171 10.4552 16.8497C10.2691 16.8793 10.1135 16.806 10.0439 16.7715C9.96499 16.7324 9.87279 16.6761 9.78175 16.6205L8.74894 15.9896L7.71617 16.6204C7.62513 16.6761 7.5329 16.7324 7.45402 16.7715C7.38434 16.806 7.22883 16.8793 7.0427 16.8497C6.83748 16.8171 6.66023 16.6883 6.56578 16.5032C6.48012 16.3353 6.5018 16.1648 6.51309 16.0878C6.52587 16.0008 6.55096 15.8956 6.57573 15.7919L6.85653 14.6147L5.93744 13.8274C5.8564 13.758 5.77431 13.6877 5.71278 13.6248C5.65843 13.5692 5.54064 13.4439 5.51126 13.2577C5.47888 13.0525 5.54658 12.8441 5.69343 12.6971C5.82662 12.5637 5.99553 12.5317 6.07219 12.5186C6.15897 12.5039 6.26669 12.4952 6.37305 12.4867L7.57937 12.39L8.04412 11.2726C8.08507 11.1741 8.12656 11.0743 8.16741 10.9963C8.2035 10.9275 8.28621 10.7767 8.45419 10.6913Z" fill="currentColor"/>
</svg>
