<svg width="24" height="24" viewBox="0 0 24 24" fill="none" xmlns="http://www.w3.org/2000/svg">
<path fill-rule="evenodd" clip-rule="evenodd" d="M7.69415 3.34964C8.04438 3.3494 8.3401 3.3492 8.63087 3.40888C8.88683 3.46141 9.13451 3.5483 9.3672 3.66717C9.63153 3.80222 9.86232 3.98711 10.1357 4.20608L11.5651 5.34967L17.835 5.34967C18.3648 5.34965 18.816 5.34964 19.1864 5.37991C19.5756 5.4117 19.9542 5.48134 20.3161 5.66575C20.8618 5.94378 21.3054 6.38743 21.5835 6.9331C21.7679 7.29503 21.8375 7.67362 21.8693 8.06278C21.8996 8.43321 21.8995 8.88439 21.8995 9.41424V16.5851C21.8995 17.1149 21.8996 17.5661 21.8693 17.9366C21.8375 18.3257 21.7679 18.7043 21.5835 19.0662C21.3054 19.6119 20.8618 20.0556 20.3161 20.3336C19.9542 20.518 19.5756 20.5876 19.1864 20.6194C18.816 20.6497 18.3648 20.6497 17.835 20.6497H6.16417C5.63432 20.6497 5.18314 20.6497 4.81272 20.6194C4.42356 20.5876 4.04496 20.518 3.68303 20.3336C3.13737 20.0556 2.69372 19.6119 2.41569 19.0662C2.23128 18.7043 2.16164 18.3257 2.12985 17.9366C2.09958 17.5661 2.0996 17.1149 2.09961 16.5851V7.41424C2.0996 6.88439 2.09958 6.4332 2.12985 6.06278C2.16164 5.67362 2.23128 5.29503 2.41569 4.9331C2.69372 4.38743 3.13737 3.94378 3.68303 3.66575C4.04496 3.48134 4.42356 3.4117 4.81272 3.37991C5.18315 3.34964 5.63433 3.34965 6.16419 3.34967L7.69415 3.34964ZM8.7492 10.5503C7.94839 10.5503 7.29921 11.1995 7.29921 12.0003C7.29921 12.8011 7.94839 13.4503 8.7492 13.4503C9.55001 13.4503 10.1992 12.8011 10.1992 12.0003C10.1992 11.1995 9.55001 10.5503 8.7492 10.5503ZM8.7492 14.3021C7.92475 14.3021 7.14604 14.498 6.55848 14.882C5.96244 15.2715 5.54921 15.8698 5.54921 16.629C5.54921 16.9455 5.80583 17.2021 6.12238 17.2021H11.376C11.6926 17.2021 11.9492 16.9455 11.9492 16.629C11.9492 15.8698 11.536 15.2715 10.9399 14.882C10.3524 14.498 9.57365 14.3021 8.7492 14.3021Z" fill="currentColor"/>
</svg>
