<svg width="24" height="24" viewBox="0 0 24 24" fill="none" xmlns="http://www.w3.org/2000/svg">
<path d="M8.63087 3.40888C8.3401 3.3492 8.04439 3.3494 7.69415 3.34964L6.1642 3.34967C5.63433 3.34965 5.18315 3.34964 4.81272 3.37991C4.42356 3.4117 4.04497 3.48134 3.68303 3.66575C3.13737 3.94378 2.69372 4.38743 2.41569 4.9331C2.23128 5.29503 2.16164 5.67362 2.12985 6.06278C2.09958 6.43321 2.0996 6.88438 2.09961 7.41424V16.5851C2.0996 17.1149 2.09958 17.5661 2.12985 17.9366C2.16164 18.3257 2.23128 18.7043 2.41569 19.0662C2.69372 19.6119 3.13737 20.0556 3.68303 20.3336C4.04497 20.518 4.42356 20.5876 4.81272 20.6194C5.18314 20.6497 5.63432 20.6497 6.16418 20.6497H17.835C18.3648 20.6497 18.816 20.6497 19.1864 20.6194C19.5756 20.5876 19.9542 20.518 20.3161 20.3336C20.8618 20.0556 21.3054 19.6119 21.5835 19.0662C21.7679 18.7043 21.8375 18.3257 21.8693 17.9366C21.8996 17.5661 21.8996 17.115 21.8996 16.5851V9.41426C21.8996 8.8844 21.8996 8.43321 21.8693 8.06278C21.8375 7.67362 21.7679 7.29503 21.5835 6.9331C21.3054 6.38743 20.8618 5.94378 20.3161 5.66575C19.9542 5.48134 19.5756 5.4117 19.1864 5.37991C18.816 5.34964 18.3649 5.34965 17.835 5.34967L11.5651 5.34967L10.1357 4.20608C9.86233 3.98711 9.63154 3.80222 9.36721 3.66717C9.13452 3.5483 8.88683 3.46141 8.63087 3.40888Z" fill="currentColor"/>
</svg>
