<svg width="24" height="24" viewBox="0 0 24 24" fill="none" xmlns="http://www.w3.org/2000/svg">
<path fill-rule="evenodd" clip-rule="evenodd" d="M7.69418 3.35013C8.04441 3.34989 8.34013 3.34969 8.6309 3.40937C8.88686 3.4619 9.13454 3.54878 9.36723 3.66766C9.63156 3.8027 9.86236 3.98759 10.1357 4.20657L11.5651 5.35016L17.835 5.35016C18.3648 5.35014 18.816 5.35013 19.1865 5.38039C19.5756 5.41219 19.9542 5.48182 20.3161 5.66624C20.8618 5.94427 21.3055 6.38791 21.5835 6.93358C21.7679 7.29552 21.8375 7.67411 21.8693 8.06327C21.8996 8.43369 21.8996 8.88486 21.8996 9.41471V16.5856C21.8996 17.1154 21.8996 17.5666 21.8693 17.937C21.8375 18.3262 21.7679 18.7048 21.5835 19.0667C21.3055 19.6124 20.8618 20.056 20.3161 20.3341C19.9542 20.5185 19.5756 20.5881 19.1865 20.6199C18.816 20.6502 18.3649 20.6502 17.835 20.6502H6.16422C5.63437 20.6502 5.18317 20.6502 4.81275 20.6199C4.42359 20.5881 4.045 20.5185 3.68306 20.3341C3.1374 20.056 2.69375 19.6124 2.41572 19.0667C2.23131 18.7048 2.16168 18.3262 2.12988 17.937C2.09962 17.5666 2.09963 17.1155 2.09964 16.5856V7.41475C2.09963 6.88491 2.09962 6.43369 2.12988 6.06327C2.16168 5.67411 2.23131 5.29552 2.41572 4.93358C2.69375 4.38791 3.1374 3.94427 3.68306 3.66624C4.045 3.48182 4.42359 3.41219 4.81275 3.38039C5.18318 3.35013 5.63436 3.35014 6.16422 3.35016L7.69418 3.35013ZM5.79965 5.15006C4.98509 5.15006 4.79126 5.16116 4.65974 5.2039C4.32486 5.31271 4.06231 5.57526 3.9535 5.91014C3.91076 6.04166 3.89966 6.2355 3.89966 7.05006V16.9501C3.89966 17.7646 3.91076 17.9585 3.9535 18.09C4.06231 18.4249 4.32486 18.6874 4.65974 18.7962C4.79126 18.839 4.98509 18.8501 5.79965 18.8501H18.1996C19.0142 18.8501 19.208 18.839 19.3395 18.7962C19.6744 18.6874 19.937 18.4249 20.0458 18.09C20.0885 17.9585 20.0996 17.7646 20.0996 16.9501V9.05006C20.0996 8.2355 20.0885 8.04166 20.0458 7.91014C19.937 7.57526 19.6744 7.31271 19.3395 7.2039C19.208 7.16116 19.0142 7.15006 18.1996 7.15006H11.2494C11.0451 7.15006 10.8468 7.08051 10.6872 6.95284L8.95419 5.56641C8.7191 5.37834 8.66496 5.33745 8.61325 5.30646C8.48548 5.22991 8.34349 5.1801 8.19589 5.16006C8.13616 5.15195 8.06833 5.15006 7.76727 5.15006H5.79965Z" fill="currentColor"/>
</svg>
