<svg width="24" height="24" viewBox="0 0 24 24" fill="none" xmlns="http://www.w3.org/2000/svg">
<path fill-rule="evenodd" clip-rule="evenodd" d="M11.9568 3.90021C11.9853 3.90006 12.0139 3.90006 12.0423 3.90021C12.9304 5.16345 13.6164 6.57908 14.0533 8.10009H9.9459C10.3828 6.57908 11.0687 5.16345 11.9568 3.90021ZM14.3912 4.25896C15.0579 5.45294 15.5752 6.74176 15.9178 8.10009H19.1006C18.0975 6.27771 16.4134 4.88301 14.3912 4.25896ZM19.8247 9.90009H16.2621C16.3528 10.5872 16.3996 11.2882 16.3996 12.0001C16.3996 12.712 16.3528 13.413 16.2621 14.1001H19.8247C20.004 13.4303 20.0995 12.7264 20.0995 12.0001C20.0995 11.2738 20.004 10.5698 19.8247 9.90009ZM19.1006 15.9001H15.9178C15.5752 17.2584 15.0579 18.5472 14.3912 19.7412C16.4134 19.1172 18.0976 17.7225 19.1006 15.9001ZM12.0424 20.1C12.0139 20.1001 11.9853 20.1001 11.9568 20.1C11.0687 18.8367 10.3827 17.4211 9.94588 15.9001H14.0533C13.6164 17.4211 12.9304 18.8367 12.0424 20.1ZM9.608 19.7412C7.58572 19.1172 5.90159 17.7225 4.89858 15.9001H8.0814C8.42391 17.2584 8.94122 18.5473 9.608 19.7412ZM4.17448 14.1001H7.73704C7.64638 13.413 7.59959 12.712 7.59959 12.0001C7.59959 11.2882 7.64638 10.5872 7.73705 9.90009H4.17448C3.99519 10.5698 3.8996 11.2738 3.8996 12.0001C3.8996 12.7264 3.99519 13.4303 4.17448 14.1001ZM4.89859 8.10009H8.08141C8.42393 6.74175 8.94123 5.45294 9.60801 4.25895C7.58574 4.883 5.9016 6.27771 4.89859 8.10009ZM11.9996 2.1001C6.53197 2.1001 2.09961 6.53248 2.09961 12.0001C2.09961 17.4677 6.53197 21.9001 11.9996 21.9001C17.4672 21.9001 21.8995 17.4677 21.8995 12.0001C21.8995 6.53248 17.4672 2.1001 11.9996 2.1001ZM9.5549 14.1001H14.4443C14.5466 13.415 14.5996 12.7137 14.5996 12.0001C14.5996 11.2865 14.5466 10.5852 14.4443 9.90009H9.55491C9.4526 10.5852 9.39959 11.2865 9.39959 12.0001C9.39959 12.7137 9.4526 13.415 9.5549 14.1001Z" fill="currentColor"/>
</svg>
