<svg width="24" height="24" viewBox="0 0 24 24" fill="none" xmlns="http://www.w3.org/2000/svg">
<path d="M12.3876 3.18752C12.1428 3.07096 11.8585 3.07096 11.6137 3.18752L2.6004 7.47959C2.38428 7.58247 2.1702 7.68437 2.00359 7.78309C1.84419 7.87753 1.56359 8.05925 1.40338 8.39045C1.2171 8.77554 1.2171 9.22466 1.40338 9.60974C1.56359 9.94094 1.84419 10.1227 2.00359 10.2171C2.1702 10.3158 2.38428 10.4177 2.60041 10.5206L11.6137 14.8127C11.8585 14.9292 12.1428 14.9292 12.3876 14.8127L20.9806 10.7207V15.5001C20.9806 15.9972 21.3836 16.4001 21.8806 16.4001C22.3777 16.4001 22.7806 15.9972 22.7806 15.5001V9.0001C22.7806 8.84173 22.7397 8.69292 22.6679 8.56365C22.6486 8.50481 22.6253 8.44694 22.598 8.39045C22.4377 8.05925 22.1571 7.87753 21.9978 7.78309C21.8311 7.68437 21.6171 7.58247 21.4009 7.4796L12.3876 3.18752Z" fill="currentColor"/>
<path d="M5.10069 13.7058L10.8398 16.4387C11.5742 16.7884 12.4271 16.7884 13.1615 16.4387L18.9007 13.7058L18.9007 16.3204C18.9015 16.9418 18.9021 17.4646 18.7324 17.9408C18.5836 18.3582 18.3412 18.736 18.0237 19.0451C17.6615 19.3978 17.1859 19.615 16.6208 19.8732L13.6288 21.2442C13.2172 21.4333 12.87 21.5928 12.4967 21.6576C12.1685 21.7145 11.8329 21.7145 11.5047 21.6576C11.1313 21.5928 10.7841 21.4333 10.3725 21.2442L7.38059 19.8732C6.81542 19.615 6.33986 19.3978 5.97769 19.0451C5.66017 18.736 5.41772 18.3582 5.26897 17.9408C5.09929 17.4646 5.09989 16.9418 5.1006 16.3204L5.10069 13.7058Z" fill="currentColor"/>
</svg>
