<svg width="24" height="24" viewBox="0 0 24 24" fill="none" xmlns="http://www.w3.org/2000/svg">
<path fill-rule="evenodd" clip-rule="evenodd" d="M11.5982 2.69511C11.8516 2.56843 12.1498 2.56843 12.4032 2.69511L22.0014 7.49424C22.206 7.5965 22.411 7.69893 22.5709 7.79803C22.7269 7.89464 22.9941 8.07666 23.1476 8.40016C23.2484 8.61281 23.2928 8.84454 23.2807 9.07397V15C23.2807 15.4971 22.8777 15.9 22.3807 15.9C21.8836 15.9 21.4807 15.4971 21.4807 15V10.7663L19.4007 11.8063L19.4008 16.391C19.4014 16.991 19.402 17.4962 19.2422 17.9595C19.102 18.3659 18.8733 18.736 18.5725 19.0431C18.2295 19.3933 17.7775 19.6187 17.2405 19.8864L13.7485 21.6324C13.3086 21.8528 12.9377 22.0387 12.5354 22.1142C12.182 22.1805 11.8194 22.1805 11.4659 22.1142C11.0637 22.0387 10.6928 21.8528 10.2529 21.6324L6.76097 19.8865C6.22394 19.6187 5.77186 19.3933 5.42891 19.0431C5.12813 18.736 4.89938 18.3659 4.75922 17.9595C4.5994 17.4962 4.59997 16.991 4.60063 16.3909L4.60072 11.8063L1.99994 10.5059C1.79534 10.4037 1.59041 10.3013 1.43043 10.2022C1.27446 10.1056 1.00724 9.92354 0.853808 9.60003C0.673731 9.22035 0.673731 8.77985 0.853808 8.40016C1.00724 8.07666 1.27446 7.89464 1.43043 7.79803C1.5904 7.69893 1.79532 7.59651 1.99992 7.49426L11.5982 2.69511ZM12.4032 15.3051L17.6007 12.7063V16.2723C17.6007 17.0555 17.5889 17.2324 17.5406 17.3726C17.4874 17.5267 17.4006 17.6671 17.2865 17.7836C17.1827 17.8896 17.0297 17.9792 16.3293 18.3295L13.0293 19.9795C12.4579 20.2652 12.3258 20.3221 12.2035 20.3451C12.0695 20.3702 11.9319 20.3702 11.7979 20.3451C11.6756 20.3221 11.5435 20.2652 10.9721 19.9795L7.67212 18.3295C6.97164 17.9792 6.81867 17.8896 6.71485 17.7836C6.60077 17.6671 6.514 17.5267 6.46084 17.3726C6.41246 17.2324 6.40072 17.0555 6.40072 16.2723V12.7063L11.5982 15.3051C11.8516 15.4318 12.1498 15.4318 12.4032 15.3051ZM3.01317 9.0001L12.0007 13.4939L20.9882 9.0001L12.0007 4.50633L3.01317 9.0001Z" fill="currentColor"/>
</svg>
