<svg width="24" height="24" viewBox="0 0 24 24" fill="none" xmlns="http://www.w3.org/2000/svg">
<path d="M10.375 5.25C10.375 4.2835 9.59149 3.5 8.62499 3.5C7.6585 3.5 6.875 4.2835 6.875 5.25C6.875 6.2165 7.6585 7 8.62499 7C9.59149 7 10.375 6.2165 10.375 5.25Z" fill="currentColor"/>
<path d="M15.375 17C16.3415 17 17.125 17.7835 17.125 18.75C17.125 19.7165 16.3415 20.5 15.375 20.5C14.4085 20.5 13.625 19.7165 13.625 18.75C13.625 17.7835 14.4085 17 15.375 17Z" fill="currentColor"/>
<path d="M17.125 12C17.125 11.0335 16.3415 10.25 15.375 10.25C14.4085 10.25 13.625 11.0335 13.625 12C13.625 12.9665 14.4085 13.75 15.375 13.75C16.3415 13.75 17.125 12.9665 17.125 12Z" fill="currentColor"/>
<path d="M17.125 5.25C17.125 4.2835 16.3415 3.5 15.375 3.5C14.4085 3.5 13.625 4.2835 13.625 5.25C13.625 6.2165 14.4085 7 15.375 7C16.3415 7 17.125 6.2165 17.125 5.25Z" fill="currentColor"/>
<path d="M8.62499 10.25C9.59149 10.25 10.375 11.0335 10.375 12C10.375 12.9665 9.59149 13.75 8.62499 13.75C7.6585 13.75 6.875 12.9665 6.875 12C6.875 11.0335 7.6585 10.25 8.62499 10.25Z" fill="currentColor"/>
<path d="M10.375 18.75C10.375 17.7835 9.59149 17 8.62499 17C7.6585 17 6.875 17.7835 6.875 18.75C6.875 19.7165 7.6585 20.5 8.62499 20.5C9.59149 20.5 10.375 19.7165 10.375 18.75Z" fill="currentColor"/>
</svg>
