<svg width="24" height="24" viewBox="0 0 24 24" fill="none" xmlns="http://www.w3.org/2000/svg">
<path d="M7.59998 3.1001C4.16999 3.1001 1.5 5.93664 1.5 9.4001C1.5 11.04 2.09356 12.4208 3.02079 13.7026C3.93087 14.9607 5.19689 16.1683 6.58757 17.4596L6.59183 17.4635L10.3313 20.8914C10.5042 21.0499 10.67 21.202 10.8208 21.3198C10.9863 21.4492 11.188 21.5821 11.4443 21.6605C11.8065 21.7712 12.1935 21.7712 12.5556 21.6605C12.8119 21.5821 13.0136 21.4492 13.1791 21.3198C13.3299 21.202 13.4957 21.0499 13.6686 20.8914L13.9402 20.6424C13.698 20.3836 13.4629 20.1087 13.2545 19.8205C12.6983 19.0517 12.2401 18.0711 12.2401 16.8482C12.2401 14.3656 14.1834 12.2005 16.8064 12.2005C17.4459 12.2005 18.0503 12.3325 18.5971 12.5686C19.1438 12.3325 19.7482 12.2005 20.3878 12.2005C20.8747 12.2005 21.3382 12.2751 21.7703 12.4126C22.2302 11.4935 22.4999 10.5057 22.4999 9.4001C22.4999 5.93664 19.8299 3.1001 16.3999 3.1001C14.6575 3.1001 13.1026 3.83723 12 5.01883C10.8973 3.83723 9.34245 3.1001 7.59998 3.1001Z" fill="currentColor"/>
<path d="M14.24 16.8482C14.24 15.3955 15.361 14.2005 16.8063 14.2005C17.5083 14.2005 18.1377 14.4848 18.597 14.9446C19.0562 14.4848 19.6856 14.2005 20.3876 14.2005C21.8329 14.2005 22.9539 15.3955 22.9539 16.8482C22.9539 17.5379 22.7036 18.1167 22.3191 18.6483C21.9431 19.168 21.4217 19.6648 20.8566 20.1896L20.8545 20.1915L19.5768 21.3628C19.0224 21.871 18.1715 21.871 17.6171 21.3628L16.3394 20.1915L16.3373 20.1896C15.7722 19.6648 15.2508 19.168 14.8748 18.6483C14.4903 18.1167 14.24 17.5379 14.24 16.8482Z" fill="currentColor"/>
</svg>
