<svg width="24" height="24" viewBox="0 0 24 24" fill="none" xmlns="http://www.w3.org/2000/svg">
<path d="M3.3 9.4001C3.3 6.86356 5.22999 4.9001 7.59998 4.9001C9.1329 4.9001 10.4678 5.71337 11.2308 6.96913C11.3941 7.23777 11.6856 7.40177 12 7.40177C12.3143 7.40177 12.6059 7.23777 12.7691 6.96913C13.5321 5.71337 14.867 4.9001 16.3999 4.9001C18.7699 4.9001 20.6999 6.86356 20.6999 9.4001C20.6999 9.92646 20.6165 10.4161 20.46 10.8879C20.3036 11.3597 20.5592 11.869 21.031 12.0254C21.5028 12.1819 22.0121 11.9262 22.1686 11.4544C22.3841 10.8045 22.4999 10.1238 22.4999 9.4001C22.4999 5.93664 19.8299 3.1001 16.3999 3.1001C14.6575 3.1001 13.1026 3.83723 12 5.01883C10.8973 3.83723 9.34245 3.1001 7.59998 3.1001C4.16999 3.1001 1.5 5.93664 1.5 9.4001C1.5 11.04 2.09356 12.4208 3.02079 13.7026C3.93087 14.9607 5.19689 16.1683 6.58757 17.4596L6.59183 17.4635L11.3918 21.8635C11.7582 22.1994 12.3275 22.1747 12.6634 21.8083C12.9993 21.4418 12.9745 20.8725 12.6081 20.5367L7.81239 16.1406L7.81021 16.1386C6.40191 14.8308 5.26871 13.739 4.4792 12.6476C3.70644 11.5794 3.3 10.5602 3.3 9.4001Z" fill="currentColor"/>
<path fill-rule="evenodd" clip-rule="evenodd" d="M16.8065 14.0003C15.0963 14.0003 13.7902 15.4136 13.7902 17.098C13.7902 17.9077 14.0873 18.5769 14.5104 19.1618C14.9164 19.7231 15.4708 20.2487 16.0313 20.7691L16.0355 20.7731L17.3133 21.9443C18.0397 22.6102 19.1546 22.6102 19.8811 21.9443L21.1588 20.7731L21.1631 20.7691C21.7235 20.2487 22.2779 19.7231 22.6839 19.1618C23.1071 18.5769 23.4041 17.9077 23.4041 17.098C23.4041 15.4136 22.0981 14.0003 20.3879 14.0003C19.7123 14.0003 19.0946 14.2239 18.5972 14.5993C18.0997 14.2239 17.4821 14.0003 16.8065 14.0003ZM15.5902 17.098C15.5902 16.3405 16.1563 15.8003 16.8065 15.8003C17.2328 15.8003 17.6084 16.0243 17.828 16.3858C17.9913 16.6544 18.2828 16.8184 18.5972 16.8184C18.9115 16.8184 19.2031 16.6544 19.3663 16.3858C19.586 16.0243 19.9616 15.8003 20.3879 15.8003C21.0381 15.8003 21.6041 16.3405 21.6041 17.098C21.6041 17.4278 21.4942 17.7354 21.2255 18.1068C20.94 18.5015 20.5184 18.9114 19.9404 19.4481L18.6648 20.6175C18.6265 20.6525 18.5678 20.6525 18.5296 20.6175L17.254 19.4481C16.676 18.9114 16.2543 18.5015 15.9688 18.1068C15.7001 17.7354 15.5902 17.4278 15.5902 17.098Z" fill="currentColor"/>
</svg>
