<svg width="24" height="24" viewBox="0 0 24 24" fill="none" xmlns="http://www.w3.org/2000/svg">
<path d="M11.9996 2.1001C11.5025 2.1001 11.0996 2.50304 11.0996 3.0001C11.0996 3.49715 11.5025 3.9001 11.9996 3.9001C16.4731 3.9001 20.0995 7.52659 20.0995 12.0001C20.0995 16.4736 16.4731 20.1001 11.9996 20.1001C7.52608 20.1001 3.8996 16.4736 3.8996 12.0001C3.8996 11.503 3.49666 11.1001 2.99961 11.1001C2.50255 11.1001 2.09961 11.503 2.09961 12.0001C2.09961 17.4677 6.53197 21.9001 11.9996 21.9001C17.4672 21.9001 21.8995 17.4677 21.8995 12.0001C21.8995 6.53248 17.4672 2.1001 11.9996 2.1001Z" fill="currentColor"/>
<path d="M9.47821 3.29992C9.68976 3.81008 9.44769 4.39515 8.93754 4.6067C8.42738 4.81826 7.84231 4.57619 7.63075 4.06603C7.4192 3.55587 7.66126 2.97081 8.17142 2.75925C8.68158 2.5477 9.26665 2.78976 9.47821 3.29992Z" fill="currentColor"/>
<path d="M6.34273 4.92898C6.73325 5.31951 6.73325 5.95267 6.34273 6.3432C5.95221 6.73372 5.31904 6.73373 4.92851 6.3432C4.53799 5.95268 4.53799 5.31951 4.92851 4.92899C5.31904 4.53847 5.95221 4.53846 6.34273 4.92898Z" fill="currentColor"/>
<path d="M4.06557 7.63123C4.57573 7.84279 4.81779 8.42785 4.60624 8.93801C4.39468 9.44817 3.80962 9.69025 3.29946 9.47869C2.7893 9.26714 2.54724 8.68207 2.75879 8.17191C2.97034 7.66175 3.55541 7.41968 4.06557 7.63123Z" fill="currentColor"/>
<path d="M11.4996 6.6001C11.9966 6.6001 12.3996 7.00304 12.3996 7.5001V12.1274L14.6107 14.3386C14.9622 14.69 14.9622 15.2599 14.6107 15.6114C14.2592 15.9628 13.6894 15.9628 13.3379 15.6114L10.8631 13.1365C10.6835 12.957 10.5957 12.7205 10.5996 12.4852V7.5001C10.5996 7.00304 11.0025 6.6001 11.4996 6.6001Z" fill="currentColor"/>
</svg>
