<svg width="24" height="24" viewBox="0 0 24 24" fill="none" xmlns="http://www.w3.org/2000/svg">
<path fill-rule="evenodd" clip-rule="evenodd" d="M12.3611 2.27647C12.1243 2.21318 11.875 2.21318 11.6382 2.27647C11.3575 2.3515 11.1247 2.5333 11.0021 2.62905L10.967 2.65625L4.13384 7.88153C3.74703 8.17676 3.42085 8.42572 3.1781 8.75002C2.9648 9.03498 2.80578 9.35676 2.70899 9.69929C2.59884 10.0891 2.59922 10.4995 2.59967 10.9861L2.59972 17.335C2.59971 17.8648 2.5997 18.316 2.62996 18.6865C2.66176 19.0756 2.73139 19.4542 2.9158 19.8161C3.19383 20.3618 3.63748 20.8055 4.18314 21.0835C4.54508 21.2679 4.92367 21.3375 5.31283 21.3693C5.68324 21.3996 6.1344 21.3996 6.66425 21.3996H11.9894C11.9929 21.3996 11.9964 21.3996 12 21.3996C12.0035 21.3996 12.007 21.3996 12.0106 21.3996H17.3351C17.8649 21.3996 18.3161 21.3996 18.6865 21.3693C19.0757 21.3375 19.4543 21.2679 19.8162 21.0835C20.3619 20.8055 20.8055 20.3618 21.0836 19.8161C21.268 19.4542 21.3376 19.0756 21.3694 18.6865C21.3997 18.316 21.3997 17.8649 21.3997 17.335L21.3997 10.9861C21.4002 10.4994 21.4005 10.0891 21.2904 9.69929C21.1936 9.35676 21.0346 9.03498 20.8213 8.75002C20.5785 8.42572 20.2523 8.17677 19.8655 7.88153L13.0323 2.65625L12.9973 2.62905C12.8747 2.5333 12.6419 2.3515 12.3611 2.27647ZM12.9 19.5994H17.6997C18.5142 19.5994 18.7081 19.5883 18.8396 19.5456C19.1745 19.4368 19.437 19.1742 19.5458 18.8393C19.5886 18.7078 19.5997 18.514 19.5997 17.6994V10.883C19.5997 10.4628 19.5961 10.3673 19.5812 10.2869C19.5441 10.0871 19.4523 9.90143 19.3162 9.75057C19.2613 9.68986 19.1876 9.62903 18.8538 9.37376L11.9997 4.1324L5.14557 9.37376C4.81175 9.62903 4.73806 9.68986 4.68324 9.75057C4.54705 9.90143 4.45531 10.0871 4.41821 10.2869C4.40328 10.3673 4.39973 10.4628 4.39973 10.883V17.6994C4.39973 18.514 4.41083 18.7078 4.45356 18.8393C4.56237 19.1742 4.82492 19.4368 5.1598 19.5456C5.29133 19.5883 5.48516 19.5994 6.29972 19.5994H11.1V13.9996C11.1 13.5026 11.5029 13.0996 12 13.0996C12.497 13.0996 12.9 13.5026 12.9 13.9996V19.5994Z" fill="currentColor"/>
</svg>
