<svg width="24" height="24" viewBox="0 0 24 24" fill="none" xmlns="http://www.w3.org/2000/svg">
<path d="M11.6382 2.27647C11.875 2.21318 12.1243 2.21318 12.3611 2.27647C12.6419 2.3515 12.8747 2.5333 12.9973 2.62905L13.0323 2.65625L19.8655 7.88153C20.2523 8.17677 20.5785 8.42572 20.8213 8.75002C21.0346 9.03498 21.1936 9.35676 21.2904 9.69929C21.4005 10.0891 21.4002 10.4994 21.3997 10.9861L21.3997 17.335C21.3997 17.8648 21.3997 18.316 21.3694 18.6865C21.3376 19.0756 21.268 19.4542 21.0836 19.8161C20.8055 20.3618 20.3619 20.8055 19.8162 21.0835C19.4543 21.2679 19.0757 21.3375 18.6865 21.3693C18.3161 21.3996 17.865 21.3996 17.3351 21.3996H12.9V13.9996C12.9 13.5026 12.497 13.0996 12 13.0996C11.5029 13.0996 11.1 13.5026 11.1 13.9996V21.3996H6.6643C6.13445 21.3996 5.68325 21.3996 5.31283 21.3693C4.92367 21.3375 4.54508 21.2679 4.18314 21.0835C3.63748 20.8055 3.19383 20.3618 2.9158 19.8161C2.73139 19.4542 2.66176 19.0756 2.62996 18.6865C2.5997 18.316 2.59971 17.8648 2.59972 17.335L2.59967 10.9861C2.59922 10.4995 2.59884 10.0891 2.70899 9.69929C2.80578 9.35676 2.9648 9.03498 3.1781 8.75002C3.42085 8.42572 3.74703 8.17676 4.13384 7.88153L10.967 2.65625L11.0021 2.62905C11.1247 2.5333 11.3575 2.3515 11.6382 2.27647Z" fill="currentColor"/>
</svg>
