<svg width="24" height="24" viewBox="0 0 24 24" fill="none" xmlns="http://www.w3.org/2000/svg">
<path fill-rule="evenodd" clip-rule="evenodd" d="M9.04302 2.35027C8.15204 2.34875 7.37544 2.34743 6.66181 2.79745C6.35562 2.99054 6.08774 3.27781 5.88924 3.54829C5.69074 3.81877 5.49704 4.16048 5.40467 4.51048C5.20673 5.26055 5.38999 5.95585 5.61604 6.67321C6.42771 9.25496 8.0468 11.0805 9.41271 12.2505C8.0468 13.4204 6.42771 15.2459 5.61604 17.8277C5.38999 18.545 5.20673 19.2403 5.40467 19.9904C5.49704 20.3404 5.69074 20.6821 5.88924 20.9526C6.08774 21.2231 6.35562 21.5104 6.66181 21.7034C7.37544 22.1535 8.15204 22.1521 9.04302 22.1506H14.9577C15.8487 22.1521 16.6253 22.1535 17.339 21.7034C17.6451 21.5104 17.913 21.2231 18.1115 20.9526C18.31 20.6821 18.5037 20.3404 18.5961 19.9904C18.794 19.2404 18.6108 18.545 18.3847 17.8277C17.5731 15.2459 15.954 13.4204 14.588 12.2505C15.954 11.0805 17.5731 9.25496 18.3847 6.67321C18.6108 5.95585 18.794 5.26055 18.5961 4.51048C18.5037 4.16048 18.31 3.81877 18.1115 3.54829C17.913 3.27781 17.6451 2.99054 17.339 2.79745C16.6253 2.34743 15.8487 2.34875 14.9577 2.35027H9.04302ZM7.16298 5.51822C7.01268 4.89153 7.53695 4.15029 8.50036 4.15029H15.5004C16.4638 4.15029 16.9881 4.89153 16.8377 5.51822C16.1975 8.18777 14.4993 10.0189 13.1174 11.1321C12.4061 11.7051 12.4061 12.7955 13.1174 13.3685C14.4993 14.4816 16.1975 16.3128 16.8377 18.9824C16.9881 19.6091 16.4638 20.3503 15.5004 20.3503H8.50036C7.53695 20.3503 7.01268 19.6091 7.16298 18.9824C7.80325 16.3128 9.50141 14.4816 10.8833 13.3685C11.5946 12.7955 11.5946 11.7051 10.8833 11.1321C9.50141 10.0189 7.80325 8.18777 7.16298 5.51822Z" fill="currentColor"/>
</svg>
