<svg width="24" height="24" viewBox="0 0 24 24" fill="none" xmlns="http://www.w3.org/2000/svg">
<path fill-rule="evenodd" clip-rule="evenodd" d="M8.11157 4.10016C7.58692 4.09965 7.14473 4.09921 6.7293 4.22538C6.36449 4.33617 6.02511 4.51781 5.73058 4.7599C5.39518 5.03558 5.15027 5.40376 4.85969 5.8406L2.25792 9.74365C2.08945 9.99605 1.94716 10.2092 1.84378 10.4461C1.75273 10.6547 1.68654 10.8733 1.6466 11.0973C1.60126 11.3518 1.60141 11.6081 1.60158 11.9115L1.60161 15.8356C1.60159 16.3655 1.60158 16.8167 1.63184 17.1871C1.66364 17.5763 1.73327 17.9549 1.91769 18.3168C2.19572 18.8625 2.63936 19.3061 3.18503 19.5841C3.54697 19.7686 3.92556 19.8382 4.31472 19.87C4.68515 19.9003 5.13633 19.9002 5.6662 19.9002H18.337C18.8669 19.9002 19.3181 19.9003 19.6885 19.87C20.0777 19.8382 20.4562 19.7686 20.8182 19.5841C21.3638 19.3061 21.8075 18.8625 22.0855 18.3168C22.2699 17.9549 22.3396 17.5763 22.3714 17.1871C22.4016 16.8167 22.4016 16.3655 22.4016 15.8357L22.4016 11.9115C22.4018 11.6081 22.402 11.3517 22.3566 11.0973C22.3167 10.8733 22.2505 10.6547 22.1594 10.4461C22.056 10.2092 21.9138 9.99605 21.7453 9.74364L19.1435 5.84061C18.8529 5.40376 18.608 5.03559 18.2726 4.7599C17.9781 4.51781 17.6387 4.33617 17.2739 4.22538C16.8585 4.09921 16.4163 4.09965 15.8916 4.10016H8.11157ZM7.35719 5.92133C7.44302 5.90424 7.54642 5.90015 8.00019 5.90015H16.003C16.4568 5.90015 16.5602 5.90424 16.646 5.92133C16.8596 5.96387 17.0558 6.06886 17.2097 6.223C17.2715 6.28494 17.3323 6.3687 17.584 6.74628L19.82 10.1006H16.2509C15.0206 10.1006 14.2528 11.1041 13.9221 11.8504C13.5949 12.5887 12.8567 13.1008 12.0009 13.1008C11.1452 13.1008 10.4069 12.5887 10.0797 11.8504C9.74891 11.1041 8.9811 10.1006 7.75087 10.1006H4.18322L6.41926 6.74628C6.67095 6.3687 6.73171 6.28494 6.79354 6.223C6.94741 6.06886 7.14359 5.96387 7.35719 5.92133ZM3.40161 11.9006V16.2001C3.40161 17.0147 3.41271 17.2085 3.45545 17.3401C3.56426 17.6749 3.82681 17.9375 4.16169 18.0463C4.29322 18.089 4.48705 18.1001 5.30161 18.1001H18.7016C19.5162 18.1001 19.71 18.089 19.8415 18.0463C20.1764 17.9375 20.439 17.6749 20.5478 17.3401C20.5905 17.2085 20.6016 17.0147 20.6016 16.2001V11.9006H16.2509C15.9235 11.9006 15.6799 12.3266 15.5677 12.5797C14.9626 13.9452 13.5944 14.9008 12.0009 14.9008C10.4075 14.9008 9.03921 13.9452 8.43403 12.5797C8.32185 12.3266 8.07827 11.9006 7.75087 11.9006H3.40161Z" fill="currentColor"/>
</svg>
