<svg width="24" height="24" viewBox="0 0 24 24" fill="none" xmlns="http://www.w3.org/2000/svg">
<path fill-rule="evenodd" clip-rule="evenodd" d="M3.34867 9.12471L9.1263 3.34708C9.50095 2.9724 9.81999 2.65335 10.1033 2.41282C10.401 2.16012 10.7179 1.94166 11.1043 1.81613C11.6867 1.62688 12.3141 1.62688 12.8966 1.81613C13.2829 1.94165 13.5998 2.16012 13.8975 2.41282C14.1808 2.65335 14.4998 2.97238 14.8745 3.34705L20.6521 9.12471C21.0268 9.49936 21.3459 9.81841 21.5864 10.1017C21.8391 10.3994 22.0576 10.7163 22.1831 11.1027C22.3723 11.6851 22.3723 12.3125 22.1831 12.895C22.0576 13.2813 21.8391 13.5982 21.5864 13.8959C21.3459 14.1792 21.0268 14.4982 20.6522 14.8729L14.8745 20.6506C14.4999 21.0252 14.1808 21.3443 13.8975 21.5848C13.5998 21.8375 13.2829 22.056 12.8966 22.1815C12.3141 22.3707 11.6867 22.3707 11.1043 22.1815C10.7179 22.056 10.401 21.8375 10.1033 21.5848C9.81999 21.3443 9.50097 21.0252 9.12632 20.6506L3.34867 14.8729C2.97399 14.4983 2.65493 14.1792 2.4144 13.8959C2.16171 13.5982 1.94324 13.2813 1.81772 12.895C1.62847 12.3125 1.62847 11.6851 1.81772 11.1027C1.94324 10.7163 2.16171 10.3994 2.4144 10.1017C2.65493 9.8184 2.97399 9.49937 3.34867 9.12471ZM4.3636 10.6553C3.78761 11.2313 3.6584 11.3762 3.59562 11.4994C3.43576 11.8132 3.43576 12.1845 3.59562 12.4982C3.6584 12.6214 3.78761 12.7663 4.3636 13.3423L10.6568 19.6356C11.2328 20.2116 11.3777 20.3408 11.501 20.4035C11.8147 20.5634 12.186 20.5634 12.4997 20.4035C12.623 20.3408 12.7679 20.2116 13.3439 19.6356L19.6371 13.3423C20.2131 12.7663 20.3423 12.6214 20.4051 12.4982C20.5649 12.1845 20.5649 11.8132 20.4051 11.4994C20.3423 11.3762 20.2131 11.2313 19.6371 10.6553L13.3439 4.36206C12.7679 3.78608 12.623 3.65687 12.4997 3.59409C12.186 3.43423 11.8147 3.43423 11.501 3.59409C11.3777 3.65687 11.2328 3.78608 10.6568 4.36206L4.3636 10.6553Z" fill="currentColor"/>
</svg>
