<svg width="24" height="24" viewBox="0 0 24 24" fill="none" xmlns="http://www.w3.org/2000/svg">
<path d="M17.9993 9.0002C17.447 9.0002 16.9993 9.44791 16.9993 10.0002C16.9993 10.5525 17.447 11.0002 17.9993 11.0002C18.5516 11.0002 18.9993 10.5525 18.9993 10.0002C18.9993 9.44791 18.5516 9.0002 17.9993 9.0002Z" fill="currentColor"/>
<path d="M4.99931 14.0002C4.99931 13.4479 5.44703 13.0002 5.99931 13.0002C6.5516 13.0002 6.99931 13.4479 6.99931 14.0002C6.99931 14.5525 6.5516 15.0002 5.99931 15.0002C5.44703 15.0002 4.99931 14.5525 4.99931 14.0002Z" fill="currentColor"/>
<path d="M17.9993 13.0002C17.447 13.0002 16.9993 13.4479 16.9993 14.0002C16.9993 14.5525 17.447 15.0002 17.9993 15.0002C18.5516 15.0002 18.9993 14.5525 18.9993 14.0002C18.9993 13.4479 18.5516 13.0002 17.9993 13.0002Z" fill="currentColor"/>
<path d="M9.74944 13.1002C9.25238 13.1002 8.84944 13.5031 8.84944 14.0002C8.84944 14.4973 9.25238 14.9002 9.74944 14.9002H14.2494C14.7465 14.9002 15.1494 14.4973 15.1494 14.0002C15.1494 13.5031 14.7465 13.1002 14.2494 13.1002H9.74944Z" fill="currentColor"/>
<path d="M12.9993 10.0002C12.9993 9.44791 13.447 9.0002 13.9993 9.0002C14.5516 9.0002 14.9993 9.44791 14.9993 10.0002C14.9993 10.5525 14.5516 11.0002 13.9993 11.0002C13.447 11.0002 12.9993 10.5525 12.9993 10.0002Z" fill="currentColor"/>
<path d="M9.99931 9.0002C9.44703 9.0002 8.99931 9.44791 8.99931 10.0002C8.99931 10.5525 9.44703 11.0002 9.99931 11.0002C10.5516 11.0002 10.9993 10.5525 10.9993 10.0002C10.9993 9.44791 10.5516 9.0002 9.99931 9.0002Z" fill="currentColor"/>
<path d="M4.99931 10.0002C4.99931 9.44791 5.44703 9.0002 5.99931 9.0002C6.5516 9.0002 6.99931 9.44791 6.99931 10.0002C6.99931 10.5525 6.5516 11.0002 5.99931 11.0002C5.44703 11.0002 4.99931 10.5525 4.99931 10.0002Z" fill="currentColor"/>
<path fill-rule="evenodd" clip-rule="evenodd" d="M4.91421 4.84863C4.38438 4.84862 3.93314 4.84861 3.56273 4.87887C3.17357 4.91067 2.79497 4.9803 2.43304 5.16472C1.88737 5.44275 1.44373 5.88639 1.16569 6.43206C0.98128 6.794 0.911645 7.17259 0.87985 7.56175C0.849586 7.93216 0.849597 8.38332 0.84961 8.91315V15.084C0.849597 15.6139 0.849586 16.0651 0.87985 16.4355C0.911645 16.8247 0.98128 17.2033 1.16569 17.5652C1.44373 18.1109 1.88737 18.5545 2.43304 18.8326C2.79497 19.017 3.17357 19.0866 3.56273 19.1184C3.93316 19.1487 4.38434 19.1487 4.91421 19.1486H19.085C19.6149 19.1487 20.0661 19.1487 20.4365 19.1184C20.8257 19.0866 21.2043 19.017 21.5662 18.8326C22.1119 18.5545 22.5555 18.1109 22.8335 17.5652C23.0179 17.2033 23.0876 16.8247 23.1194 16.4355C23.1496 16.0651 23.1496 15.6139 23.1496 15.0841V8.91323C23.1496 8.38339 23.1496 7.93217 23.1194 7.56175C23.0876 7.17259 23.0179 6.794 22.8335 6.43206C22.5555 5.88639 22.1119 5.44275 21.5662 5.16472C21.2043 4.9803 20.8257 4.91067 20.4365 4.87887C20.0661 4.84861 19.6149 4.84862 19.0851 4.84863H4.91421ZM3.4097 6.70522C3.54123 6.66248 3.73506 6.65138 4.54962 6.65138H19.4496C20.2642 6.65138 20.458 6.66248 20.5895 6.70522C20.9244 6.81403 21.187 7.07658 21.2958 7.41146C21.3385 7.54298 21.3496 7.73682 21.3496 8.55138V15.4514C21.3496 16.2659 21.3385 16.4598 21.2958 16.5913C21.187 16.9262 20.9244 17.1887 20.5895 17.2975C20.458 17.3403 20.2642 17.3514 19.4496 17.3514H4.54962C3.73506 17.3514 3.54123 17.3403 3.4097 17.2975C3.07482 17.1887 2.81227 16.9262 2.70346 16.5913C2.66073 16.4598 2.64962 16.2659 2.64962 15.4514V8.55138C2.64962 7.73682 2.66073 7.54298 2.70346 7.41146C2.81227 7.07658 3.07482 6.81403 3.4097 6.70522Z" fill="currentColor"/>
</svg>
