<svg width="24" height="24" viewBox="0 0 24 24" fill="none" xmlns="http://www.w3.org/2000/svg">
<path d="M6.99902 7.09961C7.49608 7.09961 7.89941 7.50294 7.89941 8V16C7.89941 16.4971 7.49608 16.9004 6.99902 16.9004C6.50209 16.9002 6.09863 16.497 6.09863 16V8C6.09863 7.50304 6.50209 7.09976 6.99902 7.09961Z" fill="currentColor"/>
<path fill-rule="evenodd" clip-rule="evenodd" d="M16.2002 3.09961C17.0252 3.09961 17.6989 3.099 18.2441 3.14356C18.7997 3.189 19.3018 3.2866 19.7705 3.52539C20.5042 3.89929 21.1008 4.4958 21.4746 5.22949C21.7134 5.69821 21.811 6.20018 21.8564 6.75586C21.901 7.30118 21.9004 7.97476 21.9004 8.79981V15.2002C21.9004 16.0252 21.901 16.6988 21.8564 17.2441C21.811 17.7998 21.7133 18.3018 21.4746 18.7705C21.1008 19.5041 20.5041 20.1007 19.7705 20.4746C19.3019 20.7134 18.7997 20.811 18.2441 20.8564C17.6989 20.901 17.0252 20.9004 16.2002 20.9004H7.79981C6.97485 20.9004 6.30116 20.901 5.75586 20.8564C5.20021 20.811 4.69819 20.7134 4.22949 20.4746C3.49573 20.1007 2.89929 19.5043 2.52539 18.7705C2.28654 18.3017 2.18899 17.7999 2.14356 17.2441C2.09901 16.6988 2.09961 16.0253 2.09961 15.2002V8.79981C2.09961 7.97476 2.099 7.30118 2.14356 6.75586C2.189 6.20021 2.28657 5.6982 2.52539 5.22949C2.8993 4.49587 3.49583 3.89923 4.22949 3.52539C4.69815 3.28669 5.20027 3.18898 5.75586 3.14356C6.30115 3.09903 6.97487 3.09961 7.79981 3.09961H16.2002ZM7.79981 4.90039C6.94552 4.90039 6.35827 4.90039 5.90332 4.9375C5.45922 4.97378 5.21968 5.04098 5.04688 5.12891C4.65184 5.33019 4.33025 5.65188 4.12891 6.04688C4.0409 6.21968 3.97382 6.45903 3.9375 6.90332C3.90036 7.35829 3.90039 7.94537 3.90039 8.79981V15.2002C3.90039 16.0546 3.90037 16.6417 3.9375 17.0967C3.97381 17.5411 4.04089 17.7803 4.12891 17.9531C4.33024 18.3483 4.65174 18.6698 5.04688 18.8711C5.21969 18.9591 5.45909 19.0262 5.90332 19.0625C6.35828 19.0996 6.9455 19.0996 7.79981 19.0996H16.2002C17.0545 19.0996 17.6417 19.0996 18.0967 19.0625C18.5409 19.0262 18.7803 18.9591 18.9531 18.8711C19.3481 18.6697 19.6698 18.3481 19.8711 17.9531C19.959 17.7803 20.0262 17.5408 20.0625 17.0967C20.0996 16.6417 20.0996 16.0546 20.0996 15.2002V8.79981C20.0996 7.94537 20.0996 7.35829 20.0625 6.90332C20.0262 6.45899 19.9591 6.21969 19.8711 6.04688C19.6698 5.65181 19.3482 5.33025 18.9531 5.12891C18.7803 5.04091 18.5409 4.97382 18.0967 4.9375C17.6417 4.90036 17.0545 4.90039 16.2002 4.90039H7.79981Z" fill="currentColor"/>
</svg>
