<svg width="24" height="24" viewBox="0 0 24 24" fill="none" xmlns="http://www.w3.org/2000/svg">
<path fill-rule="evenodd" clip-rule="evenodd" d="M12.0023 2.34961C11.0309 2.34961 10.1555 2.93586 9.78559 3.83413L6.89688 10.8496L3.77751 10.8496C3.65727 10.8496 3.51896 10.8495 3.39793 10.8594C3.2589 10.8708 3.06553 10.8995 2.86403 11.0022C2.6006 11.1364 2.38643 11.3506 2.25221 11.614C2.14954 11.8155 2.12078 12.0089 2.10942 12.1479C2.09953 12.269 2.09958 12.4073 2.09961 12.5275V20.2217C2.09958 20.342 2.09953 20.4803 2.10942 20.6013C2.12078 20.7403 2.14954 20.9337 2.25221 21.1352C2.38643 21.3986 2.6006 21.6128 2.86403 21.747C3.06553 21.8497 3.2589 21.8784 3.39793 21.8898C3.51894 21.8997 3.65722 21.8997 3.77744 21.8996L16.8236 21.8996C17.2775 21.8996 17.6672 21.8996 17.9908 21.8752C18.3331 21.8493 18.6659 21.7927 18.9933 21.646C19.4922 21.4224 19.9177 21.0623 20.2208 20.6073C20.4197 20.3086 20.5306 19.9898 20.6128 19.6565C20.6904 19.3415 20.7549 18.9572 20.83 18.5096L21.6135 13.8399C21.7157 13.231 21.8019 12.7175 21.8357 12.2951C21.8709 11.8555 21.8594 11.4193 21.7011 10.992C21.4653 10.3557 21.014 9.82233 20.4255 9.48454C20.0303 9.25765 19.602 9.17421 19.1627 9.13615C18.7405 9.09958 18.2198 9.09959 17.6024 9.09961L14.3996 9.09961V4.74689C14.3996 3.42291 13.3263 2.34961 12.0023 2.34961ZM11.45 4.51957C11.5422 4.29577 11.7603 4.14971 12.0023 4.14971C12.3322 4.14971 12.5996 4.41712 12.5996 4.74699V9.99971C12.5996 10.4968 13.0025 10.8997 13.4996 10.8997H18.0364C18.4791 10.8997 18.7726 10.9001 18.9977 10.9131C19.2185 10.9259 19.3098 10.9486 19.3563 10.9654C19.724 11.0986 19.9933 11.4169 20.0638 11.8015C20.0727 11.8501 20.0799 11.9439 20.056 12.1638C20.0316 12.388 19.9834 12.6775 19.9102 13.1141L19.0041 18.5141C18.8884 19.2034 18.8527 19.3634 18.7991 19.4754C18.6634 19.7582 18.4135 19.9696 18.1122 20.0566C17.9929 20.091 17.8292 20.0997 17.1303 20.0997H8.3996V11.9277L11.45 4.51957ZM6.59961 12.6497H3.89961V20.0997H6.59961V12.6497Z" fill="currentColor"/>
</svg>
