<svg width="24" height="24" viewBox="0 0 24 24" fill="none" xmlns="http://www.w3.org/2000/svg">
<path d="M9.78559 3.83413C10.1555 2.93586 11.0309 2.34961 12.0023 2.34961C13.3263 2.34961 14.3996 3.42291 14.3996 4.74689V9.09961L17.6024 9.09961C18.2198 9.09959 18.7405 9.09958 19.1627 9.13615C19.602 9.17421 20.0303 9.25765 20.4255 9.48454C21.014 9.82233 21.4653 10.3557 21.7011 10.992C21.8594 11.4193 21.8708 11.8555 21.8357 12.2951C21.8019 12.7175 21.7157 13.231 21.6135 13.8399L20.83 18.5096C20.7549 18.9572 20.6904 19.3415 20.6127 19.6565C20.5306 19.9898 20.4197 20.3086 20.2208 20.6073C19.9177 21.0623 19.4922 21.4224 18.9933 21.646C18.6659 21.7927 18.3331 21.8493 17.9907 21.8752C17.6672 21.8996 17.2775 21.8996 16.8236 21.8996H6.8996V10.843L9.78559 3.83413Z" fill="currentColor"/>
<path d="M5.09961 10.8496L3.77751 10.8496C3.65727 10.8496 3.51896 10.8495 3.39793 10.8594C3.25889 10.8708 3.06553 10.8995 2.86403 11.0022C2.6006 11.1364 2.38643 11.3506 2.25221 11.614C2.14954 11.8155 2.12078 12.0089 2.10942 12.1479C2.09953 12.269 2.09958 12.4073 2.09961 12.5275V20.2217C2.09958 20.342 2.09953 20.4803 2.10942 20.6013C2.12078 20.7403 2.14954 20.9337 2.25221 21.1352C2.38643 21.3986 2.6006 21.6128 2.86403 21.747C3.06553 21.8497 3.25889 21.8784 3.39793 21.8898C3.51894 21.8997 3.65722 21.8997 3.77744 21.8996L5.09961 21.8996V10.8496Z" fill="currentColor"/>
</svg>
