<svg width="24" height="24" viewBox="0 0 24 24" fill="none" xmlns="http://www.w3.org/2000/svg">
<path d="M2.34456 7.29396C2.34456 7.54405 2.5473 7.7468 2.7974 7.7468H4.91801C5.16811 7.7468 5.37086 7.54405 5.37086 7.29396C5.37086 7.04386 5.16811 6.84111 4.91801 6.84111H4.45413V4.53564C4.45413 4.10093 4.10173 3.74854 3.66702 3.74854C3.51398 3.74854 3.36426 3.79315 3.23619 3.87692L2.619 4.2806C2.48911 4.36555 2.41082 4.51029 2.41082 4.6655C2.41082 5.03098 2.81654 5.25045 3.12243 5.05044L3.41591 4.85855H3.43248V6.84111H2.7974C2.5473 6.84111 2.34456 7.04386 2.34456 7.29396Z" fill="currentColor"/>
<path d="M7.35011 5.75C7.35011 5.25294 7.75306 4.85 8.25011 4.85H20.2501C20.7471 4.85 21.1501 5.25294 21.1501 5.75C21.1501 6.24706 20.7471 6.65 20.2501 6.65H8.25011C7.75306 6.65 7.35011 6.24706 7.35011 5.75Z" fill="currentColor"/>
<path d="M2.26172 13.4371C2.26172 13.746 2.51216 13.9965 2.8211 13.9965H4.8407C5.0908 13.9965 5.29354 13.7937 5.29354 13.5436C5.29354 13.2935 5.0908 13.0908 4.8407 13.0908H3.80248V13.0687L4.44308 12.5606C4.94287 12.152 5.23556 11.7985 5.23832 11.2849C5.23556 10.567 4.69712 9.9209 3.72517 9.9209C3.13523 9.9209 2.66362 10.1559 2.39063 10.635C2.2519 10.8784 2.42973 11.1599 2.70272 11.2232C2.93453 11.2769 3.1423 11.1261 3.34002 10.9825C3.37012 10.9607 3.40005 10.939 3.42973 10.9182C3.51713 10.8571 3.61806 10.8333 3.72517 10.8321C4.04271 10.8349 4.22495 11.0392 4.22771 11.2849C4.22495 11.481 4.08413 11.6439 3.78591 11.9145L2.46484 13.0058C2.3362 13.1121 2.26172 13.2702 2.26172 13.4371Z" fill="currentColor"/>
<path d="M7.35011 12C7.35011 11.5029 7.75306 11.1 8.25011 11.1H20.2501C20.7471 11.1 21.1501 11.5029 21.1501 12C21.1501 12.4971 20.7471 12.9 20.2501 12.9H8.25011C7.75306 12.9 7.35011 12.4971 7.35011 12Z" fill="currentColor"/>
<path d="M2.35829 19.7394C2.66433 20.1124 3.15748 20.3241 3.77486 20.3241C4.81308 20.3241 5.38742 19.7277 5.3819 19.0595C5.38466 18.5155 5.01742 18.0792 4.3492 17.8887V17.8611L4.98725 17.3635C5.13871 17.2454 5.22727 17.064 5.22727 16.8719C5.22727 16.5276 4.94817 16.2485 4.60388 16.2485H2.83605C2.59205 16.2485 2.39425 16.4463 2.39425 16.6903C2.39425 16.9343 2.59205 17.1321 2.83605 17.1321H4.00129V17.1542L3.42264 17.6435C3.3133 17.736 3.25023 17.8719 3.25023 18.0151C3.25023 18.2838 3.46883 18.4877 3.73656 18.511C4.06096 18.5393 4.37763 18.6397 4.37129 18.9822C4.37681 19.2445 4.14211 19.4571 3.77486 19.4571C3.62682 19.4571 3.48979 19.4219 3.37475 19.3587L3.33878 19.3389C3.10681 19.2108 2.83765 19.0622 2.59077 19.144C2.32853 19.2309 2.18307 19.5258 2.35829 19.7394Z" fill="currentColor"/>
<path d="M8.25011 17.35C7.75306 17.35 7.35011 17.7529 7.35011 18.25C7.35011 18.7471 7.75306 19.15 8.25011 19.15H20.2501C20.7471 19.15 21.1501 18.7471 21.1501 18.25C21.1501 17.7529 20.7471 17.35 20.2501 17.35H8.25011Z" fill="currentColor"/>
</svg>
