<svg width="24" height="24" viewBox="0 0 24 24" fill="none" xmlns="http://www.w3.org/2000/svg">
<path d="M3.09961 5.7501C3.09961 5.25304 3.50255 4.8501 3.99961 4.8501H19.9995C20.4966 4.8501 20.8995 5.25304 20.8995 5.7501C20.8995 6.24715 20.4966 6.6501 19.9995 6.6501H3.99961C3.50255 6.6501 3.09961 6.24715 3.09961 5.7501Z" fill="currentColor"/>
<path d="M3.09962 12.0001C3.09962 11.503 3.50257 11.1001 3.99962 11.1001H19.9996C20.4966 11.1001 20.8996 11.503 20.8996 12.0001C20.8996 12.4972 20.4966 12.9001 19.9996 12.9001H3.99962C3.50257 12.9001 3.09962 12.4972 3.09962 12.0001Z" fill="currentColor"/>
<path d="M3.09961 18.2501C3.09961 17.753 3.50255 17.3501 3.99961 17.3501H13.7496C14.2466 17.3501 14.6496 17.753 14.6496 18.2501C14.6496 18.7472 14.2466 19.1501 13.7496 19.1501H3.99961C3.50255 19.1501 3.09961 18.7472 3.09961 18.2501Z" fill="currentColor"/>
</svg>
