<svg width="24" height="24" viewBox="0 0 24 24" fill="none" xmlns="http://www.w3.org/2000/svg">
<path d="M11.9995 1.84961C10.6516 1.84961 9.30144 2.40022 8.34906 3.34224L8.34558 3.3457C7.53314 4.15813 7.11592 5.11942 6.95081 6.3626L6.95015 6.36771C6.87464 6.9623 6.84948 7.66384 6.84948 8.69958V9.60537C6.65498 9.60954 6.476 9.61699 6.31272 9.63034C5.92356 9.66213 5.54496 9.73177 5.18303 9.91618C4.63736 10.1942 4.19372 10.6379 3.91569 11.1835C3.73128 11.5455 3.66164 11.9241 3.62985 12.3132C3.59958 12.6836 3.5996 13.1348 3.59961 13.6647V17.8355C3.5996 18.3654 3.59958 18.8166 3.62985 19.187C3.66164 19.5761 3.73128 19.9547 3.91569 20.3167C4.19372 20.8623 4.63736 21.306 5.18303 21.584C5.54496 21.7684 5.92356 21.8381 6.31272 21.8699C6.68315 21.9001 7.13432 21.9001 7.66419 21.9001H16.335C16.8648 21.9001 17.316 21.9001 17.6864 21.8699C18.0756 21.8381 18.4542 21.7684 18.8161 21.584C19.3618 21.306 19.8054 20.8623 20.0835 20.3167C20.2679 19.9547 20.3375 19.5761 20.3693 19.187C20.3996 18.8166 20.3996 18.3654 20.3995 17.8355V13.6647C20.3996 13.1348 20.3996 12.6836 20.3693 12.3132C20.3375 11.9241 20.2679 11.5455 20.0835 11.1835C19.8054 10.6379 19.3618 10.1942 18.8161 9.91618C18.4542 9.73177 18.0756 9.66213 17.6864 9.63034C17.316 9.60007 16.8649 9.60008 16.335 9.6001H8.64947V8.69958C8.64947 7.68015 8.67521 7.07305 8.73548 6.59702C8.85939 5.66686 9.13855 5.09901 9.61661 4.62025C10.2282 4.0163 11.1211 3.64961 11.9995 3.64961C12.8868 3.64961 13.7626 4.00814 14.3823 4.62024C14.8614 5.10004 15.1492 5.69486 15.2727 6.60238C15.3396 7.0949 15.7932 7.43987 16.2857 7.37288C16.7782 7.3059 17.1232 6.85233 17.0562 6.35981C16.8908 5.14343 16.4652 4.1576 15.6533 3.3457L15.6499 3.34227C14.6887 2.39141 13.3553 1.84961 11.9995 1.84961Z" fill="currentColor"/>
</svg>
