<svg width="24" height="24" viewBox="0 0 24 24" fill="none" xmlns="http://www.w3.org/2000/svg">
<path d="M16.2371 2.59961C17.0451 2.5996 17.706 2.59959 18.2431 2.64347C18.799 2.68889 19.3011 2.78578 19.77 3.02469C20.5038 3.39859 21.1004 3.99522 21.4743 4.72905C21.7133 5.19794 21.8101 5.70002 21.8556 6.25593C21.8994 6.79301 21.8994 7.45386 21.8994 8.26191V15.7373C21.8994 16.5454 21.8994 17.2062 21.8556 17.7433C21.8101 18.2992 21.7133 18.8013 21.4743 19.2702C21.1004 20.004 20.5038 20.6006 19.77 20.9745C19.3011 21.2134 18.799 21.3103 18.2431 21.3557C17.706 21.3996 17.0452 21.3996 16.2371 21.3996H15.2494C14.7524 21.3996 14.3494 20.9967 14.3494 20.4996C14.3494 20.0026 14.7524 19.5996 15.2494 19.5996H16.1994C17.0544 19.5996 17.6414 19.5989 18.0965 19.5617C18.5411 19.5254 18.78 19.4588 18.9528 19.3707C19.3479 19.1694 19.6692 18.8481 19.8705 18.453C19.9586 18.2801 20.0252 18.0413 20.0615 17.5967C20.0987 17.1416 20.0994 16.5545 20.0994 15.6996V8.29961C20.0994 7.44468 20.0987 6.85761 20.0615 6.40251C20.0252 5.95791 19.9586 5.71908 19.8705 5.54623C19.6692 5.15109 19.3479 4.82983 18.9528 4.6285C18.78 4.54043 18.5411 4.47382 18.0965 4.4375C17.6414 4.40031 17.0544 4.39961 16.1994 4.39961H15.2494C14.7524 4.39961 14.3494 3.99667 14.3494 3.49961C14.3494 3.00256 14.7524 2.59961 15.2494 2.59961L16.2371 2.59961Z" fill="currentColor"/>
<path d="M10.886 17.1357L15.3859 12.6357C15.7374 12.2842 15.7374 11.7143 15.3859 11.3629L10.886 6.86287C10.5345 6.5114 9.96465 6.5114 9.61317 6.86287C9.2617 7.21434 9.2617 7.78419 9.61317 8.13566L12.5768 11.0993H3.24961C2.75255 11.0993 2.34961 11.5022 2.34961 11.9993C2.34961 12.4963 2.75255 12.8993 3.24961 12.8993H12.5768L9.61317 15.8629C9.2617 16.2143 9.2617 16.7842 9.61317 17.1357C9.96465 17.4871 10.5345 17.4871 10.886 17.1357Z" fill="currentColor"/>
</svg>
