<svg width="24" height="24" viewBox="0 0 24 24" fill="none" xmlns="http://www.w3.org/2000/svg">
<path fill-rule="evenodd" clip-rule="evenodd" d="M8.13628 17.0943C8.02081 17.1017 7.95531 17.1025 7.95203 17.1025C7.95203 17.1025 7.60806 17.2221 7.49095 17.896C7.42707 18.2662 7.24195 18.4259 6.35498 18.8092C6.24524 18.8559 6.12973 18.9058 6.00852 18.9599C5.91106 19.0033 5.83001 18.9377 5.91764 18.7854C5.92641 18.7699 5.97912 18.6793 6.06711 18.5281C6.2585 18.1991 6.6168 17.5833 7.05276 16.8298C6.74154 16.6815 6.49501 16.4981 6.36233 16.3597L6.52289 16.0772C6.78087 16.2598 7.03149 16.3826 7.2649 16.4637C8.58102 14.1936 10.4311 10.9948 10.7497 10.4002C12.0355 7.99336 14.4049 3.98053 15.9691 2.60307C17.2271 1.49503 17.7898 1.31977 18.0633 1.66618C18.395 2.08221 17.635 3.61281 17.0355 4.39326C16.033 5.6962 14.7022 6.30797 14.7022 6.30797C14.7022 6.30797 15.3729 6.80425 14.056 8.10146C12.0183 10.1072 10.9801 11.8404 10.465 12.7004C10.4103 12.7916 10.3615 12.873 10.3181 12.9439C10.0838 13.3247 10.1682 13.3665 10.2149 13.3075C12.0314 11.4182 13.6579 10.3339 15.0035 10.3339C15.8881 10.3339 16.4065 10.8228 16.4065 11.6754C16.4065 13.9266 13.522 15.6014 12.5081 16.046C10.5818 16.8887 8.71777 17.0599 8.13628 17.0943ZM13.6571 11.2675L13.603 11.2945C10.5662 12.7891 8.22312 16.5661 8.19282 16.6152C8.21434 16.6152 8.23298 16.6138 8.25279 16.6122L8.2567 16.6119C8.61378 16.5833 10.3943 16.399 11.9913 15.5661C13.3746 14.843 14.9478 13.3444 15.1362 11.7597C15.1657 11.5034 15.1223 11.3076 15.0084 11.1791C14.9061 11.0644 14.7546 11.0071 14.5564 11.0071C14.309 11.0071 13.9896 11.0988 13.6571 11.2675ZM14.1935 6.11388C15.2713 5.34489 16.68 4.14594 17.2517 2.27547C17.2517 2.27547 14.4581 4.99601 12.5711 8.64359C12.9119 8.27148 13.2123 7.97453 13.4592 7.73044C13.928 7.26703 14.2041 6.99415 14.1976 6.7592C14.195 6.6544 14.1562 6.56758 14.1215 6.48976C14.0605 6.3529 14.0119 6.24387 14.1935 6.11388Z" fill="currentColor"/>
<path d="M19.8402 20.7329H4.16016V22.4929H19.8402V20.7329Z" fill="currentColor"/>
</svg>
