<svg width="24" height="24" viewBox="0 0 24 24" fill="none" xmlns="http://www.w3.org/2000/svg">
<path fill-rule="evenodd" clip-rule="evenodd" d="M20.3172 4.99247C21.2331 5.23742 21.9573 5.96162 22.2022 6.87752C22.6495 8.53892 22.6495 12.0002 22.6495 12.0002C22.6495 12.0002 22.6495 15.4614 22.2022 17.1228C21.9573 18.0387 21.2331 18.7629 20.3172 19.0079C18.6558 19.4552 11.9996 19.4552 11.9996 19.4552C11.9996 19.4552 5.34334 19.4552 3.68195 19.0079C2.76605 18.7629 2.04186 18.0387 1.79691 17.1228C1.34961 15.4614 1.34961 12.0002 1.34961 12.0002C1.34961 12.0002 1.34961 8.53892 1.79691 6.87752C2.04186 5.96162 2.76605 5.23742 3.68195 4.99247C5.34334 4.54517 11.9996 4.54517 11.9996 4.54517C11.9996 4.54517 18.6558 4.54517 20.3172 4.99247ZM9.8696 8.80542V15.1954L15.4076 12.0004L9.8696 8.80542Z" fill="currentColor"/>
</svg>
