<svg width="24" height="24" viewBox="0 0 24 24" fill="none" xmlns="http://www.w3.org/2000/svg">
<path fill-rule="evenodd" clip-rule="evenodd" d="M5.5052 4.08008H18.4939C20.3749 4.08008 21.8995 5.60468 21.8995 7.48568V15.5443C21.8995 17.4253 20.3749 18.9499 18.4939 18.9499H13.8707L12.3065 21.6526C12.1679 21.9001 11.8016 21.9001 11.663 21.6526L10.0988 18.9499H5.5052C3.6242 18.9499 2.09961 17.4253 2.09961 15.5443V7.48568C2.09961 5.60468 3.6242 4.08008 5.5052 4.08008ZM6.70305 13.7623C6.32686 13.7623 5.98036 13.6039 5.70316 13.3366V13.6633H4.58446V8.73306H5.70316V10.2973C5.98036 10.03 6.31696 9.87156 6.70305 9.87156C7.73265 9.87156 8.57415 10.7428 8.57415 11.8219C8.57415 12.901 7.73265 13.7623 6.70305 13.7623ZM10.3858 13.6633H9.25724V10.426C9.25724 9.88146 8.96025 9.62406 8.65335 9.61416V8.61426C9.40574 8.66376 10.3858 9.15876 10.3858 10.4161V13.6633ZM12.9697 13.7623C11.8906 13.7623 11.0194 12.8911 11.0194 11.812C11.0194 10.7329 11.8906 9.86166 12.9697 9.86166C14.0488 9.86166 14.92 10.7329 14.92 11.812C14.92 12.8911 14.0488 13.7623 12.9697 13.7623ZM19.4047 13.3861C19.4047 14.8909 18.2563 15.2176 17.4643 15.2473V14.2573C18.1771 14.2177 18.3355 13.8712 18.3256 13.2475V13.1782C18.0484 13.4554 17.692 13.6237 17.296 13.6237C16.2664 13.6237 15.4249 12.7822 15.4249 11.7526C15.4249 10.723 16.2664 9.88146 17.296 9.88146C17.692 9.88146 18.0484 10.0498 18.3256 10.327V9.99036H19.4047V13.3861ZM18.385 11.7426C18.385 12.2475 17.9593 12.6633 17.4347 12.6633C16.91 12.6633 16.4843 12.2475 16.4843 11.7426C16.4843 11.2377 16.91 10.8219 17.4347 10.8219C17.9593 10.8219 18.385 11.2377 18.385 11.7426ZM7.53469 11.8218C7.53469 12.3465 7.10899 12.7821 6.57439 12.7821C6.0398 12.7821 5.6141 12.3564 5.6141 11.8218C5.6141 11.2872 6.0398 10.8615 6.57439 10.8615C7.10899 10.8615 7.53469 11.2872 7.53469 11.8218ZM13.8905 11.8218C13.8905 12.3267 13.4747 12.7425 12.9698 12.7425C12.4649 12.7425 12.0491 12.3267 12.0491 11.8218C12.0491 11.3169 12.4649 10.9011 12.9698 10.9011C13.4747 10.9011 13.8905 11.3169 13.8905 11.8218Z" fill="currentColor"/>
</svg>
