<svg width="24" height="24" viewBox="0 0 24 24" fill="none" xmlns="http://www.w3.org/2000/svg">
<path fill-rule="evenodd" clip-rule="evenodd" d="M12.0008 3.1543C6.79625 3.1543 2.57227 6.43544 2.57227 10.4709C2.57227 12.9883 4.2034 15.1852 6.69254 16.524L5.64597 20.3614C5.62622 20.4378 5.63029 20.5183 5.65762 20.5923C5.68495 20.6662 5.73423 20.73 5.79887 20.7752C5.86351 20.8203 5.9404 20.8446 6.01925 20.8448C6.09809 20.845 6.1751 20.8211 6.23997 20.7763L10.8222 17.7309C11.2088 17.7309 11.6048 17.7969 12.0008 17.7969C17.2054 17.7969 21.4293 14.5157 21.4293 10.4709C21.4293 6.42601 17.2054 3.1543 12.0008 3.1543Z" fill="currentColor"/>
</svg>
