<svg width="24" height="24" viewBox="0 0 24 24" fill="none" xmlns="http://www.w3.org/2000/svg">
<path fill-rule="evenodd" clip-rule="evenodd" d="M4.0996 2.49985C4.0996 2.0028 4.50254 1.59985 4.9996 1.59985C5.49665 1.59985 5.89959 2.0028 5.89959 2.49985C5.89959 3.38749 6.05914 3.69286 6.18286 3.81658C6.30658 3.9403 6.61195 4.09985 7.49959 4.09985C7.99664 4.09985 8.39958 4.5028 8.39958 4.99985C8.39958 5.49691 7.99664 5.89985 7.49959 5.89985C6.61195 5.89985 6.30658 6.0594 6.18286 6.18312C6.05914 6.30684 5.89959 6.61221 5.89959 7.49985C5.89959 7.99691 5.49665 8.39985 4.9996 8.39985C4.50254 8.39985 4.0996 7.99691 4.0996 7.49985C4.0996 6.61221 3.94005 6.30684 3.81633 6.18312C3.69261 6.0594 3.38724 5.89985 2.49961 5.89985C2.00255 5.89985 1.59961 5.49691 1.59961 4.99985C1.59961 4.5028 2.00255 4.09985 2.49961 4.09985C3.38724 4.09985 3.69261 3.9403 3.81633 3.81658C3.94005 3.69286 4.0996 3.38749 4.0996 2.49985ZM17.4998 3.6C17.0027 3.6 16.5998 4.00294 16.5998 4.5C16.5998 5.20014 16.4715 5.38051 16.4259 5.4261C16.3803 5.4717 16.1999 5.6 15.4998 5.6C15.0027 5.6 14.5998 6.00294 14.5998 6.5C14.5998 6.99706 15.0027 7.4 15.4998 7.4C16.1999 7.4 16.3803 7.5283 16.4259 7.5739C16.4715 7.61949 16.5998 7.79986 16.5998 8.5C16.5998 8.99706 17.0027 9.4 17.4998 9.4C17.9968 9.4 18.3998 8.99706 18.3998 8.5C18.3998 7.79986 18.5281 7.61949 18.5737 7.5739C18.6193 7.5283 18.7996 7.4 19.4998 7.4C19.9968 7.4 20.3998 6.99706 20.3998 6.5C20.3998 6.00294 19.9968 5.6 19.4998 5.6C18.7996 5.6 18.6193 5.4717 18.5737 5.4261C18.5281 5.38051 18.3998 5.20014 18.3998 4.5C18.3998 4.00294 17.9968 3.6 17.4998 3.6ZM6.49984 14.6C6.00278 14.6 5.59984 15.0029 5.59984 15.5C5.59984 16.2001 5.47154 16.3805 5.42594 16.4261C5.38035 16.4717 5.19998 16.6 4.49984 16.6C4.00279 16.6 3.59985 17.0029 3.59985 17.5C3.59985 17.9971 4.00279 18.4 4.49984 18.4C5.19998 18.4 5.38035 18.5283 5.42594 18.5739C5.47154 18.6195 5.59984 18.7999 5.59984 19.5C5.59984 19.9971 6.00278 20.4 6.49984 20.4C6.99689 20.4 7.39983 19.9971 7.39983 19.5C7.39983 18.7999 7.52813 18.6195 7.57373 18.5739C7.61932 18.5283 7.79969 18.4 8.49983 18.4C8.99688 18.4 9.39982 17.9971 9.39982 17.5C9.39982 17.0029 8.99688 16.6 8.49983 16.6C7.79969 16.6 7.61932 16.4717 7.57373 16.4261C7.52813 16.3805 7.39983 16.2001 7.39983 15.5C7.39983 15.0029 6.99689 14.6 6.49984 14.6Z" fill="currentColor"/>
<path fill-rule="evenodd" clip-rule="evenodd" d="M10.8432 7.71152C10.3116 7.44803 9.68735 7.44805 9.15571 7.71157C8.8701 7.85314 8.62952 8.09531 8.42142 8.30478L8.30454 8.42168C8.09512 8.62977 7.853 8.87036 7.71147 9.15595C7.44802 9.68757 7.44804 10.3117 7.71151 10.8433C7.85306 11.1289 8.09519 11.3695 8.30462 11.5776L17.4214 20.6945C17.6295 20.904 17.8701 21.1462 18.1558 21.2877C18.6874 21.5512 19.3115 21.5512 19.8431 21.2877C20.1288 21.1462 20.3694 20.904 20.5775 20.6945L20.6944 20.5776C20.9039 20.3695 21.1461 20.1288 21.2877 19.8432C21.5511 19.3116 21.5511 18.6875 21.2877 18.1559C21.1461 17.8703 20.9039 17.6296 20.6944 17.4215L11.5776 8.30469C11.3694 8.09523 11.1288 7.85307 10.8432 7.71152ZM9.92878 9.34317C9.96783 9.30411 10.0312 9.30411 10.0702 9.34317L14.3629 13.6358L13.6358 14.363L9.34315 10.0703C9.3041 10.0312 9.3041 9.96793 9.34315 9.92887L9.92878 9.34317Z" fill="currentColor"/>
</svg>
