<svg width="24" height="24" viewBox="0 0 24 24" fill="none" xmlns="http://www.w3.org/2000/svg">
<path fill-rule="evenodd" clip-rule="evenodd" d="M12.6755 2.58277C12.2313 2.47631 11.7681 2.47631 11.3239 2.58277C10.817 2.70425 10.3669 3.00504 9.83191 3.36264L3.83997 7.35732C3.40317 7.64791 3.03502 7.89281 2.75936 8.22822C2.51728 8.52274 2.33566 8.86211 2.22488 9.2269C2.09872 9.64232 2.09916 10.0845 2.09967 10.6091L2.09974 16.5846C2.09973 17.1145 2.09971 17.5657 2.12998 17.9361C2.16177 18.3253 2.23141 18.7039 2.41582 19.0658C2.69385 19.6115 3.1375 20.0551 3.68316 20.3331C4.04509 20.5176 4.42369 20.5872 4.81285 20.619C5.18326 20.6493 5.63442 20.6492 6.16426 20.6492H17.8351C18.3649 20.6492 18.8161 20.6493 19.1866 20.619C19.5757 20.5872 19.9543 20.5176 20.3162 20.3331C20.8619 20.0551 21.3056 19.6115 21.5836 19.0658C21.768 18.7039 21.8376 18.3253 21.8694 17.9361C21.8997 17.5657 21.8997 17.1145 21.8997 16.5847L21.8997 10.6091C21.9003 10.0845 21.9007 9.64232 21.7745 9.2269C21.6637 8.86211 21.4821 8.52274 21.2401 8.22822C20.9644 7.89282 20.5962 7.64791 20.1594 7.35733L14.1675 3.36264C13.6325 3.00504 13.1824 2.70425 12.6755 2.58277ZM11.6196 4.37049C11.865 4.28015 12.1345 4.28015 12.3798 4.37049C12.4778 4.40656 12.5882 4.47305 13.0536 4.78332L19.3784 9.0001L13.2803 13.0679C12.5801 13.5349 12.4141 13.6296 12.261 13.6663C12.0925 13.7068 11.9168 13.7068 11.7483 13.6665C11.5951 13.6298 11.4291 13.5352 10.7287 13.0685L4.6218 8.99956L10.9458 4.78332C11.4112 4.47305 11.5217 4.40656 11.6196 4.37049ZM3.89974 10.6816V16.949C3.89974 17.7636 3.91084 17.9574 3.95358 18.089C4.06239 18.4238 4.32494 18.6864 4.65982 18.7952C4.79134 18.8379 4.98517 18.849 5.79973 18.849H18.1997C19.0142 18.849 19.2081 18.8379 19.3396 18.7952C19.6745 18.6864 19.937 18.4238 20.0458 18.089C20.0886 17.9574 20.0997 17.7636 20.0997 16.949V10.6829L14.1727 14.6366C13.6377 14.9944 13.1878 15.2953 12.6809 15.4169C12.2367 15.5234 11.7736 15.5236 11.3293 15.4172C10.8223 15.2959 10.3722 14.9952 9.83709 14.6377L3.89974 10.6816Z" fill="currentColor"/>
</svg>
