<svg width="24" height="24" viewBox="0 0 24 24" fill="none" xmlns="http://www.w3.org/2000/svg">
<path fill-rule="evenodd" clip-rule="evenodd" d="M6.16419 4.34912C5.63436 4.34911 5.18313 4.3491 4.81272 4.37936C4.42356 4.41116 4.04497 4.48079 3.68303 4.66521C3.13737 4.94324 2.69372 5.38688 2.41569 5.93255C2.23128 6.29448 2.16165 6.67308 2.12985 7.06224C2.09959 7.43265 2.0996 7.88381 2.09961 8.41364V15.5845C2.0996 16.1144 2.09959 16.5656 2.12985 16.936C2.16165 17.3252 2.23128 17.7038 2.41569 18.0657C2.69372 18.6114 3.13737 19.055 3.68303 19.333C4.04497 19.5175 4.42356 19.5871 4.81272 19.6189C5.18315 19.6492 5.63432 19.6491 6.16419 19.6491H17.835C18.3648 19.6491 18.816 19.6492 19.1864 19.6189C19.5756 19.5871 19.9542 19.5175 20.3161 19.333C20.8618 19.055 21.3054 18.6114 21.5835 18.0657C21.7679 17.7038 21.8375 17.3252 21.8693 16.936C21.8996 16.5656 21.8995 16.1144 21.8995 15.5846V8.41372C21.8995 7.88387 21.8996 7.43266 21.8693 7.06224C21.8375 6.67308 21.7679 6.29448 21.5835 5.93255C21.3054 5.38688 20.8618 4.94324 20.3161 4.66521C19.9542 4.48079 19.5756 4.41116 19.1864 4.37936C18.816 4.3491 18.3649 4.34911 17.835 4.34912H6.16419ZM4.65968 6.20426C4.79121 6.16153 4.98504 6.15043 5.7996 6.15043H18.1996C19.0141 6.15043 19.2079 6.16153 19.3395 6.20426C19.6743 6.31307 19.9369 6.57562 20.0457 6.91051C20.077 7.00695 20.0914 7.13689 20.0968 7.5205L13.28 12.0676C12.5797 12.5347 12.4138 12.6294 12.2606 12.6661C12.0921 12.7066 11.9165 12.7066 11.748 12.6663C11.5948 12.6296 11.4288 12.535 10.7283 12.0683L3.90237 7.52022C3.90779 7.13683 3.92212 7.00692 3.95344 6.91051C4.06225 6.57562 4.3248 6.31307 4.65968 6.20426ZM3.89961 9.68153V15.9504C3.89961 16.765 3.91071 16.9588 3.95344 17.0903C4.06225 17.4252 4.3248 17.6878 4.65968 17.7966C4.79121 17.8393 4.98504 17.8504 5.7996 17.8504H18.1996C19.0141 17.8504 19.2079 17.8393 19.3395 17.7966C19.6743 17.6878 19.9369 17.4252 20.0457 17.0903C20.0884 16.9588 20.0995 16.765 20.0995 15.9504V9.68256L14.1723 13.6364C13.6374 13.9941 13.1875 14.295 12.6806 14.4167C12.2363 14.5232 11.7732 14.5234 11.3289 14.417C10.822 14.2957 10.3719 13.995 9.83676 13.6375L3.89961 9.68153Z" fill="currentColor"/>
</svg>
