<svg width="24" height="24" viewBox="0 0 24 24" fill="none" xmlns="http://www.w3.org/2000/svg">
<path fill-rule="evenodd" clip-rule="evenodd" d="M11.9996 2.1001C7.63656 2.1001 4.09961 5.63705 4.09961 10.0001C4.09961 12.2748 5.061 14.325 6.59961 15.7664V19.5753C6.59958 19.9534 6.59956 20.2962 6.62493 20.5745C6.65122 20.8628 6.71291 21.2122 6.92795 21.5288C7.21489 21.9512 7.65977 22.2403 8.16229 22.331C8.53891 22.3989 8.88327 22.3134 9.15741 22.2203C9.42202 22.1305 9.73527 21.9912 10.0807 21.8376L11.0655 21.4C11.5862 21.1685 11.7058 21.1226 11.8164 21.1039C11.9377 21.0834 12.0615 21.0834 12.1828 21.1039C12.2935 21.1226 12.413 21.1685 12.9337 21.4L13.9184 21.8376C14.2639 21.9912 14.5772 22.1304 14.8418 22.2203C15.116 22.3134 15.4603 22.3989 15.8369 22.331C16.3395 22.2403 16.7843 21.9512 17.0713 21.5288C17.2863 21.2122 17.348 20.8628 17.3743 20.5745C17.3997 20.2962 17.3996 19.9534 17.3996 19.5753L17.3996 15.7664C18.9382 14.325 19.8996 12.2748 19.8996 10.0001C19.8996 5.63705 16.3627 2.1001 11.9996 2.1001ZM5.89961 10.0001C5.89961 6.63116 8.63067 3.9001 11.9996 3.9001C15.3685 3.9001 18.0996 6.63116 18.0996 10.0001C18.0996 13.369 15.3685 16.1001 11.9996 16.1001C8.63067 16.1001 5.89961 13.369 5.89961 10.0001ZM15.5996 17.034C14.52 17.5877 13.2963 17.9001 11.9996 17.9001C10.7029 17.9001 9.47919 17.5877 8.3996 17.034V20.461C8.3996 20.5333 8.47408 20.5817 8.54021 20.5523L10.8218 19.5383C11.5716 19.205 12.4276 19.205 13.1774 19.5383L15.459 20.5523C15.5251 20.5817 15.5996 20.5333 15.5996 20.461V17.034Z" fill="currentColor"/>
</svg>
