<svg width="24" height="24" viewBox="0 0 24 24" fill="none" xmlns="http://www.w3.org/2000/svg">
<path fill-rule="evenodd" clip-rule="evenodd" d="M4.49029 15.0161C4.81345 15.1026 5.16988 15.133 5.59969 15.1435V18.9989C5.59969 20.4625 6.78613 21.6489 8.24969 21.6489C9.71324 21.6489 10.8997 20.4625 10.8997 18.9989V15.51L16.6732 17.4946C16.8287 17.5482 16.997 17.6061 17.1445 17.6424C17.3044 17.6817 17.5523 17.7266 17.8318 17.6584C18.1809 17.5732 18.4838 17.3569 18.6779 17.0545C18.8333 16.8124 18.8714 16.5634 18.8862 16.3994C18.8998 16.2481 18.8997 16.0701 18.8997 15.9056V4.59227C18.8997 4.42777 18.8998 4.24977 18.8862 4.09849C18.8714 3.93447 18.8333 3.6855 18.6779 3.44338C18.4838 3.14095 18.1809 2.92473 17.8318 2.83949C17.5523 2.77125 17.3044 2.81617 17.1445 2.85552C16.997 2.89181 16.8287 2.94972 16.6732 3.00323L9.84932 5.34895L6.37016 5.34891C5.56631 5.34854 4.98872 5.34828 4.49029 5.48184C3.14443 5.84246 2.0932 6.89369 1.73257 8.23955C1.59902 8.73798 1.59928 9.31557 1.59965 10.1194V10.3785C1.59928 11.1823 1.59902 11.7599 1.73257 12.2583C2.0932 13.6042 3.14443 14.6554 4.49029 15.0161ZM10.2923 7.10038L17.0997 4.76033V15.7382L10.2923 13.3981C10.0173 13.3036 9.7136 13.3478 9.47691 13.5167C9.24022 13.6856 9.09973 13.9585 9.09973 14.2493V18.9993C9.09973 19.4687 8.71918 19.8493 8.24973 19.8493C7.78029 19.8493 7.39973 19.4687 7.39973 18.9993V14.2493C7.39973 13.7522 6.99679 13.3493 6.49973 13.3493H6.39973C5.51104 13.3493 5.22507 13.343 5.0095 13.2912C4.24164 13.1069 3.6421 12.5074 3.45776 11.7395C3.406 11.5239 3.39973 11.238 3.39973 10.3493V10.1493C3.39973 9.26057 3.406 8.9746 3.45776 8.75903C3.6421 7.99117 4.24164 7.39164 5.0095 7.20729C5.22507 7.15553 5.51104 7.14927 6.39973 7.14927H9.99973C10.0993 7.14927 10.1982 7.13275 10.2923 7.10038Z" fill="currentColor"/>
<path d="M22.3996 7.49888C22.3996 7.00182 21.9967 6.59888 21.4996 6.59888C21.0026 6.59888 20.5996 7.00182 20.5996 7.49888V12.9989C20.5996 13.4959 21.0026 13.8989 21.4996 13.8989C21.9967 13.8989 22.3996 13.4959 22.3996 12.9989V7.49888Z" fill="currentColor"/>
</svg>
