<svg width="24" height="24" viewBox="0 0 24 24" fill="none" xmlns="http://www.w3.org/2000/svg">
<path d="M5.59962 15.1435C5.16982 15.133 4.81339 15.1026 4.49023 15.0161C3.14437 14.6554 2.09314 13.6042 1.73251 12.2583C1.59896 11.7599 1.59922 11.1823 1.59959 10.3785V10.1194C1.59922 9.31557 1.59896 8.73798 1.73251 8.23955C2.09314 6.89369 3.14437 5.84246 4.49023 5.48184C4.98866 5.34828 5.56625 5.34854 6.37009 5.34891L9.84925 5.34895L16.6731 3.00324C16.8287 2.94972 16.997 2.89181 17.1445 2.85552C17.3044 2.81617 17.5522 2.77125 17.8317 2.83949C18.1808 2.92473 18.4838 3.14095 18.6779 3.44338C18.8332 3.6855 18.8713 3.93447 18.8861 4.09849C18.8997 4.24977 18.8997 4.42777 18.8996 4.59227V15.9056C18.8997 16.0701 18.8997 16.2481 18.8861 16.3994C18.8713 16.5634 18.8332 16.8124 18.6779 17.0545C18.4838 17.3569 18.1808 17.5732 17.8317 17.6584C17.5522 17.7266 17.3044 17.6817 17.1445 17.6424C16.997 17.6061 16.8286 17.5482 16.6731 17.4946L10.8996 15.51V18.9989C10.8996 20.4625 9.71318 21.6489 8.24962 21.6489C6.78607 21.6489 5.59962 20.4625 5.59962 18.9989V15.1435Z" fill="currentColor"/>
<path d="M22.3996 7.49888C22.3996 7.00182 21.9966 6.59888 21.4996 6.59888C21.0025 6.59888 20.5996 7.00182 20.5996 7.49888V12.9989C20.5996 13.4959 21.0025 13.8989 21.4996 13.8989C21.9966 13.8989 22.3996 13.4959 22.3996 12.9989V7.49888Z" fill="currentColor"/>
</svg>
