<svg width="24" height="24" viewBox="0 0 24 24" fill="none" xmlns="http://www.w3.org/2000/svg">
<path d="M7.34925 9.99976C7.34925 9.5027 7.7522 9.09976 8.24925 9.09976H15.7492C16.2463 9.09976 16.6492 9.5027 16.6492 9.99976C16.6492 10.4968 16.2463 10.8998 15.7492 10.8998H8.24925C7.7522 10.8998 7.34925 10.4968 7.34925 9.99976Z" fill="currentColor"/>
<path d="M7.34925 13.9998C7.34925 13.5027 7.7522 13.0998 8.24925 13.0998H12.7492C13.2463 13.0998 13.6492 13.5027 13.6492 13.9998C13.6492 14.4968 13.2463 14.8998 12.7492 14.8998H8.24925C7.7522 14.8998 7.34925 14.4968 7.34925 13.9998Z" fill="currentColor"/>
<path fill-rule="evenodd" clip-rule="evenodd" d="M11.9996 2.34985C6.67005 2.34985 2.34961 6.67031 2.34961 11.9999C2.34961 17.3294 6.67005 21.6499 11.9996 21.6499C13.5379 21.6499 14.9943 21.2892 16.2867 20.6474L18.0991 21.1417C18.5093 21.2536 18.8752 21.3534 19.1758 21.4065C19.4803 21.4603 19.8664 21.4969 20.2521 21.3496C20.7573 21.1567 21.1564 20.7576 21.3493 20.2524C21.4966 19.8667 21.4599 19.4806 21.4062 19.1761C21.3531 18.8755 21.2533 18.5097 21.1414 18.0996L20.6471 16.287C21.2889 14.9946 21.6495 13.5382 21.6495 11.9999C21.6495 6.67031 17.3291 2.34985 11.9996 2.34985ZM4.14966 11.9999C4.14966 7.66451 7.66422 4.14995 11.9996 4.14995C16.3351 4.14995 19.8496 7.66451 19.8496 11.9999C19.8496 13.3612 19.5039 14.6391 18.8961 15.7532C18.7848 15.9573 18.7567 16.1966 18.8179 16.421L19.6709 19.5484C19.6778 19.574 19.6757 19.5897 19.6725 19.6007C19.6686 19.6143 19.6599 19.6306 19.6451 19.6454C19.6302 19.6603 19.614 19.669 19.6003 19.6729C19.5893 19.676 19.5736 19.6782 19.5481 19.6712L16.4206 18.8183C16.1963 18.7571 15.957 18.7851 15.7528 18.8965C14.6387 19.5042 13.3609 19.8499 11.9996 19.8499C7.66422 19.8499 4.14966 16.3354 4.14966 11.9999Z" fill="currentColor"/>
</svg>
