<svg width="24" height="24" viewBox="0 0 24 24" fill="none" xmlns="http://www.w3.org/2000/svg">
<path fill-rule="evenodd" clip-rule="evenodd" d="M2.34961 11.9999C2.34961 6.67031 6.67004 2.34985 11.9996 2.34985C17.3291 2.34985 21.6495 6.67031 21.6495 11.9999C21.6495 13.5382 21.2889 14.9946 20.6471 16.287L21.1414 18.0994C21.2532 18.5095 21.3531 18.8755 21.4061 19.1761C21.4599 19.4806 21.4966 19.8667 21.3493 20.2524C21.1564 20.7576 20.7573 21.1567 20.252 21.3496C19.8664 21.4969 19.4803 21.4603 19.1757 21.4065C18.8752 21.3534 18.5093 21.2536 18.0991 21.1417L16.2867 20.6474C14.9943 21.2892 13.5379 21.6499 11.9996 21.6499C6.67004 21.6499 2.34961 17.3294 2.34961 11.9999ZM7.09925 9.99976C7.09925 9.5027 7.50219 9.09976 7.99925 9.09976H15.9992C16.4963 9.09976 16.8992 9.5027 16.8992 9.99976C16.8992 10.4968 16.4963 10.8998 15.9992 10.8998H7.99925C7.50219 10.8998 7.09925 10.4968 7.09925 9.99976ZM7.09925 13.9998C7.09925 13.5027 7.50219 13.0998 7.99925 13.0998H12.7492C13.2463 13.0998 13.6492 13.5027 13.6492 13.9998C13.6492 14.4968 13.2463 14.8998 12.7492 14.8998H7.99925C7.50219 14.8998 7.09925 14.4968 7.09925 13.9998Z" fill="currentColor"/>
</svg>
