<svg width="24" height="24" viewBox="0 0 24 24" fill="none" xmlns="http://www.w3.org/2000/svg">
<path d="M9.41429 3.15968C10.0907 2.49066 11.0449 2.10205 11.9997 2.10205C12.9596 2.10205 13.9029 2.48486 14.5851 3.15972L14.5886 3.16314C15.1725 3.74704 15.4721 4.45387 15.5865 5.29525L15.5883 5.30869C15.6337 5.68454 15.6497 6.14796 15.6497 6.85203V10.1505C15.6497 10.8546 15.6336 11.318 15.5882 11.6938L15.5866 11.7073C15.4722 12.5487 15.1725 13.2555 14.5886 13.8394L14.5852 13.8428C13.903 14.5177 12.9596 14.9005 11.9997 14.9005C11.0449 14.9005 10.0907 14.5119 9.41429 13.8428L9.41081 13.8394C8.82637 13.2549 8.53215 12.5637 8.41804 11.7045L8.41736 11.6994C8.36585 11.2938 8.3497 10.8232 8.3497 10.1505V6.85203C8.3497 6.17929 8.36587 5.70875 8.41737 5.30316L8.41802 5.29805C8.53213 4.43886 8.82637 3.74758 9.41081 3.16315L9.41429 3.15968Z" fill="currentColor"/>
<path d="M6.39961 9.75008C6.39961 9.25303 5.99667 8.85008 5.49961 8.85008C5.00255 8.85008 4.59961 9.25303 4.59961 9.75008V11.2501C4.59961 15.0323 7.43716 18.1518 11.0996 18.5959V20.0997H7.99958C7.50253 20.0997 7.09959 20.5026 7.09959 20.9997C7.09959 21.4968 7.50253 21.8997 7.99958 21.8997H15.9996C16.4966 21.8997 16.8996 21.4968 16.8996 20.9997C16.8996 20.5026 16.4966 20.0997 15.9996 20.0997H12.8996V18.5959C16.562 18.1519 19.3996 15.0323 19.3996 11.2501V9.75008C19.3996 9.25303 18.9967 8.85008 18.4996 8.85008C18.0026 8.85008 17.5996 9.25303 17.5996 9.75008V11.2501C17.5996 14.3348 15.1056 16.8369 12.024 16.85C12.0197 16.8499 12.0153 16.8498 12.011 16.8498C12.0072 16.8497 12.0034 16.8497 11.9996 16.8497C11.9914 16.8497 11.9833 16.8498 11.9752 16.85C8.89364 16.8369 6.39961 14.3347 6.39961 11.2501V9.75008Z" fill="currentColor"/>
</svg>
