<svg width="24" height="24" viewBox="0 0 24 24" fill="none" xmlns="http://www.w3.org/2000/svg">
<path d="M13.5388 14.5631L14.9728 15.997C14.1215 16.5314 13.1163 16.8432 12.0387 16.8505C12.0257 16.85 12.0126 16.8497 11.9994 16.8497C11.9863 16.8497 11.9732 16.85 11.9602 16.8505C8.88545 16.8294 6.39946 14.3304 6.39946 11.2507V9.75068C6.39946 9.25363 5.99652 8.85068 5.49946 8.85068C5.00241 8.85068 4.59946 9.25363 4.59946 9.75068V11.2507C4.59946 15.0329 7.43701 18.1524 11.0994 18.5965V20.0997H7.99943C7.50238 20.0997 7.09943 20.5026 7.09943 20.9997C7.09943 21.4968 7.50238 21.8997 7.99943 21.8997H15.9994C16.4965 21.8997 16.8994 21.4968 16.8994 20.9997C16.8994 20.5026 16.4965 20.0997 15.9994 20.0997H12.8994V18.5965C14.1448 18.4455 15.2948 17.9852 16.2703 17.2946L18.8632 19.8875C19.2147 20.2389 19.7845 20.2389 20.136 19.8875C20.4875 19.536 20.4875 18.9662 20.136 18.6147L17.6041 16.0828C18.7229 14.7863 19.3995 13.0975 19.3995 11.2507V9.75068C19.3995 9.25363 18.9965 8.85068 18.4995 8.85068C18.0024 8.85068 17.5995 9.25363 17.5995 9.75068V11.2507C17.5995 12.6004 17.122 13.8385 16.3268 14.8054L5.13601 3.61468C4.78453 3.26321 4.21469 3.26321 3.86321 3.61468C3.51174 3.96615 3.51174 4.536 3.86321 4.88747L8.34955 9.37381V10.1505C8.34955 10.8232 8.36571 11.2938 8.41722 11.6994L8.41788 11.7045C8.53199 12.5637 8.82622 13.2549 9.41066 13.8394L9.41414 13.8428C10.0905 14.5119 11.0447 14.9005 11.9995 14.9005C12.5316 14.9005 13.0586 14.7829 13.5388 14.5631Z" fill="currentColor"/>
<path d="M15.6495 10.1505C15.6495 10.7851 15.6365 11.2242 15.6007 11.5798L8.57619 4.55538C8.73902 4.02618 9.00489 3.56891 9.41066 3.16315L9.41413 3.15967C10.0905 2.49065 11.0447 2.10205 11.9995 2.10205C12.9594 2.10205 13.9028 2.48486 14.585 3.15972L14.5885 3.16314C15.1724 3.74704 15.4719 4.45387 15.5863 5.29525L15.5882 5.30869C15.6335 5.68454 15.6495 6.14796 15.6495 6.85203V10.1505Z" fill="currentColor"/>
</svg>
