<svg width="24" height="24" viewBox="0 0 24 24" fill="none" xmlns="http://www.w3.org/2000/svg">
<path fill-rule="evenodd" clip-rule="evenodd" d="M11.9997 2.1001C10.9794 2.1001 9.95918 2.51571 9.2368 3.23023L9.23331 3.23369C8.61088 3.85613 8.29615 4.59241 8.17354 5.51559L8.17288 5.52071C8.11737 5.9578 8.09971 6.46683 8.09971 7.20007V10.0501C8.09971 10.7834 8.11737 11.2924 8.17288 11.7295L8.17354 11.7346C8.29615 12.6578 8.61088 13.3941 9.23331 14.0165L9.2368 14.02C9.95918 14.7345 10.9794 15.1501 11.9997 15.1501C13.0256 15.1501 14.0339 14.7408 14.7626 14.0199L14.7661 14.0165C15.388 13.3946 15.7086 12.6413 15.8315 11.7374L15.8332 11.7239C15.8821 11.3191 15.8997 10.8177 15.8997 10.0501V7.20007C15.8997 6.4325 15.8821 5.9311 15.8332 5.52624L15.8315 5.5128C15.7086 4.60892 15.388 3.85559 14.7661 3.23369L14.7626 3.23026C14.0339 2.5094 13.0256 2.1001 11.9997 2.1001ZM9.95821 5.75003C10.0396 5.14005 10.2162 4.79705 10.5043 4.50825C10.8859 4.13178 11.4489 3.9001 11.9997 3.9001C12.557 3.9001 13.1078 4.12612 13.495 4.50823C13.7831 4.79694 13.9656 5.15772 14.047 5.74865C14.0816 6.0394 14.0997 6.44947 14.0997 7.20007V10.0501C14.0997 10.8007 14.0816 11.2108 14.047 11.5015C13.9656 12.0925 13.7831 12.4532 13.4951 12.7419C13.1078 13.1241 12.557 13.3501 11.9997 13.3501C11.4489 13.3501 10.886 13.1184 10.5044 12.742C10.2162 12.4532 10.0396 12.1102 9.95821 11.5001C9.91794 11.1816 9.89971 10.7669 9.89971 10.0501V7.20007C9.89971 6.48325 9.91794 6.06859 9.95821 5.75003Z" fill="currentColor"/>
<path d="M6.39961 9.75009C6.39961 9.25304 5.99667 8.85009 5.49961 8.85009C5.00255 8.85009 4.59961 9.25304 4.59961 9.75009V11.2501C4.59961 15.0323 7.43716 18.1518 11.0996 18.5959V20.0997H7.99958C7.50253 20.0997 7.09959 20.5027 7.09959 20.9997C7.09959 21.4968 7.50253 21.8997 7.99958 21.8997H15.9996C16.4966 21.8997 16.8996 21.4968 16.8996 20.9997C16.8996 20.5027 16.4966 20.0997 15.9996 20.0997H12.8996V18.5959C16.562 18.1519 19.3996 15.0324 19.3996 11.2501V9.75009C19.3996 9.25304 18.9967 8.85009 18.4996 8.85009C18.0026 8.85009 17.5996 9.25304 17.5996 9.75009V11.2501C17.5996 14.3348 15.1056 16.8369 12.024 16.85C12.0159 16.8498 12.0077 16.8497 11.9996 16.8497C11.9914 16.8497 11.9833 16.8498 11.9752 16.85C8.89364 16.8369 6.39961 14.3347 6.39961 11.2501V9.75009Z" fill="currentColor"/>
</svg>
