<svg width="24" height="24" viewBox="0 0 24 24" fill="none" xmlns="http://www.w3.org/2000/svg">
<path d="M9.23667 3.23023C9.95904 2.51571 10.9792 2.1001 11.9996 2.1001C13.0255 2.1001 14.0338 2.5094 14.7625 3.23026L14.766 3.23368C15.3879 3.85559 15.7084 4.60892 15.8314 5.5128L15.8332 5.52623C15.882 5.93108 15.8996 6.4325 15.8996 7.20007V10.0501C15.8996 10.8177 15.8819 11.3191 15.8331 11.7239L15.8315 11.7374C15.8286 11.7586 15.8255 11.7796 15.8224 11.8006L14.0996 10.0778L14.0996 7.20007C14.0996 6.44947 14.0815 6.0394 14.0469 5.74865C13.9655 5.15772 13.7829 4.79694 13.4949 4.50823C13.1077 4.12612 12.5569 3.9001 11.9996 3.9001C11.4487 3.9001 10.8858 4.13178 10.5042 4.50825C10.2161 4.79705 10.0395 5.14005 9.95808 5.75003C9.95138 5.80304 9.94529 5.85872 9.93979 5.91801L8.44648 4.4247C8.62275 3.98152 8.87782 3.58905 9.23318 3.23369L9.23667 3.23023Z" fill="currentColor"/>
<path fill-rule="evenodd" clip-rule="evenodd" d="M13.7273 14.7505L14.9731 15.9963C14.1167 16.5341 13.1043 16.8464 12.0193 16.8502L11.9994 16.8499L11.9796 16.8502C8.89598 16.8395 6.3995 14.3364 6.3995 11.2502V9.7502C6.3995 9.25314 5.99656 8.8502 5.4995 8.8502C5.00244 8.8502 4.5995 9.25314 4.5995 9.7502V11.2502C4.5995 15.0324 7.43703 18.1519 11.0994 18.596V20.0999H7.99944C7.50238 20.0999 7.09944 20.5029 7.09944 20.9999C7.09944 21.497 7.50238 21.8999 7.99944 21.8999H15.9994C16.4965 21.8999 16.8994 21.497 16.8994 20.9999C16.8994 20.5029 16.4965 20.0999 15.9994 20.0999H12.8994V18.596C14.145 18.445 15.2951 17.9846 16.2707 17.2939L18.8632 19.8864C19.2147 20.2379 19.7845 20.2379 20.136 19.8864C20.4875 19.5349 20.4875 18.9651 20.136 18.6136L17.6044 16.082C18.7231 14.7856 19.3995 13.0969 19.3995 11.2502V9.7502C19.3995 9.25314 18.9966 8.8502 18.4995 8.8502C18.0024 8.8502 17.5995 9.25314 17.5995 9.7502V11.2502C17.5995 12.5997 17.1221 13.8378 16.327 14.8046L5.13601 3.6136C4.78453 3.26213 4.21469 3.26213 3.86321 3.6136C3.51174 3.96508 3.51174 4.53492 3.86321 4.8864L8.09957 9.12276V10.0501C8.09957 10.7834 8.11724 11.2924 8.17274 11.7295L8.17341 11.7346C8.29602 12.6578 8.61074 13.3941 9.23318 14.0165L9.23667 14.02C9.95904 14.7345 10.9792 15.1501 11.9996 15.1501C12.5989 15.1501 13.1922 15.0104 13.7273 14.7505ZM12.3045 13.3277C12.2037 13.3425 12.1018 13.3501 11.9996 13.3501C11.4487 13.3501 10.8858 13.1184 10.5042 12.742C10.2161 12.4532 10.0395 12.1102 9.95808 11.5001C9.93832 11.3438 9.92386 11.1644 9.91427 10.9374L12.3045 13.3277Z" fill="currentColor"/>
</svg>
