<svg width="24" height="24" viewBox="0 0 24 24" fill="none" xmlns="http://www.w3.org/2000/svg">
<path fill-rule="evenodd" clip-rule="evenodd" d="M9.4142 2.09961H14.585C15.1148 2.0996 15.566 2.09958 15.9365 2.12985C16.3256 2.16164 16.7042 2.23128 17.0662 2.41569C17.6118 2.69373 18.0555 3.13737 18.3335 3.68304C18.5179 4.04497 18.5875 4.42357 18.6193 4.81273C18.6496 5.18316 18.6496 5.63434 18.6496 6.16421V17.835C18.6496 18.3649 18.6496 18.8161 18.6193 19.1865C18.5875 19.5757 18.5179 19.9543 18.3335 20.3162C18.0555 20.8619 17.6118 21.3055 17.0662 21.5835C16.7042 21.7679 16.3256 21.8376 15.9365 21.8694C15.566 21.8996 15.1149 21.8996 14.585 21.8996H9.41419C8.88434 21.8996 8.43314 21.8996 8.06272 21.8694C7.67356 21.8376 7.29497 21.7679 6.93303 21.5835C6.38737 21.3055 5.94372 20.8619 5.66569 20.3162C5.48128 19.9543 5.41164 19.5757 5.37985 19.1865C5.34958 18.8161 5.3496 18.3649 5.34961 17.8351V6.16421C5.3496 5.63436 5.34958 5.18315 5.37985 4.81273C5.41164 4.42357 5.48128 4.04497 5.66569 3.68304C5.94372 3.13737 6.38737 2.69373 6.93303 2.41569C7.29497 2.23128 7.67356 2.16164 8.06272 2.12985C8.43314 2.09958 8.88435 2.0996 9.4142 2.09961ZM9.99964 17.8255C9.62684 17.8255 9.32464 18.1277 9.32464 18.5005C9.32464 18.8733 9.62684 19.1755 9.99964 19.1755H13.9996C14.3724 19.1755 14.6746 18.8733 14.6746 18.5005C14.6746 18.1277 14.3724 17.8255 13.9996 17.8255H9.99964Z" fill="currentColor"/>
</svg>
