<svg width="24" height="24" viewBox="0 0 24 24" fill="none" xmlns="http://www.w3.org/2000/svg">
<path fill-rule="evenodd" clip-rule="evenodd" d="M9.76082 2.5432C10.0159 2.8126 10.0795 3.21093 9.92108 3.5464C9.42658 4.59325 9.14961 5.76372 9.14961 7.00139C9.14961 11.4749 12.7761 15.1014 17.2496 15.1014C18.3314 15.1014 19.3615 14.8898 20.3025 14.5066C20.6461 14.3667 21.0404 14.452 21.2954 14.7214C21.5505 14.9908 21.6142 15.3891 21.4557 15.7246C19.8718 19.0777 16.4579 21.4008 12.4996 21.4008C7.03199 21.4008 2.59961 16.9684 2.59961 11.5008C2.59961 7.35186 5.15149 3.80113 8.76786 2.32846C9.11147 2.18853 9.50574 2.2738 9.76082 2.5432ZM7.53173 5.10238C5.62516 6.58491 4.39961 8.90034 4.39961 11.5008C4.39961 15.9743 8.0261 19.6008 12.4996 19.6008C14.9426 19.6008 17.134 18.5193 18.6197 16.8072C18.1717 16.8693 17.7142 16.9014 17.2496 16.9014C11.782 16.9014 7.34961 12.469 7.34961 7.00139C7.34961 6.35228 7.4122 5.71731 7.53173 5.10238Z" fill="currentColor"/>
</svg>
