<svg width="24" height="24" viewBox="0 0 24 24" fill="none" xmlns="http://www.w3.org/2000/svg">
<path fill-rule="evenodd" clip-rule="evenodd" d="M11.0996 16.6731L8.636 19.1367C7.81749 19.9553 6.59942 20.1307 5.60962 19.6631L4.13601 21.1367C3.78453 21.4882 3.21469 21.4882 2.86321 21.1367C2.51174 20.7852 2.51174 20.2154 2.86321 19.8639L4.33684 18.3903C3.86926 17.4005 4.04471 16.1825 4.86321 15.364L11.6073 8.61987C11.4288 7.34768 11.803 6.01286 12.7297 5.00327L18.9967 11.2702C17.9871 12.197 16.6523 12.5711 15.3801 12.3927L12.8996 14.8731V21.0003C12.8996 21.4974 12.4967 21.9003 11.9996 21.9003C11.5026 21.9003 11.0996 21.4974 11.0996 21.0003V16.6731ZM12.386 10.3868L6.136 16.6367C5.79712 16.9756 5.79712 17.5251 6.136 17.864C6.47489 18.2028 7.02433 18.2028 7.36321 17.864L13.6132 11.614L12.386 10.3868Z" fill="currentColor"/>
<path d="M20.2695 9.99744C21.867 8.25713 21.8225 5.55044 20.136 3.86396C18.4495 2.17747 15.7428 2.13298 14.0025 3.73048L20.2695 9.99744Z" fill="currentColor"/>
</svg>
