<svg width="24" height="24" viewBox="0 0 24 24" fill="none" xmlns="http://www.w3.org/2000/svg">
<path d="M6.75309 9.75C7.58189 9.75 8.25377 10.4216 8.25377 11.25C8.25377 12.0784 7.58189 12.75 6.75309 12.75C5.92428 12.75 5.2524 12.0784 5.2524 11.25C5.2524 10.4216 5.92428 9.75 6.75309 9.75Z" fill="currentColor"/>
<path d="M17.2579 9.75C18.0867 9.75 18.7585 10.4216 18.7585 11.25C18.7585 12.0784 18.0867 12.75 17.2579 12.75C16.429 12.75 15.7572 12.0784 15.7572 11.25C15.7572 10.4216 16.429 9.75 17.2579 9.75Z" fill="currentColor"/>
<path d="M9.50433 5.75C10.3331 5.75 11.005 6.42157 11.005 7.25C11.005 8.07843 10.3331 8.75 9.50433 8.75C8.67553 8.75 8.00365 8.07843 8.00365 7.25C8.00365 6.42157 8.67553 5.75 9.50433 5.75Z" fill="currentColor"/>
<path d="M14.5066 5.75C15.3354 5.75 16.0073 6.42157 16.0073 7.25C16.0073 8.07843 15.3354 8.75 14.5066 8.75C13.6778 8.75 13.0059 8.07843 13.0059 7.25C13.0059 6.42157 13.6778 5.75 14.5066 5.75Z" fill="currentColor"/>
<path fill-rule="evenodd" clip-rule="evenodd" d="M12.6855 2.10938C15.0515 2.20635 17.1634 3.02924 18.9451 4.5791L19.2998 4.90234C21.0157 6.54848 21.9054 8.62603 21.9055 11.0352L21.8996 11.3545C21.8428 12.8402 21.3803 14.2264 20.2963 15.2422L20.054 15.4541C18.9099 16.3908 17.5422 16.8378 16.0503 16.8379H14.2809C14.0419 16.8379 13.8882 16.8839 13.7729 16.9531L13.6683 17.0303C13.6242 17.0683 13.608 17.0942 13.598 17.1172C13.5861 17.1445 13.5639 17.2115 13.5638 17.3516L13.5697 17.4209C13.5815 17.4954 13.6117 17.587 13.6615 17.6885C13.693 17.7528 13.726 17.8082 13.7524 17.8486L13.8041 17.9219L13.8667 18.001L13.9097 18.0928C14.0256 18.3373 14.16 18.5929 14.2291 18.8125C14.3197 19.1001 14.3219 19.3585 14.3219 19.626L14.3112 19.8516C14.2675 20.3019 14.0917 20.7473 13.766 21.1162L13.5902 21.2939C13.118 21.7229 12.5575 21.8751 12.0709 21.8877L12.0719 21.8887C10.7621 21.9851 7.72821 21.4982 5.02867 19.0254L5.01401 19.0117L5.00034 18.998C3.08297 17.0816 2.10547 14.7124 2.10547 11.9951C2.10564 8.4915 4.32876 5.63836 5.44585 4.625L5.45367 4.61719L5.81418 4.31348C7.63558 2.84074 9.7918 2.09961 12.2087 2.09961L12.6855 2.10938ZM12.2087 3.90039C10.0551 3.90039 8.20203 4.59183 6.64757 5.96582C5.73245 6.80038 3.90724 9.20014 3.90707 11.9951C3.90707 14.2312 4.69147 16.1368 6.2597 17.7109C8.56493 19.8145 11.0926 20.1562 11.94 20.0938L11.9722 20.0908H12.0055C12.1595 20.0907 12.2844 20.0475 12.3787 19.9619L12.4412 19.8926C12.4767 19.8431 12.5006 19.7869 12.5125 19.7246L12.5213 19.626C12.5213 19.4914 12.5191 19.4252 12.5155 19.3838C12.514 19.367 12.5125 19.3574 12.5125 19.3574C12.5125 19.3574 12.5122 19.3557 12.5116 19.3535C12.5082 19.3428 12.4973 19.3137 12.4568 19.2275C12.4372 19.1858 12.4144 19.1379 12.3845 19.0762C12.3642 19.0341 12.3421 18.9867 12.3171 18.9346C12.244 18.8317 12.1401 18.6762 12.0445 18.4814C11.9291 18.2463 11.8004 17.9108 11.77 17.5215L11.7632 17.3516C11.7633 16.6464 12.0065 16.0855 12.492 15.667L12.6796 15.5186C13.1295 15.1975 13.6636 15.0371 14.2809 15.0371H16.0503C17.1642 15.037 18.1189 14.7116 18.9129 14.0615L19.0575 13.9355C19.7553 13.2838 20.1048 12.3167 20.1048 11.0352L20.0961 10.6562C20.0105 8.90805 19.3268 7.42079 18.0463 6.19531L17.763 5.9375C16.2998 4.66473 14.5806 3.98789 12.6063 3.9082L12.2087 3.90039Z" fill="currentColor"/>
</svg>
