<svg width="24" height="24" viewBox="0 0 24 24" fill="none" xmlns="http://www.w3.org/2000/svg">
<path d="M12.2275 2.09961C14.814 2.09966 17.0843 2.92785 18.9883 4.58398C20.918 6.26262 21.9052 8.40271 21.9053 10.9385C21.9052 12.6322 21.406 14.0712 20.2314 15.0332C19.1653 15.9061 17.8876 16.3311 16.4541 16.3311H14.5078C13.9441 16.3311 13.5243 16.4912 13.1865 16.7822C12.8926 17.0355 12.7286 17.368 12.7285 17.8867C12.7285 18.4852 13.1251 19.0256 13.2041 19.126C13.53 19.8134 13.5624 19.7913 13.5625 20.3887C13.5624 20.7944 13.4096 21.1924 13.082 21.4902C12.7587 21.784 12.3655 21.8896 12.0049 21.8896C10.8172 21.977 7.75384 21.5207 4.99902 18.9971C3.0769 17.0758 2.10556 14.7229 2.10547 11.9951C2.10547 8.52627 4.33774 5.63385 5.4541 4.62109C7.35139 2.94387 9.62491 2.09967 12.2275 2.09961ZM6.50098 9C5.6727 9 5.00123 9.67179 5.00098 10.5C5.00098 11.3284 5.67255 12 6.50098 12C7.32924 11.9998 8.00098 11.3283 8.00098 10.5C8.00072 9.67191 7.32908 9.0002 6.50098 9ZM18.251 8.25098C17.4225 8.25098 16.751 8.92255 16.751 9.75098C16.751 10.5793 17.4226 11.251 18.251 11.251C19.0792 11.2508 19.7509 10.5792 19.751 9.75098C19.751 8.92265 19.0793 8.25114 18.251 8.25098ZM9.47461 5.00098C8.64618 5.00098 7.97461 5.67255 7.97461 6.50098C7.97486 7.32919 8.64633 8.00098 9.47461 8.00098C10.3029 8.00096 10.9744 7.32919 10.9746 6.50098C10.9746 5.67255 10.303 5.00099 9.47461 5.00098ZM14.6885 5.00098C13.8602 5.00121 13.1885 5.67269 13.1885 6.50098C13.1887 7.32905 13.8604 8.00075 14.6885 8.00098C15.5168 8.00098 16.1882 7.32919 16.1885 6.50098C16.1885 5.67255 15.5169 5.00098 14.6885 5.00098Z" fill="currentColor"/>
</svg>
