<svg width="24" height="24" viewBox="0 0 24 24" fill="none" xmlns="http://www.w3.org/2000/svg">
<path d="M14.499 16.4492C14.9961 16.4492 15.3994 16.8526 15.3994 17.3496C15.3992 17.8465 14.996 18.25 14.499 18.25H9.49902C9.00225 18.2498 8.59881 17.8464 8.59863 17.3496C8.59863 16.8527 9.00214 16.4494 9.49902 16.4492H14.499Z" fill="currentColor"/>
<path fill-rule="evenodd" clip-rule="evenodd" d="M11.999 6.14844C14.3186 6.14844 16.1992 8.02904 16.1992 10.3486C16.1991 12.6681 14.3185 14.5488 11.999 14.5488C9.67951 14.5488 7.79895 12.6681 7.79883 10.3486C7.79883 8.02904 9.67944 6.14845 11.999 6.14844ZM11.001 7.73438C9.94795 8.13662 9.19922 9.15417 9.19922 10.3486L11.8184 10.3496C12.3325 10.3498 12.75 10.7671 12.75 11.2813C12.7496 11.7951 12.3323 12.2117 11.8184 12.2119H11.5371C11.3696 12.2119 11.2334 12.3482 11.2334 12.5156V13.0391C11.2334 13.0391 11.6837 13.1484 11.999 13.1484C13.4467 13.1484 14.6361 12.0496 14.7822 10.6406L13.8408 10.6162C13.512 10.6069 13.2501 10.3368 13.25 10.0078C13.2498 9.67246 12.9779 9.40084 12.6426 9.40039H12.125C11.5038 9.40035 11.0002 8.8965 11 8.27539V7.73535L11.001 7.73438Z" fill="currentColor"/>
<path fill-rule="evenodd" clip-rule="evenodd" d="M16.5 2.09961C17.1847 2.09961 17.753 2.09903 18.2148 2.13672C18.6872 2.17533 19.1287 2.25918 19.5439 2.4707C20.1831 2.79659 20.7034 3.31685 21.0293 3.95606C21.2408 4.37125 21.3247 4.8129 21.3633 5.28516C21.401 5.74696 21.4004 6.31535 21.4004 7V17C21.4004 17.6847 21.401 18.253 21.3633 18.7148C21.3247 19.1871 21.2408 19.6287 21.0293 20.0439C20.7034 20.6832 20.1832 21.2034 19.5439 21.5293C19.1287 21.7408 18.6872 21.8247 18.2148 21.8633C17.753 21.901 17.1847 21.9004 16.5 21.9004H7.5C6.81528 21.9004 6.24699 21.901 5.78516 21.8633C5.31284 21.8247 4.8713 21.7408 4.45606 21.5293C3.81682 21.2034 3.2966 20.6832 2.9707 20.0439C2.75921 19.6287 2.67533 19.1871 2.63672 18.7148C2.59904 18.253 2.59961 17.6847 2.59961 17V7C2.59961 6.31533 2.59904 5.74697 2.63672 5.28516C2.67533 4.81286 2.75921 4.37128 2.9707 3.95606C3.2966 3.31681 3.81679 2.79657 4.45606 2.4707C4.87131 2.25919 5.31282 2.17532 5.78516 2.13672C6.24699 2.09904 6.81528 2.09961 7.5 2.09961H16.5ZM6.99902 3.90039C5.99908 3.9004 5.71167 3.91138 5.50488 3.97852C5.0181 4.13686 4.6358 4.51903 4.47754 5.00586C4.41052 5.21263 4.39942 5.50059 4.39941 6.5V17.5C4.39942 18.4994 4.41052 18.7874 4.47754 18.9941C4.63581 19.4809 5.01814 19.8631 5.50488 20.0215C5.71167 20.0886 5.99917 20.0996 6.99902 20.0996H16.999C17.9986 20.0996 18.2864 20.0885 18.4932 20.0215C18.9801 19.8633 19.3622 19.481 19.5205 18.9941C19.5876 18.7874 19.5986 18.4997 19.5986 17.5V6.5C19.5986 5.50038 19.5876 5.21264 19.5205 5.00586C19.3622 4.51898 18.9801 4.13675 18.4932 3.97852C18.2864 3.91152 17.9986 3.90039 16.999 3.90039H6.99902Z" fill="currentColor"/>
</svg>
