<svg width="24" height="24" viewBox="0 0 24 24" fill="none" xmlns="http://www.w3.org/2000/svg">
<path d="M11.25 7.92578C11.25 8.54703 11.7538 9.05066 12.375 9.05078H12.8926C13.2279 9.05133 13.5 9.32377 13.5 9.65918C13.5002 9.98802 13.7621 10.2572 14.0908 10.2666L14.7842 10.2852L14.7422 10.5635C14.481 11.8392 13.3519 12.7987 11.999 12.7988C11.5423 12.7988 11.1135 12.6852 10.7334 12.4902V12.166C10.7334 11.9986 10.8697 11.8624 11.0371 11.8623H11.3184C11.8323 11.862 12.2498 11.4456 12.25 10.9316C12.25 10.4175 11.8324 10.0003 11.3184 10H9.19922C9.19922 8.71332 10.0677 7.63206 11.25 7.30469V7.92578Z" fill="currentColor"/>
<path fill-rule="evenodd" clip-rule="evenodd" d="M16.5 2.09961C17.1846 2.09961 17.753 2.09906 18.2148 2.13672C18.6872 2.17532 19.1287 2.25919 19.5439 2.4707C20.1833 2.79662 20.7034 3.31665 21.0293 3.95606C21.2409 4.37141 21.3247 4.81269 21.3633 5.28516C21.401 5.74704 21.4004 6.31519 21.4004 7V17C21.4004 17.6848 21.401 18.253 21.3633 18.7148C21.3247 19.1872 21.2409 19.6287 21.0293 20.0439C20.7034 20.6831 20.1832 21.2035 19.5439 21.5293C19.1288 21.7407 18.6871 21.8247 18.2148 21.8633C17.753 21.9009 17.1846 21.9004 16.5 21.9004H7.5C6.81536 21.9004 6.24694 21.901 5.78516 21.8633C5.31288 21.8247 4.87127 21.7408 4.45606 21.5293C3.81679 21.2034 3.29657 20.6832 2.9707 20.0439C2.75912 19.6287 2.67534 19.1872 2.63672 18.7148C2.59902 18.253 2.59961 17.6848 2.59961 17V7C2.59961 6.31523 2.59904 5.74702 2.63672 5.28516C2.67531 4.81284 2.75925 4.3713 2.9707 3.95606C3.29652 3.31683 3.8169 2.79663 4.45606 2.4707C4.87124 2.25918 5.31291 2.17535 5.78516 2.13672C6.24694 2.09903 6.81536 2.09961 7.5 2.09961H16.5ZM9.49902 16.8496C9.00213 16.8498 8.59863 17.2531 8.59863 17.75C8.59883 18.2468 9.00225 18.6502 9.49902 18.6504H14.499C14.996 18.6504 15.3992 18.2469 15.3994 17.75C15.3994 17.2529 14.9961 16.8496 14.499 16.8496H9.49902ZM11.999 5.79883C9.67951 5.79892 7.79883 7.67949 7.79883 9.99902C7.79889 12.3185 9.67955 14.1991 11.999 14.1992C14.3185 14.1991 16.1992 12.3185 16.1992 9.99902C16.1992 7.67949 14.3185 5.79893 11.999 5.79883Z" fill="currentColor"/>
</svg>
