<svg width="24" height="24" viewBox="0 0 24 24" fill="none" xmlns="http://www.w3.org/2000/svg">
<path fill-rule="evenodd" clip-rule="evenodd" d="M15.9882 3.82152C17.145 2.66464 19.0207 2.66464 20.1776 3.82152C21.3345 4.97841 21.3345 6.8541 20.1776 8.01098L7.55266 20.636C7.38387 20.8048 7.15496 20.8996 6.91626 20.8996H3.99961C3.50255 20.8996 3.09961 20.4966 3.09961 19.9996V17.0829C3.09961 16.8442 3.19443 16.6153 3.36321 16.4465L15.9882 3.82152ZM18.9048 5.09432C18.4509 4.64037 17.7149 4.64037 17.261 5.09431L4.8996 17.4557V19.0996H6.54347L18.9048 6.73819C19.3588 6.28425 19.3588 5.54826 18.9048 5.09432Z" fill="currentColor"/>
</svg>
