<svg width="24" height="24" viewBox="0 0 24 24" fill="none" xmlns="http://www.w3.org/2000/svg">
<path d="M11.9997 2.85303C9.56962 2.85303 7.59968 4.82297 7.59968 7.25303C7.59968 9.68308 9.56962 11.653 11.9997 11.653C14.4297 11.653 16.3996 9.68308 16.3996 7.25303C16.3996 4.82297 14.4297 2.85303 11.9997 2.85303Z" fill="currentColor"/>
<path d="M5.91594 14.9212C7.53021 14.0517 9.68765 13.5991 11.9996 13.5991C14.3115 13.5991 16.4689 14.0517 18.0832 14.9212C19.6963 15.7902 20.8995 17.1653 20.8995 18.9991L20.8995 19.326C20.8996 19.5126 20.8996 19.7027 20.8863 19.8651C20.8716 20.0458 20.836 20.27 20.7197 20.4983C20.5615 20.8087 20.3091 21.0611 19.9987 21.2193C19.7705 21.3356 19.5462 21.3712 19.3655 21.386C19.2031 21.3993 19.0131 21.3992 18.8265 21.3992L5.17294 21.4C4.98629 21.4001 4.79626 21.4001 4.63382 21.3869C4.45309 21.3721 4.22884 21.3365 4.00059 21.2202C3.6901 21.0621 3.43767 20.8096 3.27947 20.4992C3.16317 20.2709 3.12759 20.0467 3.11282 19.8659C3.09955 19.7035 3.09958 19.5135 3.09961 19.3268L3.09962 18.9991C3.09962 17.1653 4.30281 15.7902 5.91594 14.9212Z" fill="currentColor"/>
<path d="M21.3997 8.50049C21.3997 8.00343 20.9968 7.60049 20.4998 7.60049C20.0027 7.60049 19.5998 8.00343 19.5998 8.50049V10.1005H17.9998C17.5027 10.1005 17.0998 10.5034 17.0998 11.0005C17.0998 11.4975 17.5027 11.9005 17.9998 11.9005H19.5998V13.5005C19.5998 13.9975 20.0027 14.4005 20.4998 14.4005C20.9968 14.4005 21.3997 13.9975 21.3997 13.5005V11.9005H22.9997C23.4968 11.9005 23.8997 11.4975 23.8997 11.0005C23.8997 10.5034 23.4968 10.1005 22.9997 10.1005H21.3997V8.50049Z" fill="currentColor"/>
</svg>
