<svg width="24" height="24" viewBox="0 0 24 24" fill="none" xmlns="http://www.w3.org/2000/svg">
<path fill-rule="evenodd" clip-rule="evenodd" d="M11.9997 2.60107C9.29349 2.60107 7.09969 4.79488 7.09969 7.50107C7.09969 10.2073 9.29349 12.4011 11.9997 12.4011C14.7059 12.4011 16.8997 10.2073 16.8997 7.50107C16.8997 4.79488 14.7059 2.60107 11.9997 2.60107ZM8.89969 7.50107C8.89969 5.78899 10.2876 4.40107 11.9997 4.40107C13.7118 4.40107 15.0997 5.78899 15.0997 7.50107C15.0997 9.21316 13.7118 10.6011 11.9997 10.6011C10.2876 10.6011 8.89969 9.21316 8.89969 7.50107Z" fill="currentColor"/>
<path fill-rule="evenodd" clip-rule="evenodd" d="M11.9996 13.5995C9.68766 13.5995 7.53022 14.0521 5.91594 14.9216C4.30282 15.7905 3.09962 17.1657 3.09962 18.9995L3.09961 19.3272C3.09958 19.5139 3.09955 19.7039 3.11282 19.8663C3.12759 20.0471 3.16317 20.2713 3.27947 20.4996C3.43767 20.81 3.6901 21.0625 4.00059 21.2206C4.22884 21.3369 4.45309 21.3725 4.63382 21.3872C4.79626 21.4005 4.98629 21.4005 5.17295 21.4004L18.8265 21.3996C19.0131 21.3996 19.2031 21.3997 19.3656 21.3864C19.5463 21.3716 19.7705 21.336 19.9987 21.2197C20.3092 21.0615 20.5616 20.8091 20.7197 20.4986C20.836 20.2704 20.8716 20.0462 20.8864 19.8655C20.8996 19.703 20.8996 19.513 20.8996 19.3264L20.8996 18.9995C20.8996 17.1657 19.6964 15.7905 18.0832 14.9216C16.469 14.0521 14.3115 13.5995 11.9996 13.5995ZM4.89961 18.9995C4.89961 18.0719 5.48727 17.1971 6.76956 16.5063C8.05071 15.8162 9.89326 15.3995 11.9996 15.3995C14.1059 15.3995 15.9485 15.8162 17.2296 16.5063C18.5119 17.1971 19.0996 18.0719 19.0996 18.9995L19.0978 19.5978L4.90142 19.5986L4.89961 18.9995Z" fill="currentColor"/>
</svg>
