<svg width="24" height="24" viewBox="0 0 24 24" fill="none" xmlns="http://www.w3.org/2000/svg">
<path fill-rule="evenodd" clip-rule="evenodd" d="M7.09969 7.50107C7.09969 4.79488 9.29348 2.60107 11.9997 2.60107C14.7059 2.60107 16.8996 4.79488 16.8996 7.50107C16.8996 10.2073 14.7059 12.4011 11.9997 12.4011C9.29348 12.4011 7.09969 10.2073 7.09969 7.50107ZM11.9997 4.40107C10.2876 4.40107 8.89968 5.78899 8.89968 7.50107C8.89968 9.21316 10.2876 10.6011 11.9997 10.6011C13.7117 10.6011 15.0997 9.21316 15.0997 7.50107C15.0997 5.78899 13.7117 4.40107 11.9997 4.40107Z" fill="currentColor"/>
<path fill-rule="evenodd" clip-rule="evenodd" d="M5.91594 14.9216C7.53021 14.0521 9.68765 13.5995 11.9996 13.5995C14.3115 13.5995 16.4689 14.0521 18.0832 14.9216C19.6963 15.7905 20.8995 17.1657 20.8995 18.9995L20.8995 19.3264C20.8996 19.513 20.8996 19.703 20.8863 19.8655C20.8716 20.0462 20.836 20.2704 20.7197 20.4986C20.5615 20.8091 20.3091 21.0615 19.9987 21.2197C19.7705 21.336 19.5462 21.3716 19.3655 21.3864C19.2031 21.3997 19.0131 21.3996 18.8265 21.3996L5.17294 21.4004C4.98629 21.4005 4.79626 21.4005 4.63382 21.3872C4.45309 21.3725 4.22884 21.3369 4.00059 21.2206C3.6901 21.0625 3.43767 20.81 3.27947 20.4996C3.16317 20.2713 3.12759 20.0471 3.11282 19.8663C3.09955 19.7039 3.09958 19.5139 3.09961 19.3272L3.09962 18.9995C3.09962 17.1657 4.30281 15.7905 5.91594 14.9216ZM6.76956 16.5063C5.48726 17.1971 4.89961 18.0719 4.89961 18.9995L4.90142 19.5986L19.0977 19.5978L19.0996 18.9995C19.0996 18.0719 18.5119 17.1971 17.2296 16.5063C15.9485 15.8162 14.1059 15.3995 11.9996 15.3995C9.89325 15.3995 8.0507 15.8162 6.76956 16.5063Z" fill="currentColor"/>
<path d="M21.3997 8.50049C21.3997 8.00343 20.9968 7.60049 20.4998 7.60049C20.0027 7.60049 19.5998 8.00343 19.5998 8.50049V10.1005H17.9998C17.5027 10.1005 17.0998 10.5034 17.0998 11.0005C17.0998 11.4975 17.5027 11.9005 17.9998 11.9005H19.5998V13.5005C19.5998 13.9975 20.0027 14.4005 20.4998 14.4005C20.9968 14.4005 21.3997 13.9975 21.3997 13.5005V11.9005H22.9997C23.4968 11.9005 23.8997 11.4975 23.8997 11.0005C23.8997 10.5034 23.4968 10.1005 22.9997 10.1005H21.3997V8.50049Z" fill="currentColor"/>
</svg>
