<svg width="24" height="24" viewBox="0 0 24 24" fill="none" xmlns="http://www.w3.org/2000/svg">
<path fill-rule="evenodd" clip-rule="evenodd" d="M17.0083 20.7959C14.8244 20.3535 11.4907 19.1307 8.18174 15.8218C4.87282 12.5129 3.65005 9.17916 3.20763 6.99516C2.84039 5.1823 3.66205 3.51236 4.82612 2.34829L5.09812 2.07629C6.36527 0.809137 8.46695 0.983077 9.50854 2.44131L10.9332 4.43589C11.6152 5.39058 11.5069 6.69833 10.6773 7.52792L9.84823 8.35703C10.1001 8.96302 10.7444 10.182 12.283 11.7206C13.8215 13.2592 15.0405 13.9035 15.6465 14.1553L16.4756 13.3262C17.3052 12.4966 18.6129 12.3884 19.5676 13.0703L21.5622 14.495C23.0204 15.5366 23.1944 17.6383 21.9272 18.9054L21.6552 19.1774C20.4911 20.3415 18.8212 21.1632 17.0083 20.7959ZM9.45453 14.549C12.4768 17.5713 15.4744 18.6486 17.3657 19.0318C18.4017 19.2416 19.4912 18.7959 20.3824 17.9046L20.6544 17.6326C21.1351 17.152 21.0691 16.3548 20.516 15.9597L18.5214 14.535C18.2827 14.3645 17.9558 14.3916 17.7484 14.599L16.904 15.4434C16.4618 15.8856 15.753 16.1356 15.0491 15.8555C14.2381 15.5327 12.7789 14.7621 11.0102 12.9934C9.24144 11.2246 8.47083 9.76537 8.14808 8.95446C7.86792 8.25054 8.11797 7.54171 8.56017 7.0995L9.40455 6.25513C9.61194 6.04773 9.639 5.72079 9.46852 5.48212L8.04382 3.48754C7.64874 2.93441 6.85155 2.86844 6.3709 3.34908L6.0989 3.62108C5.20764 4.51235 4.76193 5.60183 4.97179 6.63778C5.35493 8.52916 6.43224 11.5267 9.45453 14.549Z" fill="currentColor"/>
</svg>
