<svg width="24" height="24" viewBox="0 0 24 24" fill="none" xmlns="http://www.w3.org/2000/svg">
<path fill-rule="evenodd" clip-rule="evenodd" d="M8.94826 2.60205C8.53202 2.60203 8.15951 2.60201 7.86036 2.62945C7.5559 2.65738 7.17984 2.72285 6.84946 2.96121C6.41516 3.27455 6.13325 3.75662 6.07314 4.28877C6.02741 4.69359 6.15474 5.05343 6.2797 5.33248C6.40248 5.60668 6.58512 5.93124 6.78927 6.29403L7.60107 7.73689V10.6854L5.85225 12.8713C5.54134 13.2599 5.27012 13.5989 5.08088 13.8852C4.89564 14.1654 4.68214 14.5454 4.68164 14.999C4.68102 15.5776 4.9441 16.125 5.39632 16.486C5.75081 16.769 6.18097 16.8397 6.51548 16.8701C6.85723 16.9011 7.29128 16.9011 7.789 16.9011L11.1007 16.9011V22.0011C11.1007 22.4981 11.5036 22.9011 12.0007 22.9011C12.4977 22.9011 12.9007 22.4981 12.9007 22.0011V16.9011L16.213 16.9011C16.7107 16.9011 17.1448 16.9011 17.4865 16.8701C17.821 16.8397 18.2512 16.769 18.6057 16.486C19.0579 16.125 19.321 15.5777 19.3203 14.999C19.3199 14.5455 19.1064 14.1654 18.9211 13.8852C18.7319 13.599 18.4608 13.2601 18.1498 12.8714L16.401 10.6854V7.73689L17.2128 6.29405C17.417 5.93125 17.5996 5.60668 17.7224 5.33248C17.8474 5.05343 17.9747 4.69359 17.929 4.28877C17.8689 3.75662 17.587 3.27455 17.1527 2.96121C16.8223 2.72285 16.4462 2.65738 16.1417 2.62945C15.8426 2.60201 15.4702 2.60203 15.054 2.60205H8.94826ZM7.87397 4.5509C7.86125 4.5283 7.85939 4.51266 7.85969 4.50112C7.86005 4.4869 7.86437 4.46921 7.8748 4.45138C7.88522 4.43355 7.89852 4.42112 7.91073 4.41383C7.92064 4.40792 7.93518 4.40186 7.96112 4.40186H16.041C16.0669 4.40186 16.0815 4.40792 16.0914 4.41383C16.1036 4.42112 16.1169 4.43355 16.1273 4.45138C16.1377 4.46921 16.1421 4.48689 16.1424 4.50111C16.1427 4.51266 16.1409 4.5283 16.1281 4.5509L14.7167 7.05957C14.6409 7.1943 14.601 7.34629 14.601 7.50089V11.0009C14.601 11.2052 14.6706 11.4035 14.7983 11.5631L17.4984 14.9384C17.5177 14.9625 17.521 14.9786 17.5219 14.9888C17.5232 15.003 17.5208 15.0228 17.5105 15.0442C17.5002 15.0656 17.4862 15.0799 17.4744 15.0877C17.4658 15.0934 17.4512 15.1009 17.4204 15.1009H6.58163C6.55074 15.1009 6.53621 15.0934 6.52762 15.0877C6.51576 15.0799 6.50178 15.0656 6.4915 15.0442C6.48123 15.0228 6.47878 15.003 6.48009 14.9888C6.48103 14.9786 6.48425 14.9625 6.50355 14.9384L9.20384 11.5631C9.33151 11.4035 9.40106 11.2053 9.40106 11.0009V7.50089C9.40106 7.34629 9.36124 7.1943 9.28543 7.05957L7.87397 4.5509Z" fill="currentColor"/>
</svg>
