<svg width="24" height="24" viewBox="0 0 24 24" fill="none" xmlns="http://www.w3.org/2000/svg">
<path d="M8.94825 2.60205H15.0538C15.4701 2.60203 15.8426 2.60201 16.1417 2.62945C16.4462 2.65737 16.8223 2.72285 17.1526 2.96121C17.5869 3.27455 17.8688 3.75662 17.929 4.28877C17.9747 4.69359 17.8474 5.05343 17.7224 5.33248C17.5996 5.60668 17.417 5.93125 17.2128 6.29405L16.401 7.73689V10.6854L18.1498 12.8714C18.4607 13.2601 18.7319 13.599 18.9211 13.8852C19.1064 14.1654 19.3198 14.5455 19.3203 14.999C19.321 15.5777 19.0579 16.125 18.6057 16.486C18.2512 16.769 17.821 16.8397 17.4865 16.8701C17.1448 16.9011 16.7107 16.9011 16.213 16.9011L12.9006 16.9011V22.0011C12.9006 22.4981 12.4977 22.9011 12.0007 22.9011C11.5036 22.9011 11.1007 22.4981 11.1007 22.0011V16.9011L7.789 16.9011C7.29128 16.9011 6.85723 16.9011 6.51548 16.8701C6.18097 16.8397 5.75081 16.769 5.39632 16.486C4.9441 16.125 4.68101 15.5776 4.68164 14.999C4.68214 14.5454 4.89564 14.1654 5.08088 13.8852C5.27012 13.5989 5.54127 13.26 5.8522 12.8714L7.60107 10.6854V7.73689L6.78927 6.29404C6.58512 5.93125 6.40248 5.60668 6.27969 5.33248C6.15474 5.05343 6.0274 4.69359 6.07314 4.28877C6.13325 3.75662 6.41515 3.27455 6.84946 2.96121C7.17984 2.72285 7.55589 2.65737 7.86036 2.62945C8.15952 2.60201 8.53199 2.60203 8.94825 2.60205Z" fill="currentColor"/>
</svg>
