<svg width="24" height="24" viewBox="0 0 24 24" fill="none" xmlns="http://www.w3.org/2000/svg">
<path d="M11.9992 2.7019C12.7172 2.7019 13.2992 3.28393 13.2992 4.0019V10.7019H19.9992C20.7172 10.7019 21.2992 11.2839 21.2992 12.0019C21.2992 12.7199 20.7172 13.3019 19.9992 13.3019H13.2992V20.0019C13.2992 20.7199 12.7172 21.3019 11.9992 21.3019C11.2812 21.3019 10.6992 20.7199 10.6992 20.0019V13.3019H3.99922C3.28125 13.3019 2.69922 12.7199 2.69922 12.0019C2.69922 11.2839 3.28125 10.7019 3.99922 10.7019H10.6992V4.0019C10.6992 3.28393 11.2812 2.7019 11.9992 2.7019Z" fill="currentColor"/>
</svg>
