<svg width="24" height="24" viewBox="0 0 24 24" fill="none" xmlns="http://www.w3.org/2000/svg">
<path fill-rule="evenodd" clip-rule="evenodd" d="M12.8996 2.74998C12.8996 2.25292 12.4967 1.84998 11.9996 1.84998C11.5025 1.84998 11.0996 2.25292 11.0996 2.74998V3.85007L6.96286 3.85007C6.29406 3.85006 5.73807 3.85005 5.28433 3.88712C4.81179 3.92573 4.37145 4.00899 3.95604 4.22065C3.31629 4.54662 2.79616 5.06676 2.47019 5.70651C2.25853 6.12192 2.17527 6.56225 2.13666 7.03479C2.09959 7.48853 2.0996 8.04451 2.09961 8.7133V12.5368C2.0996 13.2056 2.09959 13.7616 2.13666 14.2154C2.17527 14.6879 2.25853 15.1282 2.47019 15.5436C2.79616 16.1834 3.31629 16.7035 3.95604 17.0295C4.37145 17.2412 4.81179 17.3244 5.28433 17.363C5.73805 17.4001 6.294 17.4001 6.96275 17.4001H7.07661L4.11321 20.3635C3.76174 20.715 3.76174 21.2848 4.11321 21.6363C4.46468 21.9877 5.03453 21.9877 5.386 21.6363L9.6222 17.4001H11.0996V21.0001C11.0996 21.4971 11.5026 21.9001 11.9996 21.9001C12.4967 21.9001 12.8996 21.4971 12.8996 21.0001V17.4001H14.377L18.6132 21.6363C18.9647 21.9877 19.5345 21.9877 19.886 21.6363C20.2375 21.2848 20.2375 20.715 19.886 20.3635L16.9226 17.4001H17.0364C17.7051 17.4001 18.2612 17.4001 18.7149 17.363C19.1874 17.3244 19.6278 17.2412 20.0432 17.0295C20.6829 16.7035 21.2031 16.1834 21.529 15.5436C21.7407 15.1282 21.824 14.6879 21.8626 14.2154C21.8996 13.7616 21.8996 13.2056 21.8996 12.5368V8.71332C21.8996 8.04452 21.8996 7.48853 21.8626 7.03479C21.824 6.56225 21.7407 6.12192 21.529 5.70651C21.2031 5.06676 20.6829 4.54662 20.0432 4.22065C19.6278 4.00899 19.1874 3.92573 18.7149 3.88712C18.2612 3.85005 17.7052 3.85006 17.0364 3.85007L12.8996 3.85007V2.74998ZM9.2685 15.6001C9.2559 15.5998 9.2433 15.5998 9.23071 15.6001H6.99961C6.28469 15.6001 5.80263 15.5994 5.4309 15.569C5.06968 15.5395 4.89259 15.4865 4.77323 15.4257C4.47217 15.2723 4.2274 15.0275 4.074 14.7265C4.01318 14.6071 3.9602 14.43 3.93068 14.0688C3.90031 13.6971 3.89961 13.215 3.89961 12.5001V8.75007C3.89961 8.03516 3.90031 7.5531 3.93068 7.18137C3.9602 6.82014 4.01318 6.64306 4.074 6.52369C4.2274 6.22263 4.47217 5.97786 4.77323 5.82446C4.89259 5.76364 5.06968 5.71066 5.4309 5.68115C5.80263 5.65077 6.28469 5.65007 6.99961 5.65007H16.9996C17.7145 5.65007 18.1966 5.65077 18.5683 5.68115C18.9295 5.71066 19.1066 5.76364 19.226 5.82446C19.5271 5.97786 19.7718 6.22263 19.9252 6.52369C19.986 6.64306 20.039 6.82014 20.0685 7.18137C20.0989 7.5531 20.0996 8.03516 20.0996 8.75007V12.5001C20.0996 13.215 20.0989 13.6971 20.0685 14.0688C20.039 14.43 19.986 14.6071 19.9252 14.7265C19.7718 15.0275 19.5271 15.2723 19.226 15.4257C19.1066 15.4865 18.9295 15.5395 18.5683 15.569C18.1966 15.5994 17.7145 15.6001 16.9996 15.6001H14.7685C14.7559 15.5998 14.7433 15.5998 14.7307 15.6001H9.2685Z" fill="currentColor"/>
</svg>
