<svg width="24" height="24" viewBox="0 0 24 24" fill="none" xmlns="http://www.w3.org/2000/svg">
<path d="M15.2495 9.85C14.7525 9.85 14.3495 10.2529 14.3495 10.75C14.3495 11.2471 14.7525 11.65 15.2495 11.65H17.2495C17.7466 11.65 18.1495 11.2471 18.1495 10.75C18.1495 10.2529 17.7466 9.85 17.2495 9.85H15.2495Z" fill="currentColor"/>
<path fill-rule="evenodd" clip-rule="evenodd" d="M19.7702 6.52498C19.3457 6.30868 18.894 6.2088 18.3997 6.15812C18.3997 5.6311 18.3996 5.18212 18.3695 4.81322C18.3377 4.42406 18.268 4.04546 18.0836 3.68353C17.8056 3.13786 17.362 2.69422 16.8163 2.41618C16.4544 2.23177 16.0758 2.16213 15.6866 2.13034C15.3162 2.10008 14.8651 2.10009 14.3352 2.1001H9.66431C9.1345 2.10009 8.68323 2.10008 8.31283 2.13034C7.92367 2.16213 7.54507 2.23177 7.18314 2.41618C6.63747 2.69422 6.19383 3.13786 5.9158 3.68353C5.73138 4.04546 5.66175 4.42406 5.62995 4.81322C5.59981 5.18211 5.5997 5.63108 5.59971 6.1581C5.10539 6.20877 4.65361 6.30865 4.22905 6.52498C3.49522 6.89888 2.89859 7.49551 2.52469 8.22934C2.28577 8.69823 2.18889 9.20031 2.14347 9.75622C2.09959 10.2933 2.0996 10.9541 2.09961 11.7622V12.9876C2.0996 13.7956 2.09959 14.4565 2.14347 14.9936C2.18889 15.5495 2.28577 16.0516 2.52469 16.5205C2.89859 17.2543 3.49522 17.8509 4.22905 18.2248C4.65479 18.4418 5.10789 18.5416 5.60381 18.5921C5.6077 18.809 5.61526 19.0071 5.6299 19.1864C5.6617 19.5756 5.73133 19.9542 5.91575 20.3161C6.19378 20.8618 6.63742 21.3054 7.18309 21.5834C7.54503 21.7678 7.92362 21.8375 8.31278 21.8693C8.6832 21.8995 9.13436 21.8995 9.6642 21.8995H14.3351C14.8649 21.8995 15.3161 21.8995 15.6866 21.8693C16.0757 21.8375 16.4543 21.7678 16.8162 21.5834C17.3619 21.3054 17.8056 20.8618 18.0836 20.3161C18.268 19.9542 18.3376 19.5756 18.3694 19.1864C18.3841 19.0071 18.3916 18.809 18.3955 18.5921C18.8914 18.5416 19.3445 18.4417 19.7702 18.2248C20.504 17.8509 21.1006 17.2543 21.4745 16.5205C21.7134 16.0516 21.8103 15.5495 21.8557 14.9936C21.8996 14.4565 21.8996 13.7957 21.8996 12.9876V11.7622C21.8996 10.9541 21.8996 10.2933 21.8557 9.75622C21.8103 9.20031 21.7134 8.69823 21.4745 8.22934C21.1006 7.49551 20.504 6.89888 19.7702 6.52498ZM7.39975 5.80012V6.10006C7.51704 6.0999 7.63773 6.0999 7.7619 6.0999H16.2373C16.3616 6.0999 16.4824 6.0999 16.5997 6.10006V5.80012C16.5997 4.98556 16.5886 4.79173 16.5459 4.6602C16.4371 4.32532 16.1745 4.06277 15.8397 3.95396C15.7081 3.91123 15.5143 3.90012 14.6997 3.90012H9.29975C8.48518 3.90012 8.29135 3.91123 8.15983 3.95396C7.82495 4.06277 7.56239 4.32532 7.45358 4.6602C7.41085 4.79173 7.39975 4.98556 7.39975 5.80012ZM18.3927 16.7794C18.6562 16.7412 18.8232 16.6872 18.953 16.621C19.3481 16.4197 19.6694 16.0984 19.8707 15.7033C19.9588 15.5304 20.0254 15.2916 20.0617 14.847C20.0989 14.3919 20.0996 13.8048 20.0996 12.9499V11.7999C20.0996 10.945 20.0989 10.3579 20.0617 9.9028C20.0254 9.4582 19.9588 9.21937 19.8707 9.04652C19.6694 8.65138 19.3481 8.33012 18.953 8.12879C18.7801 8.04072 18.5413 7.97411 18.0967 7.93779C17.6416 7.9006 17.0545 7.8999 16.1996 7.8999H7.79961C6.94468 7.8999 6.35761 7.9006 5.90251 7.93779C5.45791 7.97411 5.21908 8.04072 5.04623 8.12879C4.65109 8.33012 4.32983 8.65138 4.1285 9.04652C4.04043 9.21937 3.97382 9.4582 3.93749 9.9028C3.90031 10.3579 3.89961 10.945 3.89961 11.7999V12.9499C3.89961 13.8048 3.90031 14.3919 3.93749 14.847C3.97382 15.2916 4.04043 15.5304 4.1285 15.7033C4.32983 16.0984 4.65109 16.4197 5.04623 16.621C5.17605 16.6872 5.3431 16.7412 5.6066 16.7794C5.611 16.6118 5.61818 16.4561 5.6299 16.3126C5.6617 15.9235 5.73133 15.5449 5.91575 15.1829C6.19378 14.6373 6.63742 14.1936 7.18309 13.9156C7.54503 13.7312 7.92362 13.6615 8.31278 13.6298C8.6832 13.5995 9.13436 13.5995 9.6642 13.5995H14.3351C14.8649 13.5995 15.3161 13.5995 15.6866 13.6298C16.0757 13.6615 16.4543 13.7312 16.8162 13.9156C17.3619 14.1936 17.8056 14.6373 18.0836 15.1829C18.268 15.5449 18.3376 15.9235 18.3694 16.3126C18.3812 16.4561 18.3883 16.6118 18.3927 16.7794ZM8.15989 15.4545C8.29141 15.4117 8.48524 15.4006 9.29981 15.4006H14.6998C15.5144 15.4006 15.7082 15.4117 15.8397 15.4545C16.1746 15.5633 16.4372 15.8258 16.546 16.1607C16.5887 16.2922 16.5998 16.4861 16.5998 17.3006V18.2006C16.5998 19.0152 16.5887 19.209 16.546 19.3405C16.4372 19.6754 16.1746 19.938 15.8397 20.0468C15.7082 20.0895 15.5144 20.1006 14.6998 20.1006H9.29981C8.48524 20.1006 8.29141 20.0895 8.15989 20.0468C7.82501 19.938 7.56245 19.6754 7.45364 19.3405C7.41091 19.209 7.39981 19.0152 7.39981 18.2006V17.3006C7.39981 16.4861 7.41091 16.2922 7.45364 16.1607C7.56245 15.8258 7.82501 15.5633 8.15989 15.4545Z" fill="currentColor"/>
</svg>
