<svg width="24" height="24" viewBox="0 0 24 24" fill="none" xmlns="http://www.w3.org/2000/svg">
<path d="M11.9247 15.5212C11.3411 15.5212 10.8592 15.0441 10.9231 14.464C11.4082 10.0617 14.9304 10.3708 14.9304 7.72518C14.9304 6.15189 13.6858 5.14216 11.9247 5.14216C10.4176 5.14216 9.39417 5.8676 9.04833 7.14872C8.89623 7.71214 8.44591 8.19482 7.86232 8.19482C7.27873 8.19482 6.79399 7.71801 6.88888 7.14218C7.29193 4.69638 9.13576 3.16968 11.9247 3.16968C14.8599 3.16968 17.0437 4.86038 17.0437 7.72518C17.0437 11.2894 13.6473 11.0734 13.0656 14.4668C12.967 15.0421 12.5083 15.5212 11.9247 15.5212Z" fill="currentColor"/>
<path d="M10.4688 19.231C10.4688 20.0764 11.0793 20.6869 11.9247 20.6869C12.77 20.6869 13.3806 20.0764 13.3806 19.231C13.3806 18.3857 12.77 17.7751 11.9247 17.7751C11.0793 17.7751 10.4688 18.3857 10.4688 19.231Z" fill="currentColor"/>
</svg>
