<svg width="24" height="24" viewBox="0 0 24 24" fill="none" xmlns="http://www.w3.org/2000/svg">
<path d="M9.13598 5.36371C9.48745 5.71518 9.48744 6.28503 9.13597 6.6365C8.8965 6.87596 8.66127 7.10944 8.43122 7.33778C7.31304 8.44764 6.31687 9.4364 5.54787 10.4039C5.11387 10.9499 4.77957 11.4568 4.54684 11.9386C5.24783 11.2646 6.20031 10.8502 7.24957 10.8502C9.40347 10.8502 11.1496 12.5963 11.1496 14.7502C11.1496 16.9041 9.40347 18.6502 7.24957 18.6502L7.20555 18.65C5.70254 18.6401 4.45779 18.1252 3.5957 17.1632C2.73803 16.2062 2.34961 14.9081 2.34961 13.5001C2.34961 11.9437 3.12745 10.5562 4.13879 9.28383C4.98018 8.22528 6.0694 7.14485 7.18797 6.03529C7.41245 5.81262 7.63811 5.58877 7.86319 5.3637C8.21467 5.01223 8.78451 5.01223 9.13598 5.36371Z" fill="currentColor"/>
<path d="M19.6359 5.36371C19.9874 5.71518 19.9874 6.28503 19.6359 6.6365C19.3967 6.87574 19.1617 7.10901 18.9318 7.33715C17.8136 8.44701 16.8168 9.4364 16.0478 10.4039C15.6138 10.9499 15.2795 11.4568 15.0468 11.9386C15.7478 11.2646 16.7003 10.8502 17.7495 10.8502C19.9034 10.8502 21.6495 12.5963 21.6495 14.7502C21.6495 16.9041 19.9034 18.6502 17.7495 18.6502L17.7055 18.65C16.2025 18.6401 14.9577 18.1252 14.0957 17.1632C13.238 16.2062 12.8496 14.9081 12.8496 13.5001C12.8496 11.9437 13.6274 10.5562 14.6387 9.28383C15.4801 8.22529 16.5693 7.14486 17.6879 6.0353C17.9124 5.81263 18.1381 5.58877 18.3632 5.3637C18.7146 5.01223 19.2845 5.01223 19.6359 5.36371Z" fill="currentColor"/>
</svg>
