<svg width="24" height="24" viewBox="0 0 24 24" fill="none" xmlns="http://www.w3.org/2000/svg">
<path d="M2.59961 11.9981C2.59961 6.80667 6.80812 2.59814 11.9996 2.59814C13.8167 2.59814 15.5142 3.11436 16.9522 4.00739L17.9016 3.05799C18.159 2.80059 18.5461 2.72359 18.8824 2.8629C19.2187 3.0022 19.438 3.33037 19.438 3.69439V6.87637C19.438 7.11506 19.3432 7.34398 19.1744 7.51276C19.0056 7.68155 18.7767 7.77637 18.538 7.77637H15.3561C14.992 7.77637 14.6639 7.55709 14.5246 7.22078C14.3853 6.88448 14.4623 6.49737 14.7197 6.23997L15.6366 5.32304C14.5563 4.73309 13.3174 4.39814 11.9996 4.39814C7.80223 4.39814 4.3996 7.80078 4.3996 11.9981C4.3996 12.5077 4.44961 13.0046 4.54472 13.4846C4.64133 13.9722 4.32439 14.4457 3.83681 14.5423C3.34924 14.639 2.87566 14.322 2.77905 13.8344C2.66124 13.2398 2.59961 12.6257 2.59961 11.9981Z" fill="currentColor"/>
<path d="M20.1625 9.45727C20.6501 9.36069 21.1236 9.67766 21.2202 10.1652C21.338 10.7597 21.3996 11.3736 21.3996 12.001C21.3996 17.1925 17.191 21.401 11.9996 21.401C10.183 21.401 8.48599 20.8851 7.0482 19.9926L6.09506 20.9457C5.83767 21.2031 5.45056 21.2801 5.11426 21.1408C4.77795 21.0015 4.55867 20.6733 4.55867 20.3093L4.55867 17.1273C4.55867 16.8886 4.65349 16.6597 4.82228 16.4909C4.99106 16.3222 5.21998 16.2273 5.45867 16.2273H8.64064C9.00465 16.2273 9.33282 16.4466 9.47213 16.7829C9.61143 17.1192 9.53443 17.5063 9.27703 17.7637L8.3639 18.6769C9.44384 19.2664 10.6823 19.601 11.9996 19.601C16.1969 19.601 19.5996 16.1984 19.5996 12.001C19.5996 11.4917 19.5496 10.9949 19.4545 10.515C19.3579 10.0274 19.6749 9.55386 20.1625 9.45727Z" fill="currentColor"/>
</svg>
