<svg width="24" height="24" viewBox="0 0 24 24" fill="none" xmlns="http://www.w3.org/2000/svg">
<path d="M4.55078 4.60548C5.1139 4.03907 5.99991 4.48441 6 5.28322C5.99994 5.55342 5.88652 5.81019 5.7002 6.00587C4.21369 7.56654 3.30003 9.67771 3.2998 12.0029C3.29993 14.3284 4.21355 16.4394 5.7002 18C5.88655 18.1956 5.99997 18.4525 6 18.7227C5.99971 19.521 5.11466 19.9654 4.55176 19.3994C2.66616 17.5022 1.50013 14.8893 1.5 12.0029C1.50023 9.11673 2.66542 6.50309 4.55078 4.60548Z" fill="currentColor"/>
<path d="M18 5.28224C18.0001 4.48368 18.8853 4.03807 19.4482 4.60451C21.3338 6.50174 22.4998 9.1147 22.5 12.001C22.4999 14.8873 21.3336 17.5008 19.4482 19.3985C18.8851 19.9652 18 19.5197 18 18.7207C18.0002 18.4506 18.1125 18.1937 18.2988 17.9981C19.7853 16.4373 20.7001 14.3263 20.7002 12.001C20.7 9.67559 19.7855 7.56448 18.2988 6.00392C18.1126 5.80835 18.0001 5.55229 18 5.28224Z" fill="currentColor"/>
<path d="M8.99902 15.4531C9.82742 15.4531 10.499 16.1248 10.499 16.9531C10.499 17.7816 9.82745 18.4531 8.99902 18.4531C8.17077 18.4529 7.49902 17.7814 7.49902 16.9531C7.49907 16.1249 8.17081 15.4533 8.99902 15.4531Z" fill="currentColor"/>
<path d="M13.8184 5.55275C14.3153 5.55288 14.7188 5.95616 14.7188 6.45314V8.6465L16.6133 7.55275C17.0437 7.30435 17.5952 7.45155 17.8438 7.88185C18.0921 8.31224 17.944 8.86379 17.5137 9.11232L15.6133 10.208L17.5088 11.3027C17.939 11.5513 18.0862 12.1019 17.8379 12.5322C17.5894 12.9626 17.0388 13.1106 16.6084 12.8623L14.7188 11.7705V13.9531C14.7187 14.4501 14.3153 14.8534 13.8184 14.8535C13.3214 14.8535 12.918 14.4501 12.918 13.9531V11.7656L11.0186 12.8623C10.5882 13.1108 10.0367 12.9634 9.78809 12.5332C9.53956 12.1028 9.6877 11.5513 10.1182 11.3027L12.0117 10.208L10.1133 9.11232C9.68299 8.86389 9.53509 8.31321 9.7832 7.88283C10.0317 7.45238 10.5832 7.30422 11.0137 7.55275L12.918 8.65138V6.45314C12.918 5.95611 13.3213 5.55279 13.8184 5.55275Z" fill="currentColor"/>
</svg>
