<svg width="24" height="24" viewBox="0 0 24 24" fill="none" xmlns="http://www.w3.org/2000/svg">
<path fill-rule="evenodd" clip-rule="evenodd" d="M9.99919 1.69995C5.41524 1.69995 1.69922 5.41599 1.69922 9.99995C1.69922 14.5839 5.41524 18.3 9.99919 18.3C11.8221 18.3 13.5077 17.7123 14.877 16.7161L19.5801 21.4192C20.0877 21.9268 20.9109 21.9268 21.4185 21.4192C21.9262 20.9115 21.9262 20.0884 21.4185 19.5807L16.7154 14.8776C17.7116 13.5083 18.2992 11.8228 18.2992 9.99995C18.2992 5.41599 14.5831 1.69995 9.99919 1.69995ZM4.29921 9.99995C4.29921 6.85193 6.85118 4.29995 9.99919 4.29995C13.1472 4.29995 15.6992 6.85193 15.6992 9.99995C15.6992 13.148 13.1472 15.7 9.99919 15.7C6.85118 15.7 4.29921 13.148 4.29921 9.99995Z" fill="currentColor"/>
</svg>
