<svg width="24" height="24" viewBox="0 0 24 24" fill="none" xmlns="http://www.w3.org/2000/svg">
<path d="M7.94482 3.40825L20.225 9.80067C20.6355 10.0144 20.9973 10.2027 21.2709 10.3785C21.5431 10.5534 21.8726 10.8026 22.0564 11.1967C22.2937 11.7057 22.2937 12.2936 22.0564 12.8026C21.8726 13.1967 21.5431 13.4459 21.2709 13.6208C20.9973 13.7966 20.6355 13.9849 20.225 14.1986L7.94482 20.591C7.45413 20.8465 7.03253 21.066 6.68936 21.2074C6.36214 21.3423 5.91583 21.4929 5.44661 21.388C4.85917 21.2567 4.36869 20.8548 4.12447 20.3046C3.9294 19.8652 3.98927 19.398 4.05719 19.0506C4.12843 18.6863 4.26074 18.2298 4.41475 17.6985L5.80548 12.8996H13.0002C13.4972 12.8996 13.9001 12.4967 13.9001 11.9996C13.9001 11.5026 13.4972 11.0996 13.0002 11.0996H5.80548L4.41475 6.30083C4.26074 5.76947 4.12843 5.31298 4.05719 4.94869C3.98927 4.60133 3.9294 4.13414 4.12447 3.69469C4.36869 3.14451 4.85917 2.74261 5.44661 2.61131C5.91583 2.50643 6.36214 2.65698 6.68936 2.79186C7.03254 2.93332 7.45411 3.15279 7.94482 3.40825Z" fill="currentColor"/>
</svg>
