<svg width="24" height="24" viewBox="0 0 24 24" fill="none" xmlns="http://www.w3.org/2000/svg">
<path fill-rule="evenodd" clip-rule="evenodd" d="M8.05029 12.0002C8.05029 9.81872 9.81876 8.05024 12.0003 8.05024C14.1818 8.05024 15.9503 9.81872 15.9503 12.0002C15.9503 14.1818 14.1818 15.9502 12.0003 15.9502C9.81876 15.9502 8.05029 14.1818 8.05029 12.0002ZM12.0003 9.95024C10.8681 9.95024 9.95029 10.8681 9.95029 12.0002C9.95029 13.1324 10.8681 14.0502 12.0003 14.0502C13.1325 14.0502 14.0503 13.1324 14.0503 12.0002C14.0503 10.8681 13.1325 9.95024 12.0003 9.95024Z" fill="currentColor"/>
<path fill-rule="evenodd" clip-rule="evenodd" d="M10.1315 1.97103C10.738 1.85866 11.3627 1.80005 12.0003 1.80005C12.6378 1.80005 13.2625 1.85866 13.8691 1.97103C14.9105 2.16398 15.3507 3.11343 15.4931 3.7047C15.5895 4.10497 15.842 4.46336 16.2251 4.68457C16.608 4.9056 17.0441 4.94519 17.4387 4.82889C18.022 4.65699 19.0619 4.56469 19.7495 5.3674C20.5595 6.31285 21.1998 7.40903 21.6227 8.60879C21.9741 9.606 21.373 10.4601 20.9327 10.8785C20.6343 11.1621 20.4501 11.56 20.4501 12.0024C20.4501 12.4446 20.634 12.8423 20.9322 13.1258C21.3723 13.5444 21.973 14.3988 21.6211 15.3959C21.1969 16.5976 20.5545 17.6952 19.742 18.6415C19.0555 19.4411 18.019 19.3504 17.4367 19.1797C17.0427 19.0643 16.6075 19.1041 16.2254 19.3247C15.8434 19.5453 15.5913 19.9022 15.4943 20.3009C15.3508 20.8907 14.91 21.8359 13.8717 22.0286C13.2643 22.1413 12.6388 22.2001 12.0003 22.2001C11.362 22.2001 10.7366 22.1413 10.1294 22.0287C9.09068 21.836 8.64999 20.8903 8.50661 20.3004C8.40964 19.9014 8.1575 19.5443 7.77537 19.3237C7.39318 19.1031 6.95782 19.0632 6.56379 19.1788C5.98134 19.3496 4.94445 19.4405 4.25778 18.6406C3.44621 17.6951 2.80433 16.5985 2.38031 15.3981C2.02818 14.4012 2.62857 13.5467 3.06853 13.128C3.36648 12.8444 3.55026 12.4469 3.55026 12.0049C3.55026 11.5623 3.36603 11.1644 3.06744 10.8808C2.62709 10.4625 2.02587 9.60856 2.37702 8.61133C2.79962 7.41122 3.43987 6.3147 4.24972 5.36893C4.93747 4.56576 5.97794 4.65824 6.56131 4.8303C6.95595 4.9467 7.39225 4.90714 7.77517 4.68606C8.1585 4.46474 8.41106 4.10612 8.50733 3.70562C8.64952 3.11413 9.08966 2.16406 10.1315 1.97103ZM10.4992 3.83528C10.4948 3.83974 10.4887 3.84654 10.4809 3.85652C10.4391 3.91026 10.3881 4.01064 10.3547 4.14972C10.1417 5.03567 9.57812 5.83905 8.72516 6.33151C7.87316 6.82342 6.89682 6.91017 6.02382 6.65269C5.88684 6.61229 5.77457 6.60628 5.70706 6.6157C5.6942 6.61749 5.6851 6.61942 5.679 6.62101C5.03035 7.38247 4.51734 8.26184 4.17645 9.22177C4.17812 9.22775 4.18096 9.23638 4.1857 9.24804C4.21124 9.31091 4.27249 9.40489 4.37595 9.50315C5.03647 10.1306 5.45025 11.0202 5.45025 12.0049C5.45025 12.9884 5.03748 13.877 4.37836 14.5043C4.275 14.6027 4.21384 14.6967 4.18836 14.7596C4.18363 14.7713 4.1808 14.7799 4.17914 14.7859C4.52119 15.7461 5.03553 16.6256 5.68559 17.3868C5.69166 17.3884 5.70072 17.3903 5.71352 17.3921C5.78068 17.4015 5.89245 17.3957 6.02905 17.3556C6.90078 17.0999 7.87501 17.1873 8.72536 17.6783C9.57559 18.1692 10.1383 18.969 10.3529 19.8516C10.3865 19.9902 10.4375 20.09 10.4792 20.1434C10.487 20.1533 10.493 20.1601 10.4974 20.1645C10.9841 20.2535 11.4864 20.3 12.0003 20.3C12.5144 20.3 13.0167 20.2534 13.5036 20.1644C13.508 20.16 13.514 20.1532 13.5218 20.1433C13.5635 20.09 13.6144 19.9902 13.6481 19.8517C13.8628 18.9695 14.4255 18.17 15.2754 17.6793C16.1256 17.1884 17.0995 17.101 17.9711 17.3564C18.1076 17.3964 18.2193 17.4023 18.2864 17.3929C18.2992 17.3911 18.3083 17.3891 18.3144 17.3875C18.9651 16.6257 19.4799 15.7453 19.8221 14.7841C19.8204 14.7781 19.8176 14.7695 19.8129 14.7578C19.7874 14.6949 19.7262 14.6009 19.6228 14.5026C18.9632 13.8752 18.5501 12.9863 18.5501 12.0024C18.5501 11.018 18.9637 10.1285 19.6239 9.50116C19.7274 9.40287 19.7886 9.30887 19.8142 9.24598C19.8189 9.23432 19.8217 9.22568 19.8234 9.2197C19.4823 8.26005 18.9692 7.38096 18.3205 6.61976C18.3144 6.61817 18.3053 6.61624 18.2925 6.61444C18.225 6.60503 18.1128 6.61102 17.9759 6.65138C17.103 6.90865 16.1269 6.82182 15.2751 6.33002C14.4226 5.8378 13.8591 5.03495 13.6459 4.14949C13.6124 4.01049 13.5615 3.91019 13.5196 3.8565C13.5119 3.84653 13.5058 3.83973 13.5014 3.83528C13.0152 3.74653 12.5136 3.70005 12.0003 3.70005C11.487 3.70005 10.9854 3.74653 10.4992 3.83528ZM19.8257 9.20895L19.8254 9.21109L19.8257 9.20895ZM19.8243 14.7949L19.8241 14.7927L19.8243 14.7949ZM4.17688 14.7966L4.17711 14.7945L4.17688 14.7966ZM4.17418 9.21101L4.17442 9.21316L4.17418 9.21101Z" fill="currentColor"/>
</svg>
