<svg width="24" height="24" viewBox="0 0 24 24" fill="none" xmlns="http://www.w3.org/2000/svg">
<path d="M8.60095 7.18066C9.00272 6.9696 9.50267 6.96646 9.90368 7.18066C10.1934 7.33541 10.3897 7.60413 10.5297 7.89551C10.6295 8.10351 10.7326 8.378 10.8422 8.66797L11.3246 9.94531C11.6699 10.8589 11.7936 11.1646 11.9701 11.4141C12.1402 11.6544 12.3498 11.865 12.5902 12.0352C12.8397 12.2116 13.1461 12.3343 14.0599 12.6797L15.3373 13.1621C15.6274 13.2717 15.9017 13.3747 16.1097 13.4746C16.2824 13.5575 16.6307 13.7347 16.8236 14.1016C17.0376 14.5093 17.0378 14.9967 16.8236 15.4043C16.6307 15.7705 16.2823 15.9474 16.1097 16.0303C15.9018 16.1301 15.6273 16.2332 15.3373 16.3428L14.0599 16.8252C13.1455 17.1708 12.8397 17.2942 12.5902 17.4707C12.3501 17.6407 12.1401 17.8506 11.9701 18.0908C11.7937 18.3402 11.6699 18.6469 11.3246 19.5605L10.8422 20.8379C10.7326 21.1279 10.6295 21.4025 10.5297 21.6104C10.4467 21.783 10.27 22.1315 9.90368 22.3242C9.6999 22.4312 9.47598 22.4844 9.25231 22.4844C9.02859 22.4844 8.8047 22.4312 8.60095 22.3242C8.23429 22.1315 8.05697 21.7831 7.97399 21.6104C7.87413 21.4024 7.77109 21.1279 7.66149 20.8379L7.17907 19.5605C6.83376 18.6468 6.71094 18.3403 6.53454 18.0908C6.36439 17.8504 6.15387 17.6409 5.91345 17.4707C5.66396 17.2942 5.35857 17.1706 4.4447 16.8252L3.16735 16.3428C2.87727 16.2331 2.60292 16.1302 2.39489 16.0303C2.2224 15.9474 1.87302 15.771 1.68005 15.4043C1.46593 14.9968 1.46612 14.5091 1.68005 14.1016C1.87284 13.7346 2.22211 13.5576 2.39489 13.4746C2.60284 13.3748 2.87743 13.2717 3.16735 13.1621L4.4447 12.6797C5.3579 12.3346 5.66406 12.2115 5.91345 12.0352C6.15389 11.865 6.36437 11.6545 6.53454 11.4141C6.71094 11.1647 6.83393 10.8585 7.17907 9.94531L7.66149 8.66797C7.77102 8.37815 7.87419 8.10348 7.97399 7.89551C8.05687 7.72297 8.23404 7.37361 8.60095 7.18066Z" fill="currentColor"/>
<path d="M17.222 2.23535C17.3523 2.23529 17.4826 2.25836 17.6058 2.30664L17.7269 2.36328L17.8343 2.43262C18.0667 2.60614 18.1657 2.84967 18.1976 2.9248C18.2534 3.05615 18.3097 3.22554 18.3627 3.38574L18.5883 4.07031C18.7879 4.67455 18.8459 4.82573 18.9261 4.94336C19.0104 5.06677 19.1172 5.17455 19.2406 5.25879C19.3582 5.339 19.5103 5.39604 20.1146 5.5957L20.7982 5.82227C20.9585 5.87523 21.1288 5.93048 21.2601 5.98633C21.3356 6.0184 21.579 6.11744 21.7523 6.34961L21.8216 6.45801L21.8773 6.57812C21.9899 6.86515 21.9718 7.19118 21.8216 7.46582C21.6523 7.7748 21.3467 7.89972 21.2601 7.93652C21.1289 7.99231 20.9583 8.04865 20.7982 8.10156L20.1146 8.32715C19.5107 8.52668 19.3582 8.58488 19.2406 8.66504C19.1174 8.74922 19.0103 8.8563 18.9261 8.97949C18.846 9.09709 18.7878 9.24966 18.5883 9.85352L18.3627 10.5371C18.3098 10.6973 18.2534 10.8678 18.1976 10.999C18.1608 11.0856 18.0366 11.3909 17.7269 11.5605C17.5701 11.6463 17.3964 11.6895 17.223 11.6895C17.0496 11.6895 16.8761 11.6463 16.7191 11.5605C16.4087 11.3907 16.2841 11.0853 16.2474 10.999C16.1916 10.8677 16.1363 10.6974 16.0834 10.5371L15.8568 9.85352C15.6571 9.24918 15.6001 9.09713 15.5199 8.97949C15.4356 8.85597 15.328 8.74937 15.2045 8.66504C15.0868 8.58481 14.9357 8.5268 14.3314 8.32715L13.6468 8.10156C13.4867 8.04863 13.3172 7.99233 13.1859 7.93652C13.1 7.90001 12.7944 7.77619 12.6244 7.46582C12.4527 7.15205 12.4529 6.77186 12.6244 6.45801L12.6937 6.34961C12.7152 6.32083 12.7379 6.29338 12.7611 6.26855C12.9247 6.09398 13.1199 6.01439 13.1859 5.98633C13.3171 5.93062 13.4869 5.87511 13.6468 5.82227L14.3314 5.5957C14.9344 5.39648 15.0869 5.33879 15.2045 5.25879C15.3277 5.17458 15.4357 5.06663 15.5199 4.94336C15.5999 4.82583 15.6576 4.67328 15.8568 4.07031L16.0834 3.38574C16.1362 3.22581 16.1917 3.05599 16.2474 2.9248C16.2841 2.83861 16.4097 2.5328 16.7191 2.36328L16.8392 2.30664C16.8696 2.29473 16.9009 2.28435 16.932 2.27539C16.995 2.25727 17.0596 2.24534 17.1244 2.23926C17.1568 2.23624 17.1895 2.23535 17.222 2.23535Z" fill="currentColor"/>
</svg>
