<svg width="24" height="24" viewBox="0 0 24 24" fill="none" xmlns="http://www.w3.org/2000/svg">
<path fill-rule="evenodd" clip-rule="evenodd" d="M7.73626 12.707C7.30918 12.3496 6.68745 12.3496 6.26037 12.707C6.07375 12.8631 5.96936 13.0743 5.86884 13.2898C5.59535 13.8758 5.49181 14.0933 5.3683 14.2854C5.08927 14.7197 4.72014 15.0888 4.28594 15.3678C4.09374 15.4913 3.87633 15.5949 3.29033 15.8684C3.07483 15.9689 2.86358 16.0733 2.70744 16.2599C2.35012 16.687 2.35012 17.3087 2.70744 17.7358C2.86358 17.9224 3.07483 18.0268 3.29033 18.1273C3.87633 18.4008 4.09374 18.5043 4.28594 18.6278C4.72014 18.9069 5.08927 19.276 5.3683 19.7102C5.49181 19.9024 5.59535 20.1198 5.86884 20.7058C5.96934 20.9213 6.07376 21.1326 6.26037 21.2887C6.68745 21.646 7.30918 21.646 7.73626 21.2887C7.92287 21.1326 8.02727 20.9213 8.12779 20.7058C8.40127 20.1198 8.50482 19.9024 8.62832 19.7102C8.90735 19.276 9.27648 18.9069 9.71069 18.6278C9.90289 18.5043 10.1203 18.4008 10.7063 18.1273C10.9218 18.0268 11.133 17.9224 11.2892 17.7358C11.6465 17.3087 11.6465 16.687 11.2892 16.2599C11.133 16.0733 10.9218 15.9689 10.7063 15.8684C10.1203 15.5949 9.90289 15.4913 9.71069 15.3678C9.27648 15.0888 8.90735 14.7197 8.62832 14.2854C8.50482 14.0933 8.40127 13.8758 8.12779 13.2898C8.02727 13.0743 7.92287 12.8631 7.73626 12.707ZM6.88259 15.2586C6.92252 15.1964 6.96075 15.1332 6.99831 15.0676C7.03588 15.1332 7.07411 15.1964 7.11404 15.2586C7.53258 15.9099 8.08628 16.4636 8.73758 16.8821C8.79972 16.922 8.86297 16.9603 8.92857 16.9978C8.86297 17.0354 8.79972 17.0736 8.73758 17.1135C8.08628 17.5321 7.53258 18.0858 7.11404 18.7371C7.07411 18.7992 7.03588 18.8625 6.99831 18.9281C6.96075 18.8625 6.92252 18.7992 6.88259 18.7371C6.46405 18.0858 5.91035 17.5321 5.25904 17.1135C5.19691 17.0736 5.13366 17.0354 5.06805 16.9978C5.13366 16.9603 5.19691 16.922 5.25904 16.8821C5.91035 16.4636 6.46405 15.9099 6.88259 15.2586Z" fill="currentColor"/>
<path fill-rule="evenodd" clip-rule="evenodd" d="M8.78142 7.51872C8.45221 7.6828 8.01853 7.9319 7.78802 8.37678C7.64603 8.6508 7.57503 8.95077 7.57501 9.25074C7.57503 9.55072 7.64603 9.85069 7.78802 10.1247C8.01853 10.5696 8.45221 10.8187 8.78142 10.9828C9.07682 11.13 9.4572 11.2851 9.901 11.4609L10.9443 11.8724C11.4855 12.0858 11.9139 12.5142 12.1274 13.0555L12.4739 13.9339C12.677 14.4488 12.8521 14.8872 13.0172 15.2186C13.1813 15.5478 13.4304 15.9815 13.8753 16.212C14.1494 16.354 14.4493 16.4248 14.7494 16.4248C15.0495 16.4248 15.3494 16.354 15.6235 16.212C16.0684 15.9815 16.3175 15.5478 16.4815 15.2186C16.6467 14.8872 16.8218 14.4488 17.0249 13.9339L17.3714 13.0555C17.5848 12.5142 18.0133 12.0858 18.5545 11.8724L19.5978 11.4609C20.0416 11.2851 20.422 11.13 20.7174 10.9828C21.0466 10.8187 21.4803 10.5696 21.7108 10.1247C21.8528 9.85069 21.9238 9.55072 21.9238 9.25074C21.9238 8.95077 21.8528 8.6508 21.7108 8.37678C21.4803 7.9319 21.0466 7.6828 20.7174 7.51872C20.422 7.37149 20.0416 7.21644 19.5978 7.04059L18.5545 6.62911C18.0133 6.41566 17.5848 5.98725 17.3714 5.44603L17.0249 4.56758C16.8218 4.05268 16.6467 3.6143 16.4815 3.28289C16.3175 2.95368 16.0684 2.52 15.6235 2.28949C15.3494 2.14749 15.0495 2.07665 14.7494 2.07666C14.4493 2.07665 14.1494 2.14749 13.8753 2.28949C13.4304 2.52 13.1813 2.95368 13.0172 3.28289C12.8521 3.6143 12.677 4.05268 12.4739 4.56758L12.1274 5.44603C11.9139 5.98725 11.4855 6.41566 10.9443 6.62911L9.901 7.04059C9.4572 7.21644 9.07682 7.37149 8.78142 7.51872ZM13.972 5.67505L14.6564 3.93978C14.6732 3.89722 14.7032 3.87646 14.7494 3.87646C14.7956 3.87646 14.8256 3.89722 14.8424 3.93978L15.5268 5.67505C15.7281 6.18251 15.8943 6.57349 16.1316 6.91434C16.3934 7.28776 16.7189 7.6125 17.0929 7.87354C17.4261 8.10412 17.8073 8.26765 18.2983 8.46284L20.0605 9.15783C20.103 9.17462 20.1238 9.20469 20.1238 9.25086C20.1238 9.29703 20.103 9.3271 20.0605 9.34388L18.2983 10.0389C17.8073 10.2341 17.4261 10.3976 17.0929 10.6282C16.7189 10.8892 16.3934 11.214 16.1316 11.5874C15.8943 11.9282 15.7281 12.3192 15.5268 12.8267L14.8424 14.5619C14.8256 14.6045 14.7956 14.6253 14.7494 14.6253C14.7032 14.6253 14.6732 14.6045 14.6564 14.5619L13.972 12.8267C13.7707 12.3192 13.6045 11.9282 13.3672 11.5874C13.1054 11.214 12.7799 10.8892 12.4059 10.6282C12.0727 10.3976 11.6915 10.2341 11.2005 10.0389L9.43831 9.34388C9.39575 9.3271 9.375 9.29703 9.375 9.25086C9.375 9.20469 9.39575 9.17462 9.43831 9.15783L11.2005 8.46284C11.6915 8.26765 12.0727 8.10412 12.4059 7.87354C12.7799 7.6125 13.1054 7.28776 13.3672 6.91434C13.6045 6.57349 13.7707 6.18251 13.972 5.67505Z" fill="currentColor"/>
</svg>
