<svg width="24" height="24" viewBox="0 0 24 24" fill="none" xmlns="http://www.w3.org/2000/svg">
<path fill-rule="evenodd" clip-rule="evenodd" d="M9.31099 7.02051C9.52217 7.02995 9.70993 7.09422 9.89985 7.17969C10.1816 7.35261 10.3841 7.59957 10.5258 7.89453C10.6257 8.10251 10.7287 8.377 10.8383 8.66699L11.3208 9.94434C11.6661 10.858 11.7898 11.1636 11.9663 11.4131C12.1364 11.6535 12.346 11.864 12.5864 12.0342C12.8358 12.2106 13.1425 12.3334 14.0561 12.6787L15.3334 13.1611C15.6234 13.2707 15.898 13.3738 16.1059 13.4736C16.2785 13.5566 16.6271 13.7342 16.8198 14.1006C17.0338 14.508 17.0336 14.9958 16.8198 15.4033C16.6273 15.7692 16.2786 15.9463 16.1059 16.0293C15.8981 16.1291 15.6233 16.2323 15.3334 16.3418L14.0561 16.8242C13.1438 17.169 12.8356 17.2936 12.5864 17.4697C12.3464 17.6396 12.1362 17.8499 11.9663 18.0898C11.7897 18.3393 11.6661 18.6458 11.3208 19.5596L10.8383 20.8369C10.7288 21.1268 10.6256 21.4014 10.5258 21.6094C10.4431 21.7817 10.2659 22.1303 9.89985 22.3232C9.49232 22.5374 9.00471 22.5372 8.59712 22.3232C8.23027 22.1304 8.05309 21.782 7.97017 21.6094C7.87029 21.4014 7.76727 21.1269 7.65767 20.8369L7.17524 19.5596C6.82995 18.6459 6.70714 18.3393 6.53071 18.0898C6.36062 17.8495 6.14992 17.6398 5.90962 17.4697C5.66018 17.2933 5.35436 17.1695 4.44087 16.8242L3.16352 16.3418C2.87359 16.2322 2.59906 16.1291 2.39106 16.0293C2.21853 15.9464 1.86917 15.7702 1.67622 15.4033C1.46212 14.9957 1.46207 14.5082 1.67622 14.1006C1.8692 13.7339 2.21858 13.5565 2.39106 13.4736C2.59899 13.3739 2.87387 13.2706 3.16352 13.1611L4.44087 12.6787C5.35382 12.3337 5.66025 12.2106 5.90962 12.0342C6.14988 11.864 6.36067 11.6534 6.53071 11.4131C6.70689 11.1638 6.83027 10.8571 7.17524 9.94434L7.65767 8.66699C7.76719 8.37718 7.87036 8.1024 7.97017 7.89453C8.05321 7.7217 8.23048 7.37233 8.59712 7.17969C8.81986 7.06286 9.06679 7.00957 9.31099 7.02051ZM8.85786 10.5801C8.54571 11.406 8.33978 11.972 7.99946 12.4531C7.71152 12.86 7.35553 13.216 6.94868 13.5039C6.46749 13.8442 5.90167 14.0501 5.07563 14.3623L4.04536 14.751L5.07563 15.1406C5.90211 15.453 6.46733 15.6594 6.94868 16C7.35574 16.288 7.71142 16.6437 7.99946 17.0508C8.33972 17.5319 8.54576 18.097 8.85786 18.9229L9.24653 19.9521L9.63618 18.9229C9.94826 18.0971 10.1554 17.5319 10.4956 17.0508C10.7835 16.6439 11.1395 16.2879 11.5463 16C12.0275 15.6597 12.5926 15.4527 13.4184 15.1406L14.4477 14.751L13.4184 14.3623C12.5924 14.0502 12.0275 13.8442 11.5463 13.5039C11.1393 13.2159 10.7836 12.8602 10.4956 12.4531C10.1551 11.9718 9.94845 11.4064 9.63618 10.5801L9.24653 9.5498L8.85786 10.5801Z" fill="currentColor"/>
<path fill-rule="evenodd" clip-rule="evenodd" d="M16.9672 2.48438C17.0974 2.48431 17.2279 2.50748 17.351 2.55566L17.4721 2.6123C17.6882 2.7518 17.8414 2.93523 17.9428 3.17383C17.9986 3.30502 18.055 3.47465 18.1079 3.63477L18.3334 4.31934C18.5328 4.92284 18.5913 5.07481 18.6713 5.19238C18.7553 5.31543 18.8628 5.42377 18.9858 5.50781C19.1034 5.58802 19.2557 5.64513 19.8598 5.84473L20.5434 6.07129C20.8904 6.18593 21.2677 6.29127 21.4975 6.59863L21.5668 6.70703L21.6225 6.82715C21.6788 6.97049 21.7029 7.12407 21.6938 7.27539C21.6847 7.42693 21.6419 7.57745 21.5668 7.71484C21.3976 8.02421 21.0922 8.1486 21.0053 8.18555C20.8741 8.24136 20.7036 8.29765 20.5434 8.35059L19.8598 8.57617C19.256 8.77566 19.1034 8.83396 18.9858 8.91406C18.8626 8.9982 18.7556 9.10535 18.6713 9.22852C18.5911 9.34614 18.5331 9.49838 18.3334 10.1025L18.1079 10.7861C18.055 10.9462 17.9986 11.1167 17.9428 11.248C17.9063 11.334 17.7823 11.6395 17.4721 11.8096C17.3152 11.8954 17.1417 11.9385 16.9682 11.9385C16.7948 11.9385 16.6213 11.8953 16.4643 11.8096C16.1539 11.6395 16.0291 11.3338 15.9926 11.248C15.9368 11.1167 15.8815 10.9463 15.8286 10.7861L15.602 10.1025C15.4024 9.49845 15.3453 9.34614 15.2651 9.22852C15.1808 9.10523 15.073 8.99826 14.9497 8.91406C14.8321 8.83401 14.68 8.77554 14.0766 8.57617L13.392 8.35059C13.2319 8.29769 13.0624 8.24132 12.9311 8.18555C12.8447 8.14881 12.5393 8.02492 12.3696 7.71484C12.1982 7.40107 12.198 7.02073 12.3696 6.70703L12.4389 6.59863C12.4605 6.56983 12.483 6.54241 12.5063 6.51758C12.7402 6.26805 13.0776 6.17517 13.392 6.07129L14.0766 5.84473C14.6801 5.64532 14.8321 5.58795 14.9497 5.50781C15.073 5.42352 15.1809 5.31578 15.2651 5.19238C15.345 5.07487 15.4029 4.92208 15.602 4.31934L15.8286 3.63477C15.8814 3.4748 15.9369 3.30493 15.9926 3.17383C16.0296 3.08687 16.1551 2.78152 16.4643 2.6123L16.5844 2.55566C16.7073 2.50754 16.8375 2.4844 16.9672 2.48438ZM16.9682 4.96973C16.8241 5.40534 16.7052 5.74755 16.5043 6.04199C16.3146 6.32 16.0743 6.56023 15.7963 6.75C15.5009 6.9516 15.1578 7.07109 14.7202 7.21582C15.1037 7.3495 15.4114 7.47672 15.6831 7.66211C16.0123 7.88693 16.2972 8.17172 16.5219 8.50098C16.7074 8.77279 16.8325 9.081 16.9663 9.46484C17.1112 9.02645 17.2312 8.68247 17.4331 8.38672C17.6228 8.1088 17.8631 7.86842 18.1411 7.67871C18.4355 7.47784 18.7778 7.35893 19.2133 7.21484C18.7778 7.07076 18.4355 6.95087 18.1411 6.75C17.8633 6.5603 17.6227 6.31982 17.4331 6.04199C17.2322 5.74754 17.1123 5.40537 16.9682 4.96973Z" fill="currentColor"/>
</svg>
