<svg width="24" height="24" viewBox="0 0 24 24" fill="none" xmlns="http://www.w3.org/2000/svg">
<path fill-rule="evenodd" clip-rule="evenodd" d="M8.26191 2.60303H15.7373C16.5454 2.60302 17.2062 2.60301 17.7433 2.64689C18.2992 2.69231 18.8013 2.78919 19.2702 3.0281C20.004 3.40201 20.6006 3.99863 20.9745 4.73247C21.2134 5.20135 21.3103 5.70343 21.3557 6.25935C21.3996 6.79642 21.3996 7.45727 21.3996 8.26532V15.7407C21.3996 16.5488 21.3996 17.2096 21.3557 17.7467C21.3103 18.3026 21.2134 18.8047 20.9745 19.2736C20.6006 20.0074 20.004 20.604 19.2702 20.978C18.8013 21.2169 18.2992 21.3137 17.7433 21.3592C17.2062 21.403 16.5454 21.403 15.7373 21.403H8.26191C7.45385 21.403 6.793 21.403 6.25593 21.3592C5.70001 21.3137 5.19794 21.2169 4.72905 20.978C3.99522 20.604 3.39859 20.0074 3.02469 19.2736C2.78577 18.8047 2.68889 18.3026 2.64347 17.7467C2.59959 17.2096 2.5996 16.5488 2.59961 15.7408V8.26533C2.5996 7.45729 2.59959 6.79641 2.64347 6.25935C2.68889 5.70343 2.78577 5.20135 3.02469 4.73247C3.39859 3.99863 3.99522 3.40201 4.72905 3.0281C5.19794 2.78919 5.70001 2.69231 6.25593 2.64689C6.793 2.60301 7.45387 2.60302 8.26191 2.60303ZM12.8993 8.00049C12.8993 7.50343 12.4964 7.10049 11.9993 7.10049C11.5023 7.10049 11.0993 7.50343 11.0993 8.00049V11.1005H7.99933C7.50227 11.1005 7.09933 11.5034 7.09933 12.0005C7.09933 12.4975 7.50227 12.9005 7.99933 12.9005H11.0993V16.0005C11.0993 16.4976 11.5023 16.9005 11.9993 16.9005C12.4964 16.9005 12.8993 16.4976 12.8993 16.0005V12.9005H15.9993C16.4964 12.9005 16.8993 12.4975 16.8993 12.0005C16.8993 11.5034 16.4964 11.1005 15.9993 11.1005H12.8993V8.00049Z" fill="currentColor"/>
</svg>
