<svg width="24" height="24" viewBox="0 0 24 24" fill="none" xmlns="http://www.w3.org/2000/svg">
<path fill-rule="evenodd" clip-rule="evenodd" d="M8.26189 2.6001H15.7373C16.5453 2.60009 17.2062 2.60008 17.7432 2.64396C18.2991 2.68938 18.8012 2.78626 19.2701 3.02517C20.0039 3.39908 20.6006 3.9957 20.9745 4.72954C21.2134 5.19842 21.3103 5.7005 21.3557 6.25642C21.3996 6.79349 21.3995 7.45434 21.3995 8.26239V15.7378C21.3995 16.5459 21.3996 17.2067 21.3557 17.7438C21.3103 18.2997 21.2134 18.8018 20.9745 19.2707C20.6006 20.0045 20.0039 20.6011 19.2701 20.975C18.8012 21.2139 18.2991 21.3108 17.7432 21.3562C17.2062 21.4001 16.5453 21.4001 15.7373 21.4001H8.26188C7.45383 21.4001 6.79299 21.4001 6.25591 21.3562C5.7 21.3108 5.19793 21.2139 4.72904 20.975C3.99521 20.6011 3.39859 20.0045 3.02468 19.2707C2.78577 18.8018 2.68889 18.2997 2.64347 17.7438C2.59959 17.2067 2.5996 16.5459 2.59961 15.7378V8.2624C2.5996 7.45434 2.59959 6.79349 2.64347 6.25642C2.68889 5.7005 2.78577 5.19842 3.02468 4.72954C3.39859 3.9957 3.99521 3.39908 4.72904 3.02517C5.19793 2.78626 5.7 2.68938 6.25591 2.64396C6.79299 2.60008 7.45384 2.60009 8.26189 2.6001ZM6.40249 4.43798C5.95789 4.47431 5.71906 4.54091 5.54622 4.62898C5.15108 4.83032 4.82982 5.15158 4.62849 5.54672C4.54042 5.71956 4.47381 5.95839 4.43749 6.40299C4.4003 6.8581 4.3996 7.44517 4.3996 8.3001V15.7001C4.3996 16.555 4.4003 17.1421 4.43749 17.5972C4.47381 18.0418 4.54042 18.2806 4.62849 18.4535C4.82982 18.8486 5.15108 19.1699 5.54622 19.3712C5.71906 19.4593 5.95789 19.5259 6.40249 19.5622C6.85759 19.5994 7.44466 19.6001 8.29959 19.6001H15.6996C16.5545 19.6001 17.1416 19.5994 17.5967 19.5622C18.0413 19.5259 18.2801 19.4593 18.4529 19.3712C18.8481 19.1699 19.1693 18.8486 19.3707 18.4535C19.4587 18.2806 19.5253 18.0418 19.5617 17.5972C19.5988 17.1421 19.5995 16.555 19.5995 15.7001V8.3001C19.5995 7.44517 19.5988 6.8581 19.5617 6.40299C19.5253 5.95839 19.4587 5.71956 19.3707 5.54672C19.1693 5.15158 18.8481 4.83032 18.4529 4.62898C18.2801 4.54091 18.0413 4.47431 17.5967 4.43798C17.1416 4.4008 16.5545 4.4001 15.6996 4.4001H8.29959C7.44466 4.4001 6.85759 4.4008 6.40249 4.43798Z" fill="currentColor"/>
</svg>
