<svg width="24" height="24" viewBox="0 0 24 24" fill="none" xmlns="http://www.w3.org/2000/svg">
<path fill-rule="evenodd" clip-rule="evenodd" d="M7.71179 8.96521C7.71179 9.28561 7.97153 9.54535 8.29194 9.54535H10.2644V10.5951C8.63449 11.1642 7.56814 12.4682 7.56814 14.087C7.56814 15.3799 8.24221 16.1977 9.30304 16.1977C10.7727 16.1977 12.9165 14.5567 14.6514 12.1864C14.9 12.4792 15.0382 12.8439 15.0382 13.2693C15.0382 14.0951 14.5423 14.7603 13.6948 15.126C13.3361 15.2808 13.1145 15.6843 13.2668 16.0441C13.3787 16.3086 13.6601 16.4655 13.9354 16.3837C15.4313 15.9387 16.4305 14.7231 16.4305 13.2804C16.4305 11.3908 14.8724 10.2747 12.2093 10.2747C12.0159 10.2747 11.8225 10.2857 11.6347 10.2968V9.54535H15.7067C16.0271 9.54535 16.2868 9.28561 16.2868 8.96521C16.2868 8.6448 16.0271 8.38506 15.7067 8.38506H11.6347V7.8878C11.6347 7.50942 11.3279 7.20268 10.9495 7.20268C10.5712 7.20268 10.2644 7.50942 10.2644 7.8878V8.38506H8.29193C7.97153 8.38506 7.71179 8.6448 7.71179 8.96521ZM9.513 14.9711C9.13728 14.9711 8.92733 14.6285 8.92733 14.0428C8.92733 13.1201 9.44669 12.3632 10.3086 11.8991V14.6948C9.99368 14.8716 9.72295 14.9711 9.513 14.9711ZM13.5795 11.5565C12.9552 12.3853 12.2535 13.1533 11.5905 13.7445V11.4792C11.8612 11.435 12.143 11.4129 12.4413 11.4129C12.8668 11.4129 13.248 11.4626 13.5795 11.5565Z" fill="currentColor"/>
<path fill-rule="evenodd" clip-rule="evenodd" d="M8.26189 2.60205C7.45385 2.60204 6.79299 2.60203 6.25592 2.64591C5.70001 2.69133 5.19793 2.78822 4.72904 3.02713C3.99521 3.40103 3.39859 3.99766 3.02468 4.73149C2.78577 5.20038 2.68889 5.70246 2.64347 6.25837C2.59959 6.79544 2.5996 7.45629 2.59961 8.26433V15.7398C2.5996 16.5478 2.59959 17.2087 2.64347 17.7457C2.68889 18.3016 2.78577 18.8037 3.02468 19.2726C3.39859 20.0064 3.99521 20.6031 4.72904 20.977C5.19793 21.2159 5.70001 21.3128 6.25592 21.3582C6.79299 21.4021 7.45384 21.4021 8.26189 21.4021H15.7373C16.5453 21.4021 17.2062 21.4021 17.7432 21.3582C18.2992 21.3128 18.8012 21.2159 19.2701 20.977C20.004 20.6031 20.6006 20.0064 20.9745 19.2726C21.2134 18.8037 21.3103 18.3016 21.3557 17.7457C21.3996 17.2087 21.3996 16.5478 21.3996 15.7398V8.26435C21.3996 7.4563 21.3996 6.79545 21.3557 6.25837C21.3103 5.70246 21.2134 5.20038 20.9745 4.73149C20.6006 3.99766 20.004 3.40103 19.2701 3.02713C18.8012 2.78822 18.2992 2.69133 17.7432 2.64591C17.2062 2.60203 16.5453 2.60204 15.7373 2.60205H8.26189ZM5.54622 4.63094C5.71907 4.54287 5.9579 4.47626 6.40249 4.43994C6.8576 4.40275 7.44467 4.40205 8.29959 4.40205H15.6996C16.5545 4.40205 17.1416 4.40275 17.5967 4.43994C18.0413 4.47626 18.2801 4.54287 18.4529 4.63094C18.8481 4.83227 19.1693 5.15353 19.3707 5.54867C19.4587 5.72152 19.5254 5.96035 19.5617 6.40495C19.5989 6.86005 19.5996 7.44712 19.5996 8.30205V15.7021C19.5996 16.557 19.5989 17.1441 19.5617 17.5992C19.5254 18.0438 19.4587 18.2826 19.3707 18.4554C19.1693 18.8506 18.8481 19.1718 18.4529 19.3732C18.2801 19.4612 18.0413 19.5278 17.5967 19.5642C17.1416 19.6014 16.5545 19.6021 15.6996 19.6021H8.29959C7.44467 19.6021 6.8576 19.6014 6.40249 19.5642C5.9579 19.5278 5.71907 19.4612 5.54622 19.3732C5.15108 19.1718 4.82982 18.8506 4.62849 18.4554C4.54042 18.2826 4.47381 18.0438 4.43749 17.5992C4.4003 17.1441 4.39961 16.557 4.39961 15.7021V8.30205C4.39961 7.44712 4.4003 6.86005 4.43749 6.40495C4.47381 5.96035 4.54042 5.72152 4.62849 5.54867C4.82982 5.15353 5.15108 4.83227 5.54622 4.63094Z" fill="currentColor"/>
</svg>
