<svg width="24" height="24" viewBox="0 0 24 24" fill="none" xmlns="http://www.w3.org/2000/svg">
<path d="M13.3751 8.57259C13.3751 8.26134 13.1227 8.00902 12.8115 8.00902H11.1098V7.66646C11.1098 7.26977 10.7882 6.94819 10.3915 6.94819C9.99479 6.94819 9.67321 7.26977 9.67321 7.66646V8.00902H7.97146C7.66021 8.00902 7.4079 8.26134 7.4079 8.57259C7.4079 8.88384 7.66021 9.13616 7.97146 9.13616H12.8115C13.1227 9.13616 13.3751 8.88384 13.3751 8.57259Z" fill="currentColor"/>
<path d="M15.3752 7.68303C15.3752 7.28939 15.0561 6.97029 14.6624 6.97029C14.2688 6.97029 13.9497 7.28939 13.9497 7.68303V13.7607C13.9497 14.1544 14.2688 14.4735 14.6624 14.4735C15.0561 14.4735 15.3752 14.1544 15.3752 13.7607V11.2136H16.1432C16.4697 11.2136 16.7344 10.9489 16.7344 10.6224C16.7344 10.2959 16.4697 10.0312 16.1432 10.0312H15.3752V7.68303Z" fill="currentColor"/>
<path fill-rule="evenodd" clip-rule="evenodd" d="M10.3915 9.50082C11.8501 9.50634 12.8833 10.2909 12.8889 11.4457C12.8833 12.5894 11.8501 13.374 10.3915 13.3684C8.92732 13.374 7.89964 12.5894 7.89411 11.4457C7.89964 10.2909 8.92732 9.50634 10.3915 9.50082ZM10.3915 10.5838C9.73399 10.5893 9.26435 10.8932 9.26435 11.4457C9.26435 11.9816 9.73399 12.2855 10.3915 12.2855C11.049 12.2855 11.5131 11.9816 11.5186 11.4457C11.5131 10.8932 11.049 10.5893 10.3915 10.5838Z" fill="currentColor"/>
<path d="M15.7509 16.2636C15.7509 15.9463 15.4936 15.689 15.1763 15.689H10.281V14.6227C10.281 14.229 9.96187 13.9099 9.56823 13.9099C9.1746 13.9099 8.85549 14.229 8.85549 14.6227V15.8621C8.85549 16.4012 9.29251 16.8382 9.8316 16.8382H15.1763C15.4936 16.8382 15.7509 16.581 15.7509 16.2636Z" fill="currentColor"/>
<path fill-rule="evenodd" clip-rule="evenodd" d="M8.26189 2.60205C7.45385 2.60204 6.79299 2.60203 6.25592 2.64591C5.70001 2.69133 5.19793 2.78822 4.72904 3.02713C3.99521 3.40103 3.39859 3.99766 3.02468 4.73149C2.78577 5.20038 2.68889 5.70246 2.64347 6.25837C2.59959 6.79544 2.5996 7.45629 2.59961 8.26433V15.7398C2.5996 16.5478 2.59959 17.2087 2.64347 17.7457C2.68889 18.3016 2.78577 18.8037 3.02468 19.2726C3.39859 20.0064 3.99521 20.6031 4.72904 20.977C5.19793 21.2159 5.70001 21.3128 6.25592 21.3582C6.79299 21.4021 7.45384 21.4021 8.26189 21.4021H15.7373C16.5453 21.4021 17.2062 21.4021 17.7432 21.3582C18.2992 21.3128 18.8012 21.2159 19.2701 20.977C20.004 20.6031 20.6006 20.0064 20.9745 19.2726C21.2134 18.8037 21.3103 18.3016 21.3557 17.7457C21.3996 17.2087 21.3996 16.5478 21.3996 15.7398V8.26435C21.3996 7.4563 21.3996 6.79545 21.3557 6.25837C21.3103 5.70246 21.2134 5.20038 20.9745 4.73149C20.6006 3.99766 20.004 3.40103 19.2701 3.02713C18.8012 2.78822 18.2992 2.69133 17.7432 2.64591C17.2062 2.60203 16.5453 2.60204 15.7373 2.60205H8.26189ZM5.54622 4.63094C5.71907 4.54287 5.9579 4.47626 6.40249 4.43994C6.8576 4.40275 7.44467 4.40205 8.29959 4.40205H15.6996C16.5545 4.40205 17.1416 4.40275 17.5967 4.43994C18.0413 4.47626 18.2801 4.54287 18.4529 4.63094C18.8481 4.83227 19.1693 5.15353 19.3707 5.54867C19.4587 5.72152 19.5254 5.96035 19.5617 6.40495C19.5989 6.86005 19.5996 7.44712 19.5996 8.30205V15.7021C19.5996 16.557 19.5989 17.1441 19.5617 17.5992C19.5254 18.0438 19.4587 18.2826 19.3707 18.4554C19.1693 18.8506 18.8481 19.1718 18.4529 19.3732C18.2801 19.4612 18.0413 19.5278 17.5967 19.5642C17.1416 19.6014 16.5545 19.6021 15.6996 19.6021H8.29959C7.44467 19.6021 6.8576 19.6014 6.40249 19.5642C5.9579 19.5278 5.71907 19.4612 5.54622 19.3732C5.15108 19.1718 4.82982 18.8506 4.62849 18.4554C4.54042 18.2826 4.47381 18.0438 4.43749 17.5992C4.4003 17.1441 4.39961 16.557 4.39961 15.7021V8.30205C4.39961 7.44712 4.4003 6.86005 4.43749 6.40495C4.47381 5.96035 4.54042 5.72152 4.62849 5.54867C4.82982 5.15353 5.15108 4.83227 5.54622 4.63094Z" fill="currentColor"/>
</svg>
