<svg width="24" height="24" viewBox="0 0 24 24" fill="none" xmlns="http://www.w3.org/2000/svg">
<path d="M11.0899 8.38581L14.9905 10.9211C15.061 10.9669 15.1577 11.0297 15.2379 11.0929C15.3252 11.1616 15.4977 11.3087 15.6012 11.5551C15.721 11.8401 15.721 12.1612 15.6012 12.4461C15.4977 12.6925 15.3252 12.8396 15.2379 12.9083C15.1577 12.9715 15.061 13.0343 14.9904 13.0801L11.0899 15.6154C11.0065 15.6697 10.8991 15.7396 10.8006 15.7915C10.702 15.8434 10.471 15.9576 10.1719 15.9373C9.83825 15.9146 9.53101 15.7479 9.3302 15.4805C9.15014 15.2408 9.11994 14.9849 9.10977 14.8739C9.0996 14.763 9.09968 14.6349 9.09974 14.5353V9.46586C9.09968 9.36635 9.0996 9.2382 9.10977 9.12731C9.11994 9.01635 9.15014 8.76043 9.3302 8.52068C9.53101 8.2533 9.83825 8.08656 10.1719 8.06392C10.471 8.04361 10.702 8.15776 10.8006 8.20971C10.8991 8.26162 11.0065 8.33152 11.0899 8.38581Z" fill="currentColor"/>
<path fill-rule="evenodd" clip-rule="evenodd" d="M8.26191 2.59961C7.45386 2.5996 6.793 2.59959 6.25593 2.64347C5.70001 2.68889 5.19794 2.78577 4.72905 3.02468C3.99522 3.39859 3.39859 3.99522 3.02468 4.72905C2.78577 5.19794 2.68889 5.70001 2.64347 6.25593C2.59959 6.793 2.5996 7.45384 2.59961 8.26189V15.7373C2.5996 16.5454 2.59959 17.2062 2.64347 17.7433C2.68889 18.2992 2.78577 18.8013 3.02468 19.2702C3.39859 20.004 3.99522 20.6006 4.72905 20.9745C5.19794 21.2134 5.70001 21.3103 6.25593 21.3557C6.793 21.3996 7.45385 21.3996 8.26191 21.3996H15.7373C16.5453 21.3996 17.2062 21.3996 17.7432 21.3557C18.2991 21.3103 18.8012 21.2134 19.2701 20.9745C20.0039 20.6006 20.6006 20.004 20.9745 19.2702C21.2134 18.8013 21.3103 18.2992 21.3557 17.7433C21.3996 17.2062 21.3996 16.5454 21.3995 15.7373V8.26191C21.3996 7.45385 21.3996 6.793 21.3557 6.25593C21.3103 5.70001 21.2134 5.19794 20.9745 4.72905C20.6006 3.99522 20.0039 3.39859 19.2701 3.02468C18.8012 2.78577 18.2991 2.68889 17.7432 2.64347C17.2062 2.59959 16.5453 2.5996 15.7373 2.59961H8.26191ZM5.54623 4.6285C5.71908 4.54043 5.95791 4.47382 6.4025 4.43749C6.85761 4.40031 7.44468 4.39961 8.29961 4.39961H15.6995C16.5545 4.39961 17.1415 4.40031 17.5967 4.43749C18.0413 4.47382 18.2801 4.54043 18.4529 4.6285C18.8481 4.82983 19.1693 5.15109 19.3707 5.54623C19.4587 5.71908 19.5253 5.95791 19.5617 6.4025C19.5988 6.85761 19.5995 7.44468 19.5995 8.29961V15.6996C19.5995 16.5545 19.5988 17.1416 19.5617 17.5967C19.5253 18.0413 19.4587 18.2801 19.3707 18.453C19.1693 18.8481 18.8481 19.1694 18.4529 19.3707C18.2801 19.4588 18.0413 19.5254 17.5967 19.5617C17.1415 19.5989 16.5545 19.5996 15.6995 19.5996H8.29961C7.44468 19.5996 6.85761 19.5989 6.4025 19.5617C5.95791 19.5254 5.71908 19.4588 5.54623 19.3707C5.15109 19.1694 4.82983 18.8481 4.6285 18.453C4.54043 18.2801 4.47382 18.0413 4.43749 17.5967C4.40031 17.1416 4.39961 16.5545 4.39961 15.6996V8.29961C4.39961 7.44468 4.40031 6.85761 4.43749 6.4025C4.47382 5.95791 4.54043 5.71908 4.6285 5.54623C4.82983 5.15109 5.15109 4.82983 5.54623 4.6285Z" fill="currentColor"/>
</svg>
