<svg width="24" height="24" viewBox="0 0 24 24" fill="none" xmlns="http://www.w3.org/2000/svg">
<path d="M15.7002 2.60132C16.5249 2.60132 17.198 2.60075 17.7432 2.64526C18.2989 2.6907 18.8017 2.78825 19.2705 3.0271L19.5391 3.17749C20.1497 3.55218 20.6475 4.08931 20.9746 4.7312L21.0576 4.90894C21.2366 5.32645 21.3167 5.77156 21.3564 6.25757C21.401 6.80286 21.4004 7.47659 21.4004 8.30151V15.7019C21.4004 16.5269 21.401 17.2006 21.3564 17.7458C21.311 18.3015 21.2134 18.8035 20.9746 19.2722C20.6475 19.9142 20.1498 20.4513 19.5391 20.8259L19.2705 20.9763C18.8017 21.2152 18.2989 21.3127 17.7432 21.3582C17.198 21.4027 16.5249 21.4021 15.7002 21.4021H8.29981C7.47488 21.4021 6.80115 21.4027 6.25586 21.3582C5.76985 21.3184 5.32474 21.2383 4.90723 21.0593L4.72949 20.9763C4.0876 20.6492 3.55047 20.1514 3.17578 19.5408L3.02539 19.2722C2.7866 18.8036 2.689 18.3014 2.64356 17.7458C2.599 17.2006 2.59961 16.5269 2.59961 15.7019V8.30151C2.59961 7.47655 2.59903 6.80287 2.64356 6.25757C2.68898 5.70189 2.7866 5.19993 3.02539 4.7312C3.39929 3.99744 3.99573 3.40099 4.72949 3.0271C5.19822 2.78831 5.70018 2.69069 6.25586 2.64526C6.80116 2.60074 7.47485 2.60132 8.29981 2.60132H15.7002ZM11.9932 7.49683C11.4652 7.49692 10.992 7.82231 10.8027 8.31519L8.08301 15.3982C7.87935 15.9289 8.27132 16.4988 8.83984 16.4988C9.18331 16.4985 9.48932 16.2817 9.60352 15.9578L10.1846 14.3103H13.8154L14.3965 15.9617C14.51 16.2834 14.8141 16.4986 15.1553 16.4988C15.7194 16.4985 16.109 15.9327 15.9072 15.406L13.1846 8.31519C12.9953 7.82235 12.521 7.497 11.9932 7.49683ZM12.0244 9.26245L13.293 12.8181H10.7188L11.9619 9.26245H12.0244Z" fill="currentColor"/>
</svg>
