<svg width="24" height="24" viewBox="0 0 24 24" fill="none" xmlns="http://www.w3.org/2000/svg">
<path fill-rule="evenodd" clip-rule="evenodd" d="M16.5904 9.34748C16.5904 9.00691 16.3143 8.73083 15.9738 8.73083H12.6418V7.83437C12.6418 7.47091 12.3472 7.17627 11.9837 7.17627C11.6203 7.17627 11.3256 7.47091 11.3256 7.83437V8.73083H8.0766C7.73604 8.73083 7.45996 9.00691 7.45996 9.34748C7.45996 9.68804 7.73604 9.96412 8.0766 9.96412H8.89016C9.41353 11.4047 10.0872 12.638 10.9733 13.6433C10.1761 14.2442 9.24674 14.7161 8.16988 15.0769C7.73962 15.221 7.51314 15.6855 7.76301 16.0643C7.9355 16.3258 8.29884 16.5104 8.5944 16.4067C9.8737 15.9578 10.9844 15.3675 11.9371 14.6071C12.8705 15.3919 13.9996 15.9978 15.3691 16.4098C15.6548 16.4958 15.9957 16.3238 16.1737 16.0843C16.4691 15.6867 16.2329 15.1505 15.7615 14.9982C14.7014 14.6558 13.789 14.1838 13.0149 13.5914C13.9114 12.6069 14.6265 11.4099 15.1602 9.96412H15.9738C16.3143 9.96412 16.5904 9.68804 16.5904 9.34748ZM12.02 12.7002C11.2738 11.9177 10.709 10.9953 10.2996 9.96412H13.6575C13.2481 11.042 12.704 11.9436 12.02 12.7002Z" fill="currentColor"/>
<path fill-rule="evenodd" clip-rule="evenodd" d="M8.26189 2.60107C7.45384 2.60107 6.79299 2.60106 6.25592 2.64494C5.70001 2.69036 5.19793 2.78724 4.72904 3.02615C3.99521 3.40006 3.39859 3.99668 3.02468 4.73051C2.78577 5.1994 2.68889 5.70148 2.64347 6.25739C2.59959 6.79447 2.5996 7.45531 2.59961 8.26335V15.7388C2.5996 16.5468 2.59959 17.2077 2.64347 17.7448C2.68889 18.3007 2.78577 18.8027 3.02468 19.2716C3.39859 20.0055 3.99521 20.6021 4.72904 20.976C5.19793 21.2149 5.70001 21.3118 6.25592 21.3572C6.79299 21.4011 7.45384 21.4011 8.26189 21.4011H15.7373C16.5453 21.4011 17.2062 21.4011 17.7432 21.3572C18.2992 21.3118 18.8012 21.2149 19.2701 20.976C20.004 20.6021 20.6006 20.0055 20.9745 19.2716C21.2134 18.8027 21.3103 18.3007 21.3557 17.7448C21.3996 17.2077 21.3996 16.5468 21.3996 15.7388V8.26337C21.3996 7.45532 21.3996 6.79447 21.3557 6.25739C21.3103 5.70148 21.2134 5.1994 20.9745 4.73051C20.6006 3.99668 20.004 3.40006 19.2701 3.02615C18.8012 2.78724 18.2992 2.69036 17.7432 2.64494C17.2062 2.60106 16.5453 2.60106 15.7373 2.60107H8.26189ZM5.54622 4.62996C5.71907 4.54189 5.9579 4.47528 6.40249 4.43896C6.8576 4.40177 7.44467 4.40107 8.29959 4.40107H15.6996C16.5545 4.40107 17.1416 4.40177 17.5967 4.43896C18.0413 4.47528 18.2801 4.54189 18.4529 4.62996C18.8481 4.8313 19.1693 5.15255 19.3707 5.54769C19.4587 5.72054 19.5254 5.95937 19.5617 6.40397C19.5989 6.85908 19.5996 7.44615 19.5996 8.30108V15.7011C19.5996 16.556 19.5989 17.1431 19.5617 17.5982C19.5254 18.0428 19.4587 18.2816 19.3707 18.4545C19.1693 18.8496 18.8481 19.1709 18.4529 19.3722C18.2801 19.4603 18.0413 19.5269 17.5967 19.5632C17.1416 19.6004 16.5545 19.6011 15.6996 19.6011H8.29959C7.44467 19.6011 6.8576 19.6004 6.40249 19.5632C5.9579 19.5269 5.71907 19.4603 5.54622 19.3722C5.15108 19.1709 4.82982 18.8496 4.62849 18.4545C4.54042 18.2816 4.47381 18.0428 4.43749 17.5982C4.4003 17.1431 4.39961 16.556 4.39961 15.7011V8.30107C4.39961 7.44615 4.4003 6.85908 4.43749 6.40397C4.47381 5.95937 4.54042 5.72054 4.62849 5.54769C4.82982 5.15255 5.15108 4.8313 5.54622 4.62996Z" fill="currentColor"/>
</svg>
