<svg width="24" height="24" viewBox="0 0 24 24" fill="none" xmlns="http://www.w3.org/2000/svg">
<path d="M12.8993 8.00049C12.8993 7.50343 12.4964 7.10049 11.9993 7.10049C11.5023 7.10049 11.0993 7.50343 11.0993 8.00049V11.1005H7.99931C7.50226 11.1005 7.09931 11.5034 7.09931 12.0005C7.09931 12.4975 7.50226 12.9005 7.99931 12.9005H11.0993V16.0005C11.0993 16.4976 11.5023 16.9005 11.9993 16.9005C12.4964 16.9005 12.8993 16.4976 12.8993 16.0005V12.9005H15.9993C16.4964 12.9005 16.8993 12.4975 16.8993 12.0005C16.8993 11.5034 16.4964 11.1005 15.9993 11.1005H12.8993V8.00049Z" fill="currentColor"/>
<path fill-rule="evenodd" clip-rule="evenodd" d="M8.26191 2.60205C7.45386 2.60204 6.793 2.60203 6.25593 2.64591C5.70001 2.69133 5.19794 2.78822 4.72905 3.02713C3.99522 3.40103 3.39859 3.99766 3.02468 4.73149C2.78577 5.20038 2.68889 5.70246 2.64347 6.25837C2.59959 6.79544 2.5996 7.45629 2.59961 8.26433V15.7398C2.5996 16.5478 2.59959 17.2087 2.64347 17.7457C2.68889 18.3016 2.78577 18.8037 3.02468 19.2726C3.39859 20.0064 3.99522 20.6031 4.72905 20.977C5.19794 21.2159 5.70001 21.3128 6.25593 21.3582C6.793 21.4021 7.45385 21.4021 8.26191 21.4021H15.7373C16.5454 21.4021 17.2062 21.4021 17.7433 21.3582C18.2992 21.3128 18.8013 21.2159 19.2702 20.977C20.004 20.6031 20.6006 20.0064 20.9745 19.2726C21.2134 18.8037 21.3103 18.3016 21.3557 17.7457C21.3996 17.2087 21.3996 16.5478 21.3996 15.7398V8.26435C21.3996 7.4563 21.3996 6.79545 21.3557 6.25837C21.3103 5.70246 21.2134 5.20038 20.9745 4.73149C20.6006 3.99766 20.004 3.40103 19.2702 3.02713C18.8013 2.78822 18.2992 2.69133 17.7433 2.64591C17.2062 2.60203 16.5454 2.60204 15.7373 2.60205H8.26191ZM5.54623 4.63094C5.71908 4.54287 5.95791 4.47626 6.4025 4.43994C6.85761 4.40275 7.44468 4.40205 8.29961 4.40205H15.6996C16.5545 4.40205 17.1416 4.40275 17.5967 4.43994C18.0413 4.47626 18.2801 4.54287 18.453 4.63094C18.8481 4.83227 19.1694 5.15353 19.3707 5.54867C19.4588 5.72152 19.5254 5.96035 19.5617 6.40495C19.5989 6.86005 19.5996 7.44712 19.5996 8.30205V15.7021C19.5996 16.557 19.5989 17.1441 19.5617 17.5992C19.5254 18.0438 19.4588 18.2826 19.3707 18.4554C19.1694 18.8506 18.8481 19.1718 18.453 19.3732C18.2801 19.4612 18.0413 19.5278 17.5967 19.5642C17.1416 19.6014 16.5545 19.6021 15.6996 19.6021H8.29961C7.44468 19.6021 6.85761 19.6014 6.4025 19.5642C5.95791 19.5278 5.71908 19.4612 5.54623 19.3732C5.15109 19.1718 4.82983 18.8506 4.6285 18.4554C4.54043 18.2826 4.47382 18.0438 4.43749 17.5992C4.40031 17.1441 4.39961 16.557 4.39961 15.7021V8.30205C4.39961 7.44712 4.40031 6.86005 4.43749 6.40495C4.47382 5.96035 4.54043 5.72152 4.6285 5.54867C4.82983 5.15353 5.15109 4.83227 5.54623 4.63094Z" fill="currentColor"/>
</svg>
