<svg width="24" height="24" viewBox="0 0 24 24" fill="none" xmlns="http://www.w3.org/2000/svg">
<path d="M8.26189 2.6001C7.45384 2.60009 6.79299 2.60008 6.25591 2.64396C5.7 2.68938 5.19793 2.78626 4.72904 3.02517C3.99521 3.39908 3.39859 3.9957 3.02468 4.72954C2.78577 5.19842 2.68889 5.7005 2.64347 6.25642C2.59959 6.79349 2.5996 7.45434 2.59961 8.26239V15.7378C2.5996 16.5458 2.59959 17.2067 2.64347 17.7438C2.68889 18.2997 2.78577 18.8018 3.02468 19.2707C3.39859 20.0045 3.99521 20.6011 4.72904 20.975C5.19793 21.2139 5.7 21.3108 6.25591 21.3562C6.79299 21.4001 7.45383 21.4001 8.26188 21.4001H15.7373C16.5453 21.4001 17.2062 21.4001 17.7432 21.3562C18.2991 21.3108 18.8012 21.2139 19.2701 20.975C20.0039 20.6011 20.6006 20.0045 20.9745 19.2707C21.2134 18.8018 21.3103 18.2997 21.3557 17.7438C21.3996 17.2067 21.3995 16.5459 21.3995 15.7378V8.26239C21.3995 7.45434 21.3996 6.79349 21.3557 6.25642C21.3103 5.7005 21.2134 5.19842 20.9745 4.72954C20.6006 3.9957 20.0039 3.39908 19.2701 3.02517C18.8012 2.78626 18.2991 2.68938 17.7432 2.64396C17.2062 2.60008 16.5453 2.60009 15.7373 2.6001H8.26189Z" fill="currentColor"/>
</svg>
