<svg width="24" height="24" viewBox="0 0 24 24" fill="none" xmlns="http://www.w3.org/2000/svg">
<path d="M16.6458 9.87604C16.9915 9.51888 16.9822 8.94911 16.6251 8.60341C16.2679 8.25772 15.6981 8.26701 15.3524 8.62416L10.6765 13.4551L8.64666 11.3523C8.30145 10.9947 7.73169 10.9846 7.37407 11.3298C7.01644 11.675 7.00638 12.2448 7.35159 12.6024L10.0281 15.3752C10.1975 15.5507 10.431 15.6499 10.675 15.6501C10.919 15.6503 11.1526 15.5514 11.3223 15.376L16.6458 9.87604Z" fill="currentColor"/>
<path fill-rule="evenodd" clip-rule="evenodd" d="M8.26191 2.6001C7.45387 2.60009 6.793 2.60008 6.25593 2.64396C5.70001 2.68938 5.19794 2.78626 4.72905 3.02517C3.99522 3.39908 3.39859 3.9957 3.02468 4.72954C2.78577 5.19842 2.68889 5.7005 2.64347 6.25642C2.59959 6.79349 2.5996 7.45433 2.59961 8.26237V15.7378C2.5996 16.5458 2.59959 17.2067 2.64347 17.7438C2.68889 18.2997 2.78577 18.8018 3.02468 19.2707C3.39859 20.0045 3.99522 20.6011 4.72905 20.975C5.19794 21.2139 5.70001 21.3108 6.25593 21.3562C6.793 21.4001 7.45385 21.4001 8.26191 21.4001H15.7373C16.5454 21.4001 17.2062 21.4001 17.7433 21.3562C18.2992 21.3108 18.8013 21.2139 19.2702 20.975C20.004 20.6011 20.6006 20.0045 20.9745 19.2707C21.2134 18.8018 21.3103 18.2997 21.3557 17.7438C21.3996 17.2067 21.3996 16.5459 21.3996 15.7378V8.26239C21.3996 7.45434 21.3996 6.79349 21.3557 6.25642C21.3103 5.7005 21.2134 5.19842 20.9745 4.72954C20.6006 3.9957 20.004 3.39908 19.2702 3.02517C18.8013 2.78626 18.2992 2.68938 17.7433 2.64396C17.2062 2.60008 16.5454 2.60009 15.7373 2.6001H8.26191ZM5.54623 4.62898C5.71908 4.54092 5.95791 4.47431 6.4025 4.43798C6.85761 4.4008 7.44468 4.4001 8.29961 4.4001H15.6996C16.5545 4.4001 17.1416 4.4008 17.5967 4.43798C18.0413 4.47431 18.2801 4.54092 18.453 4.62898C18.8481 4.83032 19.1694 5.15158 19.3707 5.54672C19.4588 5.71957 19.5254 5.95839 19.5617 6.40299C19.5989 6.8581 19.5996 7.44517 19.5996 8.3001V15.7001C19.5996 16.555 19.5989 17.1421 19.5617 17.5972C19.5254 18.0418 19.4588 18.2806 19.3707 18.4535C19.1694 18.8486 18.8481 19.1699 18.453 19.3712C18.2801 19.4593 18.0413 19.5259 17.5967 19.5622C17.1416 19.5994 16.5545 19.6001 15.6996 19.6001H8.29961C7.44468 19.6001 6.85761 19.5994 6.4025 19.5622C5.95791 19.5259 5.71908 19.4593 5.54623 19.3712C5.15109 19.1699 4.82983 18.8486 4.6285 18.4535C4.54043 18.2806 4.47382 18.0418 4.43749 17.5972C4.40031 17.1421 4.39961 16.555 4.39961 15.7001V8.3001C4.39961 7.44517 4.40031 6.8581 4.43749 6.40299C4.47382 5.95839 4.54043 5.71957 4.6285 5.54672C4.82983 5.15158 5.15109 4.83032 5.54623 4.62898Z" fill="currentColor"/>
</svg>
