<svg width="24" height="24" viewBox="0 0 24 24" fill="none" xmlns="http://www.w3.org/2000/svg">
<path fill-rule="evenodd" clip-rule="evenodd" d="M11.1377 1.40824C11.6791 1.1328 12.3195 1.1328 12.8609 1.40824C13.2953 1.62929 13.5448 2.03942 13.7111 2.35692C13.8868 2.69214 14.0734 3.14091 14.2915 3.66517L15.4968 6.56307C15.5691 6.73693 15.6082 6.82994 15.6409 6.89672C15.6508 6.91684 15.6576 6.92928 15.6615 6.93609C15.6675 6.94172 15.6742 6.94659 15.6815 6.95057C15.6891 6.9522 15.7031 6.95483 15.7253 6.958C15.7989 6.96851 15.8994 6.97697 16.0871 6.99201L19.2156 7.24282C19.7816 7.28818 20.2661 7.327 20.6392 7.39046C20.9926 7.45055 21.4597 7.56107 21.8042 7.90595C22.2334 8.33571 22.4313 8.94481 22.3367 9.5448C22.2607 10.0263 21.9477 10.3903 21.6972 10.6466C21.4326 10.9173 21.0635 11.2334 20.6322 11.6028L18.2487 13.6446C18.1057 13.7671 18.0293 13.833 17.9759 13.8848C17.9598 13.9004 17.9501 13.9107 17.9448 13.9166C17.9413 13.924 17.9388 13.9319 17.9372 13.94C17.9381 13.9478 17.9399 13.9619 17.9437 13.984C17.9565 14.0573 17.9795 14.1555 18.0232 14.3386L18.7514 17.3915C18.8832 17.9438 18.996 18.4166 19.0509 18.791C19.1029 19.1457 19.1422 19.6241 18.9206 20.0583C18.6446 20.5994 18.1264 20.9758 17.5266 21.0712C17.0451 21.1477 16.6023 20.9625 16.2811 20.8035C15.942 20.6355 15.5272 20.3822 15.0427 20.0862L12.3642 18.4502C12.2035 18.352 12.1172 18.2998 12.0514 18.265C12.0316 18.2545 12.0188 18.2484 12.0116 18.2452C12.0034 18.2442 11.9952 18.2442 11.987 18.2452C11.9798 18.2484 11.967 18.2545 11.9472 18.265C11.8814 18.2998 11.7951 18.352 11.6344 18.4502L8.95601 20.0861C8.47145 20.3821 8.05667 20.6355 7.71752 20.8035C7.39633 20.9625 6.95344 21.1477 6.47203 21.0712C5.87215 20.9758 5.35402 20.5994 5.07795 20.0583C4.85639 19.6241 4.89564 19.1457 4.94768 18.791C5.00263 18.4166 5.11542 17.9438 5.24719 17.3915L5.97541 14.3386C6.01909 14.1555 6.04212 14.0573 6.05488 13.984C6.05872 13.9619 6.06053 13.9478 6.06136 13.94C6.05979 13.9319 6.05724 13.924 6.05374 13.9166C6.04848 13.9107 6.03875 13.9004 6.02266 13.8848C5.96927 13.833 5.8929 13.7671 5.7499 13.6446L3.36634 11.6028C2.93513 11.2335 2.56594 10.9172 2.3014 10.6466C2.05085 10.3903 1.73789 10.0263 1.66191 9.5448C1.56724 8.94481 1.76515 8.33571 2.19441 7.90595C2.53889 7.56107 3.00603 7.45055 3.35939 7.39046C3.73249 7.327 4.21698 7.28818 4.78298 7.24282L7.91145 6.99201C8.09914 6.97697 8.19969 6.96851 8.27332 6.958C8.29551 6.95483 8.30944 6.9522 8.31712 6.95057C8.32434 6.94659 8.33104 6.94172 8.33706 6.93609C8.34098 6.92928 8.34779 6.91684 8.35766 6.89672C8.39041 6.82994 8.42952 6.73692 8.50183 6.56307L9.7071 3.66525C9.92513 3.14098 10.1118 2.69214 10.2874 2.35692C10.4538 2.03942 10.7032 1.62929 11.1377 1.40824ZM11.9414 3.01802C11.9338 3.02282 11.9203 3.03266 11.9069 3.06482L10.023 7.59427C9.74942 8.25211 9.13077 8.70159 8.42057 8.75853L3.53067 9.15055C3.49595 9.15334 3.48244 9.16309 3.47552 9.16884C3.46479 9.17775 3.45162 9.1945 3.44355 9.21933C3.43548 9.24417 3.43629 9.26545 3.43973 9.27897C3.44195 9.28769 3.44715 9.30352 3.4736 9.32618L7.19919 12.5176C7.74029 12.9811 7.97659 13.7083 7.81128 14.4014L6.67305 19.1731C6.66497 19.207 6.67007 19.2228 6.6734 19.2312C6.67856 19.2442 6.69042 19.2619 6.71154 19.2772C6.73267 19.2926 6.75316 19.2984 6.76709 19.2993C6.77606 19.2999 6.79273 19.2998 6.82245 19.2817L11.0089 16.7246C11.6169 16.3532 12.3816 16.3532 12.9896 16.7246L17.1761 19.2817C17.2058 19.2998 17.2225 19.2999 17.2314 19.2993C17.2454 19.2984 17.2659 19.2926 17.287 19.2772C17.3081 19.2619 17.32 19.2442 17.3251 19.2312C17.3285 19.2228 17.3336 19.207 17.3255 19.1731L16.1872 14.4014C16.0219 13.7083 16.2582 12.9811 16.7993 12.5176L20.5249 9.32618C20.5514 9.30352 20.5566 9.28769 20.5588 9.27897C20.5622 9.26545 20.563 9.24417 20.555 9.21933C20.5469 9.19449 20.5337 9.17775 20.523 9.16883C20.5161 9.16309 20.5026 9.15334 20.4679 9.15055L15.578 8.75853C14.8678 8.70159 14.2491 8.25211 13.9755 7.59427L12.0916 3.06482C12.0782 3.03266 12.0648 3.02283 12.0572 3.01802C12.0454 3.01056 12.0254 3.00322 11.9993 3.00322C11.9731 3.00322 11.9532 3.01056 11.9414 3.01802Z" fill="currentColor"/>
</svg>
