<svg width="24" height="24" viewBox="0 0 24 24" fill="none" xmlns="http://www.w3.org/2000/svg">
<path d="M12.8609 1.40824C12.3195 1.1328 11.6791 1.1328 11.1377 1.40824C10.7033 1.62929 10.4538 2.03942 10.2874 2.35692C10.1118 2.69214 9.92517 3.14091 9.70714 3.66518L8.50184 6.56307C8.42953 6.73692 8.39041 6.82994 8.35767 6.89672C8.3478 6.91684 8.34099 6.92928 8.33707 6.93609C8.33104 6.94172 8.32435 6.94659 8.31713 6.95057C8.30944 6.9522 8.29551 6.95483 8.27332 6.958C8.19969 6.96851 8.09914 6.97697 7.91146 6.99201L4.78299 7.24282C4.21698 7.28818 3.7325 7.327 3.35939 7.39046C3.00603 7.45055 2.53889 7.56107 2.19441 7.90595C1.76515 8.33571 1.56724 8.94481 1.66191 9.5448C1.73789 10.0263 2.05085 10.3903 2.3014 10.6466C2.56595 10.9173 2.93508 11.2334 3.36632 11.6028L5.7499 13.6446C5.8929 13.7671 5.96927 13.833 6.02267 13.8848C6.03876 13.9004 6.04848 13.9107 6.05374 13.9166C6.05724 13.924 6.0598 13.9319 6.06136 13.94C6.06053 13.9478 6.05873 13.9619 6.05488 13.984C6.04213 14.0573 6.0191 14.1555 5.97541 14.3386L5.2472 17.3915C5.11543 17.9438 5.00263 18.4166 4.94768 18.791C4.89564 19.1457 4.8564 19.6241 5.07795 20.0583C5.35403 20.5994 5.87215 20.9758 6.47204 21.0712C6.95345 21.1477 7.39633 20.9625 7.71753 20.8035C8.05668 20.6355 8.47146 20.3821 8.95602 20.0861L11.6344 18.4502C11.7951 18.352 11.8814 18.2998 11.9472 18.265C11.967 18.2545 11.9798 18.2484 11.987 18.2452C11.9952 18.2442 12.0034 18.2442 12.0116 18.2452C12.0188 18.2484 12.0316 18.2545 12.0514 18.265C12.1172 18.2998 12.2035 18.352 12.3642 18.4502L15.0426 20.0862C15.5271 20.3821 15.942 20.6355 16.2811 20.8035C16.6023 20.9625 17.0452 21.1477 17.5266 21.0712C18.1265 20.9758 18.6446 20.5994 18.9207 20.0583C19.1422 19.6241 19.103 19.1457 19.0509 18.791C18.996 18.4166 18.8832 17.9438 18.7514 17.3915L18.0232 14.3386C17.9795 14.1555 17.9565 14.0573 17.9437 13.984C17.9399 13.9619 17.9381 13.9478 17.9372 13.94C17.9388 13.9319 17.9414 13.924 17.9449 13.9166C17.9501 13.9107 17.9598 13.9004 17.9759 13.8848C18.0293 13.833 18.1057 13.7671 18.2487 13.6446L20.6323 11.6028C21.0635 11.2334 21.4326 10.9173 21.6972 10.6466C21.9477 10.3903 22.2607 10.0263 22.3367 9.5448C22.4314 8.94481 22.2335 8.33571 21.8042 7.90595C21.4597 7.56107 20.9926 7.45055 20.6392 7.39046C20.2661 7.327 19.7816 7.28818 19.2156 7.24282L16.0871 6.99201C15.8995 6.97697 15.7989 6.96851 15.7253 6.958C15.7031 6.95483 15.6892 6.9522 15.6815 6.95057C15.6743 6.94659 15.6676 6.94172 15.6615 6.93609C15.6576 6.92928 15.6508 6.91684 15.6409 6.89672C15.6082 6.82994 15.5691 6.73693 15.4968 6.56307L14.2915 3.66522C14.0734 3.14094 13.8868 2.69215 13.7112 2.35692C13.5448 2.03942 13.2954 1.62929 12.8609 1.40824Z" fill="currentColor"/>
</svg>
