<svg width="24" height="24" viewBox="0 0 24 24" fill="none" xmlns="http://www.w3.org/2000/svg">
<path d="M14.0254 11.625C14.5223 11.6252 14.9258 12.0285 14.9258 12.5254C14.9255 13.0221 14.5221 13.4256 14.0254 13.4258H10.0254C9.5285 13.4258 9.12527 13.0222 9.125 12.5254C9.125 12.0283 9.52834 11.625 10.0254 11.625H14.0254Z" fill="currentColor"/>
<path fill-rule="evenodd" clip-rule="evenodd" d="M17.3252 2.625C17.8701 2.625 18.3334 2.62438 18.7119 2.65527C19.1009 2.68708 19.48 2.75712 19.8418 2.94141C20.3873 3.21945 20.8314 3.66346 21.1094 4.20899C21.2936 4.57074 21.3637 4.94991 21.3955 5.33887C21.4264 5.71738 21.4258 6.18075 21.4258 6.72559V17.3252C21.4258 17.8701 21.4264 18.3334 21.3955 18.7119C21.3637 19.1009 21.2937 19.48 21.1094 19.8418C20.8314 20.3873 20.3873 20.8314 19.8418 21.1094C19.48 21.2937 19.1009 21.3637 18.7119 21.3955C18.3334 21.4264 17.87 21.4258 17.3252 21.4258H6.72559C6.18076 21.4258 5.71738 21.4264 5.33887 21.3955C4.94992 21.3637 4.57074 21.2936 4.20899 21.1094C3.66345 20.8314 3.21945 20.3873 2.94141 19.8418C2.75711 19.48 2.68708 19.1009 2.65527 18.7119C2.62438 18.3334 2.625 17.8701 2.625 17.3252V6.72559C2.625 6.18072 2.62439 5.71739 2.65527 5.33887C2.68706 4.94981 2.7571 4.57083 2.94141 4.20899C3.21943 3.66333 3.66333 3.21944 4.20899 2.94141C4.57081 2.75713 4.94984 2.68706 5.33887 2.65527C5.71739 2.6244 6.18074 2.625 6.72559 2.625H17.3252ZM4.42481 17.7256C4.42481 18.539 4.43586 18.7338 4.47852 18.8652C4.58736 19.1998 4.85005 19.4624 5.18457 19.5713C5.31605 19.614 5.51037 19.625 6.32422 19.625H17.7246C18.5377 19.625 18.7328 19.6138 18.8643 19.5713C19.1989 19.4625 19.4614 19.1998 19.5703 18.8652C19.613 18.7338 19.624 18.5393 19.624 17.7256V9.92481H4.42481V17.7256ZM6.32422 4.42578C5.51032 4.42579 5.31605 4.43677 5.18457 4.47949C4.85004 4.58842 4.58728 4.85094 4.47852 5.18555C4.43596 5.31704 4.42481 5.51228 4.42481 6.3252V8.12402H19.624V6.3252C19.624 5.51183 19.6129 5.31704 19.5703 5.18555C19.4615 4.8508 19.199 4.58828 18.8643 4.47949C18.7328 4.43688 18.5381 4.42578 17.7246 4.42578H6.32422Z" fill="currentColor"/>
</svg>
