<svg width="24" height="24" viewBox="0 0 24 24" fill="none" xmlns="http://www.w3.org/2000/svg">
<path d="M6.7732 18.4636C8.14077 20.0653 9.81767 20.8289 11.9978 20.8289C15.5201 20.8289 17.8683 18.8094 17.8683 15.7568C17.8683 14.6108 17.5459 13.6749 16.8521 12.9H20.4995C20.9966 12.9 21.3995 12.4971 21.3995 12C21.3995 11.5029 20.9966 11.1 20.4995 11.1H13.8678C13.506 10.9702 13.1178 10.8476 12.7023 10.7316L11.8569 10.4968C9.62615 9.88626 8.85124 9.22876 8.85124 7.93725C8.85124 6.27003 10.1193 5.1429 11.9978 5.1429C13.2411 5.1429 14.3483 5.64157 15.2226 6.59042C15.598 6.9978 16.2022 7.15553 16.6816 6.87798C17.1893 6.58402 17.3583 5.92143 16.9767 5.47576C15.7215 4.00984 13.9436 3.17041 11.9978 3.17041C8.94517 3.17041 6.73787 5.18986 6.73787 7.93725C6.73787 9.26788 7.24987 10.2998 8.34589 11.1H3.49961C3.00255 11.1 2.59961 11.5029 2.59961 12C2.59961 12.4971 3.00255 12.9 3.49961 12.9H13.0043C15.0216 13.5863 15.7549 14.3874 15.7549 15.7568C15.7549 17.6823 14.3225 18.8564 11.9978 18.8564C10.5407 18.8564 9.46932 18.3902 8.47786 17.2849C8.10796 16.8726 7.49734 16.7417 7.02973 17.0387C6.53573 17.3525 6.3932 18.0185 6.7732 18.4636Z" fill="currentColor"/>
</svg>
