<svg width="24" height="24" viewBox="0 0 24 24" fill="none" xmlns="http://www.w3.org/2000/svg">
<path d="M11.0996 22.0001C11.0996 22.4972 11.5026 22.9001 11.9996 22.9001C12.4967 22.9001 12.8996 22.4972 12.8996 22.0001V20.0001C12.8996 19.503 12.4967 19.1001 11.9996 19.1001C11.5026 19.1001 11.0996 19.503 11.0996 20.0001V22.0001Z" fill="currentColor"/>
<path d="M11.0996 4.0001C11.0996 4.49715 11.5026 4.9001 11.9996 4.9001C12.4967 4.9001 12.8996 4.49715 12.8996 4.0001V2.0001C12.8996 1.50304 12.4967 1.1001 11.9996 1.1001C11.5026 1.1001 11.0996 1.50304 11.0996 2.0001V4.0001Z" fill="currentColor"/>
<path fill-rule="evenodd" clip-rule="evenodd" d="M6.59951 11.9973C6.59951 9.01493 9.01717 6.59726 11.9995 6.59726C14.9818 6.59726 17.3995 9.01493 17.3995 11.9973C17.3995 14.9796 14.9818 17.3973 11.9995 17.3973C9.01717 17.3973 6.59951 14.9796 6.59951 11.9973ZM11.9995 8.39726C10.0113 8.39726 8.39951 10.009 8.39951 11.9973C8.39951 13.9855 10.0113 15.5973 11.9995 15.5973C13.9877 15.5973 15.5995 13.9855 15.5995 11.9973C15.5995 10.009 13.9877 8.39726 11.9995 8.39726Z" fill="currentColor"/>
<path d="M1.09961 11.9999C1.09961 11.5029 1.50255 11.0999 1.99961 11.0999H3.99961C4.49667 11.0999 4.89961 11.5029 4.89961 11.9999C4.89961 12.497 4.49667 12.8999 3.99961 12.8999H1.99961C1.50255 12.8999 1.09961 12.497 1.09961 11.9999Z" fill="currentColor"/>
<path d="M19.0996 11.9999C19.0996 11.5029 19.5026 11.0999 19.9996 11.0999H21.9996C22.4967 11.0999 22.8996 11.5029 22.8996 11.9999C22.8996 12.497 22.4967 12.8999 21.9996 12.8999H19.9996C19.5026 12.8999 19.0996 12.497 19.0996 11.9999Z" fill="currentColor"/>
<path d="M4.29217 19.7075C3.9407 19.356 3.9407 18.7861 4.29217 18.4347L5.70638 17.0205C6.05786 16.669 6.6277 16.669 6.97918 17.0205C7.33065 17.3719 7.33065 17.9418 6.97918 18.2933L5.56496 19.7075C5.21349 20.0589 4.64364 20.0589 4.29217 19.7075Z" fill="currentColor"/>
<path d="M17.0201 6.97954C16.6686 6.62807 16.6686 6.05822 17.0201 5.70675L18.4343 4.29254C18.7858 3.94106 19.3556 3.94106 19.7071 4.29254C20.0586 4.64401 20.0586 5.21386 19.7071 5.56533L18.2929 6.97954C17.9414 7.33101 17.3716 7.33101 17.0201 6.97954Z" fill="currentColor"/>
<path d="M18.4342 19.7075C18.7857 20.0589 19.3555 20.0589 19.707 19.7075C20.0584 19.356 20.0584 18.7861 19.707 18.4347L18.2928 17.0205C17.9413 16.669 17.3714 16.669 17.02 17.0205C16.6685 17.3719 16.6685 17.9418 17.02 18.2933L18.4342 19.7075Z" fill="currentColor"/>
<path d="M5.70626 6.97954C6.05773 7.33102 6.62758 7.33101 6.97905 6.97954C7.33052 6.62807 7.33053 6.05822 6.97905 5.70675L5.56484 4.29254C5.21337 3.94107 4.64352 3.94107 4.29205 4.29254C3.94058 4.64401 3.94058 5.21386 4.29205 5.56533L5.70626 6.97954Z" fill="currentColor"/>
</svg>
