<svg width="24" height="24" viewBox="0 0 24 24" fill="none" xmlns="http://www.w3.org/2000/svg">
<path d="M16.2491 8.99878C16.9394 8.99878 17.4991 8.43914 17.4991 7.74878C17.4991 7.05842 16.9394 6.49878 16.2491 6.49878C15.5587 6.49878 14.9991 7.05842 14.9991 7.74878C14.9991 8.43914 15.5587 8.99878 16.2491 8.99878Z" fill="currentColor"/>
<path fill-rule="evenodd" clip-rule="evenodd" d="M14.6416 1.84597C14.0004 1.84572 13.5321 1.84553 13.0814 1.95375C12.6834 2.04929 12.303 2.20687 11.9541 2.4207C11.5588 2.66292 11.2278 2.99415 10.7746 3.44773L4.98021 9.24215C4.40883 9.81352 3.94152 10.2808 3.59279 10.6916C3.23181 11.1168 2.9453 11.5403 2.78268 12.0408C2.52817 12.8241 2.52817 13.6679 2.78268 14.4512C2.9453 14.9517 3.23181 15.3752 3.59279 15.8004C3.94152 16.2112 4.40881 16.6785 4.98019 17.2498L6.74529 19.0149C7.31667 19.5863 7.78396 20.0536 8.19476 20.4024C8.61997 20.7633 9.0435 21.0499 9.54399 21.2125C10.3273 21.467 11.171 21.467 11.9543 21.2125C12.4548 21.0499 12.8783 20.7633 13.3035 20.4024C13.7143 20.0536 14.1816 19.5863 14.753 19.0149L20.5474 13.2206C21.001 12.7673 21.3322 12.4364 21.5745 12.0411C21.7883 11.6922 21.9459 11.3117 22.0414 10.9138C22.1496 10.463 22.1494 9.99477 22.1492 9.35358V7.63828C22.1494 6.99713 22.1496 6.52892 22.0414 6.07817C21.9459 5.68025 21.7883 5.29985 21.5745 4.95092C21.3323 4.55567 21.0012 4.22472 20.5477 3.77152L20.2241 3.44794C19.7709 2.99431 19.4399 2.66304 19.0446 2.42078C18.6957 2.20692 18.3152 2.04932 17.9173 1.95377C17.4664 1.84553 16.9982 1.84572 16.3569 1.84597H14.6416ZM13.5016 3.70402C13.7192 3.65178 13.9608 3.646 14.7374 3.646H16.2611C17.0378 3.646 17.2794 3.65178 17.497 3.70403C17.7113 3.75548 17.9162 3.84034 18.1041 3.9555C18.2949 4.07243 18.4698 4.23922 19.019 4.78844L19.207 4.9765C19.7561 5.52564 19.9228 5.70057 20.0397 5.89136C20.1549 6.07925 20.2397 6.28408 20.2911 6.49834C20.3434 6.71591 20.3492 6.95751 20.3492 7.73406V9.25777C20.3492 10.0344 20.3434 10.276 20.2911 10.4936C20.2397 10.7079 20.1548 10.9127 20.0397 11.1006C19.9228 11.2914 19.756 11.4663 19.2069 12.0155L13.5069 17.7155C12.9023 18.32 12.4867 18.7346 12.1386 19.0302C11.7986 19.3188 11.5826 19.4406 11.3981 19.5006C10.9763 19.6376 10.522 19.6376 10.1002 19.5006C9.91572 19.4406 9.69975 19.3188 9.35968 19.0302C9.01158 18.7346 8.59597 18.32 7.99144 17.7155L6.27966 16.0037C5.67514 15.3992 5.26051 14.9836 4.965 14.6355C4.6763 14.2954 4.55452 14.0794 4.49458 13.8949C4.35754 13.4732 4.35754 13.0188 4.49458 12.5971C4.55452 12.4126 4.6763 12.1966 4.965 11.8565C5.26051 11.5084 5.67514 11.0928 6.27966 10.4883L11.9797 4.78828C12.5288 4.23913 12.7038 4.07237 12.8945 3.95545C13.0824 3.84031 13.2873 3.75546 13.5016 3.70402Z" fill="currentColor"/>
</svg>
