<svg width="24" height="24" viewBox="0 0 24 24" fill="none" xmlns="http://www.w3.org/2000/svg">
<path fill-rule="evenodd" clip-rule="evenodd" d="M14.6416 1.84695H16.3569C16.9982 1.84669 17.4664 1.84651 17.9173 1.95475C18.3152 2.0503 18.6957 2.2079 19.0446 2.42176C19.4399 2.66401 19.7709 2.99529 20.2241 3.44892L20.5476 3.77248C21.0011 4.22567 21.3323 4.55665 21.5745 4.9519C21.7883 5.30083 21.9459 5.68123 22.0414 6.07914C22.1496 6.5299 22.1494 6.99811 22.1492 7.63926V9.35456C22.1494 9.99575 22.1496 10.464 22.0414 10.9148C21.9459 11.3127 21.7883 11.6931 21.5745 12.0421C21.3322 12.4374 21.001 12.7683 20.5474 13.2215L14.753 19.0159C14.1816 19.5873 13.7143 20.0546 13.3035 20.4033C12.8783 20.7643 12.4548 21.0508 11.9543 21.2135C11.171 21.468 10.3273 21.468 9.54399 21.2135C9.0435 21.0508 8.61997 20.7643 8.19476 20.4033C7.78396 20.0546 7.31667 19.5873 6.74529 19.0159L4.9802 17.2508C4.40883 16.6795 3.94152 16.2122 3.59279 15.8014C3.23181 15.3762 2.9453 14.9526 2.78268 14.4521C2.52817 13.6689 2.52817 12.8251 2.78268 12.0418C2.9453 11.5413 3.23181 11.1178 3.59279 10.6926C3.94152 10.2818 4.4088 9.81452 4.98018 9.24316L10.7746 3.4487C11.2278 2.99513 11.5588 2.6639 11.9541 2.42168C12.303 2.20784 12.6834 2.05027 13.0814 1.95473C13.5321 1.84651 14.0004 1.84669 14.6416 1.84695ZM16.2491 9.25025C17.0775 9.25025 17.7491 8.57867 17.7491 7.75024C17.7491 6.92182 17.0775 6.25024 16.2491 6.25024C15.4206 6.25024 14.7491 6.92182 14.7491 7.75024C14.7491 8.57867 15.4206 9.25025 16.2491 9.25025Z" fill="currentColor"/>
</svg>
