<svg width="24" height="24" viewBox="0 0 24 24" fill="none" xmlns="http://www.w3.org/2000/svg">
<path fill-rule="evenodd" clip-rule="evenodd" d="M17.827 10.55C18.1047 10.7317 18.4152 10.8617 18.7437 10.9315C19.1175 11.011 19.4759 10.9814 19.8272 10.9174C20.1599 10.8567 20.5552 10.7508 21.0135 10.628L21.0671 10.6136C21.1707 10.5859 21.2944 10.5528 21.4009 10.5147C21.5244 10.4706 21.6981 10.3957 21.8617 10.2484C22.0736 10.0576 22.2196 9.80465 22.2789 9.52579C22.3247 9.31046 22.3027 9.12255 22.2792 8.99354C22.2589 8.88222 22.2257 8.75858 22.1979 8.65505L20.9293 3.92036C20.9016 3.81681 20.8685 3.69314 20.8304 3.58659C20.7863 3.46311 20.7113 3.28939 20.564 3.12579C20.3733 2.91392 20.1203 2.76789 19.8415 2.70861C19.6261 2.66284 19.4382 2.68483 19.3092 2.70834C19.1979 2.72863 19.0742 2.76181 18.9707 2.7896L18.9171 2.80397C18.4588 2.92675 18.0635 3.03267 17.745 3.14652C17.4088 3.26669 17.0836 3.42029 16.7995 3.67603C16.55 3.90073 16.3461 4.16856 16.1964 4.46471L5.79579 7.25156C5.78918 7.25333 5.78247 7.25513 5.77567 7.25694C5.67211 7.28465 5.54843 7.31774 5.44187 7.35583C5.3184 7.39997 5.14467 7.47489 4.98107 7.62219C4.76921 7.81296 4.62317 8.0659 4.5639 8.34476C4.55098 8.40554 4.54346 8.46413 4.53985 8.51984L3.42073 8.8197C3.41412 8.82147 3.40741 8.82327 3.40062 8.82509C3.29705 8.85279 3.17337 8.88588 3.06681 8.92398C2.94333 8.96812 2.76961 9.04303 2.60601 9.19034C2.39414 9.3811 2.24811 9.63404 2.18884 9.9129C2.14307 10.1282 2.16505 10.3161 2.18856 10.4451C2.20885 10.5565 2.24204 10.6801 2.26982 10.7837C2.27165 10.7905 2.27345 10.7972 2.27522 10.8038L2.60133 12.0209C2.6031 12.0275 2.6049 12.0342 2.60672 12.041C2.63442 12.1445 2.66751 12.2682 2.7056 12.3748C2.74974 12.4983 2.82466 12.672 2.97197 12.8356C3.16273 13.0474 3.41567 13.1935 3.69453 13.2527C3.90986 13.2985 4.09777 13.2765 4.22678 13.253C4.33811 13.2327 4.46177 13.1995 4.56531 13.1718C4.5721 13.1699 4.57881 13.1681 4.58542 13.1664L5.70453 12.8665C5.73551 12.9129 5.77132 12.9599 5.8129 13.0061C6.00367 13.218 6.2566 13.364 6.53547 13.4233C6.7508 13.469 6.93871 13.4471 7.06771 13.4235C7.17904 13.4033 7.30269 13.3701 7.40623 13.3423C7.41303 13.3405 7.41974 13.3387 7.42635 13.3369L9.31222 12.8316C9.30475 12.9134 9.30094 12.9963 9.30094 13.08C9.30094 13.6773 9.49487 14.2293 9.8232 14.6764L5.85734 20.4929C5.57732 20.9036 5.68325 21.4635 6.09393 21.7436C6.50461 22.0236 7.06453 21.9176 7.34454 21.507L11.3101 15.6908C11.5306 15.749 11.7622 15.78 12.0009 15.78C12.2397 15.78 12.4713 15.749 12.6918 15.6908L16.6573 21.507C16.9373 21.9176 17.4973 22.0236 17.9079 21.7436C18.3186 21.4635 18.4246 20.9036 18.1445 20.4929L14.1787 14.6764C14.507 14.2293 14.7009 13.6773 14.7009 13.08C14.7009 12.4991 14.5175 11.9609 14.2053 11.5205L17.827 10.55ZM19.2426 4.58031C18.8384 4.68903 18.5627 4.76575 18.3509 4.84148C18.1199 4.92405 18.0411 4.98027 18.004 5.01369C17.8627 5.14086 17.7654 5.30949 17.7259 5.4954C17.7155 5.54425 17.7062 5.64058 17.7502 5.88192C17.796 6.13363 17.8821 6.45744 18.0164 6.95865L18.1562 7.48025C18.2905 7.98147 18.3778 8.30492 18.464 8.54584C18.5465 8.77684 18.6028 8.85562 18.6362 8.89273C18.7634 9.03398 18.932 9.13133 19.1179 9.17085C19.1667 9.18123 19.2631 9.19053 19.5044 9.14654C19.7257 9.1062 20.0028 9.03481 20.4073 8.92685L19.2426 4.58031ZM16.4429 8.04079C16.4374 8.02055 16.432 8.00017 16.4265 7.97967L16.2687 7.39101C16.2633 7.37087 16.258 7.35084 16.2526 7.33094L15.9982 6.38133L6.43553 8.94364L6.60505 9.57629C6.60896 9.59082 6.61278 9.60508 6.6165 9.61898C6.61832 9.62577 6.62011 9.63249 6.62188 9.6391L6.948 10.8562C6.94977 10.8628 6.95157 10.8695 6.95339 10.8763C6.95712 10.8902 6.96094 10.9044 6.96482 10.9189L7.13435 11.5516L16.697 8.98933L16.4429 8.04079ZM12.578 13.7707C12.7754 13.6056 12.9009 13.3575 12.9009 13.08C12.9009 12.583 12.498 12.18 12.0009 12.18C11.5039 12.18 11.1009 12.583 11.1009 13.08C11.1009 13.3575 11.2265 13.6056 11.4239 13.7707C11.4493 13.7847 11.4743 13.8 11.4987 13.8166C11.5234 13.8334 11.5469 13.8512 11.5693 13.87C11.6975 13.9401 11.8445 13.98 12.0009 13.98C12.1573 13.98 12.3044 13.9401 12.4325 13.87C12.455 13.8512 12.4785 13.8334 12.5032 13.8166C12.5276 13.8 12.5526 13.7847 12.578 13.7707ZM5.16274 11.1482L4.9298 10.2788L4.06047 10.5118L4.29341 11.3811L5.16274 11.1482Z" fill="currentColor"/>
</svg>
