<svg width="24" height="24" viewBox="0 0 24 24" fill="none" xmlns="http://www.w3.org/2000/svg">
<path d="M8.26189 2.60254H15.7373C16.5453 2.60253 17.2062 2.60252 17.7432 2.6464C18.2991 2.69182 18.8012 2.7887 19.2701 3.02762C20.0039 3.40152 20.6006 3.99815 20.9745 4.73198C21.2134 5.20087 21.3103 5.70295 21.3557 6.25886C21.3996 6.79594 21.3996 7.45679 21.3995 8.26484V8.60079H2.59961V8.26484C2.5996 7.4568 2.59959 6.79593 2.64347 6.25886C2.68889 5.70295 2.78577 5.20087 3.02468 4.73198C3.39859 3.99815 3.99521 3.40152 4.72904 3.02762C5.19793 2.7887 5.7 2.69182 6.25591 2.6464C6.79298 2.60252 7.45385 2.60253 8.26189 2.60254Z" fill="currentColor"/>
<path d="M2.59961 10.4008V15.7402C2.5996 16.5483 2.59959 17.2092 2.64347 17.7462C2.68889 18.3021 2.78577 18.8042 3.02468 19.2731C3.39859 20.0069 3.99521 20.6036 4.72904 20.9775C5.19793 21.2164 5.7 21.3133 6.25591 21.3587C6.79299 21.4026 7.45384 21.4026 8.26189 21.4025H8.59926V10.4008H2.59961Z" fill="currentColor"/>
<path d="M10.3993 21.4025H15.7373C16.5453 21.4026 17.2062 21.4026 17.7432 21.3587C18.2991 21.3133 18.8012 21.2164 19.2701 20.9775C20.0039 20.6036 20.6006 20.0069 20.9745 19.2731C21.2134 18.8042 21.3103 18.3021 21.3557 17.7462C21.3996 17.2092 21.3996 16.5483 21.3995 15.7403V10.4008H10.3993V21.4025Z" fill="currentColor"/>
</svg>
