<svg width="24" height="24" viewBox="0 0 24 24" fill="none" xmlns="http://www.w3.org/2000/svg">
<path fill-rule="evenodd" clip-rule="evenodd" d="M8.26189 2.60205C7.45385 2.60204 6.79299 2.60203 6.25592 2.64591C5.70001 2.69133 5.19793 2.78822 4.72904 3.02713C3.99521 3.40103 3.39859 3.99766 3.02468 4.73149C2.78577 5.20038 2.68889 5.70246 2.64347 6.25837C2.59959 6.79544 2.5996 7.45629 2.59961 8.26433V15.7398C2.5996 16.5478 2.59959 17.2087 2.64347 17.7457C2.68889 18.3016 2.78577 18.8037 3.02468 19.2726C3.39859 20.0064 3.99521 20.6031 4.72904 20.977C5.19793 21.2159 5.70001 21.3128 6.25592 21.3582C6.79299 21.4021 7.45384 21.4021 8.26189 21.4021H15.7373C16.5453 21.4021 17.2062 21.4021 17.7432 21.3582C18.2992 21.3128 18.8012 21.2159 19.2701 20.977C20.004 20.6031 20.6006 20.0064 20.9745 19.2726C21.2134 18.8037 21.3103 18.3016 21.3557 17.7457C21.3996 17.2087 21.3996 16.5478 21.3996 15.7398V8.26435C21.3996 7.4563 21.3996 6.79545 21.3557 6.25837C21.3103 5.70246 21.2134 5.20038 20.9745 4.73149C20.6006 3.99766 20.004 3.40103 19.2701 3.02713C18.8012 2.78822 18.2992 2.69133 17.7432 2.64591C17.2062 2.60203 16.5453 2.60204 15.7373 2.60205H8.26189ZM5.54622 4.63094C5.71907 4.54287 5.9579 4.47626 6.40249 4.43994C6.8576 4.40275 7.44467 4.40205 8.29959 4.40205H15.6996C16.5545 4.40205 17.1416 4.40275 17.5967 4.43994C18.0413 4.47626 18.2801 4.54287 18.4529 4.63094C18.8481 4.83227 19.1693 5.15353 19.3707 5.54867C19.4587 5.72152 19.5254 5.96035 19.5617 6.40495C19.5989 6.86005 19.5996 7.44712 19.5996 8.30205V8.60049H4.39961V8.30205C4.39961 7.44712 4.4003 6.86005 4.43749 6.40495C4.47381 5.96035 4.54042 5.72152 4.62849 5.54867C4.82982 5.15353 5.15108 4.83227 5.54622 4.63094ZM4.39961 10.4005V15.7021C4.39961 16.557 4.4003 17.1441 4.43749 17.5992C4.47381 18.0438 4.54042 18.2826 4.62849 18.4554C4.82982 18.8506 5.15108 19.1718 5.54622 19.3732C5.71907 19.4612 5.9579 19.5278 6.40249 19.5642C6.8576 19.6014 7.44467 19.6021 8.29959 19.6021H8.59926V10.4005H4.39961ZM10.3993 19.6021H15.6996C16.5545 19.6021 17.1416 19.6014 17.5967 19.5642C18.0413 19.5278 18.2801 19.4612 18.4529 19.3732C18.8481 19.1718 19.1693 18.8506 19.3707 18.4554C19.4587 18.2826 19.5254 18.0438 19.5617 17.5992C19.5989 17.1441 19.5996 16.557 19.5996 15.7021V10.4005H10.3993V19.6021Z" fill="currentColor"/>
</svg>
