<svg width="24" height="24" viewBox="0 0 24 24" fill="none" xmlns="http://www.w3.org/2000/svg">
<path d="M4.07773 10.5733C3.47679 10.8605 2.90234 11.135 2.90234 12.001C2.90234 12.867 3.47679 13.1415 4.07773 13.4287C4.68149 13.7172 4.99945 14.2987 4.99945 15.2352V17.7567C4.99945 20.0698 5.79939 21.5001 8.0989 21.5001C8.59939 21.5001 8.99945 21.0983 8.99945 20.601C8.99945 20.1036 8.59939 19.7001 8.10255 19.7001C7.09939 19.7001 6.79945 18.8915 6.79945 17.7992V15.3416C6.79945 13.3202 6.03356 12.1712 4.79945 12.1712V11.8308C6.03356 11.8308 6.79945 10.6818 6.79945 8.66036V6.20275C6.79945 5.11019 7.09939 4.30012 8.10315 4.30012C8.59939 4.30012 8.99945 3.89745 8.99945 3.4004C8.99945 2.90335 8.59939 2.50036 8.0995 2.50012C5.79939 2.50012 4.99945 3.93198 4.99945 6.24531V8.76675C4.99945 9.70324 4.68149 10.2847 4.07773 10.5733Z" fill="currentColor"/>
<path d="M19.924 10.5733C20.5249 10.8605 21.0994 11.135 21.0994 12.001C21.0994 12.867 20.5249 13.1415 19.924 13.4287C19.3202 13.7172 19.0023 14.2987 19.0023 15.2352V17.7567C19.0023 20.0698 18.2023 21.5001 15.9028 21.5001C15.4023 21.5001 15.0023 21.0983 15.0023 20.601C15.0023 20.1036 15.4023 19.7001 15.8992 19.7001C16.9023 19.7001 17.2023 18.8915 17.2023 17.7992V15.3416C17.2023 13.3202 17.9682 12.1712 19.2023 12.1712V11.8308C17.9682 11.8308 17.2023 10.6818 17.2023 8.66036V6.20275C17.2023 5.11019 16.9023 4.30012 15.8986 4.30012C15.4023 4.30012 15.0023 3.89745 15.0023 3.4004C15.0023 2.90335 15.4023 2.50036 15.9022 2.50012C18.2023 2.50012 19.0023 3.93198 19.0023 6.24531V8.76675C19.0023 9.70324 19.3202 10.2847 19.924 10.5733Z" fill="currentColor"/>
</svg>
