<svg width="24" height="24" viewBox="0 0 24 24" fill="none" xmlns="http://www.w3.org/2000/svg">
<path fill-rule="evenodd" clip-rule="evenodd" d="M7.18688 5.49841C6.52157 5.49841 5.92513 5.90856 5.68702 6.52979L1.59539 17.2049C1.35572 17.8302 1.81738 18.5015 2.48705 18.5015C2.88807 18.5015 3.24637 18.251 3.38398 17.8743L4.44087 14.9814H9.92392L10.9798 17.8716C11.118 18.2499 11.4779 18.5015 11.8806 18.5015C12.5532 18.5015 13.0169 17.8273 12.7762 17.1992L8.68674 6.5298C8.44863 5.90856 7.85219 5.49841 7.18688 5.49841ZM7.13432 7.60873H7.23046L9.2809 13.2213H5.08388L7.13432 7.60873Z" fill="currentColor"/>
<path fill-rule="evenodd" clip-rule="evenodd" d="M17.9809 12.7993L20.3327 12.6694C20.3042 11.266 19.6364 10.5992 18.2952 10.5992C17.5801 10.5992 17.0381 10.7853 16.6166 11.1911C16.2833 11.512 15.8049 11.7025 15.3821 11.5146C14.913 11.3061 14.7105 10.7336 15.0425 10.342C15.8107 9.4363 16.8997 8.98279 18.2952 8.98279C20.7481 8.98279 22.1387 10.3841 22.1387 12.7724V17.5992C22.1387 18.0976 21.7346 18.5017 21.2362 18.5017C20.7378 18.5017 20.3337 18.0976 20.3337 17.5992V17.1008H20.2616C19.6312 18.1418 18.5122 18.7531 17.2984 18.7531C15.6437 18.7531 14.1375 17.518 14.1375 15.8166C14.1375 13.7517 16.209 12.8654 17.9809 12.7993ZM20.3336 14.8825V14.0179L18.0258 14.1731C17.0693 14.2253 16.0052 14.663 16.0052 15.7715C16.0052 16.6576 16.6817 17.1724 17.8551 17.1724C19.399 17.1724 20.3336 16.2438 20.3336 14.8825Z" fill="currentColor"/>
</svg>
