<svg width="24" height="24" viewBox="0 0 24 24" fill="none" xmlns="http://www.w3.org/2000/svg">
<path fill-rule="evenodd" clip-rule="evenodd" d="M15.5698 13.0991H18.9293C19.1836 13.0991 19.4257 13.0991 19.6297 13.1157C19.8521 13.1339 20.1072 13.1763 20.3621 13.3062C20.7197 13.4884 21.0103 13.779 21.1925 14.1365C21.3224 14.3915 21.3648 14.6466 21.3829 14.869C21.3996 15.073 21.3996 15.315 21.3996 15.5693V18.9289C21.3996 19.1832 21.3996 19.4253 21.3829 19.6292C21.3648 19.8516 21.3224 20.1067 21.1925 20.3617C21.0103 20.7192 20.7197 21.0099 20.3621 21.192C20.1072 21.322 19.8521 21.3643 19.6297 21.3825C19.4257 21.3992 19.1837 21.3992 18.9293 21.3991H15.5698C15.3155 21.3992 15.0734 21.3992 14.8695 21.3825C14.6471 21.3643 14.392 21.322 14.137 21.192C13.7795 21.0099 13.4888 20.7192 13.3067 20.3617C13.1768 20.1067 13.1344 19.8516 13.1162 19.6292C13.0995 19.4252 13.0996 19.1832 13.0996 18.9289V15.5694C13.0996 15.315 13.0995 15.073 13.1162 14.869C13.1344 14.6466 13.1768 14.3915 13.3067 14.1365C13.4888 13.779 13.7795 13.4884 14.137 13.3062C14.392 13.1763 14.6471 13.1339 14.8695 13.1157C15.0735 13.0991 15.3155 13.0991 15.5698 13.0991ZM14.9996 14.9C14.9444 14.9 14.8996 14.9448 14.8996 15V19.5C14.8996 19.5552 14.9444 19.6 14.9996 19.6H19.4996C19.5548 19.6 19.5996 19.5552 19.5996 19.5V15C19.5996 14.9448 19.5548 14.9 19.4996 14.9H14.9996Z" fill="currentColor"/>
<path fill-rule="evenodd" clip-rule="evenodd" d="M5.06985 13.0991H8.42936C8.68368 13.0991 8.92572 13.0991 9.12968 13.1157C9.35209 13.1339 9.6072 13.1763 9.86217 13.3062C10.2197 13.4884 10.5103 13.779 10.6925 14.1365C10.8224 14.3915 10.8648 14.6466 10.883 14.869C10.8996 15.073 10.8996 15.315 10.8996 15.5693V18.9289C10.8996 19.1832 10.8996 19.4253 10.883 19.6292C10.8648 19.8516 10.8224 20.1067 10.6925 20.3617C10.5103 20.7192 10.2197 21.0099 9.86217 21.192C9.6072 21.322 9.35209 21.3643 9.12968 21.3825C8.92573 21.3992 8.68369 21.3992 8.42938 21.3991H5.06985C4.81553 21.3992 4.57348 21.3992 4.36952 21.3825C4.14711 21.3643 3.892 21.322 3.63703 21.192C3.27952 21.0099 2.98886 20.7192 2.8067 20.3617C2.67678 20.1067 2.6344 19.8516 2.61623 19.6292C2.59956 19.4252 2.59959 19.1832 2.59961 18.9289V15.5694C2.59959 15.315 2.59956 15.073 2.61623 14.869C2.6344 14.6466 2.67678 14.3915 2.8067 14.1365C2.98886 13.779 3.27952 13.4884 3.63703 13.3062C3.892 13.1763 4.14711 13.1339 4.36952 13.1157C4.57348 13.0991 4.81553 13.0991 5.06985 13.0991ZM4.49966 14.9C4.44444 14.9 4.39966 14.9448 4.39966 15V19.5C4.39966 19.5552 4.44444 19.6 4.49966 19.6H8.99965C9.05488 19.6 9.09965 19.5552 9.09965 19.5V15C9.09965 14.9448 9.05488 14.9 8.99965 14.9H4.49966Z" fill="currentColor"/>
<path fill-rule="evenodd" clip-rule="evenodd" d="M15.5698 2.59912H18.9293C19.1836 2.5991 19.4257 2.59907 19.6297 2.61574C19.8521 2.63391 20.1072 2.6763 20.3621 2.80621C20.7197 2.98837 21.0103 3.27904 21.1925 3.63654C21.3224 3.89152 21.3648 4.14663 21.3829 4.36904C21.3996 4.57299 21.3996 4.81503 21.3996 5.06934V8.42889C21.3996 8.6832 21.3996 8.92526 21.3829 9.12921C21.3648 9.35162 21.3224 9.60673 21.1925 9.86171C21.0103 10.2192 20.7197 10.5099 20.3621 10.692C20.1072 10.822 19.8521 10.8643 19.6297 10.8825C19.4257 10.8992 19.1837 10.8992 18.9293 10.8991H15.5698C15.3155 10.8992 15.0734 10.8992 14.8695 10.8825C14.6471 10.8643 14.392 10.822 14.137 10.692C13.7795 10.5099 13.4888 10.2192 13.3067 9.86171C13.1768 9.60673 13.1344 9.35162 13.1162 9.12921C13.0995 8.92525 13.0996 8.68321 13.0996 8.42888V5.06937C13.0996 4.81504 13.0995 4.573 13.1162 4.36904C13.1344 4.14663 13.1768 3.89152 13.3067 3.63654C13.4888 3.27904 13.7795 2.98837 14.137 2.80621C14.392 2.6763 14.6471 2.63391 14.8695 2.61574C15.0735 2.59907 15.3155 2.5991 15.5698 2.59912ZM14.9996 4.39999C14.9444 4.39999 14.8996 4.44477 14.8996 4.49999V8.99999C14.8996 9.05522 14.9444 9.09999 14.9996 9.09999H19.4996C19.5548 9.09999 19.5996 9.05522 19.5996 8.99999V4.49999C19.5996 4.44477 19.5548 4.39999 19.4996 4.39999H14.9996Z" fill="currentColor"/>
<path fill-rule="evenodd" clip-rule="evenodd" d="M5.06985 2.59912H8.42936C8.68368 2.5991 8.92572 2.59907 9.12968 2.61574C9.35209 2.63391 9.6072 2.6763 9.86217 2.80621C10.2197 2.98837 10.5103 3.27904 10.6925 3.63654C10.8224 3.89152 10.8648 4.14663 10.883 4.36904C10.8996 4.57299 10.8996 4.81503 10.8996 5.06934V8.42889C10.8996 8.6832 10.8996 8.92526 10.883 9.12921C10.8648 9.35162 10.8224 9.60673 10.6925 9.86171C10.5103 10.2192 10.2197 10.5099 9.86217 10.692C9.6072 10.822 9.35209 10.8643 9.12968 10.8825C8.92573 10.8992 8.68369 10.8992 8.42938 10.8991H5.06985C4.81553 10.8992 4.57348 10.8992 4.36952 10.8825C4.14711 10.8643 3.892 10.822 3.63703 10.692C3.27952 10.5099 2.98886 10.2192 2.8067 9.86171C2.67678 9.60673 2.6344 9.35162 2.61623 9.12921C2.59956 8.92525 2.59959 8.68321 2.59961 8.42888V5.06937C2.59959 4.81504 2.59956 4.573 2.61623 4.36904C2.6344 4.14663 2.67678 3.89152 2.8067 3.63654C2.98886 3.27904 3.27952 2.98837 3.63703 2.80621C3.892 2.6763 4.14711 2.63391 4.36952 2.61574C4.57348 2.59907 4.81553 2.5991 5.06985 2.59912ZM4.49966 4.39999C4.44444 4.39999 4.39966 4.44477 4.39966 4.49999V8.99999C4.39966 9.05522 4.44444 9.09999 4.49966 9.09999H8.99965C9.05488 9.09999 9.09965 9.05522 9.09965 8.99999V4.49999C9.09965 4.44477 9.05488 4.39999 8.99965 4.39999H4.49966Z" fill="currentColor"/>
</svg>
