<svg width="24" height="24" viewBox="0 0 24 24" fill="none" xmlns="http://www.w3.org/2000/svg">
<path fill-rule="evenodd" clip-rule="evenodd" d="M13.3366 1.16642C13.715 1.31927 13.9432 1.70759 13.8925 2.11253L13.019 9.1009L16.8401 9.1009C17.3203 9.10087 17.7411 9.10085 18.0739 9.1312C18.4023 9.16115 18.821 9.23103 19.1708 9.50492C19.6199 9.85652 19.8872 10.3912 19.8991 10.9614C19.9083 11.4056 19.713 11.7825 19.5399 12.0632C19.3645 12.3476 19.112 12.6843 18.8239 13.0684L11.7195 22.5409C11.4746 22.8674 11.0408 22.9882 10.6624 22.8354C10.284 22.6825 10.0558 22.2942 10.1064 21.8893L10.98 14.9009L7.15883 14.9009C6.67871 14.9009 6.25785 14.9009 5.92512 14.8706C5.59669 14.8406 5.17796 14.7708 4.82816 14.4969C4.37913 14.1453 4.11178 13.6106 4.09992 13.0404C4.09069 12.5962 4.28603 12.2193 4.45912 11.9386C4.63448 11.6542 4.88702 11.3175 5.17511 10.9334L12.2795 1.4609C12.5243 1.13442 12.9582 1.01356 13.3366 1.16642ZM11.6861 5.2522L5.9195 12.941C5.90159 12.9649 5.89861 12.9808 5.89788 12.9914C5.89689 13.0056 5.89974 13.0251 5.91006 13.0457C5.92039 13.0664 5.93423 13.0803 5.94619 13.088C5.95508 13.0938 5.96965 13.101 5.9995 13.101H11.9995C12.2576 13.101 12.5034 13.2118 12.6742 13.4054C12.845 13.5989 12.9246 13.8565 12.8925 14.1126L12.3129 18.7498L18.0795 11.061C18.0974 11.0371 18.1004 11.0211 18.1011 11.0106C18.1021 10.9964 18.0992 10.9769 18.0889 10.9563C18.0786 10.9356 18.0647 10.9217 18.0528 10.9139C18.0439 10.9082 18.0293 10.901 17.9995 10.901H11.9995C11.7413 10.901 11.4956 10.7901 11.3248 10.5966C11.1539 10.4031 11.0744 10.1455 11.1064 9.88936L11.6861 5.2522Z" fill="currentColor"/>
</svg>
