<svg width="24" height="24" viewBox="0 0 24 24" fill="none" xmlns="http://www.w3.org/2000/svg">
<path d="M13.8925 2.11228C13.9431 1.70735 13.715 1.31903 13.3366 1.16617C12.9582 1.01332 12.5243 1.13418 12.2795 1.46065L5.17511 10.9332C4.88702 11.3173 4.63448 11.654 4.45912 11.9383C4.28603 12.2191 4.09069 12.596 4.09992 13.0401C4.11178 13.6103 4.37913 14.145 4.82816 14.4966C5.17796 14.7705 5.59669 14.8404 5.92512 14.8704C6.25785 14.9007 6.67871 14.9007 7.15882 14.9007L10.98 14.9007L10.1064 21.889C10.0558 22.294 10.284 22.6823 10.6624 22.8351C11.0408 22.988 11.4746 22.8671 11.7195 22.5407L18.8238 13.0681C19.1119 12.6841 19.3645 12.3474 19.5398 12.063C19.7129 11.7822 19.9083 11.4053 19.899 10.9612C19.8872 10.391 19.6198 9.85627 19.1708 9.50468C18.821 9.23078 18.4023 9.16091 18.0738 9.13095C17.7411 9.10061 17.3202 9.10063 16.8401 9.10065L13.019 9.10065L13.8925 2.11228Z" fill="currentColor"/>
</svg>
