<svg width="24" height="24" viewBox="0 0 24 24" fill="none" xmlns="http://www.w3.org/2000/svg">
<path fill-rule="evenodd" clip-rule="evenodd" d="M3.94701 9.58598L9.58647 3.94652C10.1578 3.37514 10.6251 2.90783 11.0359 2.55909C11.4611 2.19812 11.8847 1.9116 12.3852 1.74898C13.1684 1.49448 14.0122 1.49448 14.7955 1.74899C15.6205 2.01704 16.2893 2.65119 17.1325 3.48628C17.4129 3.76399 17.4796 4.19197 17.2972 4.5419C16.9823 5.14575 17.0799 5.90731 17.5854 6.41278C18.0909 6.91826 18.8524 7.01592 19.4563 6.70101C19.8062 6.51853 20.2342 6.5853 20.5119 6.8657C21.347 7.7089 21.9811 8.3777 22.2492 9.20269C22.5037 9.98597 22.5037 10.8297 22.2492 11.613C22.0866 12.1135 21.8001 12.537 21.4391 12.9622C21.0903 13.373 20.623 13.8403 20.0517 14.4117L14.4122 20.0512C13.8408 20.6226 13.3735 21.0898 12.9627 21.4386C12.5375 21.7996 12.114 22.0861 11.6135 22.2487C10.8302 22.5032 9.98646 22.5032 9.20318 22.2487C8.37817 21.9806 7.70936 21.3465 6.86614 20.5113C6.58576 20.2337 6.51897 19.8057 6.7014 19.4558C7.01622 18.852 6.91854 18.0905 6.4131 17.5851C5.90767 17.0796 5.14619 16.982 4.54236 17.2968C4.19245 17.4792 3.76451 17.4124 3.48683 17.132C2.6517 16.2888 2.01753 15.62 1.74947 14.795C1.49497 14.0117 1.49497 13.168 1.74947 12.3847C1.91209 11.8842 2.19861 11.4606 2.55958 11.0354C2.90832 10.6246 3.37563 10.1573 3.94701 9.58598ZM11.0107 6.76772C11.3621 6.41625 11.932 6.41625 12.2835 6.76772L13.3441 7.82838C13.6956 8.17985 13.6956 8.7497 13.3441 9.10117C12.9927 9.45264 12.4228 9.45264 12.0713 9.10117L11.0107 8.04051C10.6592 7.68904 10.6592 7.11919 11.0107 6.76772ZM14.8987 10.6557C15.2501 10.3042 15.82 10.3042 16.1714 10.6557L17.2321 11.7164C17.5836 12.0678 17.5836 12.6377 17.2321 12.9892C16.8806 13.3406 16.3108 13.3406 15.9593 12.9892L14.8987 11.9285C14.5472 11.577 14.5472 11.0072 14.8987 10.6557Z" fill="currentColor"/>
</svg>
