<svg width="24" height="24" viewBox="0 0 24 24" fill="none" xmlns="http://www.w3.org/2000/svg">
<path d="M11.3629 7.11987C11.7143 6.7684 12.2842 6.7684 12.6357 7.11987L13.5195 8.00375C13.871 8.35523 13.871 8.92507 13.5195 9.27655C13.1681 9.62802 12.5982 9.62802 12.2468 9.27655L11.3629 8.39266C11.0114 8.04119 11.0114 7.47134 11.3629 7.11987Z" fill="currentColor"/>
<path d="M14.7216 10.4786C15.0731 10.1272 15.6429 10.1272 15.9944 10.4786L16.8783 11.3625C17.2298 11.714 17.2298 12.2838 16.8783 12.6353C16.5268 12.9868 15.957 12.9868 15.6055 12.6353L14.7216 11.7514C14.3702 11.3999 14.3702 10.8301 14.7216 10.4786Z" fill="currentColor"/>
<path fill-rule="evenodd" clip-rule="evenodd" d="M3.94701 9.58598C3.37564 10.1573 2.90832 10.6246 2.55958 11.0354C2.19861 11.4606 1.91209 11.8842 1.74947 12.3847C1.49497 13.168 1.49497 14.0117 1.74947 14.795C2.01753 15.62 2.6517 16.2888 3.48683 17.132C3.76451 17.4124 4.19245 17.4792 4.54236 17.2968C5.14619 16.982 5.90767 17.0796 6.4131 17.5851C6.91854 18.0905 7.01622 18.852 6.7014 19.4558C6.51897 19.8057 6.58576 20.2337 6.86614 20.5113C7.70936 21.3465 8.37817 21.9806 9.20317 22.2487C9.98646 22.5032 10.8302 22.5032 11.6135 22.2487C12.114 22.0861 12.5375 21.7996 12.9627 21.4386C13.3735 21.0898 13.8408 20.6226 14.4122 20.0512L20.0517 14.4117C20.623 13.8403 21.0903 13.373 21.4391 12.9622C21.8001 12.537 22.0866 12.1135 22.2492 11.613C22.5037 10.8297 22.5037 9.98598 22.2492 9.20269C21.9811 8.3777 21.347 7.7089 20.5119 6.8657C20.2342 6.5853 19.8062 6.51853 19.4563 6.70101C18.8524 7.01592 18.0909 6.91826 17.5854 6.41279C17.0799 5.90731 16.9823 5.14575 17.2972 4.5419C17.4796 4.19197 17.4129 3.76399 17.1325 3.48628C16.2893 2.65119 15.6205 2.01704 14.7955 1.74899C14.0122 1.49448 13.1684 1.49448 12.3852 1.74899C11.8847 1.9116 11.4611 2.19812 11.0359 2.55909C10.6251 2.90783 10.1579 3.37512 9.5865 3.94649L3.94701 9.58598ZM3.5874 12.6364C3.72208 12.3721 3.98291 12.0955 4.82211 11.2563L11.2568 4.82166C12.096 3.98245 12.3725 3.72163 12.6369 3.58694C13.2358 3.28176 13.9447 3.28176 14.5436 3.58694C14.7477 3.69091 14.9618 3.87217 15.4469 4.34803C15.1205 5.49532 15.4081 6.7811 16.3125 7.68553C17.2169 8.58996 18.5027 8.87756 19.65 8.55113C20.1259 9.0362 20.3071 9.25038 20.4111 9.45442C20.7163 10.0534 20.7163 10.7622 20.4111 11.3612C20.2764 11.6255 20.0156 11.902 19.1764 12.7413L12.7417 19.1759C11.9025 20.0151 11.626 20.276 11.3616 20.4106C10.7627 20.7158 10.0538 20.7158 9.45488 20.4106C9.25082 20.3067 9.03663 20.1254 8.55149 19.6495C8.8778 18.5022 8.59017 17.2166 7.68581 16.3122C6.78145 15.4079 5.4958 15.1202 4.34858 15.4466C3.87265 14.9614 3.69137 14.7472 3.5874 14.5432C3.28221 13.9442 3.28221 13.2354 3.5874 12.6364Z" fill="currentColor"/>
</svg>
