<svg width="24" height="24" viewBox="0 0 24 24" fill="none" xmlns="http://www.w3.org/2000/svg">
<path d="M9.9996 10.6006C10.4967 10.6006 10.8996 11.0036 10.8996 11.5006V16.5006C10.8996 16.9977 10.4967 17.4006 9.9996 17.4006C9.50254 17.4006 9.0996 16.9977 9.0996 16.5006V11.5006C9.0996 11.0036 9.50254 10.6006 9.9996 10.6006Z" fill="currentColor"/>
<path d="M13.9996 10.6006C14.4966 10.6006 14.8996 11.0036 14.8996 11.5006V16.5006C14.8996 16.9977 14.4966 17.4006 13.9996 17.4006C13.5025 17.4006 13.0996 16.9977 13.0996 16.5006V11.5006C13.0996 11.0036 13.5025 10.6006 13.9996 10.6006Z" fill="currentColor"/>
<path fill-rule="evenodd" clip-rule="evenodd" d="M19.9995 5.85102H16.3994C16.3994 5.35033 16.3982 4.9218 16.3692 4.56724C16.3374 4.17808 16.2678 3.79949 16.0834 3.43756C15.8053 2.89189 15.3617 2.44824 14.816 2.17021C14.4541 1.9858 14.0755 1.91616 13.6863 1.88437C13.3159 1.8541 12.8648 1.85411 12.3349 1.85413H11.664C11.1342 1.85411 10.683 1.8541 10.3126 1.88437C9.9234 1.91616 9.54481 1.9858 9.18288 2.17021C8.63721 2.44824 8.19357 2.89189 7.91554 3.43756C7.73112 3.79949 7.66149 4.17808 7.62969 4.56724C7.60073 4.9218 7.5995 5.35033 7.59945 5.85102H3.99961C3.50255 5.85102 3.09961 6.25397 3.09961 6.75102C3.09961 7.24808 3.50255 7.65102 3.99961 7.65102H4.59951L4.5995 18.0874C4.59949 18.6172 4.59948 19.0685 4.62974 19.4389C4.66154 19.828 4.73117 20.2066 4.91559 20.5686C5.19362 21.1142 5.63726 21.5579 6.18293 21.8359C6.54486 22.0203 6.92345 22.09 7.31261 22.1218C7.68302 22.152 8.13416 22.152 8.66398 22.152H15.3349C15.8647 22.152 16.316 22.152 16.6864 22.1218C17.0755 22.09 17.4541 22.0203 17.816 21.8359C18.3617 21.5579 18.8054 21.1142 19.0834 20.5686C19.2678 20.2066 19.3374 19.828 19.3692 19.4389C19.3995 19.0684 19.3995 18.6173 19.3995 18.0874V7.65102H19.9995C20.4966 7.65102 20.8995 7.24808 20.8995 6.75102C20.8995 6.25397 20.4966 5.85102 19.9995 5.85102ZM14.5998 5.85102H9.3998V5.54501C9.3998 4.73044 9.4109 4.53661 9.45364 4.40509C9.56245 4.07021 9.825 3.80765 10.1599 3.69884C10.2914 3.65611 10.4852 3.64501 11.2998 3.64501H12.6998C13.5143 3.64501 13.7082 3.65611 13.8397 3.69884C14.1746 3.80765 14.4371 4.07021 14.5459 4.40509C14.5887 4.53661 14.5998 4.73044 14.5998 5.54501V5.85102ZM6.39983 18.4456V7.65102H17.5998V18.4456C17.5998 19.2602 17.5887 19.454 17.546 19.5855C17.4372 19.9204 17.1746 20.1829 16.8397 20.2918C16.7082 20.3345 16.5144 20.3456 15.6998 20.3456H8.29982C7.48526 20.3456 7.29143 20.3345 7.15991 20.2918C6.82503 20.1829 6.56248 19.9204 6.45367 19.5855C6.41093 19.454 6.39983 19.2602 6.39983 18.4456Z" fill="currentColor"/>
</svg>
