<svg width="24" height="24" viewBox="0 0 24 24" fill="none" xmlns="http://www.w3.org/2000/svg">
<path d="M13.1788 3.10033C12.428 2.76604 11.5706 2.76604 10.8198 3.10033C10.2965 3.33333 9.91865 3.76043 9.59031 4.22516C9.2648 4.68589 8.90667 5.30622 8.47093 6.06097L3.36009 14.9132C2.92433 15.668 2.56617 16.2883 2.32992 16.8006C2.09163 17.3173 1.91065 17.858 1.97053 18.4277C2.05644 19.2451 2.48514 19.9877 3.15006 20.4708C3.61351 20.8075 4.17229 20.9211 4.73893 20.9731C5.30068 21.0246 6.01698 21.0246 6.88847 21.0246H17.1101C17.9816 21.0246 18.6979 21.0246 19.2597 20.9731C19.8263 20.9211 20.3851 20.8075 20.8486 20.4708C21.5135 19.9877 21.9422 19.2451 22.0281 18.4277C22.088 17.858 21.907 17.3173 21.6687 16.8006C21.4325 16.2883 21.0743 15.668 20.6385 14.9133L15.5277 6.06096C15.092 5.30622 14.7338 4.68589 14.4083 4.22516C14.08 3.76043 13.7022 3.33333 13.1788 3.10033Z" fill="currentColor"/>
</svg>
