<svg width="24" height="24" viewBox="0 0 24 24" fill="none" xmlns="http://www.w3.org/2000/svg">
<path fill-rule="evenodd" clip-rule="evenodd" d="M10.8198 3.10033C11.5706 2.76604 12.428 2.76604 13.1788 3.10033C13.7022 3.33333 14.08 3.76043 14.4083 4.22516C14.7338 4.68589 15.092 5.30622 15.5277 6.06096L20.6385 14.9133C21.0743 15.668 21.4325 16.2883 21.6687 16.8006C21.907 17.3173 22.088 17.858 22.0281 18.4277C21.9422 19.2451 21.5135 19.9877 20.8486 20.4708C20.3851 20.8075 19.8263 20.9211 19.2597 20.9731C18.6979 21.0246 17.9816 21.0246 17.1101 21.0246H6.88847C6.01698 21.0246 5.30068 21.0246 4.73893 20.9731C4.17229 20.9211 3.61351 20.8075 3.15006 20.4708C2.48514 19.9877 2.05644 19.2451 1.97053 18.4277C1.91065 17.858 2.09163 17.3173 2.32992 16.8006C2.56617 16.2883 2.92433 15.668 3.36009 14.9132L8.47093 6.06097C8.90667 5.30622 9.2648 4.68589 9.59031 4.22516C9.91865 3.76043 10.2965 3.33333 10.8198 3.10033ZM11.9995 8.09961C12.4965 8.09961 12.8995 8.50255 12.8995 8.99961V12.9996C12.8995 13.4967 12.4965 13.8996 11.9995 13.8996C11.5024 13.8996 11.0995 13.4967 11.0995 12.9996V8.99961C11.0995 8.50255 11.5024 8.09961 11.9995 8.09961ZM12.9993 16.4996C12.9993 17.0519 12.5516 17.4996 11.9994 17.4996C11.4471 17.4996 10.9994 17.0519 10.9994 16.4996C10.9994 15.9473 11.4471 15.4996 11.9994 15.4996C12.5516 15.4996 12.9993 15.9473 12.9993 16.4996Z" fill="currentColor"/>
</svg>
