<svg width="24" height="24" viewBox="0 0 24 24" fill="none" xmlns="http://www.w3.org/2000/svg">
<path fill-rule="evenodd" clip-rule="evenodd" d="M10.8198 3.10033C11.5706 2.76604 12.428 2.76604 13.1789 3.10033C13.7022 3.33333 14.08 3.76043 14.4083 4.22516C14.7338 4.68589 15.092 5.30622 15.5277 6.06096L20.6386 14.9133C21.0743 15.668 21.4325 16.2883 21.6687 16.8006C21.907 17.3173 22.088 17.858 22.0281 18.4277C21.9422 19.2451 21.5135 19.9877 20.8486 20.4708C20.3851 20.8075 19.8264 20.9211 19.2597 20.9731C18.698 21.0246 17.9817 21.0246 17.1102 21.0246H6.88848C6.01698 21.0246 5.30069 21.0246 4.73893 20.9731C4.17229 20.9211 3.61351 20.8075 3.15006 20.4708C2.48515 19.9877 2.05644 19.2451 1.97053 18.4277C1.91065 17.858 2.09163 17.3173 2.32993 16.8006C2.56617 16.2883 2.92433 15.668 3.36009 14.9132L8.47094 6.06097C8.90667 5.30622 9.26481 4.68589 9.59032 4.22516C9.91866 3.76043 10.2965 3.33333 10.8198 3.10033ZM12.9519 5.19963C12.5285 4.4663 11.4701 4.4663 11.0467 5.19963L3.902 17.5746C3.47861 18.308 4.00785 19.2246 4.85462 19.2246H19.144C19.9908 19.2246 20.52 18.308 20.0966 17.5746L12.9519 5.19963Z" fill="currentColor"/>
</svg>
