<svg width="24" height="24" viewBox="0 0 24 24" fill="none" xmlns="http://www.w3.org/2000/svg">
<path d="M11.9995 8.09961C12.4966 8.09961 12.8995 8.50255 12.8995 8.99961V12.9996C12.8995 13.4967 12.4966 13.8996 11.9995 13.8996C11.5025 13.8996 11.0995 13.4967 11.0995 12.9996V8.99961C11.0995 8.50255 11.5025 8.09961 11.9995 8.09961Z" fill="currentColor"/>
<path d="M12.9994 16.4996C12.9994 17.0519 12.5517 17.4996 11.9994 17.4996C11.4471 17.4996 10.9994 17.0519 10.9994 16.4996C10.9994 15.9473 11.4471 15.4996 11.9994 15.4996C12.5517 15.4996 12.9994 15.9473 12.9994 16.4996Z" fill="currentColor"/>
<path fill-rule="evenodd" clip-rule="evenodd" d="M13.1789 3.10033C12.428 2.76604 11.5706 2.76604 10.8198 3.10033C10.2965 3.33333 9.91866 3.76043 9.59032 4.22516C9.26481 4.68589 8.90667 5.30622 8.47094 6.06097L3.36009 14.9132C2.92433 15.668 2.56617 16.2883 2.32993 16.8006C2.09163 17.3173 1.91065 17.858 1.97053 18.4277C2.05644 19.2451 2.48515 19.9877 3.15006 20.4708C3.61351 20.8075 4.17229 20.9211 4.73893 20.9731C5.30069 21.0246 6.01698 21.0246 6.88848 21.0246H17.1102C17.9817 21.0246 18.698 21.0246 19.2597 20.9731C19.8264 20.9211 20.3851 20.8075 20.8486 20.4708C21.5135 19.9877 21.9422 19.2451 22.0281 18.4277C22.088 17.858 21.907 17.3173 21.6687 16.8006C21.4325 16.2883 21.0743 15.668 20.6386 14.9133L15.5277 6.06096C15.092 5.30622 14.7338 4.68589 14.4083 4.22516C14.08 3.76043 13.7022 3.33333 13.1789 3.10033ZM11.0467 5.19963C11.4701 4.4663 12.5285 4.4663 12.9519 5.19963L20.0966 17.5746C20.52 18.308 19.9908 19.2246 19.144 19.2246H4.85462C4.00785 19.2246 3.47861 18.308 3.902 17.5746L11.0467 5.19963Z" fill="currentColor"/>
</svg>
