<svg width="24" height="24" viewBox="0 0 24 24" fill="none" xmlns="http://www.w3.org/2000/svg">
<path fill-rule="evenodd" clip-rule="evenodd" d="M11.9996 2.1001C6.25585 2.1001 1.59961 6.75634 1.59961 12.5001C1.59961 12.6577 1.60312 12.8145 1.61008 12.9706C1.62503 13.3058 1.82529 13.605 2.12959 13.7465C2.4339 13.8881 2.79169 13.8485 3.05775 13.644C3.66487 13.1772 4.42359 12.9001 5.24958 12.9001C6.15772 12.9001 6.98537 13.2352 7.61906 13.7897C7.92121 14.0542 8.36196 14.0864 8.69942 13.8689C9.41137 13.4099 10.2247 13.0951 11.0996 12.9659V19.2505C11.0996 19.9961 10.4952 20.6005 9.74957 20.6005C9.00399 20.6005 8.39957 19.9961 8.39957 19.2505C8.39957 18.7534 7.99663 18.3505 7.49957 18.3505C7.00252 18.3505 6.59957 18.7534 6.59957 19.2505C6.59957 20.9902 8.00988 22.4005 9.74957 22.4005C11.4893 22.4005 12.8996 20.9902 12.8996 19.2505V12.9659C13.7744 13.0951 14.5878 13.4099 15.2998 13.8689C15.6372 14.0865 16.078 14.0542 16.3801 13.7897C17.0138 13.2352 17.8414 12.9001 18.7496 12.9001C19.5756 12.9001 20.3343 13.1772 20.9415 13.644C21.2075 13.8486 21.5653 13.8881 21.8696 13.7465C22.1739 13.605 22.3742 13.3059 22.3891 12.9706C22.3961 12.8146 22.3996 12.6577 22.3996 12.5001C22.3996 6.75634 17.7434 2.1001 11.9996 2.1001ZM5.24958 11.1001C4.62622 11.1001 4.02694 11.206 3.46922 11.4007C4.00902 7.17025 7.62242 3.9001 11.9996 3.9001C16.3768 3.9001 19.9902 7.17026 20.53 11.4008C19.9723 11.206 19.373 11.1001 18.7496 11.1001C17.6274 11.1001 16.5839 11.4432 15.7201 12.0295C14.6108 11.4363 13.3435 11.1001 11.9996 11.1001C10.6557 11.1001 9.38836 11.4363 8.27911 12.0295C7.41528 11.4432 6.37174 11.1001 5.24958 11.1001Z" fill="currentColor"/>
</svg>
