<svg width="24" height="24" viewBox="0 0 24 24" fill="none" xmlns="http://www.w3.org/2000/svg">
<path d="M1.59961 12.5001C1.59961 6.75634 6.25585 2.1001 11.9996 2.1001C17.7434 2.1001 22.3996 6.75634 22.3996 12.5001C22.3996 12.6577 22.3961 12.8146 22.3891 12.9706C22.3742 13.3059 22.1739 13.605 21.8696 13.7465C21.5653 13.8881 21.2075 13.8486 20.9415 13.644C20.3343 13.1772 19.5756 12.9001 18.7496 12.9001C17.8414 12.9001 17.0138 13.2352 16.3801 13.7897C16.078 14.0542 15.6372 14.0865 15.2998 13.8689C14.5878 13.4099 13.7744 13.0951 12.8996 12.9659V19.2505C12.8996 20.9902 11.4893 22.4005 9.74957 22.4005C8.00988 22.4005 6.59957 20.9902 6.59957 19.2505C6.59957 18.7534 7.00252 18.3505 7.49957 18.3505C7.99663 18.3505 8.39957 18.7534 8.39957 19.2505C8.39957 19.9961 9.00399 20.6005 9.74957 20.6005C10.4952 20.6005 11.0996 19.9961 11.0996 19.2505V12.9659C10.2247 13.0951 9.41137 13.4099 8.69942 13.8689C8.36196 14.0864 7.92121 14.0542 7.61906 13.7897C6.98537 13.2352 6.15772 12.9001 5.24958 12.9001C4.42359 12.9001 3.66487 13.1772 3.05775 13.644C2.79169 13.8485 2.4339 13.8881 2.12959 13.7465C1.82529 13.605 1.62503 13.3058 1.61008 12.9706C1.60312 12.8145 1.59961 12.6577 1.59961 12.5001Z" fill="currentColor"/>
</svg>
