<svg width="24" height="24" viewBox="0 0 24 24" fill="none" xmlns="http://www.w3.org/2000/svg">
<path d="M11.9979 17.8286C8.09995 17.8286 5.51694 14.9638 5.51694 10.6901V4.03309C5.51694 3.46246 5.97953 2.99988 6.55015 2.99988C7.12077 2.99988 7.58335 3.46246 7.58335 4.03308V10.6901C7.58335 13.7897 9.34449 15.8561 11.9979 15.8561C14.6514 15.8561 16.4125 13.7897 16.4125 10.6901V4.03309C16.4125 3.46246 16.8751 2.99988 17.4457 2.99988C18.0164 2.99988 18.479 3.46246 18.479 4.03308V10.6901C18.479 14.9638 15.8959 17.8286 11.9979 17.8286Z" fill="currentColor"/>
<path d="M4.99961 20.0999C4.50255 20.0999 4.09961 20.5028 4.09961 20.9999C4.09961 21.4969 4.50255 21.8999 4.99961 21.8999H18.9995C19.4966 21.8999 19.8995 21.4969 19.8995 20.9999C19.8995 20.5028 19.4966 20.0999 18.9995 20.0999H4.99961Z" fill="currentColor"/>
</svg>
