<svg width="24" height="24" viewBox="0 0 24 24" fill="none" xmlns="http://www.w3.org/2000/svg">
<path d="M11.9994 2.59998C12.2569 2.59998 12.4891 2.70813 12.6532 2.8815L17.1357 7.36407C17.4872 7.71554 17.4872 8.28539 17.1357 8.63686C16.7843 8.98833 16.2144 8.98833 15.8629 8.63686L12.8994 5.67326V15C12.8994 15.497 12.4964 15.9 11.9994 15.9C11.5023 15.9 11.0994 15.497 11.0994 15V5.67326L8.13577 8.63686C7.7843 8.98833 7.21445 8.98833 6.86298 8.63686C6.51151 8.28539 6.51151 7.71554 6.86298 7.36407L11.3455 2.88151C11.5096 2.70814 11.7418 2.59998 11.9994 2.59998Z" fill="currentColor"/>
<path d="M21.1495 14.9001C21.1495 14.403 20.7466 14.0001 20.2496 14.0001C19.7525 14.0001 19.3496 14.403 19.3496 14.9001V17.4502C19.3496 18.2647 19.3385 18.4586 19.2957 18.5901C19.1869 18.925 18.9244 19.1875 18.5895 19.2963C18.458 19.3391 18.2641 19.3502 17.4496 19.3502H6.54962C5.73506 19.3502 5.54123 19.3391 5.40971 19.2963C5.07483 19.1875 4.81228 18.925 4.70347 18.5901C4.66073 18.4586 4.64963 18.2647 4.64963 17.4502V14.9001C4.64963 14.403 4.24668 14.0001 3.74962 14.0001C3.25256 14.0001 2.84961 14.403 2.84961 14.9001V17.0856C2.8496 17.6154 2.84959 18.0667 2.87985 18.4371C2.91165 18.8262 2.98128 19.2048 3.16569 19.5667C3.44373 20.1124 3.88737 20.5561 4.43304 20.8341C4.79497 21.0185 5.17356 21.0881 5.56272 21.1199C5.93313 21.1502 6.38429 21.1502 6.91412 21.1502H17.085C17.6148 21.1502 18.066 21.1502 18.4364 21.1199C18.8256 21.0881 19.2042 21.0185 19.5661 20.8341C20.1118 20.5561 20.5554 20.1124 20.8335 19.5667C21.0179 19.2048 21.0875 18.8262 21.1193 18.4371C21.1496 18.0666 21.1496 17.6155 21.1495 17.0857V14.9001Z" fill="currentColor"/>
</svg>
