<svg width="24" height="24" viewBox="0 0 24 24" fill="none" xmlns="http://www.w3.org/2000/svg">
<path fill-rule="evenodd" clip-rule="evenodd" d="M11.2398 3.86478C13.1815 2.06545 15.9385 1.63886 18.2115 2.63724L18.3101 2.68802C18.5299 2.81921 18.6859 3.03943 18.7339 3.29447C18.7817 3.54974 18.7166 3.81211 18.5591 4.0142L18.4859 4.0972L15.4829 7.10111L15.482 7.10013C15.4431 7.13919 15.444 7.20274 15.4829 7.24174L16.7681 8.52689C16.8075 8.56574 16.8701 8.56529 16.9087 8.52689L19.9097 5.52592L19.9927 5.45267C20.1952 5.29468 20.4576 5.22962 20.7134 5.27787C21.0056 5.33326 21.2526 5.52974 21.3716 5.80228C22.3629 8.07304 21.9326 10.8235 20.1372 12.7613L19.9585 12.9468C18.1717 14.7335 15.6171 15.2908 13.396 14.5767L7.68606 20.2876C6.65752 21.3161 5.02898 21.3804 3.92532 20.481L3.71146 20.2876C2.61435 19.1904 2.61447 17.4113 3.71146 16.314L9.42239 10.6021C8.71006 8.38166 9.26938 5.82837 11.0552 4.04252L11.2398 3.86478ZM16.106 3.93119C14.8896 3.81861 13.6147 4.19183 12.6021 5.06107L12.3277 5.31595C10.9035 6.74026 10.5658 8.80636 11.2925 10.4693L11.3384 10.5992C11.4195 10.9055 11.3339 11.2374 11.105 11.4663L4.98489 17.5865C4.59052 17.9809 4.59049 18.6208 4.98489 19.0152C5.37929 19.4091 6.01838 19.4091 6.41263 19.0152L12.5327 12.8951L12.6363 12.8062C12.8923 12.6182 13.2327 12.5775 13.5298 12.7076C15.193 13.4356 17.261 13.0993 18.6861 11.6744L18.94 11.3999C19.8063 10.3912 20.1796 9.12173 20.0718 7.9097L18.1822 9.80033C17.4403 10.542 16.2374 10.5406 15.4956 9.80033L14.2095 8.51517C13.4677 7.77322 13.4677 6.56964 14.2095 5.82767L16.106 3.93119Z" fill="currentColor"/>
</svg>
