<svg width="24" height="24" viewBox="0 0 24 24" fill="none" xmlns="http://www.w3.org/2000/svg">
<path d="M16.4959 2.31262C17.191 2.42184 17.3587 3.25899 16.8612 3.75653L14.7033 5.91445C14.2885 6.32958 14.289 7.00273 14.7039 7.41774L16.0698 8.78361C16.4849 9.19828 17.1581 9.19896 17.5731 8.78431L19.7269 6.63053C20.2251 6.13249 21.0621 6.30231 21.1694 6.99858C21.4458 8.7931 20.8732 10.7169 19.4617 12.1286C17.6612 13.9291 15.0272 14.3649 12.8913 13.415L6.41615 19.8902C5.63516 20.6711 4.36878 20.671 3.58773 19.8902C2.80669 19.1091 2.8067 17.8428 3.58773 17.0617L10.0642 10.5852C9.11553 8.4496 9.55018 5.8167 11.35 4.01686C12.7658 2.60128 14.6969 2.03003 16.4959 2.31262Z" fill="currentColor"/>
</svg>
