<svg width="24" height="24" viewBox="0 0 24 24" fill="none" xmlns="http://www.w3.org/2000/svg">
<path fill-rule="evenodd" clip-rule="evenodd" d="M10.025 2.42692C11.1107 1.32477 12.8885 1.32485 13.9742 2.42694L15.0871 3.55666C15.2716 3.7439 15.5241 3.84848 15.7869 3.84651L17.3727 3.83464C18.9198 3.82305 20.1768 5.08016 20.1653 6.62715L20.1534 8.21299C20.1515 8.47585 20.256 8.7283 20.4432 8.91267L21.573 10.0257C22.6751 11.1115 22.6751 12.8892 21.573 13.975L20.4432 15.0879C20.256 15.2724 20.1515 15.5248 20.1534 15.7876L20.1653 17.3735C20.1768 18.9205 18.9197 20.1775 17.3728 20.166L15.7869 20.1541C15.5241 20.1522 15.2716 20.2568 15.0872 20.444L13.9743 21.5737C12.8885 22.6758 11.1108 22.6759 10.025 21.5738L8.91199 20.444C8.72762 20.2568 8.47522 20.1522 8.21236 20.1541L6.62649 20.166C5.07951 20.1775 3.82235 18.9205 3.83394 17.3735L3.84581 15.7876C3.84777 15.5249 3.74326 15.2724 3.55602 15.0879L2.42626 13.975C1.32414 12.8893 1.32412 11.1115 2.42623 10.0257L3.55599 8.91271C3.74321 8.72828 3.84777 8.47587 3.84581 8.21307L3.83394 6.6272C3.82235 5.08014 5.07943 3.82305 6.62649 3.83464L8.21235 3.84651C8.47515 3.84848 8.72754 3.74393 8.91197 3.55671L10.025 2.42692ZM11.5686 7.45669C11.8392 7.31897 12.1595 7.31897 12.4302 7.45669C12.6474 7.56722 12.7721 7.77228 12.8553 7.93103C12.9431 8.09864 13.0364 8.32302 13.1454 8.58514L13.5497 9.55715C13.5859 9.64408 13.6054 9.69059 13.6218 9.72398C13.6267 9.73404 13.6301 9.74026 13.6321 9.74366C13.6351 9.74648 13.6385 9.74891 13.6421 9.7509C13.6459 9.75172 13.6529 9.75303 13.664 9.75461C13.7008 9.75987 13.7511 9.7641 13.8449 9.77162L14.8942 9.85575C15.1772 9.87842 15.4195 9.89784 15.606 9.92956C15.7827 9.95961 16.0163 10.0149 16.1885 10.1873C16.4031 10.4022 16.5021 10.7067 16.4548 11.0067C16.4168 11.2475 16.2603 11.4295 16.135 11.5576C16.0027 11.693 15.8182 11.8511 15.6025 12.0357L14.8031 12.7206C14.7316 12.7818 14.6934 12.8148 14.6667 12.8407C14.6586 12.8485 14.6538 12.8537 14.6512 12.8566C14.6494 12.8603 14.6481 12.8642 14.6473 12.8683C14.6476 12.8707 14.648 12.8743 14.6488 12.8794C14.6493 12.8825 14.6499 12.8861 14.6506 12.8903C14.657 12.9269 14.6685 12.976 14.6903 13.0676L14.9346 14.0915C15.0005 14.3677 15.0569 14.6041 15.0843 14.7913C15.1103 14.9687 15.13 15.2079 15.0192 15.425C14.8812 15.6955 14.6221 15.8837 14.3222 15.9314C14.0814 15.9697 13.86 15.8771 13.6994 15.7975C13.5298 15.7136 13.3224 15.5869 13.0802 15.4389L12.1818 14.8902C12.1015 14.8411 12.0583 14.815 12.0254 14.7976C12.0155 14.7923 12.0091 14.7893 12.0055 14.7877C12.0031 14.7874 12.0008 14.7873 11.9984 14.7873L11.9932 14.7877C11.9896 14.7893 11.9832 14.7923 11.9733 14.7976C11.9404 14.815 11.8973 14.8411 11.8169 14.8902L10.9186 15.4389C10.6763 15.5869 10.4689 15.7136 10.2993 15.7975C10.1387 15.8771 9.91727 15.9697 9.67656 15.9314C9.37662 15.8837 9.11756 15.6955 8.97952 15.425C8.86875 15.2079 8.88837 14.9687 8.91439 14.7913C8.94186 14.6041 8.99826 14.3677 9.06415 14.0916L9.3084 13.0676C9.33024 12.976 9.34175 12.9269 9.34813 12.8903C9.35006 12.8792 9.35096 12.8722 9.35137 12.8683C9.35059 12.8642 9.34931 12.8603 9.34756 12.8566C9.34493 12.8537 9.34007 12.8485 9.33202 12.8407C9.30533 12.8148 9.26714 12.7818 9.19564 12.7206L8.39616 12.0357C8.18056 11.8511 7.99597 11.693 7.8637 11.5576C7.73843 11.4295 7.58195 11.2475 7.54396 11.0067C7.49662 10.7067 7.59558 10.4022 7.81021 10.1873C7.98245 10.0149 8.21602 9.95961 8.3927 9.92956C8.57924 9.89784 8.82147 9.87843 9.10445 9.85575L10.1538 9.77162C10.2477 9.7641 10.2979 9.75987 10.3347 9.75461C10.3458 9.75303 10.3528 9.75172 10.3566 9.7509C10.3603 9.74891 10.3636 9.74648 10.3666 9.74366C10.3686 9.74026 10.372 9.73404 10.3769 9.72398C10.3933 9.69059 10.4129 9.64408 10.449 9.55715L10.8533 8.58518C10.9623 8.32304 11.0556 8.09865 11.1434 7.93103C11.2266 7.77228 11.3513 7.56722 11.5686 7.45669Z" fill="currentColor"/>
</svg>
