<svg width="24" height="24" viewBox="0 0 24 24" fill="none" xmlns="http://www.w3.org/2000/svg">
<path d="M15.8859 10.3862C16.2373 10.0347 16.2373 9.46486 15.8859 9.11338C15.5344 8.7619 14.9646 8.76188 14.6131 9.11334L10.7493 12.9769L9.38593 11.6134C9.03449 11.2619 8.46464 11.2619 8.11315 11.6133C7.76165 11.9648 7.76162 12.5346 8.11306 12.8861L10.1128 14.8861C10.2816 15.0549 10.5105 15.1497 10.7492 15.1498C10.9879 15.1498 11.2168 15.055 11.3856 14.8862L15.8859 10.3862Z" fill="currentColor"/>
<path fill-rule="evenodd" clip-rule="evenodd" d="M10.025 2.42692C11.1107 1.32477 12.8885 1.32485 13.9742 2.42694L15.0871 3.55672C15.2717 3.74396 15.5241 3.84848 15.7868 3.84651L17.3727 3.83464C18.9197 3.82305 20.1767 5.08022 20.1652 6.62721L20.1533 8.21308C20.1514 8.47594 20.256 8.72834 20.4432 8.91271L21.573 10.0257C22.675 11.1115 22.675 12.8893 21.5729 13.975L20.4431 15.0879C20.2559 15.2724 20.1514 15.5249 20.1533 15.7877L20.1652 17.3735C20.1767 18.9205 18.9196 20.1775 17.3727 20.166L15.7868 20.1541C15.524 20.1522 15.2716 20.2568 15.0871 20.444L13.9742 21.5738C12.8885 22.6759 11.1107 22.6759 10.025 21.5738L8.9119 20.444C8.72753 20.2568 8.47508 20.1522 8.21222 20.1541L6.62639 20.166C5.07941 20.1775 3.8223 18.9205 3.83389 17.3735L3.84576 15.7876C3.84773 15.5249 3.74315 15.2724 3.55591 15.0879L2.4262 13.975C1.32407 12.8892 1.32409 11.1115 2.4262 10.0257L3.55596 8.91269C3.74318 8.72826 3.84773 8.47587 3.84576 8.21307L3.83389 6.6272C3.8223 5.08014 5.07938 3.82305 6.62644 3.83464L8.21231 3.84651C8.4751 3.84848 8.72751 3.74391 8.91194 3.55669L10.025 2.42692ZM12.6919 3.69015C12.3112 3.30371 11.6878 3.30377 11.3073 3.69013L10.1942 4.81995C9.66817 5.3539 8.94834 5.65207 8.19883 5.64646L6.61296 5.63459C6.07053 5.63053 5.62977 6.07129 5.63383 6.61372L5.6457 8.1996C5.65131 8.94911 5.35313 9.66897 4.81918 10.195L3.68942 11.308C3.30299 11.6887 3.303 12.312 3.68942 12.6927L4.81923 13.8057C5.35314 14.3317 5.65131 15.0516 5.6457 15.8011L5.63383 17.387C5.62977 17.9293 6.07053 18.3701 6.61301 18.3661L8.19891 18.3542C8.94831 18.3486 9.66818 18.6468 10.1942 19.1808L11.3072 20.3105C11.6879 20.6969 12.3112 20.6969 12.6919 20.3105L13.8049 19.1807C14.331 18.6467 15.0509 18.3486 15.8003 18.3542L17.3862 18.3661C17.9285 18.3701 18.3693 17.9293 18.3653 17.3869L18.3534 15.801C18.3478 15.0516 18.646 14.3317 19.18 13.8056L20.3097 12.6927C20.6961 12.312 20.6961 11.6887 20.3097 11.308L19.1799 10.195C18.6459 9.66891 18.3478 8.94899 18.3534 8.19959L18.3653 6.61371C18.3693 6.07123 17.9285 5.63053 17.3862 5.63459L15.8003 5.64646C15.0508 5.65207 14.3309 5.35383 13.8048 4.81992L12.6919 3.69015Z" fill="currentColor"/>
</svg>
