<svg width="24" height="24" viewBox="0 0 24 24" fill="none" xmlns="http://www.w3.org/2000/svg">
<path fill-rule="evenodd" clip-rule="evenodd" d="M10.025 2.42692C11.1107 1.32477 12.8885 1.32485 13.9742 2.42694L15.0871 3.55666C15.2716 3.7439 15.5241 3.84848 15.7868 3.84651L17.3727 3.83464C18.9197 3.82305 20.1767 5.08016 20.1652 6.62715L20.1533 8.21299C20.1514 8.47585 20.256 8.7283 20.4431 8.91267L21.573 10.0257C22.675 11.1115 22.675 12.8892 21.5729 13.975L20.4432 15.0879C20.256 15.2724 20.1514 15.5248 20.1533 15.7876L20.1652 17.3735C20.1767 18.9205 18.9197 20.1775 17.3727 20.166L15.7869 20.1541C15.5241 20.1522 15.2716 20.2568 15.0871 20.444L13.9742 21.5737C12.8885 22.6758 11.1107 22.6759 10.025 21.5738L8.91194 20.444C8.72757 20.2568 8.47518 20.1522 8.21232 20.1541L6.62645 20.166C5.07946 20.1775 3.82231 18.9205 3.83389 17.3735L3.84576 15.7876C3.84773 15.5249 3.74321 15.2724 3.55598 15.0879L2.42621 13.975C1.32409 12.8893 1.32407 11.1115 2.42618 10.0257L3.55595 8.91271C3.74316 8.72828 3.84773 8.47587 3.84576 8.21307L3.83389 6.6272C3.82231 5.08014 5.07938 3.82305 6.62644 3.83464L8.21231 3.84651C8.4751 3.84848 8.72749 3.74393 8.91193 3.55671L10.025 2.42692ZM16.3859 10.1362C16.7374 9.78471 16.7374 9.21486 16.386 8.86338C16.0345 8.5119 15.4646 8.51188 15.1132 8.86334L10.7494 13.2269L8.886 11.3634C8.53455 11.0119 7.9647 11.0119 7.61321 11.3633C7.26172 11.7148 7.26169 12.2846 7.61314 12.6361L10.1129 15.1361C10.2817 15.3049 10.5106 15.3997 10.7493 15.3998C10.988 15.3998 11.2169 15.305 11.3857 15.1362L16.3859 10.1362Z" fill="currentColor"/>
</svg>
