<svg width="24" height="24" viewBox="0 0 24 24" fill="none" xmlns="http://www.w3.org/2000/svg">
<path d="M11.5685 7.4583C11.8392 7.32058 12.1594 7.32058 12.4301 7.4583C12.6473 7.56883 12.772 7.77389 12.8552 7.93264C12.943 8.10026 13.0363 8.32465 13.1454 8.58679L13.5496 9.55876C13.5858 9.64569 13.6053 9.69219 13.6217 9.72558C13.6267 9.73565 13.6301 9.74186 13.632 9.74527C13.635 9.74809 13.6384 9.75052 13.642 9.75251C13.6445 9.75304 13.6484 9.75379 13.6538 9.75469C13.6567 9.75516 13.6601 9.75568 13.6639 9.75622C13.7007 9.76148 13.751 9.76571 13.8448 9.77323L14.8942 9.85736C15.1771 9.88003 15.4194 9.89945 15.6059 9.93117C15.7826 9.96122 16.0162 10.0165 16.1884 10.1889C16.4031 10.4038 16.502 10.7083 16.4547 11.0083C16.4167 11.2491 16.2602 11.4311 16.1349 11.5593C16.0027 11.6946 15.8181 11.8527 15.6025 12.0374L14.803 12.7222C14.7315 12.7834 14.6933 12.8164 14.6666 12.8423C14.662 12.8468 14.6584 12.8504 14.6558 12.8532C14.6537 12.8553 14.6511 12.8582 14.6511 12.8582C14.6493 12.8619 14.648 12.8658 14.6473 12.8699C14.6477 12.8738 14.6486 12.8808 14.6505 12.8919C14.6569 12.9285 14.6684 12.9776 14.6902 13.0692L14.9345 14.0932C15.0004 14.3693 15.0568 14.6057 15.0842 14.7929C15.1103 14.9703 15.1299 15.2095 15.0191 15.4266C14.8811 15.6971 14.622 15.8853 14.3221 15.933C14.0814 15.9713 13.8599 15.8787 13.6993 15.7992C13.5298 15.7152 13.3224 15.5885 13.0801 15.4405L12.1817 14.8918C12.1014 14.8427 12.0582 14.8166 12.0253 14.7992C12.0154 14.7939 12.009 14.7909 12.0054 14.7893C12.0013 14.7888 11.9972 14.7888 11.9931 14.7893C11.9895 14.7909 11.9831 14.7939 11.9732 14.7992C11.9403 14.8166 11.8972 14.8427 11.8168 14.8918L10.9185 15.4405C10.6762 15.5885 10.4688 15.7152 10.2992 15.7992C10.1386 15.8787 9.91719 15.9713 9.67648 15.933C9.37654 15.8853 9.11748 15.6971 8.97944 15.4266C8.86866 15.2095 8.88829 14.9703 8.91431 14.7929C8.94178 14.6057 8.99818 14.3693 9.06406 14.0932L9.30831 13.0692C9.33016 12.9776 9.34167 12.9285 9.34805 12.8919C9.34997 12.8808 9.35087 12.8738 9.35129 12.8699C9.35051 12.8658 9.34923 12.8619 9.34748 12.8582C9.34485 12.8553 9.33999 12.8501 9.33194 12.8423C9.30524 12.8164 9.26706 12.7834 9.19556 12.7222L8.39608 12.0373C8.18048 11.8527 7.99588 11.6946 7.86362 11.5593C7.73834 11.4311 7.58186 11.2491 7.54387 11.0083C7.49654 10.7083 7.59549 10.4038 7.81012 10.1889C7.98236 10.0165 8.21593 9.96122 8.39261 9.93117C8.57916 9.89945 8.8214 9.88003 9.10439 9.85736L10.1537 9.77323C10.2476 9.76571 10.2978 9.76148 10.3347 9.75622C10.3458 9.75464 10.3527 9.75333 10.3566 9.75251C10.3602 9.75052 10.3635 9.74809 10.3665 9.74527C10.3685 9.74187 10.3719 9.73565 10.3768 9.72558C10.3932 9.69219 10.4128 9.64569 10.4489 9.55876L10.8532 8.58679C10.9622 8.32465 11.0555 8.10026 11.1433 7.93264C11.2265 7.77389 11.3513 7.56883 11.5685 7.4583Z" fill="currentColor"/>
<path fill-rule="evenodd" clip-rule="evenodd" d="M10.025 2.42692C11.1107 1.32477 12.8885 1.32485 13.9742 2.42694L15.0872 3.55672C15.2717 3.74396 15.5241 3.84848 15.7868 3.84651L17.3727 3.83464C18.9198 3.82305 20.1768 5.08022 20.1652 6.62721L20.1534 8.21308C20.1514 8.47594 20.256 8.72834 20.4432 8.91271L21.573 10.0257C22.6751 11.1115 22.6751 12.8893 21.573 13.975L20.4432 15.0879C20.256 15.2724 20.1514 15.5249 20.1534 15.7877L20.1652 17.3735C20.1768 18.9205 18.9197 20.1775 17.3727 20.166L15.7868 20.1541C15.524 20.1522 15.2716 20.2568 15.0871 20.444L13.9742 21.5738C12.8885 22.6759 11.1107 22.6759 10.025 21.5738L8.91192 20.444C8.72755 20.2568 8.47511 20.1522 8.21224 20.1541L6.62641 20.166C5.07942 20.1775 3.82232 18.9205 3.83391 17.3735L3.84578 15.7876C3.84774 15.5249 3.74316 15.2724 3.55593 15.0879L2.42621 13.975C1.32409 12.8892 1.3241 11.1115 2.42621 10.0257L3.55598 8.91269C3.7432 8.72826 3.84774 8.47587 3.84578 8.21307L3.83391 6.6272C3.82232 5.08014 5.0794 3.82305 6.62646 3.83464L8.21233 3.84651C8.47512 3.84848 8.72753 3.74391 8.91197 3.55669L10.025 2.42692ZM12.6919 3.69015C12.3112 3.30371 11.6879 3.30377 11.3073 3.69013L10.1942 4.81995C9.6682 5.3539 8.94836 5.65207 8.19885 5.64646L6.61298 5.63459C6.07055 5.63053 5.62979 6.07129 5.63385 6.61372L5.64572 8.1996C5.65133 8.94911 5.35315 9.66897 4.8192 10.195L3.68943 11.308C3.30301 11.6887 3.30302 12.312 3.68943 12.6927L4.81925 13.8057C5.35316 14.3317 5.65133 15.0516 5.64572 15.8011L5.63385 17.387C5.62979 17.9293 6.07055 18.3701 6.61303 18.3661L8.19893 18.3542C8.94833 18.3486 9.6682 18.6468 10.1943 19.1808L11.3073 20.3105C11.6879 20.6969 12.3113 20.6969 12.692 20.3105L13.8049 19.1807C14.331 18.6467 15.0509 18.3486 15.8003 18.3542L17.3862 18.3661C17.9286 18.3701 18.3693 17.9293 18.3653 17.3869L18.3534 15.801C18.3479 15.0516 18.646 14.3317 19.18 13.8056L20.3097 12.6927C20.6962 12.312 20.6962 11.6887 20.3097 11.308L19.18 10.195C18.6459 9.66891 18.3479 8.94899 18.3534 8.19959L18.3653 6.61371C18.3693 6.07123 17.9285 5.63053 17.3862 5.63459L15.8003 5.64646C15.0508 5.65207 14.3309 5.35383 13.8049 4.81992L12.6919 3.69015Z" fill="currentColor"/>
</svg>
