<svg width="24" height="24" viewBox="0 0 24 24" fill="none" xmlns="http://www.w3.org/2000/svg">
<path fill-rule="evenodd" clip-rule="evenodd" d="M6.01191 4.09961C5.20388 4.0996 4.54299 4.09959 4.00593 4.14347C3.45001 4.18889 2.94794 4.28577 2.47905 4.52469C1.74522 4.89859 1.14859 5.49522 0.774685 6.22905C0.535774 6.69794 0.438892 7.20001 0.393472 7.75593C0.349591 8.293 0.3496 8.95385 0.34961 9.76189V14.2373C0.3496 15.0454 0.349591 15.7062 0.393472 16.2433C0.438892 16.7992 0.535774 17.3013 0.774685 17.7702C1.14859 18.504 1.74522 19.1006 2.47905 19.4745C2.94794 19.7134 3.45001 19.8103 4.00593 19.8557C4.543 19.8996 5.20385 19.8996 6.01191 19.8996H11.4873C12.2954 19.8996 12.9562 19.8996 13.4933 19.8557C14.0492 19.8103 14.5513 19.7134 15.0202 19.4745C15.754 19.1006 16.3506 18.504 16.7245 17.7702C16.9634 17.3013 17.0603 16.7992 17.1057 16.2433C17.1231 16.0311 17.1336 15.7996 17.1399 15.5473L19.4844 17.7114C19.8825 18.0789 20.2256 18.3956 20.5152 18.6186C20.7928 18.8323 21.1786 19.09 21.6535 19.1141C22.2502 19.1443 22.8264 18.892 23.2089 18.433C23.5134 18.0678 23.5856 17.6095 23.6169 17.2606C23.6495 16.8965 23.6495 16.4297 23.6495 15.8878V8.11317C23.6495 7.57132 23.6495 7.10445 23.6169 6.74041C23.5856 6.39144 23.5134 5.93317 23.2089 5.56794C22.8264 5.10898 22.2502 4.85671 21.6535 4.8869C21.1786 4.91093 20.7928 5.16867 20.5152 5.38239C20.2256 5.60535 19.8825 5.92203 19.4844 6.28957L17.14 8.45368C17.1336 8.20072 17.1231 7.96862 17.1057 7.75593C17.0603 7.20001 16.9634 6.69794 16.7245 6.22905C16.3506 5.49522 15.754 4.89859 15.0202 4.52469C14.5513 4.28577 14.0492 4.18889 13.4933 4.14347C12.9562 4.09959 12.2954 4.0996 11.4874 4.09961H6.01191ZM17.1496 12.9144V11.0866C17.1499 11.0191 17.1505 10.9746 17.1522 10.9386C17.153 10.9228 17.1538 10.9129 17.1544 10.9074C17.1564 10.9012 17.159 10.8951 17.1622 10.8894C17.1659 10.8853 17.1727 10.878 17.1838 10.8667C17.2211 10.8287 17.2738 10.7798 17.3747 10.6867L20.6747 7.6405C21.1122 7.23666 21.3955 6.97633 21.6132 6.8087C21.6975 6.74385 21.7527 6.70869 21.7838 6.69056C21.7877 6.69198 21.7915 6.69364 21.7952 6.69553C21.803 6.73069 21.8146 6.79512 21.8241 6.90102C21.8486 7.17471 21.8495 7.55947 21.8495 8.15487V15.8461C21.8495 16.4415 21.8486 16.8263 21.8241 17.1C21.8146 17.2059 21.803 17.2703 21.7952 17.3055C21.7915 17.3073 21.7877 17.309 21.7838 17.3104C21.7527 17.2923 21.6975 17.2571 21.6132 17.1923C21.3955 17.0247 21.1122 16.7643 20.6747 16.3605L17.3747 13.3143C17.2738 13.2212 17.2211 13.1722 17.1838 13.1343C17.1727 13.123 17.1659 13.1157 17.1622 13.1116C17.159 13.1058 17.1564 13.0998 17.1544 13.0936C17.1538 13.0881 17.153 13.0782 17.1522 13.0623C17.1505 13.0264 17.1499 12.9819 17.1496 12.9144ZM15.3496 11.0165V9.79961C15.3496 8.94468 15.3489 8.35761 15.3117 7.90251C15.2754 7.45791 15.2088 7.21908 15.1207 7.04623C14.9194 6.65109 14.5981 6.32983 14.203 6.1285C14.0301 6.04043 13.7913 5.97382 13.3467 5.93749C12.8916 5.90031 12.3045 5.89961 11.4496 5.89961H6.04961C5.19468 5.89961 4.60761 5.90031 4.1525 5.93749C3.70791 5.97382 3.46908 6.04043 3.29623 6.1285C2.90109 6.32983 2.57983 6.65109 2.3785 7.04623C2.29043 7.21908 2.22382 7.45791 2.18749 7.90251C2.15031 8.35761 2.14961 8.94468 2.14961 9.79961V14.1996C2.14961 15.0545 2.15031 15.6416 2.18749 16.0967C2.22382 16.5413 2.29043 16.7801 2.3785 16.953C2.57983 17.3481 2.90109 17.6694 3.29623 17.8707C3.46908 17.9588 3.70791 18.0254 4.1525 18.0617C4.60761 18.0989 5.19468 18.0996 6.04961 18.0996H11.4496C12.3045 18.0996 12.8916 18.0989 13.3467 18.0617C13.7913 18.0254 14.0301 17.9588 14.203 17.8707C14.5981 17.6694 14.9194 17.3481 15.1207 16.953C15.2088 16.7801 15.2754 16.5413 15.3117 16.0967C15.3489 15.6416 15.3496 15.0545 15.3496 14.1996V12.9845C15.3492 12.9393 15.3493 12.8953 15.3494 12.853L15.3495 12.8V11.201L15.3494 11.148C15.3493 11.1057 15.3492 11.0617 15.3496 11.0165Z" fill="currentColor"/>
</svg>
