<svg width="24" height="24" viewBox="0 0 24 24" fill="none" xmlns="http://www.w3.org/2000/svg">
<path d="M10.3246 7.45649C10.6173 7.29988 10.9724 7.31704 11.2485 7.50116L14.2485 9.50116C14.4989 9.66808 14.6493 9.94908 14.6493 10.25C14.6493 10.5509 14.4989 10.8319 14.2485 10.9988L11.2485 12.9988C10.9724 13.183 10.6173 13.2001 10.3246 13.0435C10.032 12.8869 9.8493 12.5819 9.8493 12.25V8.25C9.8493 7.91809 10.032 7.61311 10.3246 7.45649Z" fill="currentColor"/>
<path fill-rule="evenodd" clip-rule="evenodd" d="M5.11628 3.09961H18.8829C19.2743 3.0996 19.6209 3.09958 19.908 3.12304C20.2138 3.14802 20.5307 3.20403 20.8391 3.3612C21.2907 3.5913 21.6579 3.95845 21.888 4.41004C22.0451 4.71849 22.1012 5.03534 22.1261 5.34113C22.1496 5.62827 22.1496 5.97475 22.1496 6.36624V14.133C22.1496 14.5244 22.1496 14.871 22.1261 15.1581C22.1012 15.4639 22.0451 15.7807 21.888 16.0892C21.6579 16.5408 21.2907 16.9079 20.8391 17.138C20.5307 17.2952 20.2138 17.3512 19.908 17.3762C19.6209 17.3996 19.2745 17.3996 18.883 17.3996L12.8996 17.3996V19.5993H16.9992C17.4963 19.5993 17.8992 20.0023 17.8992 20.4993C17.8992 20.9964 17.4963 21.3993 16.9992 21.3993H6.99925C6.50219 21.3993 6.09925 20.9964 6.09925 20.4993C6.09925 20.0023 6.50219 19.5993 6.99925 19.5993H11.0996V17.3996L5.11628 17.3996C4.72481 17.3996 4.37826 17.3996 4.09113 17.3762C3.78534 17.3512 3.46849 17.2952 3.16004 17.138C2.70845 16.9079 2.3413 16.5408 2.1112 16.0892C1.95403 15.7807 1.89802 15.4639 1.87304 15.1581C1.84958 14.871 1.8496 14.5246 1.84961 14.1331V6.36628C1.8496 5.97484 1.84958 5.62825 1.87304 5.34113C1.89802 5.03534 1.95403 4.71849 2.1112 4.41004C2.3413 3.95845 2.70845 3.5913 3.16004 3.3612C3.46849 3.20403 3.78534 3.14802 4.09113 3.12304C4.37824 3.09958 4.72485 3.0996 5.11628 3.09961ZM4.84947 4.89981C4.22103 4.89981 4.12026 4.91091 4.06406 4.92917C3.8814 4.98853 3.73818 5.13174 3.67883 5.3144C3.66057 5.3706 3.64947 5.47137 3.64947 6.09981V14.3998C3.64947 15.0282 3.66057 15.129 3.67883 15.1852C3.73818 15.3679 3.8814 15.5111 4.06406 15.5704C4.12026 15.5887 4.22103 15.5998 4.84947 15.5998H19.1494C19.7778 15.5998 19.8786 15.5887 19.9348 15.5704C20.1175 15.5111 20.2607 15.3679 20.32 15.1852C20.3383 15.129 20.3494 15.0282 20.3494 14.3998V6.09981C20.3494 5.47137 20.3383 5.3706 20.32 5.3144C20.2607 5.13174 20.1175 4.98853 19.9348 4.92917C19.8786 4.91091 19.7778 4.89981 19.1494 4.89981H4.84947Z" fill="currentColor"/>
</svg>
