<svg width="24" height="24" viewBox="0 0 24 24" fill="none" xmlns="http://www.w3.org/2000/svg">
<path d="M1.90039 15.5996C2.39731 15.5997 2.79981 16.0031 2.79981 16.5C2.79981 16.9626 2.71009 17.4988 2.85352 17.9404C2.96242 18.2747 3.22529 18.5376 3.55957 18.6465C3.69103 18.6891 3.88611 18.7002 4.69922 18.7002H19.2998C20.1118 18.7002 20.308 18.6889 20.4395 18.6465C20.7738 18.5378 21.0365 18.2747 21.1455 17.9404C21.289 17.4988 21.1992 16.9626 21.1992 16.5C21.1992 16.0028 21.6025 15.5998 22.0996 15.5996C22.5685 15.5996 23 15.8878 23 16.4004C23 16.945 23.0006 17.4087 22.9697 17.7871C22.9379 18.1758 22.8687 18.5554 22.6846 18.917C22.4065 19.4623 21.9624 19.9067 21.417 20.1846C21.0553 20.3688 20.676 20.4389 20.2871 20.4707C19.9086 20.5016 19.4452 20.501 18.9004 20.501H5.10059C4.55594 20.501 4.09229 20.5016 3.71387 20.4707C3.32513 20.4389 2.94556 20.3686 2.58399 20.1846C2.03874 19.9067 1.59443 19.4621 1.31641 18.917C1.13226 18.5555 1.0621 18.1758 1.03027 17.7871C0.99939 17.4088 1 16.945 1 16.4004C1 15.888 1.43165 15.5996 1.90039 15.5996ZM7.29102 6.72559C8.02127 6.72565 8.64221 6.86041 9.15234 7.12891C9.66762 7.39745 10.0597 7.78686 10.3281 8.29688C10.602 8.80173 10.7393 9.41169 10.7393 10.126V14.4561C10.7393 14.903 10.3766 15.2654 9.92969 15.2656C9.48258 15.2656 9.12012 14.9032 9.12012 14.4561V14.0088H9.05371C8.79655 14.4333 8.45914 14.7775 8.04004 15.04C7.55674 15.3408 7.00864 15.4912 6.39649 15.4912C5.87028 15.4912 5.38906 15.3754 4.9541 15.1445C4.51946 14.9083 4.1786 14.589 3.93164 14.1865C3.68457 13.7837 3.56055 13.3398 3.56055 12.8564C3.56063 12.3518 3.6954 11.9037 3.96387 11.5117C4.23774 11.1144 4.63206 10.7944 5.14746 10.5527C5.66837 10.3111 6.28924 10.1763 7.00879 10.1494L9.11719 10.0322C9.10455 9.42016 8.95634 8.96214 8.66895 8.65918C8.36825 8.337 7.90844 8.17587 7.29102 8.17578C6.82924 8.17578 6.44234 8.26768 6.13086 8.4502C6.00821 8.51998 5.89293 8.60577 5.78613 8.70801C5.48639 8.99497 5.05695 9.16547 4.67774 8.99707C4.25688 8.81002 4.0748 8.29699 4.37207 7.94531C4.62629 7.64478 4.92021 7.39911 5.25293 7.20898C5.82213 6.88696 6.50177 6.72559 7.29102 6.72559ZM12.9834 3.59961C13.4303 3.59981 13.793 3.96219 13.793 4.40918V8.20801H13.8594C14.0919 7.7995 14.3834 7.47387 14.7363 7.2334C15.2249 6.89531 15.8129 6.72563 16.5 6.72559C17.2571 6.72565 17.9342 6.91664 18.5303 7.29785C19.1317 7.67919 19.5997 8.20322 19.9326 8.86914C20.2708 9.53498 20.4404 10.2815 20.4404 11.1084C20.4404 11.9246 20.2708 12.6686 19.9326 13.3398C19.5997 14.0111 19.1317 14.5376 18.5303 14.9189C17.9342 15.3002 17.2572 15.4911 16.5 15.4912C15.8128 15.4912 15.225 15.3216 14.7363 14.9834C14.3841 14.7396 14.0926 14.4144 13.8604 14.0088H13.793V14.4561C13.793 14.903 13.4303 15.2654 12.9834 15.2656C12.5363 15.2656 12.1738 14.9032 12.1738 14.4561V4.40918C12.1738 3.96207 12.5363 3.59961 12.9834 3.59961ZM7.04883 11.3828C6.45833 11.4151 6.00676 11.5597 5.69531 11.8174C5.38928 12.0751 5.23638 12.4083 5.23633 12.8164C5.23633 13.2139 5.38184 13.5229 5.67188 13.7432C5.96188 13.9631 6.37041 14.0732 6.89649 14.0732C7.35267 14.0732 7.74727 13.9896 8.08008 13.8232C8.41295 13.6514 8.66851 13.4125 8.8457 13.1064C9.00537 12.834 9.09525 12.5224 9.11524 12.1719L9.12012 12.0186V11.2432L7.04883 11.3828ZM16.2588 8.24023C15.781 8.24023 15.3485 8.36445 14.9619 8.61133C14.5753 8.85299 14.271 9.19102 14.0508 9.62598C13.836 10.0556 13.7285 10.5499 13.7285 11.1084C13.7285 11.6668 13.8361 12.1637 14.0508 12.5986C14.271 13.0283 14.5752 13.3672 14.9619 13.6143C15.3485 13.8557 15.781 13.9766 16.2588 13.9766C16.7527 13.9765 17.1935 13.8559 17.5801 13.6143C17.9666 13.3672 18.2652 13.0257 18.4746 12.5908C18.6893 12.1505 18.7969 11.656 18.7969 11.1084C18.7969 10.55 18.6894 10.0556 18.4746 9.62598C18.2652 9.19112 17.9665 8.853 17.5801 8.61133C17.1935 8.36436 16.7527 8.24033 16.2588 8.24023Z" fill="currentColor"/>
</svg>
