<svg width="24" height="24" viewBox="0 0 24 24" fill="none" xmlns="http://www.w3.org/2000/svg">
<path d="M16.3496 1.20319C16.8555 1.16526 17.3071 1.57321 17.3174 2.08308C17.3193 2.18029 17.3054 2.27952 17.2744 2.37605L15.1572 8.95026L20.4443 8.95612C22.0778 9.0836 22.8095 11.1417 21.5488 12.2676L9.78027 22.7725C9.59075 22.9413 9.34503 23.0179 9.10449 22.9971C8.76843 22.9682 8.44592 22.7184 8.33301 22.4014C8.26852 22.22 8.26221 22.0174 8.32422 21.8243L10.4424 15.251H5.31543C3.57182 15.2506 2.74988 13.0955 4.0498 11.9337L15.8184 1.42878C15.9699 1.29364 16.1575 1.21757 16.3496 1.20319Z" fill="currentColor"/>
<path d="M5.59961 6.20026C6.09661 6.20033 6.5 6.60364 6.5 7.10066C6.49979 7.59749 6.09648 8.00098 5.59961 8.00105H3.09961C2.60268 8.00105 2.19943 7.59753 2.19922 7.10066C2.19922 6.6036 2.60255 6.20026 3.09961 6.20026H5.59961Z" fill="currentColor"/>
<path d="M7.59961 2.94929C8.0965 2.94935 8.49982 3.35282 8.5 3.84968C8.5 4.34669 8.09661 4.75 7.59961 4.75007H3.09961C2.60255 4.75007 2.19922 4.34673 2.19922 3.84968C2.1994 3.35278 2.60267 2.94929 3.09961 2.94929H7.59961Z" fill="currentColor"/>
</svg>
