<svg width="24" height="24" viewBox="0 0 24 24" fill="none" xmlns="http://www.w3.org/2000/svg">
<path fill-rule="evenodd" clip-rule="evenodd" d="M17.2939 1.90397C17.3292 2.05737 17.3257 2.22305 17.2764 2.37662L15.1592 8.95084H20.2852C20.4479 8.95093 20.6043 8.97042 20.75 9.00553C20.9448 9.05263 21.1249 9.12828 21.2852 9.22721C21.5652 9.40037 21.7898 9.64442 21.9443 9.92447C22.1421 10.2836 22.2272 10.7102 22.1709 11.1217C22.133 11.3974 22.0324 11.6703 21.8613 11.9176C21.7758 12.0413 21.6726 12.1594 21.5508 12.2682L9.78223 22.7731C9.4796 23.0424 9.03137 23.0756 8.69141 22.8551C8.35152 22.6337 8.20121 22.2111 8.3252 21.8249L10.4434 15.2516C8.73437 15.2516 7.02538 15.2516 5.31641 15.2516C3.57213 15.2512 2.75062 13.0964 4.05078 11.9342L15.8193 1.42936C15.9286 1.33194 16.0581 1.26814 16.1924 1.23307C16.6736 1.10752 17.1819 1.41307 17.2939 1.90397ZM5.73926 12.8424C5.50061 13.0565 5.65102 13.4522 5.97168 13.4528H11.6787C11.9661 13.4531 12.237 13.5907 12.4062 13.8229C12.575 14.0553 12.6232 14.3562 12.5352 14.6296L11.0547 19.2243L19.8613 11.3639C20.1009 11.1501 19.9498 10.7543 19.6289 10.7536H13.9229C13.6359 10.7534 13.3646 10.6151 13.1953 10.3835C13.0263 10.1515 12.979 9.85113 13.0664 9.57779L14.5459 4.98014L5.73926 12.8424Z" fill="currentColor"/>
<path d="M5.59961 6.19986C6.09659 6.19993 6.49997 6.60326 6.5 7.10026C6.5 7.59727 6.09661 8.00058 5.59961 8.00065H3.09961C2.60255 8.00065 2.19922 7.59731 2.19922 7.10026C2.19925 6.60322 2.60257 6.19986 3.09961 6.19986H5.59961Z" fill="currentColor"/>
<path d="M7.59961 2.94986C8.09661 2.94993 8.5 3.35324 8.5 3.85026C8.4999 4.34718 8.09655 4.75058 7.59961 4.75065H3.09961C2.60262 4.75065 2.19932 4.34722 2.19922 3.85026C2.19922 3.3532 2.60255 2.94986 3.09961 2.94986H7.59961Z" fill="currentColor"/>
<path d="M17.2939 1.90397C17.2736 1.81499 17.3136 1.98723 17.2939 1.90397V1.90397Z" fill="currentColor"/>
<path d="M16.1924 1.23307C16.0734 1.27142 16.0963 1.25825 16.1924 1.23307V1.23307Z" fill="currentColor"/>
</svg>
